<?xml version="1.0" encoding="UTF-8"?>
<svg xmlns="http://www.w3.org/2000/svg" width="400" height="400" viewBox="0 0 400 400" fill="none">
  <g clip-path="url(#clip0_207_33)">
    <rect width="400" height="400" fill="#F5F5F5"></rect>
    <path fill-rule="evenodd" clip-rule="evenodd" d="M343.825 24.2605C342.854 28.5776 339.685 37.8263 336.782 44.8147C324.484 74.4066 315.069 81.9915 293.238 79.8942C287.367 79.3306 281.545 79.5788 279.177 80.4936C274.021 82.4878 252.057 103.253 253.623 104.653C256.651 107.36 270.475 110.588 279.045 110.588C294.393 110.588 306.769 103.577 313.153 91.27C316.209 85.3803 325.699 72.7787 323.934 76.9538C323.587 77.776 318.856 87.6076 313.421 98.801C302.771 120.738 301.947 121.581 287.381 125.447C282.103 126.847 279.087 126.613 268.908 124.016C251.284 119.518 239.199 118.647 233.779 121.482C224.302 126.441 216.958 134.329 214.333 142.373C212.928 146.678 211.231 150.896 210.564 151.747C209.897 152.597 208.696 157.306 207.896 162.211C207.096 167.115 205.712 173.023 204.821 175.337C202.42 181.569 202.746 182.439 206.898 180.861C208.933 180.088 214.993 179.866 220.367 180.367L230.137 181.279L224.637 191.153C221.611 196.583 215.214 207.648 210.419 215.741C205.624 223.836 202.087 231.08 202.558 231.841C203.355 233.132 243.347 232.379 252.919 230.892C256.435 230.346 256.815 230.622 255.587 232.832C252.937 237.6 240.292 263.775 238.892 267.396C237.724 270.415 237.842 270.702 239.64 269.209C240.816 268.236 246.048 259.054 251.268 248.807C259.186 233.261 261.317 230.175 264.135 230.175C265.994 230.175 267.514 230.619 267.514 231.162C267.514 231.705 264.148 238.388 260.035 246.013C255.092 255.177 252.6 261.558 252.683 264.833L252.81 269.789L255.752 263.062C257.372 259.362 260.035 253.981 261.673 251.103C263.311 248.226 266.416 242.4 268.573 238.156C271.67 232.062 273.383 230.312 276.733 229.821C279.066 229.479 280.975 229.652 280.975 230.205C280.975 230.76 282.152 232.611 283.592 234.321C285.033 236.029 287.284 239.37 288.597 241.744C291.67 247.3 298.682 250.553 313.735 253.407C326.237 255.778 344.261 263.777 349.073 269.091C350.537 270.708 352.977 272.031 354.495 272.031C357.673 272.031 357.706 271.918 355.917 267.216C355.183 265.283 354.206 255.243 353.747 244.903C353.289 234.564 352.114 222.924 351.134 219.037C349.039 210.722 342.239 203.437 332.018 198.56C328.211 196.743 322.985 193.674 320.404 191.739C315.214 187.849 307.893 186.371 302.921 188.208C300.221 189.206 299.146 188.514 296.446 184.045C293.429 179.049 293.365 178.381 295.505 174.246C298.126 169.18 305.456 149.666 309.31 137.495C311.967 129.105 319.509 110.731 323.88 102.001C325.857 98.0491 326.704 97.4796 328.448 98.9266C329.937 100.163 330.347 102.546 329.798 106.766C325.948 136.359 325.586 135.502 352.378 160.172C358.334 165.656 363.595 169.518 364.069 168.752C365.985 165.653 366.587 140.485 364.911 133.523C361.403 118.946 359.158 115.793 346.101 107.109C337.891 101.647 333.192 97.4347 331.939 94.4136C330.198 90.2116 330.51 89.1308 336.333 79.1647C339.78 73.2646 343.095 69.0087 343.698 69.7068C344.302 70.4034 345.986 74.2078 347.441 78.1587C351.45 89.0397 369.286 104.608 377.744 104.608C378.987 104.608 383.179 106.203 387.062 108.151L394.121 111.696L389.399 95.8158C386.801 87.0814 383.879 78.4442 382.904 76.622C380.022 71.239 369.187 65.8501 359.139 64.7992C345.262 63.3507 345.225 63.2655 352.308 49.0107C360.965 31.5883 365.38 21.0451 364.42 20.0869C363.313 18.9807 351.255 39.7636 344.436 54.5312C341.399 61.1085 337.657 69.2255 336.119 72.568C334.581 75.9104 333.324 79.093 333.324 79.6386C333.324 80.1857 330.924 84.3817 327.993 88.9619C323.027 96.7202 311.078 123.04 308.675 131.516C308.091 133.571 304.698 142.652 301.132 151.696C297.566 160.74 294.182 170.029 293.61 172.34C292.91 175.167 291.866 176.268 290.414 175.712C288.776 175.084 288.497 175.691 289.249 178.239C290.978 184.091 297.195 192.541 307.963 203.675C313.709 209.618 318.809 215.994 319.299 217.843C319.788 219.694 320.724 221.206 321.381 221.206C323.798 221.206 333.327 236.294 333.418 240.269C333.509 244.218 333.566 244.246 334.866 241.013C336.47 237.025 336.082 237.08 342.76 239.87C349.244 242.577 349.613 243.139 350.468 251.589C350.844 255.293 351.613 260.162 352.177 262.41C353.554 267.896 350.443 265.995 347.552 259.584L345.413 254.84L346.348 259.3L347.284 263.757L343.669 261.153C338.56 257.471 334.426 255.867 319.115 251.631C311.711 249.583 303.081 246.821 299.936 245.492C294.686 243.275 288.453 237.364 288.453 234.605C288.453 233.972 293.332 231.927 299.297 230.059L310.141 226.661L302.662 224.825C298.549 223.815 293.709 222.924 291.907 222.845C286.789 222.621 286.609 220.652 290.658 209.068C292.737 203.125 294.421 196.53 294.403 194.413C294.37 190.674 289.339 182.399 287.985 183.858C287.614 184.257 284.591 192.005 281.268 201.075C273.523 222.214 270.703 227.165 266.392 227.177C264.54 227.181 263.027 226.942 263.027 226.643C263.027 226.346 267.69 216.311 273.39 204.345C279.09 192.377 287.171 173.047 291.349 161.387C300.348 136.271 306.949 120.727 323.096 86.624C327.196 77.9658 330.385 70.23 330.183 69.4333C329.981 68.6365 332.333 62.6033 335.41 56.026C340.229 45.725 348.28 21.7731 348.28 17.74C348.28 17.0105 347.675 16.4126 346.934 16.4126C346.194 16.4126 344.794 19.9434 343.825 24.2605ZM348.442 74.2855C350.872 79.0421 354.113 84.1859 355.642 85.7166C358.351 88.4298 358.402 88.3162 357.655 81.2321C356.795 73.0642 357.015 73.3976 349.516 68.919L344.021 65.6394L348.442 74.2855ZM355.385 70.8982C357.69 72.6023 358.75 74.9373 358.75 78.3097C358.75 86.3534 361.646 92.3478 367.187 95.7695C370.036 97.5304 372.642 98.6979 372.975 98.363C373.309 98.0297 372.679 93.874 371.574 89.1264L369.567 80.4966L373.132 83.8436C377.241 87.7003 377.534 88.3924 374.588 87.2623C372.902 86.615 372.705 87.4611 373.605 91.4553C375.439 99.5813 377.667 102.453 384.09 104.975C390.601 107.531 390.879 107.443 388.804 103.466C388.059 102.039 386.248 96.5946 384.779 91.3671C381.314 79.0302 377.911 74.7116 371.653 74.7116C368.998 74.7116 366.077 75.4605 365.162 76.3753C364.247 77.2902 362.755 77.5802 361.848 77.0196C358.904 75.2004 361.782 73.2167 367.364 73.2167C375.826 73.2167 371.278 70.4812 360.974 69.3735C352.371 68.4497 352.151 68.5095 355.385 70.8982ZM313.132 80.105C310.582 81.4608 302.339 83.002 294.032 83.6747C274.515 85.2577 269.789 88.787 281.349 93.146C286.406 95.0519 289.075 95.2298 294.406 94.0115C300.73 92.566 303.93 90.6003 314.628 81.5894C319.844 77.1945 319.412 76.7655 313.132 80.105ZM305.864 90.4986C301.866 93.3269 297.828 95.6484 296.89 95.6573C295.951 95.6678 293.7 97.9669 291.886 100.767L288.588 105.857L293.371 104.484C296.003 103.731 298.382 103.114 298.657 103.114C299.689 103.114 311.007 90.7378 312.465 88.0127C314.385 84.4281 314.518 84.3772 305.864 90.4986ZM263.287 97.3555C254.62 103.918 253.762 106.879 262.007 101.788C264.822 100.048 270.409 98.3062 274.424 97.9176L281.723 97.209L275.48 98.5693C272.047 99.3167 266.999 101.105 264.262 102.541L259.288 105.154L265.27 106.486C275.169 108.689 284.92 106.884 289.167 102.061C293.959 96.617 293.86 96.0221 288.287 96.8398C285.728 97.215 283.205 96.916 282.678 96.1761C281.648 94.7246 274.029 91.0996 272.304 91.2401C271.726 91.2879 267.668 94.0399 263.287 97.3555ZM331.924 109.999C329.955 118.787 330.708 128.463 333.793 134.075C334.794 135.894 341.659 143.929 349.051 151.931C362.461 166.449 362.491 166.47 363.433 162.078C365.403 152.905 364.824 150.641 359.124 145.229C353.391 139.785 355.279 139.974 361.367 145.452C365.273 148.965 365.25 149.053 363.053 138.689C360.02 124.388 357.432 120.793 340.187 106.911C337.163 104.477 334.49 102.287 334.246 102.043C334.003 101.8 332.957 105.38 331.924 109.999ZM337.857 111.335C337.857 112.157 338.509 113.839 339.306 115.072C340.103 116.306 340.756 116.642 340.756 115.82C340.756 114.998 340.103 113.316 339.306 112.083C338.509 110.849 337.857 110.513 337.857 111.335ZM340.02 124.502C339.429 128.435 339.363 132.072 339.875 132.582C340.385 133.091 340.802 131.755 340.802 129.611C340.802 127.466 341.475 125.297 342.298 124.789C343.12 124.281 343.793 124.69 343.793 125.698C343.793 126.705 344.182 127.14 344.658 126.665C345.133 126.19 344.526 123.899 343.307 121.575L341.092 117.349L340.02 124.502ZM296.157 125.131C287.212 130.332 273.567 129.925 253.456 123.855C241.653 120.294 230.702 124.26 223.089 134.855C218.138 141.745 210.373 159.782 208.436 168.887L207.323 174.119L216.999 165.15C226.68 156.175 236.887 149.219 243.209 147.289C245.061 146.724 246.574 145.759 246.574 145.143C246.574 144.137 232.732 137.239 227.13 135.456C225.808 135.035 226.302 134.692 228.333 134.623C230.228 134.559 235.408 136.523 239.844 138.99C249.624 144.428 250.817 144.473 259.718 139.737C263.582 137.682 267.838 136 269.177 136C274.886 136 303.782 125.166 304.599 122.719C305.401 120.316 303.513 120.856 296.157 125.131ZM294.493 134.71C292.791 137.476 290.46 142.847 289.315 146.647C286.268 156.755 283.046 162.308 278.38 165.5C271.639 170.11 256.532 176.243 244.86 179.11C234.326 181.698 233.806 182.041 229.583 189.166C222.871 200.492 209.851 223.057 207.896 226.754L206.149 230.059L228.979 229.276C258.591 228.259 258.125 228.38 261.431 220.786C262.94 217.317 267.186 208.089 270.867 200.279C281.269 178.209 299.473 131.567 298.186 130.281C297.858 129.952 296.195 131.946 294.493 134.71ZM282.471 134.505C277.946 136.041 272.898 137.349 271.253 137.413C269.608 137.476 262.541 140.204 255.548 143.474C248.556 146.745 242.162 149.451 241.339 149.487C236.425 149.703 228.855 161.29 228.453 169.213C228.331 171.607 228.08 171.869 227.611 170.092C227.244 168.7 227.605 165.168 228.412 162.244C230.527 154.586 228.361 155.406 216.87 166.618L206.939 176.307L220.614 176.334C231.881 176.357 234.453 175.932 235.222 173.929C235.756 172.539 235.168 170.775 233.851 169.811C236.104 174.866 245.524 178.943 246.574 174.866C246.574 176.361 242.834 177.709 262.708 169.265C276.292 163.495 284.517 155.867 286.274 147.41C286.809 144.835 288.528 140.503 290.094 137.784C294.393 130.318 294.575 130.398 282.471 134.505ZM264.778 146.464C264.615 150.164 264.108 154.873 263.652 156.928C262.941 160.124 263.064 160.285 264.497 158.043C265.42 156.601 265.927 151.892 265.625 147.579L265.076 139.737L264.778 146.464ZM237.6 174.866C237.6 175.688 238.65 176.361 239.932 176.361C241.214 176.361 241.848 175.688 241.339 174.866C240.831 174.044 239.782 173.371 239.008 173.371C238.233 173.371 237.6 174.044 237.6 174.866ZM287.535 193.831C287.041 195.322 285.652 198.763 284.446 201.479C283.241 204.195 281.026 209.913 279.526 214.185C278.024 218.457 276.317 223.13 275.734 224.57C274.922 226.57 275.415 227.186 277.823 227.186C279.977 227.186 280.975 226.24 280.975 224.196C280.975 222.552 281.817 221.205 282.844 221.202C284.479 221.197 288.529 209.139 290.944 197.092C291.848 192.576 288.888 189.743 287.535 193.831ZM300.591 192.459C300.908 193.345 304.064 197.148 307.605 200.911C311.979 205.557 315.265 207.753 317.849 207.753C323.301 207.753 330.717 211.629 335.727 217.097L340.054 221.819L334.279 216.928C328.123 211.714 322.975 209.248 318.25 209.248C313.923 209.248 332.423 234.241 338.689 236.859C349.81 241.506 349.776 241.515 349.776 234.07C349.776 224.833 344.813 212.303 338.935 206.694C336.261 204.143 329.36 199.938 323.602 197.352C312.507 192.368 299.577 189.619 300.591 192.459ZM337.811 242.134C338.692 243.779 339.747 245.124 340.159 245.124C340.57 245.124 340.187 243.779 339.306 242.134C338.425 240.49 337.369 239.145 336.958 239.145C336.547 239.145 336.93 240.49 337.811 242.134ZM334.937 247.49C335.009 249.232 335.364 249.586 335.841 248.395C336.273 247.315 336.219 246.025 335.723 245.529C335.226 245.033 334.873 245.915 334.937 247.49ZM341.87 249.629C342.304 251.289 343.188 252.972 343.834 253.371C344.481 253.77 344.655 252.74 344.221 251.082C343.787 249.423 342.903 247.74 342.257 247.341C341.61 246.942 341.436 247.972 341.87 249.629ZM336.433 253.47C336.505 255.211 336.859 255.565 337.336 254.374C337.769 253.295 337.715 252.005 337.218 251.508C336.722 251.012 336.369 251.894 336.433 253.47Z" fill="#005D04"></path>
    <path d="M225.699 181.593L255.612 179.351L260.847 221.954L256.36 231.67L253.369 232.418L243.647 240.639L215.977 248.861L197.281 237.65L209.994 192.804L225.699 181.593Z" fill="#F5F5F5"></path>
    <path d="M221.212 174.118L232.429 167.392L250.378 164.402C251.873 166.146 254.416 171.278 249.63 174.866C244.844 178.453 224.951 175.613 221.212 174.118Z" fill="white"></path>
    <path d="M257.108 239.892L266.83 218.217L272.813 221.206L262.343 241.387L257.108 239.892Z" fill="#F5F5F5"></path>
    <path d="M288.517 236.155C286.274 215.227 289.016 213.732 291.509 215.227V214.479L304.97 215.227L319.179 222.701L313.196 236.155C304.97 236.404 293.004 238.397 288.517 236.155Z" fill="#F5F5F5"></path>
    <path d="M12.88 320.66H21V332.6H22.52V336.8H21.12V334H11.68V336.8H10.28V332.6C10.7333 332.613 11.1467 332.453 11.52 332.12C11.8933 331.773 12.1867 331.333 12.4 330.8C12.72 329.987 12.88 328.82 12.88 327.3V320.66ZM14.36 322.06V327.3C14.36 328.94 14.2 330.18 13.88 331.02C13.6533 331.62 13.3133 332.147 12.86 332.6H19.52V322.06H14.36ZM30.433 325.7V334H28.993V327.02H26.033V330.76C26.033 331.84 25.8196 332.64 25.393 333.16C24.913 333.747 24.2463 334.04 23.393 334.04C23.2863 334.04 23.1396 334.027 22.953 334V332.68C23.0863 332.707 23.193 332.72 23.273 332.72C23.7396 332.72 24.0863 332.54 24.313 332.18C24.4996 331.887 24.593 331.413 24.593 330.76V325.7H30.433ZM32.1969 334L34.7769 330.58C34.6969 330.58 34.5835 330.567 34.4369 330.54C34.3035 330.513 34.1035 330.447 33.8369 330.34C33.5702 330.233 33.3502 330.093 33.1769 329.92C32.7369 329.507 32.5169 328.953 32.5169 328.26C32.5169 327.473 32.7635 326.853 33.2569 326.4C33.7502 325.933 34.5635 325.7 35.6969 325.7H38.5969V334H37.1569V330.66H36.2769L33.9169 334H32.1969ZM37.1569 329.46V326.98H35.8169C35.1902 326.98 34.7569 327.053 34.5169 327.2C34.1702 327.427 33.9969 327.767 33.9969 328.22C33.9969 328.673 34.1702 329.007 34.5169 329.22C34.7702 329.38 35.1969 329.46 35.7969 329.46H37.1569ZM45.0289 334L47.6089 330.58C47.5289 330.58 47.4156 330.567 47.2689 330.54C47.1356 330.513 46.9356 330.447 46.6689 330.34C46.4022 330.233 46.1822 330.093 46.0089 329.92C45.5689 329.507 45.3489 328.953 45.3489 328.26C45.3489 327.473 45.5956 326.853 46.0889 326.4C46.5822 325.933 47.3956 325.7 48.5289 325.7H51.4289V334H49.9889V330.66H49.1089L46.7489 334H45.0289ZM49.9889 329.46V326.98H48.6489C48.0222 326.98 47.5889 327.053 47.3489 327.2C47.0022 327.427 46.8289 327.767 46.8289 328.22C46.8289 328.673 47.0022 329.007 47.3489 329.22C47.6022 329.38 48.0289 329.46 48.6289 329.46H49.9889ZM60.553 320H62.153C62.0063 320.493 61.753 320.913 61.393 321.26C61.0463 321.593 60.7263 321.82 60.433 321.94C60.153 322.06 59.8196 322.167 59.433 322.26C59.3663 322.273 59.2063 322.313 58.953 322.38C58.6996 322.433 58.5063 322.48 58.373 322.52C58.2396 322.56 58.0663 322.613 57.853 322.68C57.6396 322.747 57.4463 322.827 57.273 322.92C57.0996 323.013 56.9396 323.113 56.793 323.22C56.2863 323.607 55.873 324.147 55.553 324.84C55.2463 325.52 55.0796 326.247 55.053 327.02H55.093C55.693 326.007 56.6996 325.5 58.113 325.5C59.353 325.5 60.3796 325.92 61.193 326.76C62.0196 327.6 62.433 328.64 62.433 329.88C62.433 331.133 62.013 332.173 61.173 333C60.333 333.827 59.2396 334.24 57.893 334.24C56.733 334.24 55.7796 333.893 55.033 333.2C54.0996 332.347 53.633 330.92 53.633 328.92C53.633 325.44 54.4196 323.16 55.993 322.08C56.113 322 56.2396 321.927 56.373 321.86C56.5063 321.78 56.6463 321.713 56.793 321.66C56.953 321.593 57.0863 321.54 57.193 321.5C57.2996 321.447 57.4463 321.4 57.633 321.36C57.833 321.307 57.9663 321.273 58.033 321.26C58.113 321.233 58.2596 321.2 58.473 321.16C58.6996 321.107 58.8396 321.073 58.893 321.06C59.4263 320.94 59.813 320.8 60.053 320.64C60.293 320.467 60.4596 320.253 60.553 320ZM60.093 327.6C59.533 327.053 58.8463 326.78 58.033 326.78C57.2196 326.78 56.5263 327.06 55.953 327.62C55.393 328.167 55.113 328.92 55.113 329.88C55.113 330.84 55.3996 331.593 55.973 332.14C56.5463 332.687 57.233 332.96 58.033 332.96C58.833 332.96 59.5196 332.687 60.093 332.14C60.6663 331.593 60.953 330.84 60.953 329.88C60.953 328.907 60.6663 328.147 60.093 327.6ZM70.9213 325.7V334H69.4813V327.02H66.5213V330.76C66.5213 331.84 66.3079 332.64 65.8813 333.16C65.4013 333.747 64.7346 334.04 63.8813 334.04C63.7746 334.04 63.6279 334.027 63.4413 334V332.68C63.5746 332.707 63.6813 332.72 63.7613 332.72C64.2279 332.72 64.5746 332.54 64.8013 332.18C64.9879 331.887 65.0813 331.413 65.0813 330.76V325.7H70.9213ZM80.6652 333C79.8385 333.827 78.7918 334.24 77.5252 334.24C76.2585 334.24 75.2052 333.827 74.3652 333C73.5385 332.173 73.1252 331.133 73.1252 329.88C73.1252 328.613 73.5385 327.567 74.3652 326.74C75.2052 325.913 76.2585 325.5 77.5252 325.5C78.7918 325.5 79.8385 325.913 80.6652 326.74C81.5052 327.567 81.9252 328.613 81.9252 329.88C81.9252 331.133 81.5052 332.173 80.6652 333ZM79.5852 327.6C79.0252 327.053 78.3385 326.78 77.5252 326.78C76.7118 326.78 76.0185 327.06 75.4452 327.62C74.8852 328.167 74.6052 328.92 74.6052 329.88C74.6052 330.84 74.8918 331.593 75.4652 332.14C76.0385 332.687 76.7252 332.96 77.5252 332.96C78.3252 332.96 79.0118 332.687 79.5852 332.14C80.1585 331.593 80.4452 330.84 80.4452 329.88C80.4452 328.907 80.1585 328.147 79.5852 327.6ZM84.1334 334V325.7H85.5734V329.1H89.4934V325.7H90.9334V334H89.4934V330.42H85.5734V334H84.1334ZM93.6452 325.7H95.0852V331.18L100.765 325.06V334H99.3252V328.46L93.6452 334.58V325.7ZM102.609 336.66L104.249 332.04L105.569 332.52L103.549 337.04L102.609 336.66ZM113.645 334V325.7H118.565V327.02H115.085V334H113.645ZM121.452 332.84V338.6H120.012V325.7H121.452V326.86C122.186 325.953 123.132 325.5 124.292 325.5C125.532 325.5 126.512 325.94 127.232 326.82C127.966 327.687 128.332 328.713 128.332 329.9C128.332 331.1 127.972 332.127 127.252 332.98C126.532 333.82 125.566 334.24 124.352 334.24C123.139 334.24 122.172 333.773 121.452 332.84ZM124.152 332.96C124.966 332.96 125.619 332.667 126.112 332.08C126.606 331.48 126.852 330.753 126.852 329.9C126.852 328.94 126.579 328.18 126.032 327.62C125.486 327.06 124.852 326.78 124.132 326.78C123.412 326.78 122.772 327.06 122.212 327.62C121.652 328.18 121.372 328.933 121.372 329.88C121.372 330.747 121.626 331.48 122.132 332.08C122.652 332.667 123.326 332.96 124.152 332.96ZM130.52 338.6L133.16 333.22L129.34 325.7H130.98L133.92 331.64L136.62 325.7H138.22L132.12 338.6H130.52ZM139.739 334V325.7H141.179V332.68H144.379V325.7H145.819V332.68H149.019V325.7H150.459V334H139.739ZM153.176 325.7H154.616V331.18L160.296 325.06V334H158.856V328.46L153.176 334.58V325.7ZM167.688 325.7H169.128V331.18L174.808 325.06V334H173.368V328.46L167.688 334.58V325.7ZM182.2 325.7H185.34C186.1 325.7 186.68 325.86 187.08 326.18C187.56 326.567 187.8 327.087 187.8 327.74C187.8 328.46 187.5 329.013 186.9 329.4C187.313 329.507 187.66 329.693 187.94 329.96C188.38 330.387 188.6 330.92 188.6 331.56C188.6 332.36 188.313 332.987 187.74 333.44C187.247 333.813 186.593 334 185.78 334H182.2V325.7ZM183.64 329.08H185.16C185.547 329.08 185.853 329 186.08 328.84C186.347 328.64 186.48 328.353 186.48 327.98C186.48 327.647 186.347 327.38 186.08 327.18C185.88 327.047 185.493 326.98 184.92 326.98H183.64V329.08ZM183.64 332.72H185.42C186.033 332.72 186.467 332.627 186.72 332.44C187.04 332.2 187.2 331.893 187.2 331.52C187.2 331.12 187.06 330.807 186.78 330.58C186.527 330.38 186.093 330.28 185.48 330.28H183.64V332.72ZM190.794 325.7H192.234V331.18L197.914 325.06V334H196.474V328.46L190.794 334.58V325.7ZM200.637 334V325.7H202.077V332.68H205.277V325.7H206.717V332.68H209.917V325.7H211.357V334H200.637ZM214.075 334V325.7H215.515V329.1H219.435V325.7H220.875V334H219.435V330.42H215.515V334H214.075ZM223.587 325.7H225.027V331.18L230.707 325.06V334H229.267V328.46L223.587 334.58V325.7ZM245.118 333C244.292 333.827 243.245 334.24 241.978 334.24C240.712 334.24 239.658 333.827 238.818 333C237.992 332.173 237.578 331.133 237.578 329.88C237.578 328.613 237.992 327.567 238.818 326.74C239.658 325.913 240.712 325.5 241.978 325.5C243.245 325.5 244.292 325.913 245.118 326.74C245.958 327.567 246.378 328.613 246.378 329.88C246.378 331.133 245.958 332.173 245.118 333ZM244.038 327.6C243.478 327.053 242.792 326.78 241.978 326.78C241.165 326.78 240.472 327.06 239.898 327.62C239.338 328.167 239.058 328.92 239.058 329.88C239.058 330.84 239.345 331.593 239.918 332.14C240.492 332.687 241.178 332.96 241.978 332.96C242.778 332.96 243.465 332.687 244.038 332.14C244.612 331.593 244.898 330.84 244.898 329.88C244.898 328.907 244.612 328.147 244.038 327.6ZM253.831 327.02H251.231V334H249.791V327.02H247.191V325.7H253.831V327.02ZM261.744 320H263.344C263.198 320.493 262.944 320.913 262.584 321.26C262.238 321.593 261.918 321.82 261.624 321.94C261.344 322.06 261.011 322.167 260.624 322.26C260.558 322.273 260.398 322.313 260.144 322.38C259.891 322.433 259.698 322.48 259.564 322.52C259.431 322.56 259.258 322.613 259.044 322.68C258.831 322.747 258.638 322.827 258.464 322.92C258.291 323.013 258.131 323.113 257.984 323.22C257.478 323.607 257.064 324.147 256.744 324.84C256.438 325.52 256.271 326.247 256.244 327.02H256.284C256.884 326.007 257.891 325.5 259.304 325.5C260.544 325.5 261.571 325.92 262.384 326.76C263.211 327.6 263.624 328.64 263.624 329.88C263.624 331.133 263.204 332.173 262.364 333C261.524 333.827 260.431 334.24 259.084 334.24C257.924 334.24 256.971 333.893 256.224 333.2C255.291 332.347 254.824 330.92 254.824 328.92C254.824 325.44 255.611 323.16 257.184 322.08C257.304 322 257.431 321.927 257.564 321.86C257.698 321.78 257.838 321.713 257.984 321.66C258.144 321.593 258.278 321.54 258.384 321.5C258.491 321.447 258.638 321.4 258.824 321.36C259.024 321.307 259.158 321.273 259.224 321.26C259.304 321.233 259.451 321.2 259.664 321.16C259.891 321.107 260.031 321.073 260.084 321.06C260.618 320.94 261.004 320.8 261.244 320.64C261.484 320.467 261.651 320.253 261.744 320ZM261.284 327.6C260.724 327.053 260.038 326.78 259.224 326.78C258.411 326.78 257.718 327.06 257.144 327.62C256.584 328.167 256.304 328.92 256.304 329.88C256.304 330.84 256.591 331.593 257.164 332.14C257.738 332.687 258.424 332.96 259.224 332.96C260.024 332.96 260.711 332.687 261.284 332.14C261.858 331.593 262.144 330.84 262.144 329.88C262.144 328.907 261.858 328.147 261.284 327.6ZM265.833 325.7H267.273V331.18L272.953 325.06V334H271.513V328.46L265.833 334.58V325.7ZM277.116 332.84V338.6H275.676V325.7H277.116V326.86C277.85 325.953 278.796 325.5 279.956 325.5C281.196 325.5 282.176 325.94 282.896 326.82C283.63 327.687 283.996 328.713 283.996 329.9C283.996 331.1 283.636 332.127 282.916 332.98C282.196 333.82 281.23 334.24 280.016 334.24C278.803 334.24 277.836 333.773 277.116 332.84ZM279.816 332.96C280.63 332.96 281.283 332.667 281.776 332.08C282.27 331.48 282.516 330.753 282.516 329.9C282.516 328.94 282.243 328.18 281.696 327.62C281.15 327.06 280.516 326.78 279.796 326.78C279.076 326.78 278.436 327.06 277.876 327.62C277.316 328.18 277.036 328.933 277.036 329.88C277.036 330.747 277.29 331.48 277.796 332.08C278.316 332.667 278.99 332.96 279.816 332.96ZM292.564 326.88V325.7H294.004V334H292.564V332.84C291.844 333.773 290.897 334.24 289.724 334.24C288.604 334.24 287.65 333.853 286.864 333.08C286.077 332.307 285.684 331.227 285.684 329.84C285.684 328.48 286.07 327.42 286.844 326.66C287.63 325.887 288.59 325.5 289.724 325.5C290.924 325.5 291.87 325.96 292.564 326.88ZM289.884 326.78C289.124 326.78 288.477 327.053 287.944 327.6C287.424 328.133 287.164 328.88 287.164 329.84C287.164 330.76 287.404 331.513 287.884 332.1C288.377 332.673 289.044 332.96 289.884 332.96C290.724 332.96 291.39 332.66 291.884 332.06C292.39 331.46 292.644 330.727 292.644 329.86C292.644 328.873 292.364 328.113 291.804 327.58C291.244 327.047 290.604 326.78 289.884 326.78ZM298.171 329.1H299.671C299.804 328.167 300.178 327.38 300.791 326.74C301.578 325.913 302.624 325.5 303.931 325.5C305.211 325.5 306.264 325.913 307.091 326.74C307.918 327.567 308.331 328.613 308.331 329.88C308.331 331.133 307.911 332.173 307.071 333C306.244 333.827 305.198 334.24 303.931 334.24C302.478 334.24 301.338 333.72 300.511 332.68C299.978 332.013 299.671 331.26 299.591 330.42H298.171V334H296.731V325.7H298.171V329.1ZM303.931 326.78C303.131 326.78 302.451 327.06 301.891 327.62C301.344 328.167 301.071 328.92 301.071 329.88C301.071 330.853 301.351 331.613 301.911 332.16C302.471 332.693 303.144 332.96 303.931 332.96C304.731 332.96 305.418 332.687 305.991 332.14C306.564 331.593 306.851 330.84 306.851 329.88C306.851 328.92 306.564 328.167 305.991 327.62C305.431 327.06 304.744 326.78 303.931 326.78ZM315.784 327.02H313.184V334H311.744V327.02H309.144V325.7H315.784V327.02ZM323.602 326.3V328.02C322.949 327.193 322.082 326.78 321.002 326.78C320.189 326.78 319.496 327.06 318.922 327.62C318.349 328.167 318.062 328.92 318.062 329.88C318.062 330.84 318.349 331.593 318.922 332.14C319.496 332.687 320.182 332.96 320.982 332.96C322.049 332.96 322.942 332.527 323.662 331.66V333.38C322.876 333.953 321.996 334.24 321.022 334.24C319.729 334.24 318.662 333.833 317.822 333.02C316.996 332.193 316.582 331.153 316.582 329.9C316.582 328.633 317.002 327.587 317.842 326.76C318.682 325.92 319.742 325.5 321.022 325.5C321.982 325.5 322.842 325.767 323.602 326.3ZM324.912 334L327.492 330.58C327.412 330.58 327.298 330.567 327.152 330.54C327.018 330.513 326.818 330.447 326.552 330.34C326.285 330.233 326.065 330.093 325.892 329.92C325.452 329.507 325.232 328.953 325.232 328.26C325.232 327.473 325.478 326.853 325.972 326.4C326.465 325.933 327.278 325.7 328.412 325.7H331.312V334H329.872V330.66H328.992L326.632 334H324.912ZM329.872 329.46V326.98H328.532C327.905 326.98 327.472 327.053 327.232 327.2C326.885 327.427 326.712 327.767 326.712 328.22C326.712 328.673 326.885 329.007 327.232 329.22C327.485 329.38 327.912 329.46 328.512 329.46H329.872ZM345.204 326.3V328.02C344.55 327.193 343.684 326.78 342.604 326.78C341.79 326.78 341.097 327.06 340.524 327.62C339.95 328.167 339.664 328.92 339.664 329.88C339.664 330.84 339.95 331.593 340.524 332.14C341.097 332.687 341.784 332.96 342.584 332.96C343.65 332.96 344.544 332.527 345.264 331.66V333.38C344.477 333.953 343.597 334.24 342.624 334.24C341.33 334.24 340.264 333.833 339.424 333.02C338.597 332.193 338.184 331.153 338.184 329.9C338.184 328.633 338.604 327.587 339.444 326.76C340.284 325.92 341.344 325.5 342.624 325.5C343.584 325.5 344.444 325.767 345.204 326.3ZM353.833 326.88V325.7H355.273V334H353.833V332.84C353.113 333.773 352.167 334.24 350.993 334.24C349.873 334.24 348.92 333.853 348.133 333.08C347.347 332.307 346.953 331.227 346.953 329.84C346.953 328.48 347.34 327.42 348.113 326.66C348.9 325.887 349.86 325.5 350.993 325.5C352.193 325.5 353.14 325.96 353.833 326.88ZM351.153 326.78C350.393 326.78 349.747 327.053 349.213 327.6C348.693 328.133 348.433 328.88 348.433 329.84C348.433 330.76 348.673 331.513 349.153 332.1C349.647 332.673 350.313 332.96 351.153 332.96C351.993 332.96 352.66 332.66 353.153 332.06C353.66 331.46 353.913 330.727 353.913 329.86C353.913 328.873 353.633 328.113 353.073 327.58C352.513 327.047 351.873 326.78 351.153 326.78ZM357.041 334L359.041 325.06L362.481 331.82L365.841 325.06L367.841 334H366.361L365.261 328.86L362.441 334.58L359.581 328.86L358.521 334H357.041ZM369.602 334V325.7H371.042V328.88H372.522C373.669 328.88 374.509 329.153 375.042 329.7C375.469 330.127 375.682 330.707 375.682 331.44C375.682 332.213 375.436 332.833 374.942 333.3C374.449 333.767 373.636 334 372.502 334H369.602ZM371.042 332.72H372.382C372.982 332.72 373.409 332.647 373.662 332.5C374.022 332.26 374.202 331.907 374.202 331.44C374.202 330.96 374.029 330.613 373.682 330.4C373.442 330.24 373.016 330.16 372.402 330.16H371.042V332.72ZM376.682 334V325.7H378.122V334H376.682ZM386.993 331.22L388.193 331.88C387.913 332.413 387.573 332.86 387.173 333.22C386.413 333.9 385.493 334.24 384.413 334.24C383.293 334.24 382.326 333.88 381.513 333.16C380.713 332.427 380.313 331.34 380.313 329.9C380.313 328.633 380.673 327.587 381.393 326.76C382.126 325.92 383.106 325.5 384.333 325.5C385.719 325.5 386.766 326.007 387.473 327.02C388.033 327.82 388.293 328.86 388.253 330.14H381.793C381.806 330.98 382.066 331.66 382.573 332.18C383.079 332.7 383.699 332.96 384.433 332.96C385.086 332.96 385.653 332.76 386.133 332.36C386.506 332.04 386.793 331.66 386.993 331.22ZM381.893 328.94H386.773C386.653 328.287 386.366 327.767 385.913 327.38C385.473 326.98 384.946 326.78 384.333 326.78C383.733 326.78 383.199 326.987 382.733 327.4C382.279 327.8 381.999 328.313 381.893 328.94ZM10.4 360L12.4 351.06L15.84 357.82L19.2 351.06L21.2 360H19.72L18.62 354.86L15.8 360.58L12.94 354.86L11.88 360H10.4ZM29.9816 359C29.1549 359.827 28.1082 360.24 26.8416 360.24C25.5749 360.24 24.5216 359.827 23.6816 359C22.8549 358.173 22.4416 357.133 22.4416 355.88C22.4416 354.613 22.8549 353.567 23.6816 352.74C24.5216 351.913 25.5749 351.5 26.8416 351.5C28.1082 351.5 29.1549 351.913 29.9816 352.74C30.8216 353.567 31.2416 354.613 31.2416 355.88C31.2416 357.133 30.8216 358.173 29.9816 359ZM28.9016 353.6C28.3416 353.053 27.6549 352.78 26.8416 352.78C26.0282 352.78 25.3349 353.06 24.7616 353.62C24.2016 354.167 23.9216 354.92 23.9216 355.88C23.9216 356.84 24.2082 357.593 24.7816 358.14C25.3549 358.687 26.0416 358.96 26.8416 358.96C27.6416 358.96 28.3282 358.687 28.9016 358.14C29.4749 357.593 29.7616 356.84 29.7616 355.88C29.7616 354.907 29.4749 354.147 28.9016 353.6ZM39.7298 351.7V360H38.2898V353.02H35.3298V356.76C35.3298 357.84 35.1165 358.64 34.6898 359.16C34.2098 359.747 33.5432 360.04 32.6898 360.04C32.5832 360.04 32.4365 360.027 32.2498 360V358.68C32.3832 358.707 32.4898 358.72 32.5698 358.72C33.0365 358.72 33.3832 358.54 33.6098 358.18C33.7965 357.887 33.8898 357.413 33.8898 356.76V351.7H39.7298ZM49.4738 359C48.6471 359.827 47.6004 360.24 46.3338 360.24C45.0671 360.24 44.0138 359.827 43.1738 359C42.3471 358.173 41.9338 357.133 41.9338 355.88C41.9338 354.613 42.3471 353.567 43.1738 352.74C44.0138 351.913 45.0671 351.5 46.3338 351.5C47.6004 351.5 48.6471 351.913 49.4738 352.74C50.3138 353.567 50.7338 354.613 50.7338 355.88C50.7338 357.133 50.3138 358.173 49.4738 359ZM48.3938 353.6C47.8338 353.053 47.1471 352.78 46.3338 352.78C45.5204 352.78 44.8271 353.06 44.2538 353.62C43.6938 354.167 43.4138 354.92 43.4138 355.88C43.4138 356.84 43.7004 357.593 44.2738 358.14C44.8471 358.687 45.5338 358.96 46.3338 358.96C47.1338 358.96 47.8204 358.687 48.3938 358.14C48.9671 357.593 49.2538 356.84 49.2538 355.88C49.2538 354.907 48.9671 354.147 48.3938 353.6ZM53.542 351.7H59.382V358.68H60.622V362.2H59.302V360H52.982V362.2H51.662V358.68C52.3554 358.667 52.8687 358.307 53.202 357.6C53.4287 357.133 53.542 356.4 53.542 355.4V351.7ZM57.942 358.68V353.02H54.982V356.14C54.982 357.247 54.6487 358.093 53.982 358.68H57.942ZM62.1413 360V351.7H63.5813V354.88H65.0613C66.2079 354.88 67.0479 355.153 67.5813 355.7C68.0079 356.127 68.2213 356.707 68.2213 357.44C68.2213 358.213 67.9746 358.833 67.4813 359.3C66.9879 359.767 66.1746 360 65.0413 360H62.1413ZM63.5813 358.72H64.9213C65.5213 358.72 65.9479 358.647 66.2013 358.5C66.5613 358.26 66.7413 357.907 66.7413 357.44C66.7413 356.96 66.5679 356.613 66.2213 356.4C65.9813 356.24 65.5546 356.16 64.9413 356.16H63.5813V358.72ZM69.2213 360V351.7H70.6613V360H69.2213ZM79.5317 357.22L80.7317 357.88C80.4517 358.413 80.1117 358.86 79.7117 359.22C78.9517 359.9 78.0317 360.24 76.9517 360.24C75.8317 360.24 74.8651 359.88 74.0517 359.16C73.2517 358.427 72.8517 357.34 72.8517 355.9C72.8517 354.633 73.2117 353.587 73.9317 352.76C74.6651 351.92 75.6451 351.5 76.8717 351.5C78.2584 351.5 79.3051 352.007 80.0117 353.02C80.5717 353.82 80.8317 354.86 80.7917 356.14H74.3317C74.3451 356.98 74.6051 357.66 75.1117 358.18C75.6184 358.7 76.2384 358.96 76.9717 358.96C77.6251 358.96 78.1917 358.76 78.6717 358.36C79.0451 358.04 79.3317 357.66 79.5317 357.22ZM74.4317 354.94H79.3117C79.1917 354.287 78.9051 353.767 78.4517 353.38C78.0117 352.98 77.4851 352.78 76.8717 352.78C76.2717 352.78 75.7384 352.987 75.2717 353.4C74.8184 353.8 74.5384 354.313 74.4317 354.94ZM82.1206 362.66L83.7606 358.04L85.0806 358.52L83.0606 363.04L82.1206 362.66ZM93.1569 351.7H99.8369V360H98.3969V353.02H94.5969V360H93.1569V351.7ZM109.571 359C108.745 359.827 107.698 360.24 106.431 360.24C105.165 360.24 104.111 359.827 103.271 359C102.445 358.173 102.031 357.133 102.031 355.88C102.031 354.613 102.445 353.567 103.271 352.74C104.111 351.913 105.165 351.5 106.431 351.5C107.698 351.5 108.745 351.913 109.571 352.74C110.411 353.567 110.831 354.613 110.831 355.88C110.831 357.133 110.411 358.173 109.571 359ZM108.491 353.6C107.931 353.053 107.245 352.78 106.431 352.78C105.618 352.78 104.925 353.06 104.351 353.62C103.791 354.167 103.511 354.92 103.511 355.88C103.511 356.84 103.798 357.593 104.371 358.14C104.945 358.687 105.631 358.96 106.431 358.96C107.231 358.96 107.918 358.687 108.491 358.14C109.065 357.593 109.351 356.84 109.351 355.88C109.351 354.907 109.065 354.147 108.491 353.6ZM119.32 351.7V360H117.88V353.02H114.92V356.76C114.92 357.84 114.706 358.64 114.28 359.16C113.8 359.747 113.133 360.04 112.28 360.04C112.173 360.04 112.026 360.027 111.84 360V358.68C111.973 358.707 112.08 358.72 112.16 358.72C112.626 358.72 112.973 358.54 113.2 358.18C113.386 357.887 113.48 357.413 113.48 356.76V351.7H119.32ZM122.044 360V351.7H123.484V355.1H127.404V351.7H128.844V360H127.404V356.42H123.484V360H122.044ZM138.575 359C137.749 359.827 136.702 360.24 135.435 360.24C134.169 360.24 133.115 359.827 132.275 359C131.449 358.173 131.035 357.133 131.035 355.88C131.035 354.613 131.449 353.567 132.275 352.74C133.115 351.913 134.169 351.5 135.435 351.5C136.702 351.5 137.749 351.913 138.575 352.74C139.415 353.567 139.835 354.613 139.835 355.88C139.835 357.133 139.415 358.173 138.575 359ZM137.495 353.6C136.935 353.053 136.249 352.78 135.435 352.78C134.622 352.78 133.929 353.06 133.355 353.62C132.795 354.167 132.515 354.92 132.515 355.88C132.515 356.84 132.802 357.593 133.375 358.14C133.949 358.687 134.635 358.96 135.435 358.96C136.235 358.96 136.922 358.687 137.495 358.14C138.069 357.593 138.355 356.84 138.355 355.88C138.355 354.907 138.069 354.147 137.495 353.6ZM148.544 352.3V354.02C147.89 353.193 147.024 352.78 145.944 352.78C145.13 352.78 144.437 353.06 143.864 353.62C143.29 354.167 143.004 354.92 143.004 355.88C143.004 356.84 143.29 357.593 143.864 358.14C144.437 358.687 145.124 358.96 145.924 358.96C146.99 358.96 147.884 358.527 148.604 357.66V359.38C147.817 359.953 146.937 360.24 145.964 360.24C144.67 360.24 143.604 359.833 142.764 359.02C141.937 358.193 141.524 357.153 141.524 355.9C141.524 354.633 141.944 353.587 142.784 352.76C143.624 351.92 144.684 351.5 145.964 351.5C146.924 351.5 147.784 351.767 148.544 352.3ZM156.253 353.02H153.653V360H152.213V353.02H149.613V351.7H156.253V353.02ZM157.766 360V351.7H159.206V354.88H160.686C161.833 354.88 162.673 355.153 163.206 355.7C163.633 356.127 163.846 356.707 163.846 357.44C163.846 358.213 163.6 358.833 163.106 359.3C162.613 359.767 161.8 360 160.666 360H157.766ZM159.206 358.72H160.546C161.146 358.72 161.573 358.647 161.826 358.5C162.186 358.26 162.366 357.907 162.366 357.44C162.366 356.96 162.193 356.613 161.846 356.4C161.606 356.24 161.18 356.16 160.566 356.16H159.206V358.72ZM167.214 355.1H168.714C168.847 354.167 169.221 353.38 169.834 352.74C170.621 351.913 171.667 351.5 172.974 351.5C174.254 351.5 175.307 351.913 176.134 352.74C176.961 353.567 177.374 354.613 177.374 355.88C177.374 357.133 176.954 358.173 176.114 359C175.287 359.827 174.241 360.24 172.974 360.24C171.521 360.24 170.381 359.72 169.554 358.68C169.021 358.013 168.714 357.26 168.634 356.42H167.214V360H165.774V351.7H167.214V355.1ZM172.974 352.78C172.174 352.78 171.494 353.06 170.934 353.62C170.387 354.167 170.114 354.92 170.114 355.88C170.114 356.853 170.394 357.613 170.954 358.16C171.514 358.693 172.187 358.96 172.974 358.96C173.774 358.96 174.461 358.687 175.034 358.14C175.607 357.593 175.894 356.84 175.894 355.88C175.894 354.92 175.607 354.167 175.034 353.62C174.474 353.06 173.787 352.78 172.974 352.78ZM190.751 352.3V354.02C190.097 353.193 189.231 352.78 188.151 352.78C187.337 352.78 186.644 353.06 186.071 353.62C185.497 354.167 185.211 354.92 185.211 355.88C185.211 356.84 185.497 357.593 186.071 358.14C186.644 358.687 187.331 358.96 188.131 358.96C189.197 358.96 190.091 358.527 190.811 357.66V359.38C190.024 359.953 189.144 360.24 188.171 360.24C186.877 360.24 185.811 359.833 184.971 359.02C184.144 358.193 183.731 357.153 183.731 355.9C183.731 354.633 184.151 353.587 184.991 352.76C185.831 351.92 186.891 351.5 188.171 351.5C189.131 351.5 189.991 351.767 190.751 352.3ZM199.825 359C198.999 359.827 197.952 360.24 196.685 360.24C195.419 360.24 194.365 359.827 193.525 359C192.699 358.173 192.285 357.133 192.285 355.88C192.285 354.613 192.699 353.567 193.525 352.74C194.365 351.913 195.419 351.5 196.685 351.5C197.952 351.5 198.999 351.913 199.825 352.74C200.665 353.567 201.085 354.613 201.085 355.88C201.085 357.133 200.665 358.173 199.825 359ZM198.745 353.6C198.185 353.053 197.499 352.78 196.685 352.78C195.872 352.78 195.179 353.06 194.605 353.62C194.045 354.167 193.765 354.92 193.765 355.88C193.765 356.84 194.052 357.593 194.625 358.14C195.199 358.687 195.885 358.96 196.685 358.96C197.485 358.96 198.172 358.687 198.745 358.14C199.319 357.593 199.605 356.84 199.605 355.88C199.605 354.907 199.319 354.147 198.745 353.6ZM204.374 353.82L203.374 353C203.694 352.533 204.047 352.187 204.434 351.96C204.954 351.653 205.56 351.5 206.254 351.5C207.094 351.5 207.747 351.693 208.214 352.08C208.694 352.493 208.934 353.02 208.934 353.66C208.934 354.433 208.62 355.013 207.994 355.4C208.394 355.493 208.714 355.673 208.954 355.94C209.34 356.353 209.534 356.86 209.534 357.46C209.534 358.353 209.174 359.067 208.454 359.6C207.867 360.027 207.08 360.24 206.094 360.24C205.214 360.24 204.474 360.007 203.874 359.54C203.42 359.207 203.054 358.733 202.774 358.12L204.014 357.6C204.16 357.973 204.407 358.287 204.754 358.54C205.127 358.82 205.58 358.96 206.114 358.96C206.74 358.96 207.207 358.853 207.514 358.64C207.9 358.387 208.094 358 208.094 357.48C208.094 357.053 207.927 356.733 207.594 356.52C207.314 356.333 206.86 356.24 206.234 356.24H205.394V354.92H206.094C206.6 354.92 206.96 354.847 207.174 354.7C207.467 354.513 207.614 354.26 207.614 353.94C207.614 353.567 207.494 353.28 207.254 353.08C207.027 352.88 206.674 352.78 206.194 352.78C205.78 352.78 205.4 352.887 205.054 353.1C204.76 353.287 204.534 353.527 204.374 353.82ZM213.171 358.84V364.6H211.731V351.7H213.171V352.86C213.904 351.953 214.851 351.5 216.011 351.5C217.251 351.5 218.231 351.94 218.951 352.82C219.684 353.687 220.051 354.713 220.051 355.9C220.051 357.1 219.691 358.127 218.971 358.98C218.251 359.82 217.284 360.24 216.071 360.24C214.858 360.24 213.891 359.773 213.171 358.84ZM215.871 358.96C216.684 358.96 217.338 358.667 217.831 358.08C218.324 357.48 218.571 356.753 218.571 355.9C218.571 354.94 218.298 354.18 217.751 353.62C217.204 353.06 216.571 352.78 215.851 352.78C215.131 352.78 214.491 353.06 213.931 353.62C213.371 354.18 213.091 354.933 213.091 355.88C213.091 356.747 213.344 357.48 213.851 358.08C214.371 358.667 215.044 358.96 215.871 358.96ZM228.418 357.22L229.618 357.88C229.338 358.413 228.998 358.86 228.598 359.22C227.838 359.9 226.918 360.24 225.838 360.24C224.718 360.24 223.752 359.88 222.938 359.16C222.138 358.427 221.738 357.34 221.738 355.9C221.738 354.633 222.098 353.587 222.818 352.76C223.552 351.92 224.532 351.5 225.758 351.5C227.145 351.5 228.192 352.007 228.898 353.02C229.458 353.82 229.718 354.86 229.678 356.14H223.218C223.232 356.98 223.492 357.66 223.998 358.18C224.505 358.7 225.125 358.96 225.858 358.96C226.512 358.96 227.078 358.76 227.558 358.36C227.932 358.04 228.218 357.66 228.418 357.22ZM223.318 354.94H228.198C228.078 354.287 227.792 353.767 227.338 353.38C226.898 352.98 226.372 352.78 225.758 352.78C225.158 352.78 224.625 352.987 224.158 353.4C223.705 353.8 223.425 354.313 223.318 354.94ZM231.887 351.7H235.027C235.787 351.7 236.367 351.86 236.767 352.18C237.247 352.567 237.487 353.087 237.487 353.74C237.487 354.46 237.187 355.013 236.587 355.4C237.001 355.507 237.347 355.693 237.627 355.96C238.067 356.387 238.287 356.92 238.287 357.56C238.287 358.36 238.001 358.987 237.427 359.44C236.934 359.813 236.281 360 235.467 360H231.887V351.7ZM233.327 355.08H234.847C235.234 355.08 235.541 355 235.767 354.84C236.034 354.64 236.167 354.353 236.167 353.98C236.167 353.647 236.034 353.38 235.767 353.18C235.567 353.047 235.181 352.98 234.607 352.98H233.327V355.08ZM233.327 358.72H235.107C235.721 358.72 236.154 358.627 236.407 358.44C236.727 358.2 236.887 357.893 236.887 357.52C236.887 357.12 236.747 356.807 236.467 356.58C236.214 356.38 235.781 356.28 235.167 356.28H233.327V358.72ZM240.481 360V351.7H241.921V358.68H245.121V351.7H246.561V358.68H249.761V351.7H251.201V360H240.481ZM253.919 351.7H255.359V357.18L261.039 351.06V360H259.599V354.46L253.919 360.58V351.7ZM269.922 357.22L271.122 357.88C270.842 358.413 270.502 358.86 270.102 359.22C269.342 359.9 268.422 360.24 267.342 360.24C266.222 360.24 265.256 359.88 264.442 359.16C263.642 358.427 263.242 357.34 263.242 355.9C263.242 354.633 263.602 353.587 264.322 352.76C265.056 351.92 266.036 351.5 267.262 351.5C268.649 351.5 269.696 352.007 270.402 353.02C270.962 353.82 271.222 354.86 271.182 356.14H264.722C264.736 356.98 264.996 357.66 265.502 358.18C266.009 358.7 266.629 358.96 267.362 358.96C268.016 358.96 268.582 358.76 269.062 358.36C269.436 358.04 269.722 357.66 269.922 357.22ZM264.822 354.94H269.702C269.582 354.287 269.296 353.767 268.842 353.38C268.402 352.98 267.876 352.78 267.262 352.78C266.662 352.78 266.129 352.987 265.662 353.4C265.209 353.8 264.929 354.313 264.822 354.94ZM284.339 351.7V360H282.899V353.02H279.939V356.76C279.939 357.84 279.726 358.64 279.299 359.16C278.819 359.747 278.153 360.04 277.299 360.04C277.193 360.04 277.046 360.027 276.859 360V358.68C276.993 358.707 277.099 358.72 277.179 358.72C277.646 358.72 277.993 358.54 278.219 358.18C278.406 357.887 278.499 357.413 278.499 356.76V351.7H284.339ZM287.063 351.7H288.503V357.18L294.183 351.06V360H292.743V354.46L287.063 360.58V351.7ZM303.407 352.3V354.02C302.754 353.193 301.887 352.78 300.807 352.78C299.994 352.78 299.3 353.06 298.727 353.62C298.154 354.167 297.867 354.92 297.867 355.88C297.867 356.84 298.154 357.593 298.727 358.14C299.3 358.687 299.987 358.96 300.787 358.96C301.854 358.96 302.747 358.527 303.467 357.66V359.38C302.68 359.953 301.8 360.24 300.827 360.24C299.534 360.24 298.467 359.833 297.627 359.02C296.8 358.193 296.387 357.153 296.387 355.9C296.387 354.633 296.807 353.587 297.647 352.76C298.487 351.92 299.547 351.5 300.827 351.5C301.787 351.5 302.647 351.767 303.407 352.3ZM311.116 353.02H308.516V360H307.076V353.02H304.476V351.7H311.116V353.02ZM312.63 360V351.7H314.07V354.88H315.55C316.696 354.88 317.536 355.153 318.07 355.7C318.496 356.127 318.71 356.707 318.71 357.44C318.71 358.213 318.463 358.833 317.97 359.3C317.476 359.767 316.663 360 315.53 360H312.63ZM314.07 358.72H315.41C316.01 358.72 316.436 358.647 316.69 358.5C317.05 358.26 317.23 357.907 317.23 357.44C317.23 356.96 317.056 356.613 316.71 356.4C316.47 356.24 316.043 356.16 315.43 356.16H314.07V358.72ZM319.677 360L322.257 356.58C322.177 356.58 322.064 356.567 321.917 356.54C321.784 356.513 321.584 356.447 321.317 356.34C321.051 356.233 320.831 356.093 320.657 355.92C320.217 355.507 319.997 354.953 319.997 354.26C319.997 353.473 320.244 352.853 320.737 352.4C321.231 351.933 322.044 351.7 323.177 351.7H326.077V360H324.637V356.66H323.757L321.397 360H319.677ZM324.637 355.46V352.98H323.297C322.671 352.98 322.237 353.053 321.997 353.2C321.651 353.427 321.477 353.767 321.477 354.22C321.477 354.673 321.651 355.007 321.997 355.22C322.251 355.38 322.677 355.46 323.277 355.46H324.637Z" fill="black"></path>
    <path d="M123.725 303.21C123.289 303.914 123.506 304.839 124.21 305.275C124.914 305.711 125.839 305.494 126.275 304.79L123.725 303.21ZM201.46 182.657C201.271 181.851 200.464 181.35 199.657 181.54L186.514 184.624C185.708 184.814 185.208 185.621 185.397 186.427C185.586 187.234 186.393 187.734 187.2 187.545L198.882 184.803L201.624 196.486C201.814 197.292 202.621 197.793 203.427 197.603C204.234 197.414 204.734 196.607 204.545 195.8L201.46 182.657ZM126.275 304.79L201.275 183.79L198.725 182.21L123.725 303.21L126.275 304.79Z" fill="#005D04"></path>
    <path d="M124.746 302.522C123.93 302.662 123.382 303.437 123.522 304.254C123.662 305.07 124.437 305.618 125.254 305.478L124.746 302.522ZM330.225 269.866C330.703 269.19 330.542 268.254 329.866 267.775L318.843 259.981C318.167 259.503 317.231 259.663 316.753 260.34C316.274 261.016 316.435 261.952 317.111 262.43L326.909 269.359L319.981 279.157C319.503 279.833 319.663 280.769 320.34 281.247C321.016 281.726 321.952 281.565 322.43 280.889L330.225 269.866ZM125.254 305.478L329.254 270.478L328.746 267.522L124.746 302.522L125.254 305.478Z" fill="#005D04"></path>
    <line x1="286.648" y1="199.349" x2="299.648" y2="172.349" stroke="#E80000" stroke-width="3" stroke-dasharray="5 5"></line>
    <line x1="290.569" y1="146.55" x2="301.569" y2="111.55" stroke="#E80000" stroke-width="3" stroke-dasharray="5 5"></line>
  </g>
  <defs>
    <clipPath id="clip0_207_33">
      <rect width="400" height="400" fill="white"></rect>
    </clipPath>
  </defs>
</svg>
