<?xml version="1.0" encoding="UTF-8"?>
<svg xmlns="http://www.w3.org/2000/svg" width="400" height="400" viewBox="0 0 400 400" fill="none">
  <path fill-rule="evenodd" clip-rule="evenodd" d="M129.197 147.428C129.323 161.241 129.71 163.342 130.847 156.436L132.33 147.428L133.34 159.253C133.896 165.754 133.59 171.075 132.663 171.075C131.736 171.073 130.975 173.667 130.975 176.835C130.975 180.103 130.001 181.997 128.725 181.206C127.487 180.441 126.474 176.775 126.474 173.059C126.474 169.343 125.653 166.812 124.649 167.432C123.643 168.053 123.171 171.913 123.596 176.009C124.397 183.724 124.379 202.788 123.564 210.237C123.026 215.153 127.856 217.814 129.337 213.419C129.884 211.802 129.983 212.507 129.557 214.984C129.134 217.461 128.756 222.527 128.72 226.243C128.671 231.438 128.151 232.219 126.474 229.621C124.928 227.227 124.26 230.179 124.183 239.754L124.073 253.265L119.849 248.198C117.526 245.413 114.522 243.132 113.174 243.132C111.824 243.132 110.737 241.36 110.755 239.191C110.784 235.822 111.108 235.741 112.972 238.628C115.794 242.997 115.764 241.517 112.841 231.857C111.531 227.531 109.949 221.458 109.324 218.362C105.896 201.389 100.68 190.954 91.2997 182.303C85.8289 177.256 80.4526 173.685 79.3499 174.367C78.2494 175.047 77.0094 174.806 76.5931 173.831C74.8332 169.699 60.2571 164.669 56.2535 166.815C50.0828 170.118 51.154 175.153 57.7591 173.89C61.9944 173.079 65.3521 174.887 71.9324 181.521C80.9274 190.59 85.5791 199.786 91.7026 220.613C97.4254 240.069 102.082 249.797 109.866 258.55C114.749 264.042 119.104 273.23 123.344 286.987C129.323 306.388 129.674 306.951 131.119 299.428C131.952 295.093 132.814 292.56 133.036 293.798C133.259 295.037 134.983 291.646 136.867 286.264C141.019 274.401 139.153 270.938 134.373 281.636L130.953 289.295L131.526 281.501C131.983 275.297 133.232 273.444 137.652 272.41C141.413 271.53 143.749 268.963 144.899 264.441C145.83 260.771 148.083 251.689 149.901 244.258C155.345 222.028 164.612 199.653 171.357 192.465C178.619 184.726 183.685 175.775 181.846 173.935C181.156 173.246 179.864 174.599 178.973 176.943C176.859 182.514 164.757 195.472 164.743 192.177C164.736 190.781 166.298 188.338 168.213 186.748C170.977 184.453 171.096 183.485 168.796 182.062C166.485 180.632 166.465 179.697 168.688 177.473C170.914 175.246 171.497 175.34 171.551 177.941C171.602 180.366 172.212 180.188 173.925 177.247C175.192 175.07 175.615 172.296 174.863 171.082C174.087 169.825 175.005 169.452 176.992 170.213C179.256 171.082 180.485 170.28 180.485 167.936C180.485 165.945 181.606 164.317 182.976 164.317C184.347 164.317 184.885 165.837 184.171 167.695C182.618 171.748 186.365 172.298 188.004 168.258C188.742 166.434 189.799 166.236 191.003 167.695C192.025 168.934 194.84 171.467 197.255 173.325C201.506 176.592 201.531 176.531 198.025 171.429C192.248 163.027 185.677 159.287 181.045 161.766C171.866 166.682 148.979 198.635 148.979 206.537C148.979 209.451 148.24 211.243 141.482 224.737C137.378 232.933 136.54 240.88 139.779 240.88C140.909 240.88 142.515 236.831 143.35 231.884C144.185 226.937 145.783 222.325 146.899 221.633C148.013 220.944 148.261 222.118 147.446 224.243C146.382 227.013 146.775 227.605 148.837 226.331C151.054 224.959 151.36 226.295 150.176 232.154C147.228 246.764 146.424 248.527 144.266 245.118C142.747 242.72 142.248 243.04 142.083 246.51C141.942 249.518 141.455 249.962 140.618 247.845C139.763 245.681 138.451 246.751 136.48 251.223C133.919 257.026 133.57 254.668 133.408 230.431C133.3 214.092 134.661 195.523 136.797 184.269C140.231 166.162 139.846 152.644 135.665 144.515C134.578 142.402 132.64 138.14 131.36 135.043C129.492 130.533 129.062 132.994 129.197 147.428ZM89.1866 184.44C98.0421 192.763 109.008 219.492 101.719 214.984C98.8455 213.207 98.8455 220.667 101.719 225.117C103.452 227.799 103.922 227.337 104.003 222.865C104.096 217.79 104.343 217.643 106.504 221.361C107.82 223.629 108.862 230.332 108.817 236.259C108.745 245.505 109.504 247.383 114.166 249.509C117.153 250.871 120.243 254.553 121.03 257.692C122.563 263.802 125.464 265.182 127.104 260.584C128.963 255.375 131.209 260.554 129.701 266.571C128.493 271.381 127.597 272.021 125.038 269.895C122.464 267.758 122.115 268.064 123.18 271.525C123.9 273.867 122.5 272.237 120.069 267.902C117.639 263.567 113.023 257.564 109.812 254.562C106.598 251.558 103.97 247.793 103.97 246.194C103.97 244.593 102.536 239.957 100.783 235.89C99.03 231.823 95.3595 221.402 92.6252 212.732C89.8909 204.062 84.7869 192.675 81.2807 187.428C75.5646 178.873 75.3553 177.954 79.2689 178.551C81.6701 178.918 86.1327 181.569 89.1866 184.44ZM164.781 186.743C163.483 189.171 162.634 191.959 162.898 192.936C163.688 195.895 160.06 204.85 158.07 204.85C157.049 204.85 155.608 206.422 154.87 208.345C154.103 210.349 154.481 211.252 155.755 210.464C156.979 209.708 157.98 210.635 157.98 212.529C157.98 214.763 156.713 215.481 154.364 214.581C149.219 212.604 151.711 199.714 159.112 190.004C165.564 181.539 168.452 179.88 164.781 186.743ZM85.9887 185.71C85.9932 186.948 88.0073 191.002 90.4671 194.717C96.2935 203.522 96.3002 200.392 90.4761 190.831C88.0051 186.775 85.9864 184.471 85.9887 185.71ZM132.535 195.237C131.963 197.428 131.459 196.181 131.414 192.465C131.369 188.75 131.835 186.957 132.451 188.482C133.068 190.006 133.106 193.046 132.535 195.237ZM157.935 197.023C156.369 198.91 155.525 200.892 156.056 201.425C156.59 201.957 158.262 200.414 159.772 197.994C163.039 192.758 161.95 192.184 157.935 197.023ZM95.0017 204.155C95.022 205.157 96.0189 207.496 97.2184 209.354C99.0975 212.266 99.4036 212.205 99.4351 208.924C99.4531 206.83 98.4561 204.49 97.2184 203.725C95.9807 202.959 94.9837 203.153 95.0017 204.155ZM45.6832 215.914C42.9534 218.283 38.4953 221.778 35.7745 223.678C32.1355 226.22 31.7507 227.164 34.3185 227.252C36.2381 227.315 38.9386 226.236 40.3204 224.854C42.1725 223 44.4545 223.838 48.9801 228.04C52.3603 231.175 59.0261 235.5 63.7948 237.653C68.5635 239.804 72.4635 243.001 72.4635 244.758C72.4635 246.514 75.4701 252.324 79.1451 257.667C82.8201 263.013 86.7808 271.629 87.9443 276.813C90.1295 286.545 95.9514 294.924 100.529 294.924C101.965 294.924 105.406 298.957 108.176 303.887C110.944 308.818 115.19 314.241 117.614 315.936C120.036 317.634 123.427 323.987 125.149 330.055C128.781 342.85 131.878 369.235 129.746 369.235C128.947 369.235 125.606 367.341 122.32 365.026C119.034 362.709 111.795 358.51 106.227 355.688C100.662 352.869 95.0917 349.198 93.8495 347.53C92.6095 345.863 86.9249 343.634 81.22 342.58C75.5151 341.524 68.4532 338.984 65.5276 336.932C62.6043 334.883 57.6511 333.197 54.5207 333.185C51.3926 333.174 43.7703 330.672 37.5816 327.626C26.1583 322.003 19.1392 320.92 10.0137 323.365C5.6748 324.529 4.95691 326.218 5.00192 335.158L5.05367 345.591L8.6589 338.272C10.6415 334.248 13.2003 330.954 14.3458 330.954C18.1895 330.954 28.5326 337.459 33.8796 343.24C37.5614 347.219 41.5221 348.969 46.8512 348.969C51.0685 348.969 56.5326 349.982 58.9923 351.22C61.4498 352.459 65.4736 354.486 67.9311 355.724C70.3908 356.963 73.3772 357.976 74.5699 357.976C75.7627 357.976 81.13 360.942 86.495 364.565C93.3229 369.174 100.338 371.615 109.85 372.694C119.615 373.8 124.199 375.432 126.105 378.49C126.105 378.49 133.223 385.354 133.192 388.939C133.163 392.307 132.838 392.389 130.975 389.502C129.211 386.77 128.788 387.094 128.758 391.191C128.736 394.692 127.377 396.257 124.357 396.257C121.953 396.257 119.518 397.018 118.944 397.948C118.368 398.881 125.651 399.786 135.127 399.966C144.602 400.144 149.888 399.606 146.872 398.768C143.47 397.825 140.769 394.924 139.752 391.123L139 386.5C139 386.5 138.573 384 139.977 379.278C142.851 372.147 148.637 358.564 155.104 353.709C158.543 351.128 162.58 347.993 164.075 346.741C165.569 345.489 167.432 344.465 168.215 344.465C168.996 344.465 172.521 341.742 176.042 338.414C179.567 335.088 187.324 331.109 193.281 329.576C203.068 327.056 205.039 327.243 213.683 331.521C218.945 334.129 224.738 338.529 226.554 341.303C230.303 347.027 257 368.202 257 365.45C257 364.463 254.572 361.11 251.603 358.001C248.635 354.891 241.503 347.322 235.754 341.182C225.059 329.758 214.874 321.926 210.866 322.041C209.628 322.077 211.147 323.66 214.242 325.561C217.829 327.761 218.236 328.42 215.367 327.38C212.891 326.479 203.568 325.549 194.647 325.311C178.745 324.885 178.243 325.047 168.857 333.546C163.593 338.313 157.947 342.213 156.311 342.213C154.675 342.213 152.584 343.985 151.666 346.154C149.294 351.752 139.718 366.983 138.573 366.983C138.044 366.983 139.155 363.993 141.044 360.34C142.932 356.686 144.478 352.583 144.478 351.22C144.478 344.348 171.355 323.367 184.806 319.744C195.527 316.855 199.875 318.292 191.501 321.958C186.685 324.068 186.919 324.191 193.706 323.133C197.883 322.48 202.888 321.946 204.826 321.946C207.641 321.946 207.472 321.282 203.982 318.641C191.066 308.865 157.627 323.937 144.187 345.591C140.337 351.795 139.993 351.932 139.986 347.28C139.981 344.492 138.771 342.465 137.297 342.776C135.825 343.084 134.231 341.567 133.757 339.398C133.284 337.23 133.982 335.457 135.312 335.457C136.639 335.457 137.726 336.532 137.726 337.842C137.726 339.153 138.701 339.623 139.894 338.887C143.638 336.57 146.483 322.187 144.538 315.4C143.159 310.59 143.634 307.933 146.395 304.992C148.434 302.821 148.839 301.754 147.291 302.621C145.472 303.641 144.478 302.677 144.478 299.896C144.478 294.093 149.195 280.877 150.72 282.404C152.354 284.041 157.98 279.236 157.98 276.202C157.98 274.881 156.493 275.763 154.677 278.168C149.692 284.762 150.576 279.623 155.912 270.983C158.896 266.152 159.504 263.82 157.582 264.556C154.168 265.869 142.227 289.939 142.227 295.512C142.227 297.521 141.215 299.788 139.977 300.554C138.739 301.319 137.726 305.431 137.726 309.694C137.726 318.321 134.357 320.057 132.006 312.642C130.912 309.194 129.987 308.642 128.725 310.687C127.534 312.612 125.741 310.707 123.168 304.792C117.344 291.384 111.151 278.733 106.765 271.28C98.8792 257.884 99.1133 258.113 96.7886 261.469C95.2605 263.678 95.0242 263.261 95.9356 259.969C98.4336 250.948 79.5276 223.651 72.6188 226.304C70.7509 227.02 69.9048 226.925 70.7374 226.094C72.6075 224.221 68.9168 220.694 59.6967 215.547C51.0348 210.71 51.7009 210.692 45.6832 215.914ZM55.4929 218.512C54.6467 219.879 55.4434 220.607 57.3383 220.201C59.1679 219.809 62.5638 221.82 64.8795 224.671C67.1975 227.522 70.7622 230.1 72.8011 230.4C77.6778 231.116 83.4074 235.989 86.234 241.821C87.483 244.4 85.3248 242.963 81.4383 238.628L74.3719 230.747L80.169 239.714C83.3579 244.645 85.9662 250.304 85.9662 252.286C85.9662 260.07 82.7593 258.352 77.5203 247.759C73.5392 239.709 70.114 235.998 65.0325 234.224C57.9999 231.771 47.7086 223.55 47.7086 220.386C47.7086 219.454 49.4797 218.229 51.6469 217.661C53.8141 217.096 55.898 216.515 56.2806 216.371C56.6631 216.227 56.3076 217.191 55.4929 218.512ZM103.97 231.74C103.97 232.906 104.971 234.478 106.195 235.235C107.469 236.023 107.847 235.12 107.08 233.116C105.583 229.215 103.97 228.502 103.97 231.74ZM127.964 241.443C127.341 242.992 126.83 241.724 126.83 238.628C126.83 235.532 127.341 234.266 127.964 235.813C128.59 237.363 128.59 239.896 127.964 241.443ZM192.471 248.509C187.304 249.905 182.24 251.948 181.219 253.051C180.143 254.211 181.732 254.407 184.986 253.515C204.106 248.28 225.494 249.358 225.494 255.56C225.494 257.395 227.411 258.895 229.754 258.895C232.097 258.895 234.525 260.223 235.146 261.849C235.961 263.968 234.282 264.63 229.198 264.193C225.289 263.858 224.134 264.153 226.619 264.851C234.007 266.927 238.474 272.208 242.638 283.798C247.159 296.374 253.647 301.725 249.81 289.711C248.552 285.766 245.856 276.966 243.821 270.154C238.895 253.661 238.535 253.243 225.667 249.032C213.146 244.933 206.12 244.823 192.471 248.509ZM168.195 257.751C164.531 260.748 162.243 263.912 163.111 264.781C163.982 265.65 163.435 267.884 161.898 269.746C159.434 272.732 159.7 272.759 164.169 269.974C166.955 268.238 169.233 265.551 169.233 264.002C169.233 262.453 171.258 259.919 173.734 258.372C178.192 255.587 179.801 252.065 176.547 252.22C175.619 252.265 171.861 254.754 168.195 257.751ZM190.612 256.643C189.847 257.881 190.234 258.895 191.472 258.895C192.709 258.895 194.348 257.881 195.113 256.643C195.878 255.404 195.491 254.391 194.253 254.391C193.015 254.391 191.377 255.404 190.612 256.643ZM177.109 261.147C176.344 262.385 177.264 263.398 179.157 263.398C181.288 263.398 182.101 264.682 181.3 266.776C180.57 268.675 177.222 270.154 173.657 270.154C165.864 270.154 159.11 278.053 156.92 289.734C156.059 294.33 153.356 302.193 150.914 307.204L146.474 316.317L151.078 310.687C155.613 305.143 160.195 292.661 160.217 285.78C160.238 280.308 168.83 272.406 174.76 272.406C177.703 272.406 184.995 270.312 190.961 267.751C198.488 264.524 204.232 263.52 209.714 264.475L217.617 265.851L211.172 262.374C203.849 258.422 196.238 257.796 196.238 261.147C196.238 262.385 193.645 263.398 190.479 263.398C187.214 263.398 185.321 262.423 186.111 261.147C186.876 259.908 185.476 258.895 183.001 258.895C180.525 258.895 177.874 259.908 177.109 261.147ZM97.8058 264.313C98.5192 263.597 100.281 265.213 101.719 267.902C103.157 270.591 103.767 273.358 103.076 274.052C102.383 274.745 100.846 272.885 99.6601 269.918C98.4741 266.952 97.4389 265.857 97.3602 267.488C97.1374 272.142 101.584 279.161 104.757 279.161C106.339 279.161 109.848 283.311 112.553 288.383C117.979 298.552 118.607 301.68 115.222 301.68C113.984 301.68 112.972 300.617 112.972 299.32C112.972 296.361 101.474 286.083 98.0533 285.989C94.1645 285.879 89.1191 270.814 90.2083 262.561C90.35 261.48 91.8263 261.723 93.4872 263.103C95.148 264.482 97.0924 265.027 97.8058 264.313ZM105.095 288.169C105.86 289.407 106.931 290.421 107.478 290.421C108.025 290.421 108.471 289.407 108.471 288.169C108.471 286.93 107.397 285.917 106.087 285.917C104.778 285.917 104.33 286.93 105.095 288.169ZM150.383 289.382C149.611 291.393 149.066 294.731 149.172 296.798C149.278 298.863 150.257 297.566 151.348 293.911C153.471 286.804 152.719 283.287 150.383 289.382ZM141.521 325.606C142.239 327.475 141.541 330.204 139.97 331.668C137.704 333.78 137.366 333.282 138.334 329.265C139.68 323.678 137.832 322.741 133.676 326.9C131.576 329.001 130.975 328.86 130.975 326.254C130.975 321.811 139.858 321.266 141.521 325.606ZM27.8484 327.333C29.462 326.333 29.7771 326.765 28.7014 328.504C27.6616 330.19 28.1793 331.093 30.0426 330.837C35.7565 330.053 38.7068 330.954 38.7068 333.48C38.7068 335.135 37.3453 334.942 34.7686 332.917C31.2151 330.13 31.1273 330.206 33.8594 333.697C36.1908 336.673 39.0399 337.277 46.2368 336.315C55.5807 335.068 71.9617 339.436 66.0767 341.609C64.4227 342.22 61.9404 341.591 60.5654 340.216C57.4485 337.097 49.9591 336.919 49.9591 339.961C49.9591 341.2 51.8359 342.213 54.1291 342.213C56.4223 342.213 65.2801 344.746 73.8115 347.843C91.5383 354.276 94.2928 354.756 85.2055 349.829C81.6903 347.924 79.3476 345.834 79.9957 345.185C81.5305 343.647 91.509 350.646 91.8736 353.515C92.5262 358.636 92.8818 358.953 94.7204 356.046C96.0864 353.891 96.6558 354.72 96.6558 358.861C96.6558 366.184 94.3828 366.231 85.0412 359.102C80.9837 356.006 76.494 353.472 75.065 353.472C73.6337 353.472 72.4635 352.439 72.4635 351.178C72.4635 349.901 70.1433 349.466 67.2335 350.196C63.9141 351.031 60.9345 350.223 59.0801 347.987C57.4508 346.021 52.6843 344.465 48.2937 344.465C42.9332 344.465 38.1622 342.492 33.3238 338.272C29.4192 334.867 23.7144 330.278 20.6493 328.074C15.6735 324.498 15.624 324.327 20.1879 326.488C22.9987 327.821 26.4464 328.2 27.8484 327.333ZM182.735 327.301C182.735 327.767 180.964 329.542 178.797 331.242C175.228 334.041 175.149 333.962 177.946 330.391C180.888 326.639 182.735 325.448 182.735 327.301ZM43.2077 340.094C43.2077 341.405 44.2204 341.853 45.4582 341.087C46.6959 340.321 47.7086 339.25 47.7086 338.702C47.7086 338.155 46.6959 337.709 45.4582 337.709C44.2204 337.709 43.2077 338.783 43.2077 340.094ZM157.98 346.717C157.98 347.955 156.907 348.969 155.597 348.969C154.287 348.969 153.84 347.955 154.605 346.717C155.37 345.478 156.441 344.465 156.988 344.465C157.535 344.465 157.98 345.478 157.98 346.717ZM110.721 362.513C107.757 364.461 107.75 364.993 110.656 366.862C112.476 368.033 113.212 369.744 112.29 370.667C111.369 371.591 108.867 370.595 106.729 368.456C103.326 365.051 103.263 364.304 106.22 362.432C108.077 361.257 110.609 360.298 111.846 360.298C113.084 360.298 112.578 361.295 110.721 362.513ZM136.799 377.668C134.342 380.127 132.656 376.216 134.421 372.147C136.095 368.289 136.216 368.292 137.148 372.226C137.686 374.491 137.528 376.939 136.799 377.668Z" fill="#005E04"></path>
  <path d="M142.72 7.66H145.14C146.66 7.66 147.78 7.97333 148.5 8.6C149.313 9.29333 149.72 10.2467 149.72 11.46C149.72 12.5 149.367 13.3867 148.66 14.12C147.967 14.84 146.913 15.2 145.5 15.2H144.2V21H142.72V7.66ZM144.2 9.06V13.8H145.42C146.3 13.8 146.987 13.5867 147.48 13.16C147.987 12.7333 148.24 12.14 148.24 11.38C148.24 9.83333 147.26 9.06 145.3 9.06H144.2ZM158.11 20C157.284 20.8267 156.237 21.24 154.97 21.24C153.704 21.24 152.65 20.8267 151.81 20C150.984 19.1733 150.57 18.1333 150.57 16.88C150.57 15.6133 150.984 14.5667 151.81 13.74C152.65 12.9133 153.704 12.5 154.97 12.5C156.237 12.5 157.284 12.9133 158.11 13.74C158.95 14.5667 159.37 15.6133 159.37 16.88C159.37 18.1333 158.95 19.1733 158.11 20ZM157.03 14.6C156.47 14.0533 155.784 13.78 154.97 13.78C154.157 13.78 153.464 14.06 152.89 14.62C152.33 15.1667 152.05 15.92 152.05 16.88C152.05 17.84 152.337 18.5933 152.91 19.14C153.484 19.6867 154.17 19.96 154.97 19.96C155.77 19.96 156.457 19.6867 157.03 19.14C157.604 18.5933 157.89 17.84 157.89 16.88C157.89 15.9067 157.604 15.1467 157.03 14.6ZM168.079 13.3V15.02C167.425 14.1933 166.559 13.78 165.479 13.78C164.665 13.78 163.972 14.06 163.399 14.62C162.825 15.1667 162.539 15.92 162.539 16.88C162.539 17.84 162.825 18.5933 163.399 19.14C163.972 19.6867 164.659 19.96 165.459 19.96C166.525 19.96 167.419 19.5267 168.139 18.66V20.38C167.352 20.9533 166.472 21.24 165.499 21.24C164.205 21.24 163.139 20.8333 162.299 20.02C161.472 19.1933 161.059 18.1533 161.059 16.9C161.059 15.6333 161.479 14.5867 162.319 13.76C163.159 12.92 164.219 12.5 165.499 12.5C166.459 12.5 167.319 12.7667 168.079 13.3ZM175.788 14.02H173.188V21H171.748V14.02H169.148V12.7H175.788V14.02ZM177.301 12.7H178.741V16.1L182.101 12.7H183.861L180.261 16.4L184.301 21H182.421L179.181 17.36L178.741 17.78V21H177.301V12.7ZM185.739 12.7H187.179V18.18L192.859 12.06V21H191.419V15.46L185.739 21.58V12.7ZM199.291 21L201.291 12.06L204.731 18.82L208.091 12.06L210.091 21H208.611L207.511 15.86L204.691 21.58L201.831 15.86L200.771 21H199.291ZM218.012 18.22L219.212 18.88C218.932 19.4133 218.592 19.86 218.192 20.22C217.432 20.9 216.512 21.24 215.432 21.24C214.312 21.24 213.346 20.88 212.532 20.16C211.732 19.4267 211.332 18.34 211.332 16.9C211.332 15.6333 211.692 14.5867 212.412 13.76C213.146 12.92 214.126 12.5 215.352 12.5C216.739 12.5 217.786 13.0067 218.492 14.02C219.052 14.82 219.312 15.86 219.272 17.14H212.812C212.826 17.98 213.086 18.66 213.592 19.18C214.099 19.7 214.719 19.96 215.452 19.96C216.106 19.96 216.672 19.76 217.152 19.36C217.526 19.04 217.812 18.66 218.012 18.22ZM212.912 15.94H217.792C217.672 15.2867 217.386 14.7667 216.932 14.38C216.492 13.98 215.966 13.78 215.352 13.78C214.752 13.78 214.219 13.9867 213.752 14.4C213.299 14.8 213.019 15.3133 212.912 15.94ZM221.481 21V12.7H222.921V16.1H226.841V12.7H228.281V21H226.841V17.42H222.921V21H221.481ZM237.153 18.22L238.353 18.88C238.073 19.4133 237.733 19.86 237.333 20.22C236.573 20.9 235.653 21.24 234.573 21.24C233.453 21.24 232.486 20.88 231.673 20.16C230.873 19.4267 230.473 18.34 230.473 16.9C230.473 15.6333 230.833 14.5867 231.553 13.76C232.286 12.92 233.266 12.5 234.493 12.5C235.879 12.5 236.926 13.0067 237.633 14.02C238.193 14.82 238.453 15.86 238.413 17.14H231.953C231.966 17.98 232.226 18.66 232.733 19.18C233.239 19.7 233.859 19.96 234.593 19.96C235.246 19.96 235.813 19.76 236.293 19.36C236.666 19.04 236.953 18.66 237.153 18.22ZM232.053 15.94H236.933C236.813 15.2867 236.526 14.7667 236.073 14.38C235.633 13.98 235.106 13.78 234.493 13.78C233.893 13.78 233.359 13.9867 232.893 14.4C232.439 14.8 232.159 15.3133 232.053 15.94ZM246.782 18.22L247.982 18.88C247.702 19.4133 247.362 19.86 246.962 20.22C246.202 20.9 245.282 21.24 244.202 21.24C243.082 21.24 242.115 20.88 241.302 20.16C240.502 19.4267 240.102 18.34 240.102 16.9C240.102 15.6333 240.462 14.5867 241.182 13.76C241.915 12.92 242.895 12.5 244.122 12.5C245.508 12.5 246.555 13.0067 247.262 14.02C247.822 14.82 248.082 15.86 248.042 17.14H241.582C241.595 17.98 241.855 18.66 242.362 19.18C242.868 19.7 243.488 19.96 244.222 19.96C244.875 19.96 245.442 19.76 245.922 19.36C246.295 19.04 246.582 18.66 246.782 18.22ZM241.682 15.94H246.562C246.442 15.2867 246.155 14.7667 245.702 14.38C245.262 13.98 244.735 13.78 244.122 13.78C243.522 13.78 242.988 13.9867 242.522 14.4C242.068 14.8 241.788 15.3133 241.682 15.94ZM256.759 10.96H255.279C255.319 10.2533 255.525 9.6 255.899 9C256.565 7.96 257.599 7.44 258.999 7.44C260.185 7.44 261.105 7.79333 261.759 8.5C262.425 9.20667 262.759 10.0533 262.759 11.04C262.759 12.44 262.185 13.4267 261.039 14C261.212 14.0667 261.379 14.16 261.539 14.28C261.712 14.3867 261.919 14.56 262.159 14.8C262.399 15.04 262.592 15.3733 262.739 15.8C262.885 16.2133 262.959 16.6867 262.959 17.22C262.959 18.4333 262.565 19.4067 261.779 20.14C261.005 20.8733 260.032 21.24 258.859 21.24C258.072 21.24 257.339 21.06 256.659 20.7C255.979 20.3267 255.472 19.74 255.139 18.94C254.965 18.5133 254.865 18.0467 254.839 17.54H256.319C256.385 18.0867 256.545 18.5333 256.799 18.88C257.252 19.5467 257.939 19.88 258.859 19.88C259.592 19.88 260.212 19.62 260.719 19.1C261.225 18.5667 261.479 17.9267 261.479 17.18C261.479 16.0867 261.039 15.34 260.159 14.94C259.719 14.7267 259.212 14.6333 258.639 14.66V13.34C259.212 13.38 259.719 13.2867 260.159 13.06C260.905 12.6733 261.279 12.0133 261.279 11.08C261.279 10.4267 261.092 9.88667 260.719 9.46C260.345 9.02 259.772 8.8 258.999 8.8C258.252 8.8 257.679 9.05333 257.279 9.56C256.972 9.96 256.799 10.4267 256.759 10.96ZM274.026 19.24C273.106 20.5733 271.966 21.24 270.606 21.24C269.246 21.24 268.106 20.5733 267.186 19.24C266.292 17.9467 265.846 16.3133 265.846 14.34C265.846 12.3667 266.292 10.7333 267.186 9.44C268.106 8.10667 269.246 7.44 270.606 7.44C271.966 7.44 273.106 8.10667 274.026 9.44C274.919 10.7333 275.366 12.3667 275.366 14.34C275.366 16.3133 274.919 17.9467 274.026 19.24ZM272.906 10.28C272.292 9.29333 271.526 8.8 270.606 8.8C269.686 8.8 268.919 9.29333 268.306 10.28C267.652 11.32 267.326 12.6733 267.326 14.34C267.326 16.0067 267.652 17.36 268.306 18.4C268.919 19.3867 269.686 19.88 270.606 19.88C271.526 19.88 272.292 19.3867 272.906 18.4C273.559 17.36 273.886 16.0067 273.886 14.34C273.886 12.6733 273.559 11.32 272.906 10.28ZM288.821 13.3V15.02C288.168 14.1933 287.301 13.78 286.221 13.78C285.408 13.78 284.714 14.06 284.141 14.62C283.568 15.1667 283.281 15.92 283.281 16.88C283.281 17.84 283.568 18.5933 284.141 19.14C284.714 19.6867 285.401 19.96 286.201 19.96C287.268 19.96 288.161 19.5267 288.881 18.66V20.38C288.094 20.9533 287.214 21.24 286.241 21.24C284.948 21.24 283.881 20.8333 283.041 20.02C282.214 19.1933 281.801 18.1533 281.801 16.9C281.801 15.6333 282.221 14.5867 283.061 13.76C283.901 12.92 284.961 12.5 286.241 12.5C287.201 12.5 288.061 12.7667 288.821 13.3ZM290.13 21L292.13 12.06L295.57 18.82L298.93 12.06L300.93 21H299.45L298.35 15.86L295.53 21.58L292.67 15.86L291.61 21H290.13ZM302.912 14.2C302.712 14 302.612 13.7667 302.612 13.5C302.612 13.2333 302.712 13 302.912 12.8C303.112 12.6 303.345 12.5 303.612 12.5C303.879 12.5 304.112 12.6 304.312 12.8C304.512 13 304.612 13.2333 304.612 13.5C304.612 13.7667 304.512 14 304.312 14.2C304.112 14.4 303.879 14.5 303.612 14.5C303.345 14.5 303.112 14.4 302.912 14.2ZM302.912 20.94C302.712 20.74 302.612 20.5067 302.612 20.24C302.612 19.9733 302.712 19.74 302.912 19.54C303.112 19.34 303.345 19.24 303.612 19.24C303.879 19.24 304.112 19.34 304.312 19.54C304.512 19.74 304.612 19.9733 304.612 20.24C304.612 20.5067 304.512 20.74 304.312 20.94C304.112 21.14 303.879 21.24 303.612 21.24C303.345 21.24 303.112 21.14 302.912 20.94ZM142.36 38.7H145.5C146.26 38.7 146.84 38.86 147.24 39.18C147.72 39.5667 147.96 40.0867 147.96 40.74C147.96 41.46 147.66 42.0133 147.06 42.4C147.473 42.5067 147.82 42.6933 148.1 42.96C148.54 43.3867 148.76 43.92 148.76 44.56C148.76 45.36 148.473 45.9867 147.9 46.44C147.407 46.8133 146.753 47 145.94 47H142.36V38.7ZM143.8 42.08H145.32C145.707 42.08 146.013 42 146.24 41.84C146.507 41.64 146.64 41.3533 146.64 40.98C146.64 40.6467 146.507 40.38 146.24 40.18C146.04 40.0467 145.653 39.98 145.08 39.98H143.8V42.08ZM143.8 45.72H145.58C146.193 45.72 146.627 45.6267 146.88 45.44C147.2 45.2 147.36 44.8933 147.36 44.52C147.36 44.12 147.22 43.8067 146.94 43.58C146.687 43.38 146.253 43.28 145.64 43.28H143.8V45.72ZM157.454 39.3V41.02C156.8 40.1933 155.934 39.78 154.854 39.78C154.04 39.78 153.347 40.06 152.774 40.62C152.2 41.1667 151.914 41.92 151.914 42.88C151.914 43.84 152.2 44.5933 152.774 45.14C153.347 45.6867 154.034 45.96 154.834 45.96C155.9 45.96 156.794 45.5267 157.514 44.66V46.38C156.727 46.9533 155.847 47.24 154.874 47.24C153.58 47.24 152.514 46.8333 151.674 46.02C150.847 45.1933 150.434 44.1533 150.434 42.9C150.434 41.6333 150.854 40.5867 151.694 39.76C152.534 38.92 153.594 38.5 154.874 38.5C155.834 38.5 156.694 38.7667 157.454 39.3ZM158.763 47L161.343 43.58C161.263 43.58 161.15 43.5667 161.003 43.54C160.87 43.5133 160.67 43.4467 160.403 43.34C160.137 43.2333 159.917 43.0933 159.743 42.92C159.303 42.5067 159.083 41.9533 159.083 41.26C159.083 40.4733 159.33 39.8533 159.823 39.4C160.317 38.9333 161.13 38.7 162.263 38.7H165.163V47H163.723V43.66H162.843L160.483 47H158.763ZM163.723 42.46V39.98H162.383C161.757 39.98 161.323 40.0533 161.083 40.2C160.737 40.4267 160.563 40.7667 160.563 41.22C160.563 41.6733 160.737 42.0067 161.083 42.22C161.337 42.38 161.763 42.46 162.363 42.46H163.723ZM172.555 47V38.7H173.995V42.1H177.915V38.7H179.355V47H177.915V43.42H173.995V47H172.555ZM188.427 39.88V38.7H189.867V47H188.427V45.84C187.707 46.7733 186.76 47.24 185.587 47.24C184.467 47.24 183.514 46.8533 182.727 46.08C181.94 45.3067 181.547 44.2267 181.547 42.84C181.547 41.48 181.934 40.42 182.707 39.66C183.494 38.8867 184.454 38.5 185.587 38.5C186.787 38.5 187.734 38.96 188.427 39.88ZM185.747 39.78C184.987 39.78 184.34 40.0533 183.807 40.6C183.287 41.1333 183.027 41.88 183.027 42.84C183.027 43.76 183.267 44.5133 183.747 45.1C184.24 45.6733 184.907 45.96 185.747 45.96C186.587 45.96 187.254 45.66 187.747 45.06C188.254 44.46 188.507 43.7267 188.507 42.86C188.507 41.8733 188.227 41.1133 187.667 40.58C187.107 40.0467 186.467 39.78 185.747 39.78ZM193.194 38.7H199.034V45.68H200.274V49.2H198.954V47H192.634V49.2H191.314V45.68C192.008 45.6667 192.521 45.3067 192.854 44.6C193.081 44.1333 193.194 43.4 193.194 42.4V38.7ZM197.594 45.68V40.02H194.634V43.14C194.634 44.2467 194.301 45.0933 193.634 45.68H197.594ZM202.874 40.82L201.874 40C202.194 39.5333 202.547 39.1867 202.934 38.96C203.454 38.6533 204.06 38.5 204.754 38.5C205.594 38.5 206.247 38.6933 206.714 39.08C207.194 39.4933 207.434 40.02 207.434 40.66C207.434 41.4333 207.12 42.0133 206.494 42.4C206.894 42.4933 207.214 42.6733 207.454 42.94C207.84 43.3533 208.034 43.86 208.034 44.46C208.034 45.3533 207.674 46.0667 206.954 46.6C206.367 47.0267 205.58 47.24 204.594 47.24C203.714 47.24 202.974 47.0067 202.374 46.54C201.92 46.2067 201.554 45.7333 201.274 45.12L202.514 44.6C202.66 44.9733 202.907 45.2867 203.254 45.54C203.627 45.82 204.08 45.96 204.614 45.96C205.24 45.96 205.707 45.8533 206.014 45.64C206.4 45.3867 206.594 45 206.594 44.48C206.594 44.0533 206.427 43.7333 206.094 43.52C205.814 43.3333 205.36 43.24 204.734 43.24H203.894V41.92H204.594C205.1 41.92 205.46 41.8467 205.674 41.7C205.967 41.5133 206.114 41.26 206.114 40.94C206.114 40.5667 205.994 40.28 205.754 40.08C205.527 39.88 205.174 39.78 204.694 39.78C204.28 39.78 203.9 39.8867 203.554 40.1C203.26 40.2867 203.034 40.5267 202.874 40.82ZM216.391 44.22L217.591 44.88C217.311 45.4133 216.971 45.86 216.571 46.22C215.811 46.9 214.891 47.24 213.811 47.24C212.691 47.24 211.724 46.88 210.911 46.16C210.111 45.4267 209.711 44.34 209.711 42.9C209.711 41.6333 210.071 40.5867 210.791 39.76C211.524 38.92 212.504 38.5 213.731 38.5C215.118 38.5 216.164 39.0067 216.871 40.02C217.431 40.82 217.691 41.86 217.651 43.14H211.191C211.204 43.98 211.464 44.66 211.971 45.18C212.478 45.7 213.098 45.96 213.831 45.96C214.484 45.96 215.051 45.76 215.531 45.36C215.904 45.04 216.191 44.66 216.391 44.22ZM211.291 41.94H216.171C216.051 41.2867 215.764 40.7667 215.311 40.38C214.871 39.98 214.344 39.78 213.731 39.78C213.131 39.78 212.598 39.9867 212.131 40.4C211.678 40.8 211.398 41.3133 211.291 41.94ZM218.9 47L220.9 38.06L224.34 44.82L227.7 38.06L229.7 47H228.22L227.12 41.86L224.3 47.58L221.44 41.86L220.38 47H218.9ZM231.462 47V38.7H232.902V42.1H236.822V38.7H238.262V47H236.822V43.42H232.902V47H231.462ZM247.333 39.88V38.7H248.773V47H247.333V45.84C246.613 46.7733 245.667 47.24 244.493 47.24C243.373 47.24 242.42 46.8533 241.633 46.08C240.847 45.3067 240.453 44.2267 240.453 42.84C240.453 41.48 240.84 40.42 241.613 39.66C242.4 38.8867 243.36 38.5 244.493 38.5C245.693 38.5 246.64 38.96 247.333 39.88ZM244.653 39.78C243.893 39.78 243.247 40.0533 242.713 40.6C242.193 41.1333 241.933 41.88 241.933 42.84C241.933 43.76 242.173 44.5133 242.653 45.1C243.147 45.6733 243.813 45.96 244.653 45.96C245.493 45.96 246.16 45.66 246.653 45.06C247.16 44.46 247.413 43.7267 247.413 42.86C247.413 41.8733 247.133 41.1133 246.573 40.58C246.013 40.0467 245.373 39.78 244.653 39.78ZM250.541 47L253.121 43.58C253.041 43.58 252.927 43.5667 252.781 43.54C252.647 43.5133 252.447 43.4467 252.181 43.34C251.914 43.2333 251.694 43.0933 251.521 42.92C251.081 42.5067 250.861 41.9533 250.861 41.26C250.861 40.4733 251.107 39.8533 251.601 39.4C252.094 38.9333 252.907 38.7 254.041 38.7H256.941V47H255.501V43.66H254.621L252.261 47H250.541ZM255.501 42.46V39.98H254.161C253.534 39.98 253.101 40.0533 252.861 40.2C252.514 40.4267 252.341 40.7667 252.341 41.22C252.341 41.6733 252.514 42.0067 252.861 42.22C253.114 42.38 253.541 42.46 254.141 42.46H255.501ZM268.773 47V43.74C267.986 43.86 267.333 43.92 266.813 43.92C265.906 43.92 265.233 43.72 264.793 43.32C264.326 42.9067 264.093 42.2267 264.093 41.28V38.7H265.533V41.08C265.533 41.5333 265.593 41.86 265.713 42.06C265.899 42.42 266.319 42.6 266.973 42.6C267.559 42.6 268.159 42.54 268.773 42.42V38.7H270.213V47H268.773ZM279.286 39.88V38.7H280.726V47H279.286V45.84C278.566 46.7733 277.62 47.24 276.446 47.24C275.326 47.24 274.373 46.8533 273.586 46.08C272.8 45.3067 272.406 44.2267 272.406 42.84C272.406 41.48 272.793 40.42 273.566 39.66C274.353 38.8867 275.313 38.5 276.446 38.5C277.646 38.5 278.593 38.96 279.286 39.88ZM276.606 39.78C275.846 39.78 275.2 40.0533 274.666 40.6C274.146 41.1333 273.886 41.88 273.886 42.84C273.886 43.76 274.126 44.5133 274.606 45.1C275.1 45.6733 275.766 45.96 276.606 45.96C277.446 45.96 278.113 45.66 278.606 45.06C279.113 44.46 279.366 43.7267 279.366 42.86C279.366 41.8733 279.086 41.1133 278.526 40.58C277.966 40.0467 277.326 39.78 276.606 39.78ZM289.954 39.3V41.02C289.3 40.1933 288.434 39.78 287.354 39.78C286.54 39.78 285.847 40.06 285.274 40.62C284.7 41.1667 284.414 41.92 284.414 42.88C284.414 43.84 284.7 44.5933 285.274 45.14C285.847 45.6867 286.534 45.96 287.334 45.96C288.4 45.96 289.294 45.5267 290.014 44.66V46.38C289.227 46.9533 288.347 47.24 287.374 47.24C286.08 47.24 285.014 46.8333 284.174 46.02C283.347 45.1933 282.934 44.1533 282.934 42.9C282.934 41.6333 283.354 40.5867 284.194 39.76C285.034 38.92 286.094 38.5 287.374 38.5C288.334 38.5 289.194 38.7667 289.954 39.3ZM297.663 40.02H295.063V47H293.623V40.02H291.023V38.7H297.663V40.02ZM299.176 47V38.7H300.616V41.88H302.096C303.243 41.88 304.083 42.1533 304.616 42.7C305.043 43.1267 305.256 43.7067 305.256 44.44C305.256 45.2133 305.01 45.8333 304.516 46.3C304.023 46.7667 303.21 47 302.076 47H299.176ZM300.616 45.72H301.956C302.556 45.72 302.983 45.6467 303.236 45.5C303.596 45.26 303.776 44.9067 303.776 44.44C303.776 43.96 303.603 43.6133 303.256 43.4C303.016 43.24 302.59 43.16 301.976 43.16H300.616V45.72ZM313.292 45.84V51.6H311.852V38.7H313.292V39.86C314.026 38.9533 314.972 38.5 316.132 38.5C317.372 38.5 318.352 38.94 319.072 39.82C319.806 40.6867 320.172 41.7133 320.172 42.9C320.172 44.1 319.812 45.1267 319.092 45.98C318.372 46.82 317.406 47.24 316.192 47.24C314.979 47.24 314.012 46.7733 313.292 45.84ZM315.992 45.96C316.806 45.96 317.459 45.6667 317.952 45.08C318.446 44.48 318.692 43.7533 318.692 42.9C318.692 41.94 318.419 41.18 317.872 40.62C317.326 40.06 316.692 39.78 315.972 39.78C315.252 39.78 314.612 40.06 314.052 40.62C313.492 41.18 313.212 41.9333 313.212 42.88C313.212 43.7467 313.466 44.48 313.972 45.08C314.492 45.6667 315.166 45.96 315.992 45.96ZM328.74 39.88V38.7H330.18V47H328.74V45.84C328.02 46.7733 327.073 47.24 325.9 47.24C324.78 47.24 323.826 46.8533 323.04 46.08C322.253 45.3067 321.86 44.2267 321.86 42.84C321.86 41.48 322.246 40.42 323.02 39.66C323.806 38.8867 324.766 38.5 325.9 38.5C327.1 38.5 328.046 38.96 328.74 39.88ZM326.06 39.78C325.3 39.78 324.653 40.0533 324.12 40.6C323.6 41.1333 323.34 41.88 323.34 42.84C323.34 43.76 323.58 44.5133 324.06 45.1C324.553 45.6733 325.22 45.96 326.06 45.96C326.9 45.96 327.566 45.66 328.06 45.06C328.566 44.46 328.82 43.7267 328.82 42.86C328.82 41.8733 328.54 41.1133 327.98 40.58C327.42 40.0467 326.78 39.78 326.06 39.78ZM339.407 39.3V41.02C338.754 40.1933 337.887 39.78 336.807 39.78C335.994 39.78 335.3 40.06 334.727 40.62C334.154 41.1667 333.867 41.92 333.867 42.88C333.867 43.84 334.154 44.5933 334.727 45.14C335.3 45.6867 335.987 45.96 336.787 45.96C337.854 45.96 338.747 45.5267 339.467 44.66V46.38C338.68 46.9533 337.8 47.24 336.827 47.24C335.534 47.24 334.467 46.8333 333.627 46.02C332.8 45.1933 332.387 44.1533 332.387 42.9C332.387 41.6333 332.807 40.5867 333.647 39.76C334.487 38.92 335.547 38.5 336.827 38.5C337.787 38.5 338.647 38.7667 339.407 39.3ZM347.116 40.02H344.516V47H343.076V40.02H340.476V38.7H347.116V40.02ZM354.594 44.22L355.794 44.88C355.514 45.4133 355.174 45.86 354.774 46.22C354.014 46.9 353.094 47.24 352.014 47.24C350.894 47.24 349.928 46.88 349.114 46.16C348.314 45.4267 347.914 44.34 347.914 42.9C347.914 41.6333 348.274 40.5867 348.994 39.76C349.728 38.92 350.708 38.5 351.934 38.5C353.321 38.5 354.368 39.0067 355.074 40.02C355.634 40.82 355.894 41.86 355.854 43.14H349.394C349.408 43.98 349.668 44.66 350.174 45.18C350.681 45.7 351.301 45.96 352.034 45.96C352.688 45.96 353.254 45.76 353.734 45.36C354.108 45.04 354.394 44.66 354.594 44.22ZM349.494 41.94H354.374C354.254 41.2867 353.968 40.7667 353.514 40.38C353.074 39.98 352.548 39.78 351.934 39.78C351.334 39.78 350.801 39.9867 350.334 40.4C349.881 40.8 349.601 41.3133 349.494 41.94ZM358.063 47V38.7H359.503V42.1H363.423V38.7H364.863V47H363.423V43.42H359.503V47H358.063ZM367.575 38.7H369.015V44.18L374.695 38.06V47H373.255V41.46L367.575 47.58V38.7ZM376.459 47L379.039 43.58C378.959 43.58 378.845 43.5667 378.699 43.54C378.565 43.5133 378.365 43.4467 378.099 43.34C377.832 43.2333 377.612 43.0933 377.439 42.92C376.999 42.5067 376.779 41.9533 376.779 41.26C376.779 40.4733 377.025 39.8533 377.519 39.4C378.012 38.9333 378.825 38.7 379.959 38.7H382.859V47H381.419V43.66H380.539L378.179 47H376.459ZM381.419 42.46V39.98H380.079C379.452 39.98 379.019 40.0533 378.779 40.2C378.432 40.4267 378.259 40.7667 378.259 41.22C378.259 41.6733 378.432 42.0067 378.779 42.22C379.032 42.38 379.459 42.46 380.059 42.46H381.419ZM384.703 49.66L386.343 45.04L387.663 45.52L385.643 50.04L384.703 49.66ZM148.86 65.3V67.02C148.207 66.1933 147.34 65.78 146.26 65.78C145.447 65.78 144.753 66.06 144.18 66.62C143.607 67.1667 143.32 67.92 143.32 68.88C143.32 69.84 143.607 70.5933 144.18 71.14C144.753 71.6867 145.44 71.96 146.24 71.96C147.307 71.96 148.2 71.5267 148.92 70.66V72.38C148.133 72.9533 147.253 73.24 146.28 73.24C144.987 73.24 143.92 72.8333 143.08 72.02C142.253 71.1933 141.84 70.1533 141.84 68.9C141.84 67.6333 142.26 66.5867 143.1 65.76C143.94 64.92 145 64.5 146.28 64.5C147.24 64.5 148.1 64.7667 148.86 65.3ZM152.57 71.84V77.6H151.13V64.7H152.57V65.86C153.303 64.9533 154.25 64.5 155.41 64.5C156.65 64.5 157.63 64.94 158.35 65.82C159.083 66.6867 159.45 67.7133 159.45 68.9C159.45 70.1 159.09 71.1267 158.37 71.98C157.65 72.82 156.683 73.24 155.47 73.24C154.256 73.24 153.29 72.7733 152.57 71.84ZM155.27 71.96C156.083 71.96 156.736 71.6667 157.23 71.08C157.723 70.48 157.97 69.7533 157.97 68.9C157.97 67.94 157.696 67.18 157.15 66.62C156.603 66.06 155.97 65.78 155.25 65.78C154.53 65.78 153.89 66.06 153.33 66.62C152.77 67.18 152.49 67.9333 152.49 68.88C152.49 69.7467 152.743 70.48 153.25 71.08C153.77 71.6667 154.443 71.96 155.27 71.96ZM167.817 70.22L169.017 70.88C168.737 71.4133 168.397 71.86 167.997 72.22C167.237 72.9 166.317 73.24 165.237 73.24C164.117 73.24 163.15 72.88 162.337 72.16C161.537 71.4267 161.137 70.34 161.137 68.9C161.137 67.6333 161.497 66.5867 162.217 65.76C162.95 64.92 163.93 64.5 165.157 64.5C166.544 64.5 167.59 65.0067 168.297 66.02C168.857 66.82 169.117 67.86 169.077 69.14H162.617C162.63 69.98 162.89 70.66 163.397 71.18C163.904 71.7 164.524 71.96 165.257 71.96C165.91 71.96 166.477 71.76 166.957 71.36C167.33 71.04 167.617 70.66 167.817 70.22ZM162.717 67.94H167.597C167.477 67.2867 167.19 66.7667 166.737 66.38C166.297 65.98 165.77 65.78 165.157 65.78C164.557 65.78 164.024 65.9867 163.557 66.4C163.104 66.8 162.824 67.3133 162.717 67.94ZM172.17 66.82L171.17 66C171.49 65.5333 171.844 65.1867 172.23 64.96C172.75 64.6533 173.357 64.5 174.05 64.5C174.89 64.5 175.544 64.6933 176.01 65.08C176.49 65.4933 176.73 66.02 176.73 66.66C176.73 67.4333 176.417 68.0133 175.79 68.4C176.19 68.4933 176.51 68.6733 176.75 68.94C177.137 69.3533 177.33 69.86 177.33 70.46C177.33 71.3533 176.97 72.0667 176.25 72.6C175.664 73.0267 174.877 73.24 173.89 73.24C173.01 73.24 172.27 73.0067 171.67 72.54C171.217 72.2067 170.85 71.7333 170.57 71.12L171.81 70.6C171.957 70.9733 172.204 71.2867 172.55 71.54C172.924 71.82 173.377 71.96 173.91 71.96C174.537 71.96 175.004 71.8533 175.31 71.64C175.697 71.3867 175.89 71 175.89 70.48C175.89 70.0533 175.724 69.7333 175.39 69.52C175.11 69.3333 174.657 69.24 174.03 69.24H173.19V67.92H173.89C174.397 67.92 174.757 67.8467 174.97 67.7C175.264 67.5133 175.41 67.26 175.41 66.94C175.41 66.5667 175.29 66.28 175.05 66.08C174.824 65.88 174.47 65.78 173.99 65.78C173.577 65.78 173.197 65.8867 172.85 66.1C172.557 66.2867 172.33 66.5267 172.17 66.82ZM185.888 65.88V64.7H187.328V73H185.888V71.84C185.168 72.7733 184.221 73.24 183.048 73.24C181.928 73.24 180.975 72.8533 180.188 72.08C179.401 71.3067 179.008 70.2267 179.008 68.84C179.008 67.48 179.395 66.42 180.168 65.66C180.955 64.8867 181.915 64.5 183.048 64.5C184.248 64.5 185.195 64.96 185.888 65.88ZM183.208 65.78C182.448 65.78 181.801 66.0533 181.268 66.6C180.748 67.1333 180.488 67.88 180.488 68.84C180.488 69.76 180.728 70.5133 181.208 71.1C181.701 71.6733 182.368 71.96 183.208 71.96C184.048 71.96 184.715 71.66 185.208 71.06C185.715 70.46 185.968 69.7267 185.968 68.86C185.968 67.8733 185.688 67.1133 185.128 66.58C184.568 66.0467 183.928 65.78 183.208 65.78ZM190.055 73V64.7H191.495V68.1H195.415V64.7H196.855V73H195.415V69.42H191.495V73H190.055ZM199.567 73V64.7H201.007V68.1H204.927V64.7H206.367V73H204.927V69.42H201.007V73H199.567ZM215.439 65.88V64.7H216.879V73H215.439V71.84C214.719 72.7733 213.772 73.24 212.599 73.24C211.479 73.24 210.525 72.8533 209.739 72.08C208.952 71.3067 208.559 70.2267 208.559 68.84C208.559 67.48 208.945 66.42 209.719 65.66C210.505 64.8867 211.465 64.5 212.599 64.5C213.799 64.5 214.745 64.96 215.439 65.88ZM212.759 65.78C211.999 65.78 211.352 66.0533 210.819 66.6C210.299 67.1333 210.039 67.88 210.039 68.84C210.039 69.76 210.279 70.5133 210.759 71.1C211.252 71.6733 211.919 71.96 212.759 71.96C213.599 71.96 214.265 71.66 214.759 71.06C215.265 70.46 215.519 69.7267 215.519 68.86C215.519 67.8733 215.239 67.1133 214.679 66.58C214.119 66.0467 213.479 65.78 212.759 65.78ZM218.646 73L221.226 69.58C221.146 69.58 221.033 69.5667 220.886 69.54C220.753 69.5133 220.553 69.4467 220.286 69.34C220.019 69.2333 219.799 69.0933 219.626 68.92C219.186 68.5067 218.966 67.9533 218.966 67.26C218.966 66.4733 219.213 65.8533 219.706 65.4C220.199 64.9333 221.013 64.7 222.146 64.7H225.046V73H223.606V69.66H222.726L220.366 73H218.646ZM223.606 68.46V65.98H222.266C221.639 65.98 221.206 66.0533 220.966 66.2C220.619 66.4267 220.446 66.7667 220.446 67.22C220.446 67.6733 220.619 68.0067 220.966 68.22C221.219 68.38 221.646 68.46 222.246 68.46H223.606ZM239.458 72C238.631 72.8267 237.585 73.24 236.318 73.24C235.051 73.24 233.998 72.8267 233.158 72C232.331 71.1733 231.918 70.1333 231.918 68.88C231.918 67.6133 232.331 66.5667 233.158 65.74C233.998 64.9133 235.051 64.5 236.318 64.5C237.585 64.5 238.631 64.9133 239.458 65.74C240.298 66.5667 240.718 67.6133 240.718 68.88C240.718 70.1333 240.298 71.1733 239.458 72ZM238.378 66.6C237.818 66.0533 237.131 65.78 236.318 65.78C235.505 65.78 234.811 66.06 234.238 66.62C233.678 67.1667 233.398 67.92 233.398 68.88C233.398 69.84 233.685 70.5933 234.258 71.14C234.831 71.6867 235.518 71.96 236.318 71.96C237.118 71.96 237.805 71.6867 238.378 71.14C238.951 70.5933 239.238 69.84 239.238 68.88C239.238 67.9067 238.951 67.1467 238.378 66.6ZM242.926 64.7H244.366V68.1L247.726 64.7H249.486L245.886 68.4L249.926 73H248.046L244.806 69.36L244.366 69.78V73H242.926V64.7ZM257.993 72C257.167 72.8267 256.12 73.24 254.853 73.24C253.587 73.24 252.533 72.8267 251.693 72C250.867 71.1733 250.453 70.1333 250.453 68.88C250.453 67.6133 250.867 66.5667 251.693 65.74C252.533 64.9133 253.587 64.5 254.853 64.5C256.12 64.5 257.167 64.9133 257.993 65.74C258.833 66.5667 259.253 67.6133 259.253 68.88C259.253 70.1333 258.833 71.1733 257.993 72ZM256.913 66.6C256.353 66.0533 255.667 65.78 254.853 65.78C254.04 65.78 253.347 66.06 252.773 66.62C252.213 67.1667 251.933 67.92 251.933 68.88C251.933 69.84 252.22 70.5933 252.793 71.14C253.367 71.6867 254.053 71.96 254.853 71.96C255.653 71.96 256.34 71.6867 256.913 71.14C257.487 70.5933 257.773 69.84 257.773 68.88C257.773 67.9067 257.487 67.1467 256.913 66.6ZM267.742 64.7V73H266.302V66.02H263.342V69.76C263.342 70.84 263.128 71.64 262.702 72.16C262.222 72.7467 261.555 73.04 260.702 73.04C260.595 73.04 260.448 73.0267 260.262 73V71.68C260.395 71.7067 260.502 71.72 260.582 71.72C261.048 71.72 261.395 71.54 261.622 71.18C261.808 70.8867 261.902 70.4133 261.902 69.76V64.7H267.742ZM277.485 72C276.659 72.8267 275.612 73.24 274.345 73.24C273.079 73.24 272.025 72.8267 271.185 72C270.359 71.1733 269.945 70.1333 269.945 68.88C269.945 67.6133 270.359 66.5667 271.185 65.74C272.025 64.9133 273.079 64.5 274.345 64.5C275.612 64.5 276.659 64.9133 277.485 65.74C278.325 66.5667 278.745 67.6133 278.745 68.88C278.745 70.1333 278.325 71.1733 277.485 72ZM276.405 66.6C275.845 66.0533 275.159 65.78 274.345 65.78C273.532 65.78 272.839 66.06 272.265 66.62C271.705 67.1667 271.425 67.92 271.425 68.88C271.425 69.84 271.712 70.5933 272.285 71.14C272.859 71.6867 273.545 71.96 274.345 71.96C275.145 71.96 275.832 71.6867 276.405 71.14C276.979 70.5933 277.265 69.84 277.265 68.88C277.265 67.9067 276.979 67.1467 276.405 66.6ZM287.462 62.96H285.982C286.022 62.2533 286.228 61.6 286.602 61C287.268 59.96 288.302 59.44 289.702 59.44C290.888 59.44 291.808 59.7933 292.462 60.5C293.128 61.2067 293.462 62.0533 293.462 63.04C293.462 64.44 292.888 65.4267 291.742 66C291.915 66.0667 292.082 66.16 292.242 66.28C292.415 66.3867 292.622 66.56 292.862 66.8C293.102 67.04 293.295 67.3733 293.442 67.8C293.588 68.2133 293.662 68.6867 293.662 69.22C293.662 70.4333 293.268 71.4067 292.482 72.14C291.708 72.8733 290.735 73.24 289.562 73.24C288.775 73.24 288.042 73.06 287.362 72.7C286.682 72.3267 286.175 71.74 285.842 70.94C285.668 70.5133 285.568 70.0467 285.542 69.54H287.022C287.088 70.0867 287.248 70.5333 287.502 70.88C287.955 71.5467 288.642 71.88 289.562 71.88C290.295 71.88 290.915 71.62 291.422 71.1C291.928 70.5667 292.182 69.9267 292.182 69.18C292.182 68.0867 291.742 67.34 290.862 66.94C290.422 66.7267 289.915 66.6333 289.342 66.66V65.34C289.915 65.38 290.422 65.2867 290.862 65.06C291.608 64.6733 291.982 64.0133 291.982 63.08C291.982 62.4267 291.795 61.8867 291.422 61.46C291.048 61.02 290.475 60.8 289.702 60.8C288.955 60.8 288.382 61.0533 287.982 61.56C287.675 61.96 287.502 62.4267 287.462 62.96ZM308.157 65.3V67.02C307.504 66.1933 306.637 65.78 305.557 65.78C304.744 65.78 304.05 66.06 303.477 66.62C302.904 67.1667 302.617 67.92 302.617 68.88C302.617 69.84 302.904 70.5933 303.477 71.14C304.05 71.6867 304.737 71.96 305.537 71.96C306.604 71.96 307.497 71.5267 308.217 70.66V72.38C307.43 72.9533 306.55 73.24 305.577 73.24C304.284 73.24 303.217 72.8333 302.377 72.02C301.55 71.1933 301.137 70.1533 301.137 68.9C301.137 67.6333 301.557 66.5867 302.397 65.76C303.237 64.92 304.297 64.5 305.577 64.5C306.537 64.5 307.397 64.7667 308.157 65.3ZM309.466 73L311.466 64.06L314.906 70.82L318.266 64.06L320.266 73H318.786L317.686 67.86L314.866 73.58L312.006 67.86L310.946 73H309.466ZM326.696 64.7H329.836C330.596 64.7 331.176 64.86 331.576 65.18C332.056 65.5667 332.296 66.0867 332.296 66.74C332.296 67.46 331.996 68.0133 331.396 68.4C331.809 68.5067 332.156 68.6933 332.436 68.96C332.876 69.3867 333.096 69.92 333.096 70.56C333.096 71.36 332.809 71.9867 332.236 72.44C331.743 72.8133 331.089 73 330.276 73H326.696V64.7ZM328.136 68.08H329.656C330.043 68.08 330.349 68 330.576 67.84C330.843 67.64 330.976 67.3533 330.976 66.98C330.976 66.6467 330.843 66.38 330.576 66.18C330.376 66.0467 329.989 65.98 329.416 65.98H328.136V68.08ZM328.136 71.72H329.916C330.529 71.72 330.963 71.6267 331.216 71.44C331.536 71.2 331.696 70.8933 331.696 70.52C331.696 70.12 331.556 69.8067 331.276 69.58C331.023 69.38 330.589 69.28 329.976 69.28H328.136V71.72ZM335.29 73V64.7H336.73V67.88H338.21C339.356 67.88 340.196 68.1533 340.73 68.7C341.156 69.1267 341.37 69.7067 341.37 70.44C341.37 71.2133 341.123 71.8333 340.63 72.3C340.136 72.7667 339.323 73 338.19 73H335.29ZM336.73 71.72H338.07C338.67 71.72 339.096 71.6467 339.35 71.5C339.71 71.26 339.89 70.9067 339.89 70.44C339.89 69.96 339.716 69.6133 339.37 69.4C339.13 69.24 338.703 69.16 338.09 69.16H336.73V71.72ZM342.37 73V64.7H343.81V73H342.37ZM346.52 73V64.7H347.96V71.68H351.16V64.7H352.6V71.68H355.8V64.7H357.24V73H346.52ZM366.118 70.22L367.318 70.88C367.038 71.4133 366.698 71.86 366.298 72.22C365.538 72.9 364.618 73.24 363.538 73.24C362.418 73.24 361.451 72.88 360.638 72.16C359.838 71.4267 359.438 70.34 359.438 68.9C359.438 67.6333 359.798 66.5867 360.518 65.76C361.251 64.92 362.231 64.5 363.458 64.5C364.844 64.5 365.891 65.0067 366.598 66.02C367.158 66.82 367.418 67.86 367.378 69.14H360.918C360.931 69.98 361.191 70.66 361.698 71.18C362.204 71.7 362.824 71.96 363.558 71.96C364.211 71.96 364.778 71.76 365.258 71.36C365.631 71.04 365.918 70.66 366.118 70.22ZM361.018 67.94H365.898C365.778 67.2867 365.491 66.7667 365.038 66.38C364.598 65.98 364.071 65.78 363.458 65.78C362.858 65.78 362.324 65.9867 361.858 66.4C361.404 66.8 361.124 67.3133 361.018 67.94ZM142.36 90.7H149.04V99H147.6V92.02H143.8V99H142.36V90.7ZM158.775 98C157.948 98.8267 156.901 99.24 155.635 99.24C154.368 99.24 153.315 98.8267 152.475 98C151.648 97.1733 151.235 96.1333 151.235 94.88C151.235 93.6133 151.648 92.5667 152.475 91.74C153.315 90.9133 154.368 90.5 155.635 90.5C156.901 90.5 157.948 90.9133 158.775 91.74C159.615 92.5667 160.035 93.6133 160.035 94.88C160.035 96.1333 159.615 97.1733 158.775 98ZM157.695 92.6C157.135 92.0533 156.448 91.78 155.635 91.78C154.821 91.78 154.128 92.06 153.555 92.62C152.995 93.1667 152.715 93.92 152.715 94.88C152.715 95.84 153.001 96.5933 153.575 97.14C154.148 97.6867 154.835 97.96 155.635 97.96C156.435 97.96 157.121 97.6867 157.695 97.14C158.268 96.5933 158.555 95.84 158.555 94.88C158.555 93.9067 158.268 93.1467 157.695 92.6ZM162.243 90.7H165.383C166.143 90.7 166.723 90.86 167.123 91.18C167.603 91.5667 167.843 92.0867 167.843 92.74C167.843 93.46 167.543 94.0133 166.943 94.4C167.356 94.5067 167.703 94.6933 167.983 94.96C168.423 95.3867 168.643 95.92 168.643 96.56C168.643 97.36 168.356 97.9867 167.783 98.44C167.289 98.8133 166.636 99 165.823 99H162.243V90.7ZM163.683 94.08H165.203C165.589 94.08 165.896 94 166.123 93.84C166.389 93.64 166.523 93.3533 166.523 92.98C166.523 92.6467 166.389 92.38 166.123 92.18C165.923 92.0467 165.536 91.98 164.963 91.98H163.683V94.08ZM163.683 97.72H165.463C166.076 97.72 166.509 97.6267 166.763 97.44C167.083 97.2 167.243 96.8933 167.243 96.52C167.243 96.12 167.103 95.8067 166.823 95.58C166.569 95.38 166.136 95.28 165.523 95.28H163.683V97.72ZM176.997 96.22L178.197 96.88C177.917 97.4133 177.577 97.86 177.177 98.22C176.417 98.9 175.497 99.24 174.417 99.24C173.297 99.24 172.33 98.88 171.517 98.16C170.717 97.4267 170.317 96.34 170.317 94.9C170.317 93.6333 170.677 92.5867 171.397 91.76C172.13 90.92 173.11 90.5 174.337 90.5C175.723 90.5 176.77 91.0067 177.477 92.02C178.037 92.82 178.297 93.86 178.257 95.14H171.797C171.81 95.98 172.07 96.66 172.577 97.18C173.083 97.7 173.703 97.96 174.437 97.96C175.09 97.96 175.657 97.76 176.137 97.36C176.51 97.04 176.797 96.66 176.997 96.22ZM171.897 93.94H176.777C176.657 93.2867 176.37 92.7667 175.917 92.38C175.477 91.98 174.95 91.78 174.337 91.78C173.737 91.78 173.203 91.9867 172.737 92.4C172.283 92.8 172.003 93.3133 171.897 93.94ZM181.905 97.84V103.6H180.465V90.7H181.905V91.86C182.639 90.9533 183.585 90.5 184.745 90.5C185.985 90.5 186.965 90.94 187.685 91.82C188.419 92.6867 188.785 93.7133 188.785 94.9C188.785 96.1 188.425 97.1267 187.705 97.98C186.985 98.82 186.019 99.24 184.805 99.24C183.592 99.24 182.625 98.7733 181.905 97.84ZM184.605 97.96C185.419 97.96 186.072 97.6667 186.565 97.08C187.059 96.48 187.305 95.7533 187.305 94.9C187.305 93.94 187.032 93.18 186.485 92.62C185.939 92.06 185.305 91.78 184.585 91.78C183.865 91.78 183.225 92.06 182.665 92.62C182.105 93.18 181.825 93.9333 181.825 94.88C181.825 95.7467 182.079 96.48 182.585 97.08C183.105 97.6667 183.779 97.96 184.605 97.96ZM189.598 99L193.138 94.56L190.118 90.7H191.878L194.018 93.52L196.198 90.7H197.958L194.918 94.58L198.358 99H196.598L193.978 95.62L191.358 99H189.598ZM199.88 99V90.7H201.32V94.1H205.24V90.7H206.68V99H205.24V95.42H201.32V99H199.88ZM216.411 98C215.585 98.8267 214.538 99.24 213.271 99.24C212.005 99.24 210.951 98.8267 210.111 98C209.285 97.1733 208.871 96.1333 208.871 94.88C208.871 93.6133 209.285 92.5667 210.111 91.74C210.951 90.9133 212.005 90.5 213.271 90.5C214.538 90.5 215.585 90.9133 216.411 91.74C217.251 92.5667 217.671 93.6133 217.671 94.88C217.671 96.1333 217.251 97.1733 216.411 98ZM215.331 92.6C214.771 92.0533 214.085 91.78 213.271 91.78C212.458 91.78 211.765 92.06 211.191 92.62C210.631 93.1667 210.351 93.92 210.351 94.88C210.351 95.84 210.638 96.5933 211.211 97.14C211.785 97.6867 212.471 97.96 213.271 97.96C214.071 97.96 214.758 97.6867 215.331 97.14C215.905 96.5933 216.191 95.84 216.191 94.88C216.191 93.9067 215.905 93.1467 215.331 92.6ZM226.38 91.3V93.02C225.726 92.1933 224.86 91.78 223.78 91.78C222.966 91.78 222.273 92.06 221.7 92.62C221.126 93.1667 220.84 93.92 220.84 94.88C220.84 95.84 221.126 96.5933 221.7 97.14C222.273 97.6867 222.96 97.96 223.76 97.96C224.826 97.96 225.72 97.5267 226.44 96.66V98.38C225.653 98.9533 224.773 99.24 223.8 99.24C222.506 99.24 221.44 98.8333 220.6 98.02C219.773 97.1933 219.36 96.1533 219.36 94.9C219.36 93.6333 219.78 92.5867 220.62 91.76C221.46 90.92 222.52 90.5 223.8 90.5C224.76 90.5 225.62 90.7667 226.38 91.3ZM234.089 92.02H231.489V99H230.049V92.02H227.449V90.7H234.089V92.02ZM235.602 90.7H237.042V96.18L242.722 90.06V99H241.282V93.46L235.602 99.58V90.7ZM250.114 90.7H256.794V99H255.354V92.02H251.554V99H250.114V90.7ZM266.528 98C265.702 98.8267 264.655 99.24 263.388 99.24C262.122 99.24 261.068 98.8267 260.228 98C259.402 97.1733 258.988 96.1333 258.988 94.88C258.988 93.6133 259.402 92.5667 260.228 91.74C261.068 90.9133 262.122 90.5 263.388 90.5C264.655 90.5 265.702 90.9133 266.528 91.74C267.368 92.5667 267.788 93.6133 267.788 94.88C267.788 96.1333 267.368 97.1733 266.528 98ZM265.448 92.6C264.888 92.0533 264.202 91.78 263.388 91.78C262.575 91.78 261.882 92.06 261.308 92.62C260.748 93.1667 260.468 93.92 260.468 94.88C260.468 95.84 260.755 96.5933 261.328 97.14C261.902 97.6867 262.588 97.96 263.388 97.96C264.188 97.96 264.875 97.6867 265.448 97.14C266.022 96.5933 266.308 95.84 266.308 94.88C266.308 93.9067 266.022 93.1467 265.448 92.6ZM274.437 99V95.74C273.65 95.86 272.997 95.92 272.477 95.92C271.57 95.92 270.897 95.72 270.457 95.32C269.99 94.9067 269.757 94.2267 269.757 93.28V90.7H271.197V93.08C271.197 93.5333 271.257 93.86 271.377 94.06C271.563 94.42 271.983 94.6 272.637 94.6C273.223 94.6 273.823 94.54 274.437 94.42V90.7H275.877V99H274.437ZM278.59 90.7H281.73C282.49 90.7 283.07 90.86 283.47 91.18C283.95 91.5667 284.19 92.0867 284.19 92.74C284.19 93.46 283.89 94.0133 283.29 94.4C283.704 94.5067 284.05 94.6933 284.33 94.96C284.77 95.3867 284.99 95.92 284.99 96.56C284.99 97.36 284.704 97.9867 284.13 98.44C283.637 98.8133 282.984 99 282.17 99H278.59V90.7ZM280.03 94.08H281.55C281.937 94.08 282.244 94 282.47 93.84C282.737 93.64 282.87 93.3533 282.87 92.98C282.87 92.6467 282.737 92.38 282.47 92.18C282.27 92.0467 281.884 91.98 281.31 91.98H280.03V94.08ZM280.03 97.72H281.81C282.424 97.72 282.857 97.6267 283.11 97.44C283.43 97.2 283.59 96.8933 283.59 96.52C283.59 96.12 283.45 95.8067 283.17 95.58C282.917 95.38 282.484 95.28 281.87 95.28H280.03V97.72ZM287.184 99V90.7H288.624V93.88H290.104C291.251 93.88 292.091 94.1533 292.624 94.7C293.051 95.1267 293.264 95.7067 293.264 96.44C293.264 97.2133 293.018 97.8333 292.524 98.3C292.031 98.7667 291.218 99 290.084 99H287.184ZM288.624 97.72H289.964C290.564 97.72 290.991 97.6467 291.244 97.5C291.604 97.26 291.784 96.9067 291.784 96.44C291.784 95.96 291.611 95.6133 291.264 95.4C291.024 95.24 290.598 95.16 289.984 95.16H288.624V97.72ZM294.264 99V90.7H295.704V99H294.264Z" fill="black"></path>
  <path d="M237.28 141.781C237.712 141.074 237.488 140.151 236.781 139.72C236.074 139.288 235.151 139.512 234.72 140.219L237.28 141.781ZM198.542 200.353C198.737 201.158 199.548 201.653 200.353 201.458L213.474 198.281C214.279 198.086 214.774 197.276 214.579 196.47C214.384 195.665 213.573 195.171 212.768 195.365L201.105 198.189L198.281 186.526C198.086 185.721 197.276 185.226 196.47 185.421C195.665 185.616 195.171 186.427 195.365 187.232L198.542 200.353ZM234.72 140.219L198.72 199.219L201.28 200.781L237.28 141.781L234.72 140.219Z" fill="#005D04"></path>
  <line x1="98.0205" y1="380.5" x2="171.021" y2="381.5" stroke="#E80000" stroke-width="3" stroke-dasharray="5 5"></line>
</svg>
