<?xml version="1.0" encoding="UTF-8"?>
<svg xmlns="http://www.w3.org/2000/svg" width="400" height="400" viewBox="0 0 400 400" fill="none">
  <path fill-rule="evenodd" clip-rule="evenodd" d="M322.647 71.0211C320.296 72.5781 317.187 75.1061 315.737 76.6391C311.524 81.0941 310.685 81.5571 305.555 82.2601C300.738 82.9201 292.699 86.2691 290.155 88.6761C287.623 91.0711 286.975 89.8791 286.897 82.6761C286.854 78.6881 286.59 75.9911 286.312 76.6821C285.963 77.5461 285.22 77.2351 283.924 75.6821C281.515 72.7941 281.501 73.5641 283.872 78.4881C285.57 82.0131 285.683 83.6641 284.954 94.2271C284.367 102.722 283.647 106.779 282.384 108.707C281.419 110.18 280.454 110.859 280.24 110.217C280.025 109.574 280.622 107.869 281.566 106.429C282.903 104.389 283.304 101.407 283.379 92.9531C283.45 84.9721 283.176 82.3461 282.343 83.0371C281.56 83.6871 280.727 82.8121 279.645 80.2011C277.658 75.4111 277.501 77.3291 279.432 82.8001C280.232 85.0691 280.65 86.9261 280.36 86.9261C279.032 86.9261 276.968 83.8451 276.89 81.7471C276.811 79.6031 276.741 79.6341 275.982 82.1561C275.465 83.8731 275.649 86.5111 276.478 89.2671C277.975 94.2421 278.768 109.836 277.618 111.696C277.2 112.373 277.085 113.293 277.362 113.742C277.64 114.191 277.236 116.328 276.465 118.492C275.694 120.656 275.044 121.676 275.02 120.759C274.996 119.843 274.463 118.922 273.836 118.713C273.1 118.467 272.617 114.63 272.471 107.879C272.245 97.4351 271.814 94.2611 269.961 89.3871C269.419 87.9621 268.973 85.8131 268.969 84.6111C268.966 83.4091 268.022 81.0761 266.872 79.4261C264.919 76.6231 264.826 76.5901 265.457 78.9261C265.828 80.3011 266.824 84.5761 267.67 88.4261C268.516 92.2761 269.661 95.7111 270.214 96.0601C270.767 96.4091 271.001 97.3091 270.733 98.0601C270.465 98.8111 270.635 100.182 271.109 101.107C271.964 102.771 269.91 105.926 267.972 105.926C267.498 105.926 267.275 107.726 267.476 109.926C267.677 112.126 267.497 113.926 267.076 113.926C265.506 113.926 265.13 112.651 266.015 110.323C267.352 106.806 265.699 107.396 264.101 111.007C263.095 113.279 263.031 114.381 263.857 115.207C264.599 115.949 264.976 122.326 264.976 134.126C264.976 151.259 265.051 151.926 266.976 151.926C268.121 151.926 268.976 151.259 268.976 150.367C268.976 149.51 269.394 149.066 269.904 149.382C271.207 150.187 272.177 146.571 272.525 139.619C272.688 136.353 273.367 133.173 274.035 132.553C274.968 131.687 275.123 131.946 274.706 133.676C274.407 134.914 274.535 135.926 274.99 135.926C275.445 135.926 276.127 134.516 276.505 132.793C277.011 130.488 277.425 130.025 278.069 131.043C278.765 132.141 278.949 132.065 278.961 130.676C278.979 128.64 277.879 128.423 276.176 130.126C275.243 131.059 274.976 130.991 274.976 129.82C274.976 127.042 279.148 115.926 280.19 115.926C280.828 115.926 280.771 116.468 280.041 117.347C279.066 118.523 279.26 118.671 281.169 118.203C282.438 117.892 284 117.229 284.641 116.73C285.485 116.072 285.731 116.732 285.533 119.124C285.14 123.895 285.07 124.102 284.065 123.481C282.939 122.785 281.795 129.139 282.088 134.468C282.207 136.645 281.993 139.385 281.611 140.558C281.133 142.023 281.395 142.873 282.446 143.276C283.469 143.669 283.976 145.199 283.976 147.895C283.976 150.112 284.359 151.926 284.828 151.926C285.296 151.926 285.997 145.063 286.384 136.676C286.827 127.095 287.567 120.683 288.374 119.426C289.081 118.326 289.976 116.143 290.362 114.576C290.748 113.008 291.938 110.533 293.005 109.076C295.227 106.042 294.782 101.105 292.479 103.232C291.768 103.889 291.433 104.833 291.735 105.331C292.038 105.828 291.718 105.885 291.023 105.455C290.114 104.893 289.933 105.216 290.376 106.612C290.796 107.935 290.04 109.614 287.99 111.91C285.111 115.135 282.332 115.612 284.975 112.427C286.068 111.11 285.978 110.962 284.367 111.434C282.691 111.925 282.703 111.862 284.476 110.878C286.586 109.708 291.363 102.98 290.615 102.232C290.374 101.991 289.328 102.705 288.291 103.818C286.44 105.805 286.405 105.806 286.405 103.885C286.405 101.966 287.076 101.722 292.726 101.59C293.964 101.561 294.976 100.934 294.976 100.197C294.976 98.8151 291.511 98.8271 289.295 100.218C287.187 101.541 286.951 99.2271 288.937 96.7021C290.105 95.2181 290.653 93.4071 290.32 92.1331C289.896 90.5121 290.546 89.5491 293.122 87.9781C294.967 86.8541 297.226 85.9321 298.143 85.9301C299.059 85.9281 299.959 85.5161 300.143 85.0161C300.326 84.5151 302.501 83.9021 304.976 83.6541C307.451 83.4051 308.464 83.3951 307.226 83.6301C305.988 83.8661 304.976 84.7041 304.976 85.4921C304.976 86.2811 304.611 86.9261 304.165 86.9261C302.787 86.9261 298.901 90.9961 299.443 91.8721C299.724 92.3271 299.171 93.3131 298.215 94.0631C296.641 95.2961 296.606 95.2601 297.848 93.6761C298.666 92.6331 298.791 91.9261 298.157 91.9261C297.573 91.9261 296.811 92.3831 296.466 92.9421C296.12 93.5011 295.419 93.7001 294.907 93.3831C294.395 93.0671 293.976 93.2621 293.976 93.8171C293.976 94.3721 294.764 95.2781 295.726 95.8301C297.17 96.6581 296.97 96.7981 294.585 96.6301C292.995 96.5181 291.524 96.9021 291.316 97.4851C290.52 99.7081 296.932 98.0461 299.819 95.2801C304.193 91.0911 306.054 89.6711 306.538 90.1551C306.774 90.3911 305.845 91.6401 304.472 92.9301C303.099 94.2191 301.969 96.2091 301.961 97.3501C301.951 98.7101 301.679 99.0071 301.174 98.2121C300.625 97.3481 299.618 97.8281 297.689 99.8721C295.227 102.48 294.166 104.926 295.497 104.926C296.444 104.926 306.566 94.4781 308.261 91.7511C309.502 89.7541 309.614 88.9501 308.7 88.5801C308.027 88.3071 308.451 88.0481 309.643 88.0051C310.834 87.9621 311.982 88.4441 312.193 89.0771C312.404 89.7101 315.154 90.4421 318.303 90.7031C323.734 91.1541 324.334 90.9651 329.912 87.0521C333.147 84.7831 336.059 82.9261 336.383 82.9261C336.706 82.9261 338.66 81.3221 340.724 79.3611C342.787 77.4001 346.613 74.5881 349.225 73.1111C353.792 70.5291 356.204 67.6631 351.849 69.9941C350.206 70.8731 349.54 70.8381 348.922 69.8391C348.316 68.8591 346.772 69.4421 342.549 72.2461C335.6 76.8601 335.274 77.8781 342.02 73.9001C347.311 70.7801 349.822 69.9711 346.566 72.4351C345.516 73.2301 343.467 74.9031 342.014 76.1531C338.73 78.9771 328.35 86.0271 324.917 87.7641C321.947 89.2671 313.803 88.9501 313.265 87.3101C313.056 86.6751 314.632 85.9171 316.924 85.5501C319.868 85.0801 322.296 83.6231 325.963 80.1251C328.72 77.4951 330.966 74.9121 330.953 74.3851C330.94 73.8571 329.365 75.1631 327.453 77.2861C325.541 79.4101 323.976 80.7721 323.976 80.3141C323.976 79.8561 323.312 80.4281 322.501 81.5861C321.149 83.5171 314.432 85.6151 315.588 83.7451C315.866 83.2951 316.702 82.9261 317.446 82.9261C318.19 82.9261 319.879 81.6421 321.2 80.0721C324.124 76.5971 327.944 74.0101 331.028 73.4161C333.672 72.9071 336.129 70.9261 334.117 70.9261C333.425 70.9261 333.136 70.4761 333.476 69.9261C333.816 69.3761 334.769 68.9261 335.594 68.9261C336.419 68.9261 336.816 69.3761 336.476 69.9261C336.136 70.4761 336.758 70.9261 337.858 70.9261C338.958 70.9261 340.183 70.4001 340.581 69.7561C341.067 68.9691 340.759 68.7951 339.64 69.2251C338.725 69.5761 337.976 69.4641 337.976 68.9771C337.976 68.4891 335.489 68.1131 332.448 68.1401C328.106 68.1791 326.005 68.7971 322.647 71.0211ZM342.789 68.6091C343.51 68.8981 344.373 68.8621 344.705 68.5301C345.037 68.1981 344.447 67.9621 343.393 68.0051C342.228 68.0531 341.991 68.2901 342.789 68.6091ZM330.113 69.6261C328.962 70.0841 328.962 70.3111 330.113 71.0891C331.225 71.8401 331.2 71.9641 329.976 71.7651C327.543 71.3671 322.664 74.5861 319.976 78.3601C318.601 80.2911 317.139 81.8831 316.726 81.8981C315.326 81.9501 315.967 77.7921 317.619 76.1051C319.905 73.7691 328.162 69.0751 329.976 69.0801C331.142 69.0831 331.172 69.2051 330.113 69.6261ZM270.982 75.6761C270.998 77.9321 273.208 83.9261 274.023 83.9261C274.547 83.9261 274.976 83.4761 274.976 82.9261C274.976 82.3761 274.526 81.9261 273.976 81.9261C273.426 81.9261 272.976 80.3511 272.976 78.4261C272.976 76.5011 272.526 74.9261 271.976 74.9261C271.426 74.9261 270.979 75.2641 270.982 75.6761ZM333.976 77.9261C333.976 78.4761 333.301 78.9261 332.476 78.9261C331.651 78.9261 330.976 79.3921 330.976 79.9611C330.976 80.6731 331.584 80.6711 332.92 79.9561C335.264 78.7011 336.503 76.9261 335.035 76.9261C334.453 76.9261 333.976 77.3761 333.976 77.9261ZM326.277 82.3441C324.517 83.4891 322.835 85.0121 322.538 85.7281C322.009 87.0051 323.179 86.5901 325.476 84.6871C326.026 84.2311 327.375 83.2351 328.474 82.4741C331.751 80.2041 329.747 80.0861 326.277 82.3441ZM270.991 87.1761C271 88.4141 271.389 90.0301 271.857 90.7681C272.478 91.7481 272.841 91.4111 273.203 89.5181C273.476 88.0921 273.285 86.9261 272.778 86.9261C272.272 86.9261 272.136 86.4761 272.476 85.9261C272.816 85.3761 272.617 84.9261 272.035 84.9261C271.453 84.9261 270.983 85.9381 270.991 87.1761ZM280.77 100.426L280.739 103.426L279.976 100.426C279.556 98.7761 279.22 95.1761 279.228 92.4261L279.243 87.4261L280.022 92.4261C280.45 95.1761 280.787 98.7761 280.77 100.426ZM303.476 90.9261C303.136 91.4761 302.408 91.9261 301.858 91.9261C301.308 91.9261 301.136 91.4761 301.476 90.9261C301.816 90.3761 302.544 89.9261 303.094 89.9261C303.644 89.9261 303.816 90.3761 303.476 90.9261ZM289.08 94.2221C287.796 95.5061 286.495 94.5141 287.445 92.9761C287.813 92.3811 288.572 92.1771 289.132 92.5231C289.815 92.9451 289.798 93.5041 289.08 94.2221ZM272.976 94.7911C272.976 95.7821 273.308 96.9241 273.713 97.3301C274.119 97.7351 274.456 98.7841 274.463 99.6601C274.47 100.537 275.107 101.465 275.878 101.724C276.944 102.081 277.1 101.624 276.531 99.8101C276.119 98.4991 275.729 96.6501 275.665 95.7011C275.505 93.3471 272.976 92.4911 272.976 94.7911ZM115.841 107.676C115.24 109.188 113.846 112.383 112.743 114.774C110.578 119.468 109.647 132.809 111.476 132.934C112.026 132.971 112.926 130.089 113.476 126.529C114.026 122.968 114.873 119.689 115.359 119.241C115.867 118.772 115.919 120.123 115.482 122.426C115.065 124.626 114.603 130.926 114.456 136.426C114.309 141.926 113.629 148.597 112.945 151.25C111.803 155.681 111.499 156.023 109.222 155.452C107.858 155.109 105.476 154.576 103.929 154.267C100.175 153.516 97.0287 150.441 96.3037 146.814C95.5237 142.918 93.4047 141.929 85.7917 141.911C82.3177 141.903 77.6757 141.247 75.4757 140.455C73.2757 139.662 69.8777 138.994 67.9257 138.97C65.9727 138.946 63.9247 138.475 63.3727 137.923C62.0537 136.604 56.4877 141.179 53.3167 146.189C52.0057 148.259 50.6557 152.084 50.3157 154.689C49.5267 160.744 48.5557 162.571 45.1957 164.326C41.8647 166.065 39.8917 169.879 36.6087 180.926C34.0547 189.52 33.3607 199.298 35.3517 198.634C35.9337 198.44 37.0997 195.566 37.9427 192.247C38.7857 188.928 40.7127 184.603 42.2257 182.636C43.7377 180.669 44.9757 178.633 44.9757 178.111C44.9757 177.59 47.0377 176.644 49.5567 176.01C55.7997 174.438 58.8997 171.277 60.5477 164.804C61.3007 161.846 62.5447 157.176 63.3107 154.426L64.7047 149.426L76.0897 149.766C85.2767 150.04 87.7107 150.426 88.6917 151.766C89.3607 152.679 90.3727 153.97 90.9417 154.634C91.5107 155.298 91.9757 156.105 91.9757 156.426C91.9757 158 101.077 167.926 102.52 167.926C106.497 167.926 111.957 183.215 109.907 188.609C109.322 190.147 109.119 192.872 109.455 194.666C110.054 197.857 109.99 197.926 106.456 197.926C104.469 197.926 102.014 197.482 101 196.939C97.1857 194.897 90.9867 187.516 89.3397 183.054C86.9347 176.54 86.2627 175.926 81.5307 175.926C76.5757 175.926 65.6067 180.878 64.0287 183.827C63.4497 184.909 62.9757 187.672 62.9757 189.966C62.9757 193.123 62.2217 195.09 59.8767 198.052C58.1717 200.204 57.0297 202.623 57.3377 203.428C57.6467 204.232 57.2727 206.667 56.5067 208.837C54.9067 213.372 54.2067 226.877 55.5657 226.994C56.0667 227.037 57.2807 223.825 58.2647 219.857C59.2487 215.889 60.9367 211.52 62.0147 210.149C63.0937 208.778 63.9757 206.807 63.9757 205.77C63.9757 204.676 65.1317 203.367 66.7257 202.655C69.7297 201.313 72.8897 198.082 72.9427 196.297C72.9737 195.226 75.8197 193.807 80.6807 192.44C82.5267 191.921 83.4917 192.734 86.6197 197.445C90.1647 202.783 94.1297 205.926 97.3217 205.926C98.1167 205.926 100.277 208.276 102.122 211.148C105.447 216.325 105.479 216.487 105.794 229.898C105.969 237.338 105.969 245.676 105.794 248.426L105.476 253.426L102.476 248.426C100.826 245.676 98.2957 240.276 96.8527 236.426C95.1157 231.792 93.6187 229.305 92.4237 229.068C89.8747 228.563 87.7187 226.195 85.9757 221.988C85.1507 219.996 83.7047 217.291 82.7637 215.977C81.0967 213.653 80.8957 213.622 75.2637 214.845C72.0797 215.535 68.4037 216.31 67.0937 216.566C63.0927 217.346 61.0457 220.802 61.0087 226.838C60.9907 229.815 60.2297 234.616 59.3187 237.507C57.6717 242.733 57.6777 242.796 60.3187 248.195C61.7797 251.181 62.9757 253.918 62.9757 254.276C62.9757 255.913 60.6457 254.62 57.8417 251.426C55.2927 248.523 54.0877 247.926 50.7737 247.926C48.5757 247.926 45.3597 248.568 43.6267 249.352C41.8937 250.136 36.6757 251.263 32.0317 251.857C27.3877 252.45 23.2317 253.496 22.7967 254.181C22.3617 254.866 21.9997 258.546 21.9907 262.36C21.9797 267.313 21.3817 270.521 19.8977 273.587C18.7547 275.948 17.9677 278.6 18.1477 279.481C18.4367 280.893 18.6817 280.866 20.2207 279.254C24.4157 274.859 26.9437 270.997 28.1437 267.152L29.4317 263.024L37.4477 263.642C46.9427 264.374 54.4757 267.454 58.7907 272.368C63.2297 277.423 66.6377 279.253 73.0177 280.006C77.8047 280.57 79.4947 281.326 82.7927 284.377C85.4047 286.794 87.0087 289.288 87.4447 291.614C88.1127 295.174 93.1967 300.926 95.6757 300.926C98.2527 300.926 100.015 305.789 100.961 315.517C102.186 328.113 102.187 327.926 100.841 327.926C99.8147 327.926 94.9757 323.387 94.9757 322.425C94.9757 322.206 93.6257 320.026 91.9757 317.581C90.3257 315.136 88.9757 312.816 88.9757 312.424C88.9757 311.729 82.6147 303.133 79.5617 299.701C76.9337 296.748 73.1547 296.441 68.3257 298.787C62.2487 301.739 56.2047 301.568 50.2607 298.275C47.6287 296.816 45.2507 295.309 44.9757 294.924C42.6107 291.619 33.4447 290.909 30.3517 293.791C26.5747 297.309 24.8007 297.719 18.1937 296.599C12.0787 295.563 11.8417 295.605 9.25772 298.19C7.10472 300.342 6.45972 302.181 5.84872 307.9C5.12172 314.702 3.69172 320.524 1.85272 324.162C0.670717 326.502 0.741718 330.663 1.97572 331.426C3.44072 332.331 3.23672 341.672 1.74072 342.171C0.938718 342.438 0.375718 345.444 0.134718 350.754C-0.182282 357.745 -0.00428236 358.926 1.36972 358.926C2.25272 358.926 2.98972 358.138 3.00772 357.176C3.04372 355.181 5.25472 351.931 6.58572 351.916C7.56472 351.905 10.8797 343.169 11.7047 338.426C11.9917 336.776 12.5427 334.976 12.9287 334.426C13.3157 333.876 14.4207 331.29 15.3847 328.679C16.7867 324.886 16.9437 323.018 16.1697 319.388C14.7177 312.582 15.7787 311.962 27.7177 312.639C33.0847 312.943 37.9467 313.562 38.5227 314.014C40.4817 315.549 50.8467 316.609 56.4597 315.847C60.7547 315.264 62.7837 314.373 65.2037 312.007C68.7817 308.509 69.3147 308.362 71.1547 310.365C74.9867 314.538 81.6307 322.264 87.1167 328.926C90.5127 333.051 94.0297 337.101 94.9317 337.926C95.8327 338.751 97.6177 340.925 98.8987 342.756C101.154 345.983 101.225 346.718 101.183 366.398C101.149 382.472 100.826 387.305 99.6367 389.568C97.7167 393.218 94.4847 395.926 92.0457 395.926C89.2267 395.926 86.9087 397.009 87.5407 398.031C88.2807 399.229 94.7017 399.179 95.4487 397.97C95.7737 397.444 96.6477 397.246 97.3897 397.531C98.1317 397.816 99.9567 396.921 101.446 395.542C102.934 394.163 104.674 392.844 105.314 392.611C106.186 392.293 106.171 391.67 105.251 390.111C104.273 388.452 104.306 387.242 105.416 384.095C106.438 381.198 106.511 379.861 105.691 379.041C104.871 378.221 105.158 377.926 106.776 377.926C109.525 377.926 109.673 375.921 106.976 375.216C104.645 374.606 104.278 372.926 106.476 372.926C107.301 372.926 107.976 372.265 107.976 371.457C107.976 370.558 107.39 370.214 106.465 370.569C105.383 370.984 105.129 370.69 105.572 369.537C105.912 368.651 105.692 367.926 105.083 367.926C104.474 367.926 103.976 367.251 103.976 366.426C103.976 365.601 104.836 364.926 105.888 364.926C107.339 364.926 107.963 365.889 108.475 368.921C108.846 371.118 109.626 373.21 110.209 373.57C110.914 374.006 111.036 373.301 110.574 371.458C108.618 363.668 108.694 363.014 112.441 355.431C116.374 347.471 119.281 345.387 123.113 347.78C124.123 348.41 126.257 348.926 127.855 348.926C129.454 348.926 130.994 349.529 131.276 350.267C131.979 352.097 130.457 354.341 129.088 353.495C127.377 352.438 127.83 354.171 129.92 356.676C131.776 358.901 134.976 359.76 134.976 358.033C134.976 357.542 135.716 356.856 136.621 356.509C138.347 355.846 141.973 358.432 141.981 360.331C141.983 360.933 143.097 364.126 144.457 367.426C148.181 376.467 147.749 378.412 143.233 372.926C135.543 363.583 126.337 354.926 124.092 354.926C121.582 354.926 118.897 359.983 115.862 370.426L114.118 376.426L114.047 368.778C113.976 361.175 114 361.103 118.152 356.464C121.642 352.565 122.752 351.896 124.902 352.392C126.844 352.841 127.108 352.737 125.976 351.972C125.151 351.413 123.801 350.947 122.976 350.935C121.162 350.91 113.007 359.799 112.899 361.919C112.857 362.748 112.63 364.326 112.395 365.426C112.16 366.526 111.968 373.614 111.969 381.176C111.97 392.588 111.721 394.926 110.504 394.926C109.612 394.926 109.264 395.513 109.614 396.426C110.438 398.571 111.73 398.277 112.528 395.763C113.188 393.682 113.252 393.673 114.219 395.513C115.74 398.408 118.076 399.931 120.917 399.881L123.476 399.836L120.577 398.598C116.031 396.657 113.523 385.784 115.9 378.325C116.408 376.731 117.809 372.051 119.014 367.926C120.218 363.801 122.005 359.586 122.985 358.559C124.716 356.744 124.895 356.81 129.333 360.901C131.845 363.217 136.496 368.332 139.668 372.269C142.841 376.205 147.132 381.221 149.206 383.416C151.279 385.61 152.976 387.94 152.976 388.594C152.976 389.989 156.002 393.234 156.675 392.56C156.928 392.307 156.313 390.843 155.306 389.308C153.331 386.292 151.705 382.281 149.275 374.426C148.425 371.676 147.393 368.976 146.983 368.426C146.572 367.876 145.672 365.626 144.983 363.426C143.34 358.187 139.352 352.926 137.024 352.926C135.969 352.926 134.286 351.421 133.109 349.426C131.539 346.766 130.375 345.923 128.26 345.915C118.391 345.876 115.679 343.637 118.31 337.702C119.108 335.9 120.015 333.655 120.324 332.712C120.945 330.818 134.093 323.926 137.086 323.926C138.125 323.926 138.976 323.476 138.976 322.926C138.976 322.376 139.579 321.926 140.315 321.926C141.052 321.926 143.695 319.676 146.19 316.926C148.685 314.176 151.391 311.926 152.205 311.926C153.018 311.926 154.898 313.051 156.381 314.426C161.306 318.99 167.067 317.039 171.622 309.267C174.562 304.25 177.435 301.926 180.699 301.926C183.424 301.926 183.606 303.163 181.226 305.506C175.55 311.095 174.701 315.652 178.224 321.619C179.941 324.527 180.394 326.622 180.143 330.491C179.896 334.301 180.389 336.655 182.13 339.991C183.403 342.43 184.733 346.901 185.084 349.926C185.73 355.482 189.384 366.24 192.427 371.544C194.061 374.392 194.072 374.356 193.344 368.426C192.939 365.126 192.501 349.376 192.371 333.426C192.241 317.476 192.099 303.42 192.055 302.19C192.004 300.746 190.585 299.034 188.045 297.353C184.434 294.963 183.577 294.81 177.489 295.461C171.153 296.14 170.703 296.042 167.17 293.211C158.674 286.403 156.571 286.608 149.476 294.941C144.463 300.828 140.652 302.908 134.861 302.92C133.423 302.923 130.96 303.938 129.389 305.176C127.818 306.414 125.058 307.935 123.255 308.558L119.976 309.69V304.274C119.976 298.42 120.658 297.455 129.763 290.428C131.899 288.779 135.403 285.25 137.549 282.586C142.707 276.184 144.164 275.484 149.525 276.834C156.349 278.552 160.352 278.195 163.375 275.597C166.567 272.854 168.97 268.559 168.99 265.562C169.035 258.523 172.125 256.75 174.019 262.676C176.149 269.339 177.201 268.906 176.447 261.676L175.743 254.926H180.745C183.496 254.926 187.036 254.254 188.612 253.432C190.187 252.611 191.926 251.945 192.476 251.954C193.803 251.974 198.281 258.536 199.964 262.926C200.702 264.851 201.84 267.101 202.494 267.926C203.148 268.751 204.491 271.001 205.478 272.926C210.253 282.236 211.235 283.926 211.865 283.926C212.239 283.926 213.321 285.241 214.271 286.847C215.734 289.325 215.896 291.3 215.336 299.847C214.857 307.161 214.991 309.926 215.826 309.926C216.458 309.926 216.983 309.138 216.991 308.176C216.999 307.214 217.655 304.626 218.447 302.426C221.513 293.917 220.55 288.408 213.375 273.41C212.056 270.651 210.976 266.976 210.976 265.243C210.976 263.511 210.618 261.943 210.181 261.759C209.108 261.31 204.976 246.772 204.976 243.447C204.976 238.63 203.326 236.926 198.663 236.926C196.33 236.926 193.448 236.245 192.26 235.412C190.297 234.037 189.795 234.083 186.787 235.917C182.259 238.677 176.845 241.129 176.357 240.641C175.763 240.047 178.798 231.847 180.667 228.993C181.792 227.278 181.932 226.411 181.129 226.144C179.836 225.713 179.517 218.926 180.791 218.926C181.239 218.926 182.357 220.501 183.275 222.426C185.28 226.632 187.3 227.124 186.357 223.176C185.995 221.664 185.312 219.668 184.838 218.742C183.602 216.326 183.776 211.526 185.149 210.153C186.046 209.256 186.046 208.375 185.149 206.406C183.535 202.865 183.68 200.295 185.619 198.03C186.729 196.733 187.382 193.69 187.632 188.639C187.988 181.478 187.877 181.032 184.989 177.94C183.332 176.166 181.976 174.565 181.976 174.382C181.976 174.199 180.626 172.571 178.976 170.765C177.326 168.958 175.976 166.975 175.976 166.358C175.976 165.741 175.098 164.441 174.024 163.47C172.303 161.912 171.489 161.843 167.138 162.887C161.256 164.298 155.443 162.915 146.622 158.007C143.576 156.313 140.445 154.926 139.665 154.926C137.224 154.926 132.991 158.953 131.42 162.768C129.856 166.57 124.309 172.25 122.97 171.423C122.548 171.162 121.907 169.373 121.546 167.448C121.022 164.656 121.404 163.19 123.433 160.205C126.033 156.378 126.712 149.772 125.098 143.998C124.481 141.787 128.929 126.816 131.285 123.176C132.963 120.584 136.444 121.829 138.976 125.926C141.339 129.75 142.976 131.001 142.976 128.985C142.976 128.467 142.526 127.766 141.976 127.426C141.426 127.086 140.976 125.935 140.976 124.867C140.976 123.799 140.526 122.926 139.976 122.926C139.426 122.926 138.976 121.853 138.976 120.541C138.976 117.957 135.31 114.926 132.185 114.926C130.009 114.926 126.81 118.187 124.855 122.398C124.097 124.032 123.026 125.382 122.476 125.398C121.086 125.437 120.599 117.903 121.908 116.594C123.631 114.871 123.142 111.069 120.788 107.886C118.078 104.219 117.228 104.184 115.841 107.676ZM275.262 110.426C275.27 113.176 275.464 114.182 275.694 112.662C275.923 111.142 275.917 108.892 275.68 107.662C275.443 106.432 275.255 107.676 275.262 110.426ZM118.321 109.469C117.995 110.318 117.514 110.798 117.252 110.536C116.99 110.274 117.072 109.579 117.435 108.993C118.421 107.397 118.997 107.707 118.321 109.469ZM281.976 112.844C281.976 113.349 282.279 114.552 282.65 115.518C283.181 116.904 282.866 116.816 281.15 115.1C278.583 112.533 278.454 111.926 280.476 111.926C281.301 111.926 281.976 112.339 281.976 112.844ZM271.815 117.473C273.094 120.28 273.419 130.927 272.226 130.925C271.813 130.924 271.345 129.015 271.184 126.683C271.023 124.35 270.428 121.988 269.86 121.434C269.153 120.743 268.95 121.925 269.215 125.189C269.428 127.808 270.062 130.412 270.626 130.976C271.95 132.3 270.848 139.135 269.222 139.677C267.827 140.142 267.693 138.95 267.907 127.926C268.149 115.499 269.396 112.163 271.815 117.473ZM120.111 125.381L120.246 131.235L123.568 127.391C125.395 125.277 127.414 122.282 128.055 120.736C128.695 119.191 129.642 117.926 130.16 117.926C130.677 117.926 129.979 120.063 128.607 122.676C125.59 128.424 124.515 131.767 124.829 134.426C124.989 135.775 124.792 136.026 124.224 135.196C123.624 134.319 122.886 134.808 121.65 136.9C119.857 139.937 119.857 139.934 122.57 155.176C123.161 158.494 123.005 158.926 121.214 158.926C119.113 158.926 117.507 161.327 117.87 163.926C117.985 164.751 117.148 164.076 116.01 162.426C114.285 159.924 114.046 158.513 114.572 153.926C115.388 146.807 117.619 138.061 119.065 136.319C119.939 135.266 119.829 134.807 118.589 134.331C116.849 133.663 116.469 128.629 117.628 121.616C118.516 116.238 119.951 118.411 120.111 125.381ZM133.976 118.926C133.976 119.476 133.526 119.926 132.976 119.926C132.426 119.926 131.976 119.476 131.976 118.926C131.976 118.376 132.426 117.926 132.976 117.926C133.526 117.926 133.976 118.376 133.976 118.926ZM266.669 121.657C266.415 122.63 266.191 122.076 266.171 120.426C266.151 118.776 266.358 117.98 266.632 118.657C266.906 119.334 266.923 120.684 266.669 121.657ZM73.0437 141.902C77.1307 142.99 82.0507 143.942 83.9757 144.018C85.9007 144.095 86.6827 144.365 85.7137 144.618C82.6397 145.42 84.9317 146.926 89.2257 146.926C93.0737 146.926 93.2247 146.825 91.4167 145.458C90.3497 144.65 89.9827 143.975 90.6037 143.958C91.2237 143.94 92.3197 144.635 93.0387 145.502C94.1227 146.808 94.1017 147.23 92.9167 147.963C91.7277 148.697 91.8227 149.102 93.4807 150.355C94.5777 151.184 95.8137 151.877 96.2257 151.894C96.6377 151.912 96.9757 153.339 96.9757 155.067V158.208L93.0247 153.719L89.0737 149.231L77.9847 148.646C71.2757 148.292 65.0347 147.372 62.1857 146.316C56.3427 144.152 56.1957 144.031 58.0047 142.887C60.3027 141.434 63.2137 141.753 67.4757 143.926C69.6337 145.026 72.1657 145.926 73.1037 145.926C74.0417 145.926 74.9587 146.371 75.1427 146.916C75.3557 147.548 76.9177 147.477 79.4757 146.718C82.9097 145.699 83.1217 145.487 80.9757 145.221C75.0097 144.481 63.9757 141.617 63.9757 140.809C63.9757 139.584 64.6147 139.661 73.0437 141.902ZM119.134 144.926C119.134 146.301 119.361 146.864 119.638 146.176C119.916 145.489 119.916 144.364 119.638 143.676C119.361 142.989 119.134 143.551 119.134 144.926ZM282.171 148.426C282.191 150.076 282.415 150.63 282.669 149.657C282.923 148.684 282.906 147.334 282.632 146.657C282.358 145.98 282.151 146.776 282.171 148.426ZM59.9587 157.733C59.2857 161.414 58.0547 165.908 57.2207 167.72C55.6537 171.129 51.5417 173.926 48.0977 173.926C47.0107 173.926 44.7507 175.588 43.0757 177.62C41.4017 179.652 39.7107 180.994 39.3187 180.602C38.9267 180.21 40.3557 178.098 42.4937 175.908C46.3857 171.922 46.5177 171.03 42.9327 172.949C39.5927 174.737 41.7727 170.864 46.6047 166.426C49.9187 163.382 51.3847 161.01 52.7357 156.504C54.6937 149.97 56.6527 148.247 57.1537 152.617L57.4757 155.426L58.9727 152.168C61.0377 147.677 61.4107 149.782 59.9587 157.733ZM102.74 155.866C103.695 156.382 105.679 157.057 107.149 157.365C110.274 158.02 115.976 162.54 115.976 164.361C115.976 165.053 116.698 167.066 117.58 168.835C118.463 170.603 118.924 172.312 118.605 172.631C117.654 173.581 115.218 171.027 114.555 168.385C114.216 167.033 113.496 165.926 112.957 165.926C111.583 165.926 111.704 166.432 113.972 170.152C116.299 173.968 116.648 178.926 114.59 178.926C113.828 178.926 112.365 177.307 111.34 175.329C110.315 173.351 109.03 170.872 108.485 169.82C107.94 168.768 106.815 167.69 105.985 167.423C103.755 166.706 98.9757 162.368 98.9757 161.06C98.9757 159.431 101.513 159.663 102.976 161.426C103.661 162.251 105.264 162.926 106.539 162.926C107.815 162.926 109.136 163.376 109.476 163.926C109.816 164.476 110.573 164.926 111.157 164.926C111.828 164.926 111.761 164.372 110.976 163.426C110.291 162.601 108.991 161.926 108.086 161.926C106.072 161.926 98.9757 157.224 98.9757 155.89C98.9757 154.668 100.508 154.658 102.74 155.866ZM56.5587 157.176C56.3637 157.864 55.7067 160.263 55.0997 162.509C54.3187 165.398 52.8987 167.373 50.2477 169.259C46.0287 172.261 46.9267 172.934 51.3017 170.049C54.6357 167.852 56.4227 164.718 57.2497 159.627C57.8147 156.146 57.3337 154.442 56.5587 157.176ZM144.906 159.343C147.311 160.675 147.293 160.697 143.214 161.386C140.946 161.769 138.503 162.806 137.784 163.691C136.64 165.099 136.727 165.191 138.476 164.429C142.489 162.682 150.818 162.7 155.444 164.467C158.221 165.527 161.285 165.975 163.408 165.631C165.979 165.213 166.731 165.4 166.362 166.363C165.509 168.585 161.575 169.729 152.286 170.456C144.33 171.078 142.934 171.487 139.984 174.063C138.154 175.661 135.604 177.232 134.316 177.555C133.029 177.878 131.976 178.769 131.976 179.534C131.976 180.431 130.847 180.926 128.804 180.926C124.442 180.926 118.563 183.871 116.332 187.173C114.144 190.411 112.976 190.686 112.976 187.961C112.976 186.881 113.857 185.525 114.933 184.949C116.018 184.369 117.179 182.362 117.538 180.447C118.056 177.685 119.116 176.453 122.831 174.296C128.372 171.078 130.799 168.577 133.466 163.337C134.561 161.186 135.911 159.095 136.466 158.691C138.047 157.541 142.237 157.865 144.906 159.343ZM174.339 167.176C174.658 168.414 176.982 171.628 179.503 174.32C182.922 177.97 183.795 179.495 182.937 180.32C182.086 181.137 181.353 180.778 180.131 178.948C177.824 175.492 174.908 172.66 174.292 173.276C174.008 173.561 175.243 175.62 177.036 177.851C180.127 181.697 180.237 182.112 179.137 185.784C177.758 190.386 177.581 202.926 178.895 202.926C179.401 202.926 179.827 200.232 179.843 196.939C179.867 191.906 180.283 190.511 182.452 188.189L185.032 185.426L184.368 191.426C184.002 194.726 183.358 197.876 182.937 198.426C181.569 200.21 181.468 204.609 182.76 206.165C184.248 207.959 183.124 211.728 180.436 213.959C178.831 215.291 178.751 215.206 179.467 212.918C179.895 211.547 180.747 210.095 181.361 209.691C182.145 209.175 182.104 208.952 181.226 208.941C180.539 208.933 179.976 208.196 179.976 207.304C179.976 205.983 179.7 205.91 178.493 206.912C177.263 207.933 176.839 207.697 176.017 205.535C174.942 202.705 173.36 202.382 168.047 203.906C166.111 204.461 164.165 204.511 163.554 204.021C161.457 202.339 158.113 204.679 157.433 208.304C157.073 210.22 156.149 212.03 155.378 212.325C154.602 212.623 153.976 214.217 153.976 215.895C153.976 217.562 153.499 218.926 152.917 218.926C152.335 218.926 152.122 219.353 152.445 219.876C152.768 220.398 152.007 221.345 150.754 221.979C149.501 222.614 147.351 224.359 145.976 225.856C142.081 230.099 138.912 231.749 133.226 232.495C129.388 232.998 127.976 232.856 127.976 231.965C127.976 230.631 131.91 227.013 133.418 226.959C133.937 226.941 136.686 224.487 139.527 221.506C143.01 217.852 145.635 215.979 147.585 215.756C150.036 215.476 150.691 214.741 151.891 210.926C153.348 206.292 158.239 200.54 162.681 198.235C165.65 196.695 171.976 196.485 171.976 197.926C171.976 198.476 173.049 198.926 174.361 198.926C176.56 198.926 176.752 198.518 176.83 193.676C176.924 187.919 173.102 178.653 169.537 175.994C163.31 171.349 162.761 168.267 168.347 169.308C170.96 169.794 171.214 169.687 169.888 168.658C167.745 166.995 168.611 164.926 171.451 164.926C173.006 164.926 173.948 165.66 174.339 167.176ZM135.04 168.516C133.7 169.797 130.55 171.876 128.04 173.136C122.518 175.907 119.971 177.867 119.991 179.331C120.002 180.108 120.22 180.103 120.741 179.313C121.145 178.701 124.219 176.779 127.571 175.042C133.189 172.132 138.893 167.446 137.897 166.56C137.665 166.354 136.38 167.235 135.04 168.516ZM135.214 172.089C134.533 172.769 133.976 173.943 133.976 174.697C133.976 175.771 134.319 175.726 135.556 174.489C136.426 173.619 136.982 172.445 136.794 171.88C136.578 171.231 135.994 171.308 135.214 172.089ZM165.308 174.676C167.318 176.188 169.259 178.551 169.621 179.926C169.984 181.301 171.36 183.726 172.68 185.314C176.337 189.716 174.505 195.312 170.664 191.471C168.35 189.157 165.423 189.589 160.817 192.926C158.54 194.576 156.038 195.926 155.259 195.926C153.394 195.926 147.515 202.21 146.033 205.787C144.94 208.427 139.573 211.926 136.616 211.926C135.104 211.926 131.545 215.658 130.656 218.176C130.317 219.138 129.462 219.929 128.757 219.932C128.053 219.936 126.289 220.557 124.839 221.314C122.382 222.596 122.205 222.545 122.244 220.558C122.267 219.385 121.816 215.726 121.242 212.426C120.668 209.126 120.434 202.059 120.721 196.721C121.293 186.096 122.84 182.926 127.45 182.926C131.295 182.926 134.742 181.227 140.637 176.424C146.123 171.956 146.21 171.926 153.907 171.926C160.806 171.926 162.054 172.227 165.308 174.676ZM85.9407 179.86C87.7077 183.161 87.1197 183.926 82.8137 183.926C80.1407 183.926 77.0717 184.852 74.2347 186.514C68.4227 189.92 69.3207 190.648 75.3677 187.432C77.9607 186.054 80.8457 184.939 81.7787 184.955C83.7237 184.989 89.0277 189.55 91.4877 193.303C92.4047 194.703 94.1057 196.15 95.2687 196.519C96.4307 196.888 97.9977 197.805 98.7507 198.558C99.9077 199.715 99.7227 199.926 97.5467 199.926C94.3807 199.926 94.1417 201.626 97.2257 202.22C99.1817 202.597 99.1217 202.671 96.7647 202.79C93.7367 202.942 91.5737 200.995 87.3567 194.324C85.1747 190.872 83.9867 189.926 81.8357 189.926C80.3277 189.926 78.8157 190.376 78.4757 190.926C78.1357 191.476 77.1257 191.926 76.2307 191.926C74.2327 191.926 69.9757 195.788 69.9757 197.6C69.9757 198.329 69.5607 198.926 69.0527 198.926C68.5447 198.926 66.7537 200.083 65.0727 201.498C60.0807 205.698 58.1417 202.895 62.4757 197.744C64.3907 195.468 64.9757 193.637 64.9757 189.922C64.9757 185.915 65.4187 184.723 67.5227 183.068C68.9237 181.966 71.3937 180.774 73.0107 180.418C74.6287 180.063 76.2097 179.357 76.5237 178.849C76.8367 178.341 78.8517 177.926 80.9997 177.926C83.8377 177.926 85.1887 178.455 85.9407 179.86ZM170.115 193.957L172.476 195.988L169.976 195.846C163.603 195.485 162.159 196.05 157.132 200.87C154.296 203.589 151.963 206.401 151.947 207.12C151.909 208.781 146.365 214.926 144.903 214.926C144.298 214.926 141.386 217.401 138.433 220.426C135.48 223.451 132.731 225.926 132.324 225.926C131.11 225.926 125.976 231.208 125.976 232.458C125.976 233.094 124.942 234.818 123.679 236.289C122.415 237.759 120.779 241.092 120.044 243.694C118.816 248.04 118.645 248.222 117.941 245.926C116.618 241.605 116.887 236.245 118.494 234.911C119.914 233.732 121.984 229.781 123.357 225.625C123.685 224.634 125.955 222.938 128.403 221.855C130.933 220.736 133.14 218.985 133.517 217.797C133.933 216.488 136.504 214.654 140.408 212.884C145.725 210.473 146.992 209.37 149.061 205.349C150.395 202.758 152.158 200.261 152.981 199.8C153.803 199.339 157.176 197.38 160.476 195.447C163.776 193.513 166.764 191.93 167.115 191.929C167.467 191.927 168.817 192.84 170.115 193.957ZM118.044 202.258C116.764 203.538 116.611 207.926 117.847 207.926C119.272 207.926 120.103 217.448 119.377 225.459C118.307 237.268 116.622 234.613 117.453 222.426C118.041 213.789 117.922 211.926 116.78 211.926C115.979 211.926 114.881 210.021 114.187 207.426C113.347 204.286 112.454 202.917 111.23 202.896C109.561 202.867 109.56 202.816 111.226 201.846C112.189 201.285 112.976 199.963 112.976 198.908C112.976 197.833 114.185 196.353 115.726 195.541C118.466 194.097 118.477 194.105 118.794 197.641C118.969 199.593 118.632 201.67 118.044 202.258ZM62.2257 199.588C60.7957 200.165 60.5267 201.926 61.8687 201.926C62.3597 201.926 63.0207 201.251 63.3377 200.426C63.6537 199.601 63.8147 198.962 63.6947 199.005C63.5737 199.048 62.9137 199.311 62.2257 199.588ZM167.311 206.912L170.147 206.926L169.555 213.676C169.23 217.388 168.854 222.353 168.72 224.708C168.586 227.064 167.973 229.314 167.358 229.708C166.743 230.103 165.971 233.126 165.644 236.426C165.316 239.726 165.032 242.476 165.012 242.536C164.992 242.597 162.499 242.902 159.471 243.214C151.543 244.033 146.35 248.845 144.401 257.179C143.435 261.313 138.575 264.926 133.983 264.926C131.871 264.926 129.993 265.366 129.809 265.903C129.626 266.441 128.126 267.151 126.476 267.48L123.476 268.08L123.765 261.253C124.057 254.336 125.171 250.75 127.945 247.796C140.404 234.53 151.074 224.14 153.476 222.933C155.849 221.741 156.594 220.59 157.039 217.426C157.348 215.226 158.236 211.712 159.011 209.617C160.148 206.543 160.811 205.914 162.448 206.354C163.563 206.653 165.752 206.905 167.311 206.912ZM113.031 215.926C113.551 215.926 113.976 216.826 113.976 217.926C113.976 219.026 113.526 219.926 112.976 219.926C112.426 219.926 111.976 219.203 111.976 218.319C111.976 217.301 111.426 216.923 110.476 217.288C108.891 217.896 108.365 216.421 109.842 215.509C110.318 215.215 110.492 213.845 110.229 212.467C109.965 211.088 110.125 209.164 110.585 208.193C111.192 206.91 111.512 207.727 111.753 211.176C111.936 213.789 112.511 215.926 113.031 215.926ZM107.05 209.337C106.249 210.302 106.211 210.953 106.927 211.396C107.504 211.752 107.976 212.568 107.976 213.208C107.976 213.847 107.275 213.37 106.418 212.147C104.847 209.904 105.194 207.926 107.157 207.926C107.858 207.926 107.821 208.408 107.05 209.337ZM173.665 214.676C173.414 215.638 173.208 214.851 173.208 212.926C173.208 211.001 173.414 210.214 173.665 211.176C173.917 212.138 173.917 213.714 173.665 214.676ZM178.211 222.176C178.688 230.129 178.276 231.083 175.547 228.354C174.328 227.136 174.107 225.507 174.559 221.104C175.72 209.815 177.501 210.338 178.211 222.176ZM82.5567 219.455C83.6777 221.818 84.0497 224.335 83.6827 227.073L83.1347 231.162L86.3047 230.678C90.2067 230.082 91.9757 230.653 91.9757 232.509C91.9757 233.289 92.4257 233.926 92.9757 233.926C93.5257 233.926 93.9757 234.79 93.9757 235.845C93.9757 236.9 94.6087 239.038 95.3827 240.595C96.1577 242.152 97.3217 244.595 97.9707 246.024C99.0507 248.402 100.067 249.744 106.109 256.769C108.349 259.374 108.11 260.039 104.759 260.525C103.503 260.707 100.863 261.258 98.8907 261.749C94.3127 262.888 91.9757 261.316 91.9757 257.096C91.9757 253.59 89.1347 248.022 84.8557 243.141C83.2717 241.335 81.9757 238.915 81.9757 237.764C81.9757 235.176 75.1257 220.926 73.8817 220.926C71.8317 220.926 73.1737 218.234 75.7257 217.225C80.1027 215.496 80.7837 215.718 82.5567 219.455ZM173.048 224.426C172.51 228.553 172.259 229.026 171.606 227.134C170.63 224.308 171.866 215.939 172.953 218.008C173.363 218.788 173.405 221.676 173.048 224.426ZM70.9757 219.985C70.9757 220.567 70.6237 220.827 70.1937 220.561C69.7647 220.295 69.4407 223.168 69.4757 226.944C69.5347 233.308 69.2997 234.087 66.2577 237.607C63.9117 240.321 62.9757 242.392 62.9757 244.865C62.9757 247.6 62.7177 248.068 61.7487 247.099C60.2427 245.593 60.1197 238.089 61.5847 237.125C63.4957 235.869 64.9727 229.76 64.3327 225.759C63.8307 222.621 64.0807 221.56 65.5917 220.416C67.8167 218.732 70.9757 218.479 70.9757 219.985ZM113.573 221.845C114.749 220.869 115.007 221.711 115.168 227.054C115.274 230.558 115.299 234.551 115.225 235.926C115.151 237.301 115.014 241.272 114.92 244.751C114.81 248.857 114.298 251.249 113.462 251.57C112.753 251.842 111.946 252.933 111.668 253.995C111.39 255.057 110.42 255.926 109.511 255.926C108.433 255.926 108.133 255.491 108.649 254.676C109.085 253.989 109.538 248.251 109.656 241.926C109.841 232.069 110.255 225.584 110.963 221.426C111.057 220.876 111.367 221.007 111.652 221.718C112.05 222.71 112.496 222.739 113.573 221.845ZM76.7317 229.818C77.9657 232.508 78.9757 235.456 78.9757 236.367C78.9757 238.868 81.8467 243.978 85.6117 248.179C88.4237 251.316 88.9777 252.711 88.9897 256.679C89.0107 264.001 89.8057 265.706 94.0787 267.592C96.2137 268.534 98.2527 270.232 98.6097 271.365C98.9667 272.499 100.32 274.993 101.617 276.908C104.76 281.548 104.787 284.036 101.662 281.1C100.164 279.693 98.0677 278.926 95.7207 278.926C93.7257 278.926 91.8157 278.476 91.4757 277.926C91.1357 277.376 90.0537 276.926 89.0717 276.926C88.0897 276.926 86.4757 276.031 85.4857 274.937C84.4967 273.844 81.3887 271.487 78.5807 269.7C71.3467 265.095 66.9757 260.927 66.9757 258.631C66.9757 257.546 66.4547 254.918 65.8177 252.792C64.4617 248.269 65.8917 242.006 69.0537 238.612C70.3737 237.195 70.9757 235.105 70.9757 231.937C70.9757 227.886 72.2237 224.926 73.9317 224.926C74.2377 224.926 75.4977 227.127 76.7317 229.818ZM171.976 234.033C171.976 235.074 171.526 235.926 170.976 235.926C170.426 235.926 169.976 237.501 169.976 239.426C169.976 241.89 169.526 242.926 168.457 242.926C167.412 242.926 167.082 242.224 167.399 240.676C167.653 239.438 168.128 236.759 168.455 234.721C168.89 232.014 169.443 231.168 170.513 231.578C171.318 231.887 171.976 232.992 171.976 234.033ZM132.395 240.247C128.59 244.273 124.761 248.55 123.888 249.75C122.328 251.896 122.298 251.869 122.16 248.205C121.828 239.381 124.038 236.194 131.976 234.051C139.546 232.008 139.588 232.636 132.395 240.247ZM173.587 239.164C172.574 243.028 172.447 243.153 172.151 240.579C171.782 237.364 172.495 234.926 173.806 234.926C174.297 234.926 174.198 236.833 173.587 239.164ZM193.434 238.527C194.505 239.598 195.885 239.915 197.601 239.484C200.496 238.757 203.017 240.335 202.897 242.798C202.847 243.835 202.635 243.972 202.314 243.176C202.036 242.489 201.026 241.926 200.068 241.926C198.296 241.926 196.79 243.221 192.741 248.227C190.829 250.592 189.328 251.187 183.113 252.045C179.064 252.604 174.736 253.447 173.496 253.918C170.705 254.979 166.542 258.841 165.689 261.159C165.303 262.209 164.446 262.66 163.514 262.302C162.668 261.978 161.976 262.237 161.976 262.878C161.976 263.519 162.426 263.766 162.976 263.426C164.229 262.652 164.229 263.131 162.975 266.428C162.206 268.451 161.511 268.913 159.975 268.426C158.876 268.077 157.976 268.234 157.976 268.775C157.976 269.317 158.506 269.936 159.153 270.152C161.76 271.021 158.583 272.926 154.528 272.926C149.309 272.926 144.426 269.694 146.976 267.928C147.801 267.357 150.273 267.001 152.47 267.137C156.008 267.358 156.521 267.103 156.97 264.906C157.54 262.111 162.304 254.329 165.069 251.676C166.072 250.714 168.235 249.926 169.875 249.926C171.516 249.926 173.136 249.476 173.476 248.926C173.816 248.376 175.53 247.874 177.285 247.811C180.317 247.702 180.277 247.657 176.476 246.905C174.23 246.461 172.059 246.511 171.526 247.02C171.004 247.518 169.683 247.926 168.59 247.926C166.463 247.926 161.995 251.573 161.946 253.35C161.93 253.942 160.242 256.304 158.196 258.599C154.147 263.141 147.976 265.499 147.976 262.505C147.976 261.637 147.49 260.926 146.897 260.926C146.22 260.926 146.06 262.033 146.468 263.889C147.034 266.465 146.792 266.934 144.62 267.479C143.245 267.824 141.396 267.701 140.511 267.205C139.112 266.423 139.205 266.141 141.217 265.065C143.301 263.949 144.603 261.826 149.66 251.294C151.626 247.2 154.795 245.867 163.952 245.281C172.981 244.704 180.067 242.785 185.476 239.453C190.218 236.531 191.311 236.404 193.434 238.527ZM183.837 245.01C181.998 246.632 181.881 246.964 183.308 246.51C184.315 246.189 185.505 245.926 185.951 245.926C186.397 245.926 187.021 245.251 187.338 244.426C188.151 242.308 186.607 242.565 183.837 245.01ZM94.9757 247.461C94.9757 248.867 98.2997 252.844 99.0737 252.365C100.071 251.749 97.2207 246.926 95.8607 246.926C95.3737 246.926 94.9757 247.167 94.9757 247.461ZM54.4757 251.433C55.5757 251.8 58.9387 254.873 61.9497 258.263C64.9597 261.652 70.5847 266.64 74.4497 269.347C78.3137 272.053 81.7007 274.529 81.9757 274.849C84.4377 277.716 91.1197 280.926 94.6247 280.926C99.4477 280.926 101.332 282.68 103.574 289.259C104.448 291.826 105.459 293.923 105.82 293.919C106.181 293.915 106.585 291.659 106.718 288.905C106.943 284.265 104.641 277.43 99.9057 268.676C99.1817 267.339 99.3417 266.926 100.584 266.926C102.92 266.926 111.976 273.817 111.976 275.595C111.976 276.419 113.537 278.609 115.445 280.462C120.081 284.964 120.733 287.965 118.027 292.343C116.844 294.257 114.999 296.101 113.926 296.442C112.854 296.782 111.976 297.533 111.976 298.11C111.976 298.687 110.96 298.965 109.717 298.727C107.645 298.331 107.488 298.611 107.822 302.111C108.033 304.326 107.748 305.926 107.143 305.926C105.519 305.926 90.2707 294.137 89.5857 292.353C89.2507 291.478 88.9697 289.562 88.9617 288.094C88.9297 281.827 86.0227 278.926 79.7767 278.926C78.2357 278.926 76.9757 278.476 76.9757 277.926C76.9757 277.376 74.7257 276.926 71.9757 276.926C69.2257 276.926 66.9757 276.583 66.9757 276.163C66.9757 275.744 65.9737 274.956 64.7487 274.413C63.5247 273.87 61.2447 271.513 59.6827 269.176C57.5397 265.967 56.1857 264.917 54.1597 264.891C52.6837 264.871 50.3507 264.177 48.9757 263.349C46.4907 261.852 46.4997 261.845 50.3277 262.195C53.8077 262.514 54.0007 262.414 52.3277 261.154C50.9717 260.133 49.1357 259.956 45.4757 260.493C42.7257 260.897 37.4957 261.134 33.8527 261.021C29.0417 260.871 26.8137 261.23 25.7087 262.336C24.3457 263.699 24.1437 263.495 23.7817 260.391C23.2887 256.165 24.3847 254.926 28.6167 254.926C30.3997 254.926 32.1357 254.476 32.4757 253.926C32.8157 253.376 34.5297 252.917 36.2847 252.907C38.0397 252.896 41.7257 252.266 44.4757 251.506C49.4187 250.141 50.5697 250.133 54.4757 251.433ZM43.2947 255.288C37.6927 256.519 35.3077 257.926 38.8247 257.926C41.7727 257.926 48.9757 255.624 48.9757 254.683C48.9757 254.266 48.8637 253.976 48.7257 254.038C48.5877 254.1 46.1447 254.662 43.2947 255.288ZM115.976 255.867C115.976 256.385 115.526 257.086 114.976 257.426C114.426 257.766 113.976 257.342 113.976 256.485C113.976 255.628 114.426 254.926 114.976 254.926C115.526 254.926 115.976 255.349 115.976 255.867ZM201.394 256.533C202.264 256.867 202.976 257.793 202.976 258.592C202.976 259.391 203.421 259.769 203.966 259.432C204.9 258.855 209.976 268.54 209.976 270.902C209.976 271.509 210.885 273.788 211.996 275.966C213.692 279.29 213.773 279.926 212.496 279.926C211.643 279.926 210.976 279.049 210.976 277.926C210.976 276.826 210.598 275.926 210.137 275.926C208.79 275.926 206.977 271.114 207.597 269.188C208.028 267.849 207.932 267.752 207.195 268.783C206.471 269.797 205.359 268.343 202.797 263.033C200.911 259.124 199.468 255.926 199.59 255.926C199.713 255.926 200.524 256.199 201.394 256.533ZM26.9757 258.926C26.1507 259.459 25.9257 259.895 26.4757 259.895C27.0257 259.895 28.1507 259.459 28.9757 258.926C29.8007 258.393 30.0257 257.957 29.4757 257.957C28.9257 257.957 27.8007 258.393 26.9757 258.926ZM124.269 271.255C126.033 270.923 128.186 270.038 129.055 269.289C131.683 267.02 137.991 267.755 143.976 271.028C147.001 272.683 148.701 273.806 147.754 273.523C145.914 272.975 139.987 274.686 139.96 275.774C139.945 276.367 138.496 278.144 132.386 285.06C131.237 286.361 127.912 289.431 124.999 291.883C118.703 297.179 116.793 301.215 116.992 308.801C117.222 317.548 117.145 317.846 114.476 318.515C113.101 318.86 111.976 319.574 111.976 320.102C111.976 320.629 111.076 320.775 109.976 320.426C107.583 319.666 107.514 320.133 109.466 323.907C110.922 326.722 110.883 326.826 107.804 328.362C104.016 330.251 103.204 329.737 104.919 326.533C105.811 324.866 105.983 322.295 105.489 318.035C105.056 314.308 105.154 311.926 105.739 311.926C106.267 311.926 106.484 313.051 106.221 314.426C105.942 315.885 106.208 316.926 106.859 316.926C107.474 316.926 107.976 315.882 107.976 314.606C107.976 313.331 109.101 311.308 110.476 310.113C111.851 308.917 112.976 307.124 112.976 306.128C112.976 305.132 114.426 302.092 116.197 299.372C120.055 293.45 122.173 287.19 121.058 285.007C120.614 284.137 120.179 281.015 120.091 278.069C120.003 275.122 119.492 271.89 118.954 270.885C117.606 268.367 117.729 263.565 119.226 260.259C120.385 257.7 120.497 258.022 120.769 264.679L121.062 271.859L124.269 271.255ZM116.476 259.926C116.136 260.476 114.872 260.894 113.667 260.856C111.555 260.788 111.548 260.755 113.476 259.926C116.228 258.743 117.207 258.743 116.476 259.926ZM111.321 262.676C111.575 263.089 109.566 263.459 106.856 263.5C103.993 263.542 102.463 263.234 103.202 262.765C104.813 261.743 110.705 261.679 111.321 262.676ZM164.389 271.418C161.657 275.588 158.166 276.912 153.976 275.368L150.476 274.078L154.144 274.002C159.54 273.89 160.831 273.117 163.237 268.553C165.093 265.032 165.463 264.748 165.756 266.617C165.945 267.822 165.33 269.982 164.389 271.418ZM114.89 275.926C114.939 277.259 114.838 277.259 113.976 275.926C113.443 275.101 113.031 273.526 113.062 272.426L113.117 270.426L113.976 272.426C114.449 273.526 114.86 275.101 114.89 275.926ZM108.788 281.664C108.345 283.965 110.219 291.926 111.203 291.926C111.628 291.926 111.976 291.251 111.976 290.426C111.976 289.601 112.426 288.926 112.976 288.926C113.526 288.926 113.976 288.026 113.976 286.926C113.976 285.826 113.535 284.926 112.995 284.926C112.456 284.926 111.732 283.801 111.387 282.426C110.662 279.538 109.276 279.132 108.788 281.664ZM162.407 292.792C164.019 293.738 165.455 294.943 165.597 295.469C166.07 297.212 160.145 300.984 155.022 302.201C149.214 303.58 148.41 304.926 153.394 304.926C155.274 304.926 157.518 305.197 158.38 305.528C159.447 305.937 160.258 305.315 160.917 303.58C162.585 299.195 166.28 297.618 175.683 297.276C182.996 297.011 184.637 297.26 187.1 299.014L189.976 301.062L189.9 317.744C189.836 331.726 189.634 333.907 188.65 331.222C188.004 329.46 185.564 326.127 183.226 323.816C179.566 320.198 178.976 319.031 178.976 315.41C178.976 311.979 179.619 310.524 182.476 307.495C184.401 305.454 185.962 303.478 185.944 303.105C185.855 301.201 182.979 299.017 179.766 298.414C176.661 297.832 175.747 298.135 173.237 300.582C171.632 302.146 170.063 304.101 169.751 304.926C169.439 305.751 167.784 308.339 166.073 310.676C162.483 315.583 159.949 316.06 156.789 312.426C153.779 308.964 150.581 309.296 145.306 313.619C141.445 316.783 139.92 317.375 134.652 317.756C129.045 318.161 128.623 318.056 129.862 316.563C131.064 315.115 130.889 314.905 128.348 314.743C126.769 314.643 124.177 314.653 122.589 314.765C119.803 314.964 119.755 314.891 121.203 312.698C122.056 311.406 123.948 310.289 125.589 310.108C127.177 309.933 129.176 308.89 130.033 307.789C130.997 306.548 133.278 305.571 136.033 305.219C143.282 304.291 147.462 301.692 151.421 295.65C152.403 294.152 153.829 292.926 154.591 292.926C155.353 292.926 155.976 292.476 155.976 291.926C155.976 290.429 159.097 290.85 162.407 292.792ZM43.9197 297.022C45.6687 298.619 47.5217 299.926 48.0377 299.926C48.5537 299.926 48.9757 300.347 48.9757 300.863C48.9757 301.378 47.5477 301.94 45.8027 302.113C41.8457 302.503 40.6927 304.926 44.4637 304.926C45.9237 304.926 47.7587 304.286 48.5417 303.503C49.6227 302.422 51.7097 302.211 57.2207 302.625C62.9537 303.056 65.3147 302.788 68.4757 301.351C70.6757 300.35 72.9257 299.334 73.4757 299.093C74.0257 298.852 73.4627 299.729 72.2257 301.041C70.9877 302.353 67.9777 305.548 65.5367 308.142C63.0947 310.735 59.9087 313.156 58.4557 313.52C54.5157 314.509 42.9007 313.35 39.4757 311.627C37.4057 310.585 33.4217 310.117 26.6287 310.118C18.4417 310.12 16.4747 310.427 14.9617 311.94C12.8107 314.091 11.9697 313.544 11.9907 310.009C12.0167 305.713 13.2697 304.748 18.5847 304.933C25.1777 305.163 25.3787 305.116 24.1557 303.643C23.4207 302.758 21.4447 302.525 17.7827 302.893L12.4757 303.426L11.0497 308.176C10.2647 310.789 9.25272 312.926 8.79972 312.926C7.50872 312.926 7.86372 304.704 9.27572 301.926C10.4847 299.547 10.9677 299.426 19.2937 299.426C24.1917 299.426 28.3577 298.971 28.7587 298.392C29.1527 297.823 30.6807 296.433 32.1537 295.304C35.6397 292.632 39.7747 293.236 43.9197 297.022ZM152.88 300.541C151.72 301.939 151.794 302.107 153.425 301.791C154.462 301.59 155.498 300.864 155.726 300.176C156.32 298.392 154.466 298.63 152.88 300.541ZM78.6687 306.926C81.2327 309.676 84.0587 311.926 84.9487 311.926C85.9287 311.926 87.8607 314.449 89.8477 318.324C93.5597 325.561 95.9937 328.189 100.895 330.25C104.054 331.578 104.648 331.506 109.138 329.251C111.799 327.914 113.976 326.195 113.976 325.429C113.976 324.664 114.989 322.908 116.226 321.529C118.351 319.159 119.128 319.003 130.227 318.723C136.691 318.56 141.978 318.515 141.977 318.623C141.973 319.232 131.76 323.815 129.111 324.396C127.387 324.775 125.976 325.499 125.976 326.005C125.976 326.512 125.414 326.928 124.726 326.931C124.039 326.933 122.029 328.291 120.261 329.949C117.317 332.708 116.057 335.602 114.502 343.176C113.695 347.111 111.306 346.732 111.584 342.712C111.706 340.945 111.158 338.245 110.365 336.712C108.463 333.034 107.814 333.162 109.136 336.954C110.46 340.752 109.701 357.601 108.135 359.167C107.256 360.046 106.976 359.693 106.976 357.709C106.976 356.27 106.414 354.856 105.726 354.567C104.831 354.191 104.973 353.728 106.226 352.934C108.57 351.45 108.43 349.717 105.726 346.748C93.1137 332.904 87.9907 327.005 85.2797 323.205C83.5217 320.741 79.7337 316.33 76.8617 313.402C70.3387 306.751 69.4627 305.249 71.0187 303.374C72.8527 301.164 73.6357 301.528 78.6687 306.926ZM145.298 304.915C144.296 306.114 140.888 308.413 137.726 310.025C134.564 311.636 131.976 313.398 131.976 313.94C131.976 315.359 132.888 315.157 134.709 313.336C135.695 312.349 137.399 311.908 139.201 312.172C141.723 312.542 142.352 312.109 144.013 308.854C145.063 306.795 146.497 304.906 147.199 304.655C147.901 304.405 148.171 303.87 147.798 303.468C147.424 303.065 146.299 303.717 145.298 304.915ZM27.9757 304.926C27.9757 305.476 28.6237 305.926 29.4167 305.926C30.2097 305.926 31.1357 305.476 31.4757 304.926C31.8157 304.376 31.1667 303.926 30.0347 303.926C28.9027 303.926 27.9757 304.376 27.9757 304.926ZM159.726 306.546C157.025 307.964 156.009 309.926 157.976 309.926C158.526 309.926 158.976 309.476 158.976 308.926C158.976 308.376 159.624 307.926 160.417 307.926C161.811 307.926 163.538 306.15 162.826 305.448C162.634 305.258 161.238 305.752 159.726 306.546ZM9.43272 320.062C8.98172 321.483 9.12472 321.952 9.86872 321.492C10.4777 321.116 10.9897 319.822 11.0077 318.617C11.0387 316.475 11.0727 316.47 12.5077 318.367C13.3147 319.435 13.9757 321.452 13.9757 322.849C13.9757 326.148 8.95672 340.926 7.83572 340.926C7.36272 340.926 6.96572 342.388 6.95372 344.176C6.93072 347.521 3.65872 352.942 2.41372 351.697C2.02872 351.312 2.29772 349.069 3.00972 346.712C3.72272 344.355 4.35072 337.286 4.40572 331.004C4.47672 322.905 4.86472 319.463 5.74072 319.171C6.41972 318.945 6.97572 317.572 6.97572 316.12V313.481L8.53972 315.714C9.48872 317.068 9.83972 318.779 9.43272 320.062ZM8.47572 323.926C8.13572 324.476 8.33472 324.926 8.91672 324.926C9.49872 324.926 9.97572 324.476 9.97572 323.926C9.97572 323.376 9.77772 322.926 9.53472 322.926C9.29172 322.926 8.81572 323.376 8.47572 323.926ZM92.6047 327.717C91.8797 328.89 94.7317 331.504 95.6907 330.545C96.0567 330.178 95.6487 329.171 94.7847 328.306C93.8497 327.371 92.9667 327.132 92.6047 327.717ZM186.976 332.443C186.976 333.246 186.216 333.54 184.976 333.216C183.502 332.83 182.985 331.868 183.009 329.559L183.043 326.426L185.009 328.787C186.091 330.085 186.976 331.731 186.976 332.443ZM189.976 342.181V345.3L186.976 342.426C185.287 340.808 183.976 338.511 183.976 337.171V334.79L186.976 336.926C189.212 338.518 189.976 339.857 189.976 342.181ZM188.976 349.485C188.976 350.342 188.526 350.766 187.976 350.426C187.426 350.086 186.976 349.385 186.976 348.867C186.976 348.349 187.426 347.926 187.976 347.926C188.526 347.926 188.976 348.628 188.976 349.485ZM111.976 353.926C111.976 354.476 111.778 354.926 111.535 354.926C111.292 354.926 110.816 354.476 110.476 353.926C110.136 353.376 110.335 352.926 110.917 352.926C111.499 352.926 111.976 353.376 111.976 353.926Z" fill="#005D04"></path>
  <path d="M8.72 13.66H11.14C12.66 13.66 13.78 13.9733 14.5 14.6C15.3133 15.2933 15.72 16.2467 15.72 17.46C15.72 18.5 15.3667 19.3867 14.66 20.12C13.9667 20.84 12.9133 21.2 11.5 21.2H10.2V27H8.72V13.66ZM10.2 15.06V19.8H11.42C12.3 19.8 12.9867 19.5867 13.48 19.16C13.9867 18.7333 14.24 18.14 14.24 17.38C14.24 15.8333 13.26 15.06 11.3 15.06H10.2ZM24.1105 26C23.2838 26.8267 22.2371 27.24 20.9705 27.24C19.7038 27.24 18.6505 26.8267 17.8105 26C16.9838 25.1733 16.5705 24.1333 16.5705 22.88C16.5705 21.6133 16.9838 20.5667 17.8105 19.74C18.6505 18.9133 19.7038 18.5 20.9705 18.5C22.2371 18.5 23.2838 18.9133 24.1105 19.74C24.9505 20.5667 25.3705 21.6133 25.3705 22.88C25.3705 24.1333 24.9505 25.1733 24.1105 26ZM23.0305 20.6C22.4705 20.0533 21.7838 19.78 20.9705 19.78C20.1571 19.78 19.4638 20.06 18.8905 20.62C18.3305 21.1667 18.0505 21.92 18.0505 22.88C18.0505 23.84 18.3371 24.5933 18.9105 25.14C19.4838 25.6867 20.1705 25.96 20.9705 25.96C21.7705 25.96 22.4571 25.6867 23.0305 25.14C23.6038 24.5933 23.8905 23.84 23.8905 22.88C23.8905 21.9067 23.6038 21.1467 23.0305 20.6ZM34.0788 19.3V21.02C33.4254 20.1933 32.5588 19.78 31.4788 19.78C30.6654 19.78 29.9721 20.06 29.3988 20.62C28.8254 21.1667 28.5388 21.92 28.5388 22.88C28.5388 23.84 28.8254 24.5933 29.3988 25.14C29.9721 25.6867 30.6588 25.96 31.4588 25.96C32.5254 25.96 33.4188 25.5267 34.1388 24.66V26.38C33.3521 26.9533 32.4721 27.24 31.4987 27.24C30.2054 27.24 29.1388 26.8333 28.2988 26.02C27.4721 25.1933 27.0588 24.1533 27.0588 22.9C27.0588 21.6333 27.4788 20.5867 28.3188 19.76C29.1588 18.92 30.2188 18.5 31.4987 18.5C32.4588 18.5 33.3188 18.7667 34.0788 19.3ZM41.7883 20.02H39.1883V27H37.7483V20.02H35.1483V18.7H41.7883V20.02ZM43.3014 18.7H44.7414V22.1L48.1014 18.7H49.8614L46.2614 22.4L50.3014 27H48.4214L45.1814 23.36L44.7414 23.78V27H43.3014V18.7ZM51.7389 18.7H53.1789V24.18L58.8589 18.06V27H57.4189V21.46L51.7389 27.58V18.7ZM65.2906 27L67.2906 18.06L70.7306 24.82L74.0906 18.06L76.0906 27H74.6106L73.5106 21.86L70.6906 27.58L67.8306 21.86L66.7706 27H65.2906ZM84.0122 24.22L85.2122 24.88C84.9322 25.4133 84.5922 25.86 84.1922 26.22C83.4322 26.9 82.5122 27.24 81.4322 27.24C80.3122 27.24 79.3455 26.88 78.5322 26.16C77.7322 25.4267 77.3322 24.34 77.3322 22.9C77.3322 21.6333 77.6922 20.5867 78.4122 19.76C79.1455 18.92 80.1255 18.5 81.3522 18.5C82.7389 18.5 83.7855 19.0067 84.4922 20.02C85.0522 20.82 85.3122 21.86 85.2722 23.14H78.8122C78.8255 23.98 79.0855 24.66 79.5922 25.18C80.0989 25.7 80.7189 25.96 81.4522 25.96C82.1055 25.96 82.6722 25.76 83.1522 25.36C83.5255 25.04 83.8122 24.66 84.0122 24.22ZM78.9122 21.94H83.7922C83.6722 21.2867 83.3855 20.7667 82.9322 20.38C82.4922 19.98 81.9655 19.78 81.3522 19.78C80.7522 19.78 80.2189 19.9867 79.7522 20.4C79.2989 20.8 79.0189 21.3133 78.9122 21.94ZM87.4811 27V18.7H88.9211V22.1H92.8411V18.7H94.2811V27H92.8411V23.42H88.9211V27H87.4811ZM103.153 24.22L104.353 24.88C104.073 25.4133 103.733 25.86 103.333 26.22C102.573 26.9 101.653 27.24 100.573 27.24C99.4528 27.24 98.4861 26.88 97.6728 26.16C96.8728 25.4267 96.4728 24.34 96.4728 22.9C96.4728 21.6333 96.8328 20.5867 97.5528 19.76C98.2861 18.92 99.2661 18.5 100.493 18.5C101.879 18.5 102.926 19.0067 103.633 20.02C104.193 20.82 104.453 21.86 104.413 23.14H97.9528C97.9661 23.98 98.2261 24.66 98.7328 25.18C99.2395 25.7 99.8595 25.96 100.593 25.96C101.246 25.96 101.813 25.76 102.293 25.36C102.666 25.04 102.953 24.66 103.153 24.22ZM98.0528 21.94H102.933C102.813 21.2867 102.526 20.7667 102.073 20.38C101.633 19.98 101.106 19.78 100.493 19.78C99.8928 19.78 99.3595 19.9867 98.8928 20.4C98.4395 20.8 98.1595 21.3133 98.0528 21.94ZM112.782 24.22L113.982 24.88C113.702 25.4133 113.362 25.86 112.962 26.22C112.202 26.9 111.282 27.24 110.202 27.24C109.082 27.24 108.115 26.88 107.302 26.16C106.502 25.4267 106.102 24.34 106.102 22.9C106.102 21.6333 106.462 20.5867 107.182 19.76C107.915 18.92 108.895 18.5 110.122 18.5C111.508 18.5 112.555 19.0067 113.262 20.02C113.822 20.82 114.082 21.86 114.042 23.14H107.582C107.595 23.98 107.855 24.66 108.362 25.18C108.868 25.7 109.488 25.96 110.222 25.96C110.875 25.96 111.442 25.76 111.922 25.36C112.295 25.04 112.582 24.66 112.782 24.22ZM107.682 21.94H112.562C112.442 21.2867 112.155 20.7667 111.702 20.38C111.262 19.98 110.735 19.78 110.122 19.78C109.522 19.78 108.988 19.9867 108.522 20.4C108.068 20.8 107.788 21.3133 107.682 21.94ZM122.759 16.96H121.279C121.319 16.2533 121.525 15.6 121.899 15C122.565 13.96 123.599 13.44 124.999 13.44C126.185 13.44 127.105 13.7933 127.759 14.5C128.425 15.2067 128.759 16.0533 128.759 17.04C128.759 18.44 128.185 19.4267 127.039 20C127.212 20.0667 127.379 20.16 127.539 20.28C127.712 20.3867 127.919 20.56 128.159 20.8C128.399 21.04 128.592 21.3733 128.739 21.8C128.885 22.2133 128.959 22.6867 128.959 23.22C128.959 24.4333 128.565 25.4067 127.779 26.14C127.005 26.8733 126.032 27.24 124.859 27.24C124.072 27.24 123.339 27.06 122.659 26.7C121.979 26.3267 121.472 25.74 121.139 24.94C120.965 24.5133 120.865 24.0467 120.839 23.54H122.319C122.385 24.0867 122.545 24.5333 122.799 24.88C123.252 25.5467 123.939 25.88 124.859 25.88C125.592 25.88 126.212 25.62 126.719 25.1C127.225 24.5667 127.479 23.9267 127.479 23.18C127.479 22.0867 127.039 21.34 126.159 20.94C125.719 20.7267 125.212 20.6333 124.639 20.66V19.34C125.212 19.38 125.719 19.2867 126.159 19.06C126.905 18.6733 127.279 18.0133 127.279 17.08C127.279 16.4267 127.092 15.8867 126.719 15.46C126.345 15.02 125.772 14.8 124.999 14.8C124.252 14.8 123.679 15.0533 123.279 15.56C122.972 15.96 122.799 16.4267 122.759 16.96ZM140.026 25.24C139.106 26.5733 137.966 27.24 136.606 27.24C135.246 27.24 134.106 26.5733 133.186 25.24C132.292 23.9467 131.846 22.3133 131.846 20.34C131.846 18.3667 132.292 16.7333 133.186 15.44C134.106 14.1067 135.246 13.44 136.606 13.44C137.966 13.44 139.106 14.1067 140.026 15.44C140.919 16.7333 141.366 18.3667 141.366 20.34C141.366 22.3133 140.919 23.9467 140.026 25.24ZM138.906 16.28C138.292 15.2933 137.526 14.8 136.606 14.8C135.686 14.8 134.919 15.2933 134.306 16.28C133.652 17.32 133.326 18.6733 133.326 20.34C133.326 22.0067 133.652 23.36 134.306 24.4C134.919 25.3867 135.686 25.88 136.606 25.88C137.526 25.88 138.292 25.3867 138.906 24.4C139.559 23.36 139.886 22.0067 139.886 20.34C139.886 18.6733 139.559 17.32 138.906 16.28ZM154.821 19.3V21.02C154.168 20.1933 153.301 19.78 152.221 19.78C151.408 19.78 150.714 20.06 150.141 20.62C149.568 21.1667 149.281 21.92 149.281 22.88C149.281 23.84 149.568 24.5933 150.141 25.14C150.714 25.6867 151.401 25.96 152.201 25.96C153.268 25.96 154.161 25.5267 154.881 24.66V26.38C154.094 26.9533 153.214 27.24 152.241 27.24C150.948 27.24 149.881 26.8333 149.041 26.02C148.214 25.1933 147.801 24.1533 147.801 22.9C147.801 21.6333 148.221 20.5867 149.061 19.76C149.901 18.92 150.961 18.5 152.241 18.5C153.201 18.5 154.061 18.7667 154.821 19.3ZM156.13 27L158.13 18.06L161.57 24.82L164.93 18.06L166.93 27H165.45L164.35 21.86L161.53 27.58L158.67 21.86L157.61 27H156.13ZM173.96 18.7H179.8V25.68H181.04V29.2H179.72V27H173.4V29.2H172.08V25.68C172.773 25.6667 173.287 25.3067 173.62 24.6C173.847 24.1333 173.96 23.4 173.96 22.4V18.7ZM178.36 25.68V20.02H175.4V23.14C175.4 24.2467 175.067 25.0933 174.4 25.68H178.36ZM189.579 26C188.753 26.8267 187.706 27.24 186.439 27.24C185.173 27.24 184.119 26.8267 183.279 26C182.453 25.1733 182.039 24.1333 182.039 22.88C182.039 21.6133 182.453 20.5667 183.279 19.74C184.119 18.9133 185.173 18.5 186.439 18.5C187.706 18.5 188.753 18.9133 189.579 19.74C190.419 20.5667 190.839 21.6133 190.839 22.88C190.839 24.1333 190.419 25.1733 189.579 26ZM188.499 20.6C187.939 20.0533 187.253 19.78 186.439 19.78C185.626 19.78 184.933 20.06 184.359 20.62C183.799 21.1667 183.519 21.92 183.519 22.88C183.519 23.84 183.806 24.5933 184.379 25.14C184.953 25.6867 185.639 25.96 186.439 25.96C187.239 25.96 187.926 25.6867 188.499 25.14C189.073 24.5933 189.359 23.84 189.359 22.88C189.359 21.9067 189.073 21.1467 188.499 20.6ZM197.715 27V18.7H199.155V25.68H202.875V18.7H204.315V25.68H205.675V29.2H204.355V27H197.715ZM207.188 18.7H210.328C211.088 18.7 211.668 18.86 212.068 19.18C212.548 19.5667 212.788 20.0867 212.788 20.74C212.788 21.46 212.488 22.0133 211.888 22.4C212.301 22.5067 212.648 22.6933 212.928 22.96C213.368 23.3867 213.588 23.92 213.588 24.56C213.588 25.36 213.301 25.9867 212.728 26.44C212.235 26.8133 211.581 27 210.768 27H207.188V18.7ZM208.628 22.08H210.148C210.535 22.08 210.841 22 211.068 21.84C211.335 21.64 211.468 21.3533 211.468 20.98C211.468 20.6467 211.335 20.38 211.068 20.18C210.868 20.0467 210.481 19.98 209.908 19.98H208.628V22.08ZM208.628 25.72H210.408C211.021 25.72 211.455 25.6267 211.708 25.44C212.028 25.2 212.188 24.8933 212.188 24.52C212.188 24.12 212.048 23.8067 211.768 23.58C211.515 23.38 211.081 23.28 210.468 23.28H208.628V25.72ZM221.942 24.22L223.142 24.88C222.862 25.4133 222.522 25.86 222.122 26.22C221.362 26.9 220.442 27.24 219.362 27.24C218.242 27.24 217.275 26.88 216.462 26.16C215.662 25.4267 215.262 24.34 215.262 22.9C215.262 21.6333 215.622 20.5867 216.342 19.76C217.075 18.92 218.055 18.5 219.282 18.5C220.669 18.5 221.715 19.0067 222.422 20.02C222.982 20.82 223.242 21.86 223.202 23.14H216.742C216.755 23.98 217.015 24.66 217.522 25.18C218.029 25.7 218.649 25.96 219.382 25.96C220.035 25.96 220.602 25.76 221.082 25.36C221.455 25.04 221.742 24.66 221.942 24.22ZM216.842 21.94H221.722C221.602 21.2867 221.315 20.7667 220.862 20.38C220.422 19.98 219.895 19.78 219.282 19.78C218.682 19.78 218.149 19.9867 217.682 20.4C217.229 20.8 216.949 21.3133 216.842 21.94ZM230.851 20.02H228.251V27H226.811V20.02H224.211V18.7H230.851V20.02ZM238.329 24.22L239.529 24.88C239.249 25.4133 238.909 25.86 238.509 26.22C237.749 26.9 236.829 27.24 235.749 27.24C234.629 27.24 233.662 26.88 232.849 26.16C232.049 25.4267 231.649 24.34 231.649 22.9C231.649 21.6333 232.009 20.5867 232.729 19.76C233.462 18.92 234.442 18.5 235.669 18.5C237.055 18.5 238.102 19.0067 238.809 20.02C239.369 20.82 239.629 21.86 239.589 23.14H233.129C233.142 23.98 233.402 24.66 233.909 25.18C234.415 25.7 235.035 25.96 235.769 25.96C236.422 25.96 236.989 25.76 237.469 25.36C237.842 25.04 238.129 24.66 238.329 24.22ZM233.229 21.94H238.109C237.989 21.2867 237.702 20.7667 237.249 20.38C236.809 19.98 236.282 19.78 235.669 19.78C235.069 19.78 234.535 19.9867 234.069 20.4C233.615 20.8 233.335 21.3133 233.229 21.94ZM241.798 27V18.7H243.238V22.1H247.158V18.7H248.598V27H247.158V23.42H243.238V27H241.798ZM251.309 18.7H252.749V24.18L258.429 18.06V27H256.989V21.46L251.309 27.58V18.7ZM260.193 27L262.773 23.58C262.693 23.58 262.58 23.5667 262.433 23.54C262.3 23.5133 262.1 23.4467 261.833 23.34C261.566 23.2333 261.346 23.0933 261.173 22.92C260.733 22.5067 260.513 21.9533 260.513 21.26C260.513 20.4733 260.76 19.8533 261.253 19.4C261.746 18.9333 262.56 18.7 263.693 18.7H266.593V27H265.153V23.66H264.273L261.913 27H260.193ZM265.153 22.46V19.98H263.813C263.186 19.98 262.753 20.0533 262.513 20.2C262.166 20.4267 261.993 20.7667 261.993 21.22C261.993 21.6733 262.166 22.0067 262.513 22.22C262.766 22.38 263.193 22.46 263.793 22.46H265.153ZM269.537 20.2C269.337 20 269.237 19.7667 269.237 19.5C269.237 19.2333 269.337 19 269.537 18.8C269.737 18.6 269.97 18.5 270.237 18.5C270.504 18.5 270.737 18.6 270.937 18.8C271.137 19 271.237 19.2333 271.237 19.5C271.237 19.7667 271.137 20 270.937 20.2C270.737 20.4 270.504 20.5 270.237 20.5C269.97 20.5 269.737 20.4 269.537 20.2ZM269.537 26.94C269.337 26.74 269.237 26.5067 269.237 26.24C269.237 25.9733 269.337 25.74 269.537 25.54C269.737 25.34 269.97 25.24 270.237 25.24C270.504 25.24 270.737 25.34 270.937 25.54C271.137 25.74 271.237 25.9733 271.237 26.24C271.237 26.5067 271.137 26.74 270.937 26.94C270.737 27.14 270.504 27.24 270.237 27.24C269.97 27.24 269.737 27.14 269.537 26.94ZM8.36 44.7H15.04V53H13.6V46.02H9.8V53H8.36V44.7ZM24.7745 52C23.9479 52.8267 22.9012 53.24 21.6345 53.24C20.3679 53.24 19.3145 52.8267 18.4745 52C17.6479 51.1733 17.2345 50.1333 17.2345 48.88C17.2345 47.6133 17.6479 46.5667 18.4745 45.74C19.3145 44.9133 20.3679 44.5 21.6345 44.5C22.9012 44.5 23.9479 44.9133 24.7745 45.74C25.6145 46.5667 26.0345 47.6133 26.0345 48.88C26.0345 50.1333 25.6145 51.1733 24.7745 52ZM23.6945 46.6C23.1345 46.0533 22.4479 45.78 21.6345 45.78C20.8212 45.78 20.1279 46.06 19.5545 46.62C18.9945 47.1667 18.7145 47.92 18.7145 48.88C18.7145 49.84 19.0012 50.5933 19.5745 51.14C20.1479 51.6867 20.8345 51.96 21.6345 51.96C22.4345 51.96 23.1212 51.6867 23.6945 51.14C24.2679 50.5933 24.5545 49.84 24.5545 48.88C24.5545 47.9067 24.2679 47.1467 23.6945 46.6ZM34.7428 45.3V47.02C34.0895 46.1933 33.2228 45.78 32.1428 45.78C31.3295 45.78 30.6361 46.06 30.0628 46.62C29.4895 47.1667 29.2028 47.92 29.2028 48.88C29.2028 49.84 29.4895 50.5933 30.0628 51.14C30.6361 51.6867 31.3228 51.96 32.1228 51.96C33.1895 51.96 34.0828 51.5267 34.8028 50.66V52.38C34.0161 52.9533 33.1361 53.24 32.1628 53.24C30.8695 53.24 29.8028 52.8333 28.9628 52.02C28.1361 51.1933 27.7228 50.1533 27.7228 48.9C27.7228 47.6333 28.1428 46.5867 28.9828 45.76C29.8228 44.92 30.8828 44.5 32.1628 44.5C33.1228 44.5 33.9828 44.7667 34.7428 45.3ZM43.2923 44.7V53H41.8523V46.02H38.8923V49.76C38.8923 50.84 38.679 51.64 38.2523 52.16C37.7723 52.7467 37.1057 53.04 36.2523 53.04C36.1457 53.04 35.999 53.0267 35.8123 53V51.68C35.9457 51.7067 36.0523 51.72 36.1323 51.72C36.599 51.72 36.9457 51.54 37.1723 51.18C37.359 50.8867 37.4523 50.4133 37.4523 49.76V44.7H43.2923ZM52.1763 50.22L53.3763 50.88C53.0963 51.4133 52.7563 51.86 52.3563 52.22C51.5963 52.9 50.6763 53.24 49.5963 53.24C48.4763 53.24 47.5096 52.88 46.6963 52.16C45.8963 51.4267 45.4963 50.34 45.4963 48.9C45.4963 47.6333 45.8563 46.5867 46.5763 45.76C47.3096 44.92 48.2896 44.5 49.5163 44.5C50.9029 44.5 51.9496 45.0067 52.6563 46.02C53.2163 46.82 53.4763 47.86 53.4363 49.14H46.9763C46.9896 49.98 47.2496 50.66 47.7563 51.18C48.2629 51.7 48.8829 51.96 49.6163 51.96C50.2696 51.96 50.8363 51.76 51.3163 51.36C51.6896 51.04 51.9763 50.66 52.1763 50.22ZM47.0763 47.94H51.9563C51.8363 47.2867 51.5496 46.7667 51.0963 46.38C50.6563 45.98 50.1296 45.78 49.5163 45.78C48.9163 45.78 48.3829 45.9867 47.9163 46.4C47.4629 46.8 47.1829 47.3133 47.0763 47.94ZM56.2452 44.7H62.0852V51.68H63.3252V55.2H62.0052V53H55.6852V55.2H54.3652V51.68C55.0585 51.6667 55.5718 51.3067 55.9052 50.6C56.1318 50.1333 56.2452 49.4 56.2452 48.4V44.7ZM60.6452 51.68V46.02H57.6852V49.14C57.6852 50.2467 57.3518 51.0933 56.6852 51.68H60.6452ZM64.8444 53V44.7H66.2844V48.1H70.2044V44.7H71.6444V53H70.2044V49.42H66.2844V53H64.8444ZM74.3561 44.7H75.7961V50.18L81.4761 44.06V53H80.0361V47.46L74.3561 53.58V44.7ZM84.1998 44.7H85.6398V50.18L91.3198 44.06V53H89.8798V47.46L84.1998 53.58V44.7ZM84.9198 41.12L86.1198 40.66C86.3598 41.46 86.9265 41.86 87.8198 41.86C88.7132 41.86 89.2798 41.46 89.5198 40.66L90.7198 41.12C90.5065 41.72 90.1398 42.1933 89.6198 42.54C89.1132 42.8867 88.5132 43.06 87.8198 43.06C87.1265 43.06 86.5198 42.8867 85.9998 42.54C85.4932 42.1933 85.1332 41.72 84.9198 41.12ZM105.212 45.3V47.02C104.558 46.1933 103.692 45.78 102.612 45.78C101.798 45.78 101.105 46.06 100.532 46.62C99.9582 47.1667 99.6716 47.92 99.6716 48.88C99.6716 49.84 99.9582 50.5933 100.532 51.14C101.105 51.6867 101.792 51.96 102.592 51.96C103.658 51.96 104.552 51.5267 105.272 50.66V52.38C104.485 52.9533 103.605 53.24 102.632 53.24C101.338 53.24 100.272 52.8333 99.4316 52.02C98.6049 51.1933 98.1916 50.1533 98.1916 48.9C98.1916 47.6333 98.6116 46.5867 99.4516 45.76C100.292 44.92 101.352 44.5 102.632 44.5C103.592 44.5 104.452 44.7667 105.212 45.3ZM114.286 52C113.46 52.8267 112.413 53.24 111.146 53.24C109.88 53.24 108.826 52.8267 107.986 52C107.16 51.1733 106.746 50.1333 106.746 48.88C106.746 47.6133 107.16 46.5667 107.986 45.74C108.826 44.9133 109.88 44.5 111.146 44.5C112.413 44.5 113.46 44.9133 114.286 45.74C115.126 46.5667 115.546 47.6133 115.546 48.88C115.546 50.1333 115.126 51.1733 114.286 52ZM113.206 46.6C112.646 46.0533 111.96 45.78 111.146 45.78C110.333 45.78 109.64 46.06 109.066 46.62C108.506 47.1667 108.226 47.92 108.226 48.88C108.226 49.84 108.513 50.5933 109.086 51.14C109.66 51.6867 110.346 51.96 111.146 51.96C111.946 51.96 112.633 51.6867 113.206 51.14C113.78 50.5933 114.066 49.84 114.066 48.88C114.066 47.9067 113.78 47.1467 113.206 46.6ZM118.835 46.82L117.835 46C118.155 45.5333 118.508 45.1867 118.895 44.96C119.415 44.6533 120.021 44.5 120.715 44.5C121.555 44.5 122.208 44.6933 122.675 45.08C123.155 45.4933 123.395 46.02 123.395 46.66C123.395 47.4333 123.081 48.0133 122.455 48.4C122.855 48.4933 123.175 48.6733 123.415 48.94C123.801 49.3533 123.995 49.86 123.995 50.46C123.995 51.3533 123.635 52.0667 122.915 52.6C122.328 53.0267 121.541 53.24 120.555 53.24C119.675 53.24 118.935 53.0067 118.335 52.54C117.881 52.2067 117.515 51.7333 117.235 51.12L118.475 50.6C118.621 50.9733 118.868 51.2867 119.215 51.54C119.588 51.82 120.041 51.96 120.575 51.96C121.201 51.96 121.668 51.8533 121.975 51.64C122.361 51.3867 122.555 51 122.555 50.48C122.555 50.0533 122.388 49.7333 122.055 49.52C121.775 49.3333 121.321 49.24 120.695 49.24H119.855V47.92H120.555C121.061 47.92 121.421 47.8467 121.635 47.7C121.928 47.5133 122.075 47.26 122.075 46.94C122.075 46.5667 121.955 46.28 121.715 46.08C121.488 45.88 121.135 45.78 120.655 45.78C120.241 45.78 119.861 45.8867 119.515 46.1C119.221 46.2867 118.995 46.5267 118.835 46.82ZM127.632 51.84V57.6H126.192V44.7H127.632V45.86C128.365 44.9533 129.312 44.5 130.472 44.5C131.712 44.5 132.692 44.94 133.412 45.82C134.145 46.6867 134.512 47.7133 134.512 48.9C134.512 50.1 134.152 51.1267 133.432 51.98C132.712 52.82 131.745 53.24 130.532 53.24C129.319 53.24 128.352 52.7733 127.632 51.84ZM130.332 51.96C131.145 51.96 131.799 51.6667 132.292 51.08C132.785 50.48 133.032 49.7533 133.032 48.9C133.032 47.94 132.759 47.18 132.212 46.62C131.665 46.06 131.032 45.78 130.312 45.78C129.592 45.78 128.952 46.06 128.392 46.62C127.832 47.18 127.552 47.9333 127.552 48.88C127.552 49.7467 127.805 50.48 128.312 51.08C128.832 51.6667 129.505 51.96 130.332 51.96ZM142.879 50.22L144.079 50.88C143.799 51.4133 143.459 51.86 143.059 52.22C142.299 52.9 141.379 53.24 140.299 53.24C139.179 53.24 138.213 52.88 137.399 52.16C136.599 51.4267 136.199 50.34 136.199 48.9C136.199 47.6333 136.559 46.5867 137.279 45.76C138.013 44.92 138.993 44.5 140.219 44.5C141.606 44.5 142.653 45.0067 143.359 46.02C143.919 46.82 144.179 47.86 144.139 49.14H137.679C137.693 49.98 137.953 50.66 138.459 51.18C138.966 51.7 139.586 51.96 140.319 51.96C140.973 51.96 141.539 51.76 142.019 51.36C142.393 51.04 142.679 50.66 142.879 50.22ZM137.779 47.94H142.659C142.539 47.2867 142.253 46.7667 141.799 46.38C141.359 45.98 140.833 45.78 140.219 45.78C139.619 45.78 139.086 45.9867 138.619 46.4C138.166 46.8 137.886 47.3133 137.779 47.94ZM146.348 44.7H149.488C150.248 44.7 150.828 44.86 151.228 45.18C151.708 45.5667 151.948 46.0867 151.948 46.74C151.948 47.46 151.648 48.0133 151.048 48.4C151.462 48.5067 151.808 48.6933 152.088 48.96C152.528 49.3867 152.748 49.92 152.748 50.56C152.748 51.36 152.462 51.9867 151.888 52.44C151.395 52.8133 150.742 53 149.928 53H146.348V44.7ZM147.788 48.08H149.308C149.695 48.08 150.002 48 150.228 47.84C150.495 47.64 150.628 47.3533 150.628 46.98C150.628 46.6467 150.495 46.38 150.228 46.18C150.028 46.0467 149.642 45.98 149.068 45.98H147.788V48.08ZM147.788 51.72H149.568C150.182 51.72 150.615 51.6267 150.868 51.44C151.188 51.2 151.348 50.8933 151.348 50.52C151.348 50.12 151.208 49.8067 150.928 49.58C150.675 49.38 150.242 49.28 149.628 49.28H147.788V51.72ZM154.942 53V44.7H156.382V51.68H159.582V44.7H161.022V51.68H164.222V44.7H165.662V53H154.942ZM168.38 44.7H169.82V50.18L175.5 44.06V53H174.06V47.46L168.38 53.58V44.7ZM178.223 44.7H179.663V50.18L185.343 44.06V53H183.903V47.46L178.223 53.58V44.7ZM178.943 41.12L180.143 40.66C180.383 41.46 180.95 41.86 181.843 41.86C182.737 41.86 183.303 41.46 183.543 40.66L184.743 41.12C184.53 41.72 184.163 42.1933 183.643 42.54C183.137 42.8867 182.537 43.06 181.843 43.06C181.15 43.06 180.543 42.8867 180.023 42.54C179.517 42.1933 179.157 41.72 178.943 41.12ZM199.015 44.7V53H197.575V46.02H194.615V49.76C194.615 50.84 194.402 51.64 193.975 52.16C193.495 52.7467 192.828 53.04 191.975 53.04C191.868 53.04 191.722 53.0267 191.535 53V51.68C191.668 51.7067 191.775 51.72 191.855 51.72C192.322 51.72 192.668 51.54 192.895 51.18C193.082 50.8867 193.175 50.4133 193.175 49.76V44.7H199.015ZM201.739 44.7H203.179V50.18L208.859 44.06V53H207.419V47.46L201.739 53.58V44.7ZM218.083 45.3V47.02C217.429 46.1933 216.563 45.78 215.483 45.78C214.669 45.78 213.976 46.06 213.403 46.62C212.829 47.1667 212.543 47.92 212.543 48.88C212.543 49.84 212.829 50.5933 213.403 51.14C213.976 51.6867 214.663 51.96 215.463 51.96C216.529 51.96 217.423 51.5267 218.143 50.66V52.38C217.356 52.9533 216.476 53.24 215.503 53.24C214.209 53.24 213.143 52.8333 212.303 52.02C211.476 51.1933 211.063 50.1533 211.063 48.9C211.063 47.6333 211.483 46.5867 212.323 45.76C213.163 44.92 214.223 44.5 215.503 44.5C216.463 44.5 217.323 44.7667 218.083 45.3ZM225.792 46.02H223.192V53H221.752V46.02H219.152V44.7H225.792V46.02Z" fill="black"></path>
  <path d="M258.397 123.547C258.699 122.775 258.318 121.905 257.547 121.603L244.975 116.684C244.203 116.382 243.333 116.763 243.031 117.534C242.729 118.305 243.11 119.176 243.882 119.477L255.057 123.85L250.684 135.025C250.382 135.797 250.763 136.667 251.534 136.969C252.305 137.271 253.176 136.89 253.477 136.118L258.397 123.547ZM175.603 157.453C175.301 158.225 175.682 159.095 176.453 159.397L189.025 164.316C189.797 164.618 190.667 164.237 190.969 163.466C191.271 162.695 190.89 161.824 190.118 161.523L178.943 157.15L183.316 145.975C183.618 145.203 183.237 144.333 182.466 144.031C181.695 143.729 180.824 144.11 180.523 144.882L175.603 157.453ZM256.399 121.626L176.399 156.626L177.601 159.374L257.601 124.374L256.399 121.626Z" fill="#005D04"></path>
  <line x1="122.503" y1="193.9" x2="124.503" y2="163.9" stroke="#E80000" stroke-width="3" stroke-dasharray="5 5"></line>
</svg>
