<?xml version="1.0" encoding="UTF-8"?>
<svg xmlns="http://www.w3.org/2000/svg" width="400" height="400" viewBox="0 0 400 400" fill="none">
  <g clip-path="url(#clip0_207_44)">
    <path fill-rule="evenodd" clip-rule="evenodd" d="M339.562 24.956C337.69 32.434 310.53 89.48 299.072 110C295.696 116.05 289.874 126.594 286.136 133.434C277.489 149.252 267.137 164 264.677 164C263.631 164 262.22 162.248 261.541 160.108C260.632 157.24 257.835 155.902 250.925 155.024C245.764 154.368 239.521 153.544 237.049 153.194C234.577 152.842 232.557 153.264 232.557 154.132C232.557 156.422 247.006 168 249.865 168C255.038 168 254.363 171.978 248.693 174.914C240.483 179.168 239.095 178.866 235.581 172.06C233.896 168.792 230.564 165.072 228.18 163.794C221.871 160.412 202.856 156.154 193.692 156.072L185.773 156L196.686 167.14C207.492 178.17 217.097 183.874 225.313 184.136C229.51 184.27 229.508 184.296 225.07 186.44C222.6 187.634 220.577 189.426 220.577 190.424C220.577 191.42 219.625 191.646 218.461 190.926C215.903 189.342 204.605 193.736 204.605 196.314C204.605 200.578 196 193.054 192.871 186.054C190.998 181.86 183.194 171.66 175.529 163.388C160.577 147.25 160.031 146.988 124.742 139.054C118.703 137.696 111.964 135.93 109.768 135.13C106.234 133.842 106.14 133.98 108.951 136.336C112.533 139.338 125.683 154.788 131.73 163.1C140.252 174.812 151.127 184 163.416 189.876C170.462 193.244 177.895 196.13 179.933 196.29C181.972 196.448 175.555 197.716 165.672 199.104L147.703 201.63L177.118 201.314L206.533 201L197.503 205.358C185.671 211.07 168.794 222.392 163.284 228.314C160.872 230.908 155.431 239.772 151.193 248.014C146.952 256.256 141.859 265.476 139.874 268.5C136.007 274.388 137.392 275.784 142.554 271.202C144.289 269.662 152.451 264.938 160.692 260.702C192.08 244.57 202.91 233.344 210.576 209C213.785 198.814 216.812 195.406 226.571 190.998C230.901 189.042 234.064 186.826 233.599 186.072C232.581 184.422 250.578 175.386 252.015 176.824C252.568 177.38 249.32 179.316 244.798 181.128C240.275 182.94 237.111 185.29 237.764 186.348C238.417 187.406 240.207 187.79 241.743 187.2C245.994 185.566 245.091 188.026 239.559 193.162C236.821 195.702 235.38 198.276 236.356 198.88C237.33 199.484 238.664 198.576 239.321 196.862C239.988 195.12 241.537 194.38 242.833 195.182C244.276 196.074 244.614 195.744 243.727 194.31C242.945 193.04 243.118 192 244.113 192C245.109 192 246.898 189.974 248.09 187.5C249.426 184.722 250.302 184.148 250.378 186C250.446 187.65 249.158 191.578 247.519 194.728C243.672 202.116 243.759 203.112 247.958 199.744C255.078 194.034 210.676 255.632 199.869 266.458C198.206 268.124 194.766 272.526 192.222 276.244C189.678 279.96 183.954 287.95 179.5 294C162.341 317.308 168.165 312.154 190.629 284.154C196.668 276.624 202.183 270.8 202.882 271.21C203.581 271.62 205.377 270.39 206.875 268.478C209.337 265.33 209.265 265.26 206.102 267.744C204.02 269.38 202.608 269.63 202.608 268.362C202.608 267.194 203.419 265.734 204.409 265.122C207.021 263.504 240.417 218.932 248.709 206C269.98 172.814 271.302 170 265.618 170C264.034 170 262.186 170.9 261.507 172C260.828 173.1 261.243 174 262.427 174C264.791 174 257.863 188.93 254.547 190.982C250.164 193.696 252.53 180.222 257.015 176.928L261.507 173.63L256.515 174.898C251.78 176.102 251.732 176.034 255.601 173.584C266.348 166.772 273.097 160.386 278.32 152.078C287.78 137.034 303.806 106.864 320.529 72.622C338.416 35.994 345.111 20 342.555 20C341.591 20 340.245 22.23 339.562 24.956ZM352.35 21.794C352.35 22.782 347.409 34.084 341.369 46.91C335.33 59.738 330.422 71.756 330.464 73.616C330.506 75.478 332.976 71.6 335.955 64.998C338.934 58.398 343.729 48.498 346.614 42.998C351.811 33.09 355.735 20 353.506 20C352.872 20 352.35 20.808 352.35 21.794ZM321.889 86.41C310.395 106.198 302.534 123.93 303.798 127.23C304.685 129.54 304.357 130.19 302.794 129.222C301.334 128.318 299.218 130.604 297.078 135.394C295.209 139.578 288.728 151.308 282.678 161.464C275.044 174.278 271.134 179.172 269.898 177.464C268.704 175.81 268.507 176.198 269.297 178.644C270.669 182.886 267.123 190.622 264.54 189.024C263.573 188.424 262.132 188.988 261.337 190.276C260.383 191.824 260.762 192.08 262.455 191.03C264.176 189.966 264.687 190.358 264.013 192.222C263.457 193.75 261.926 194.752 260.61 194.45C259.293 194.148 258.778 194.812 259.464 195.926C262.335 200.578 229.716 247.938 203.157 277.68C196.816 284.78 190.83 292.032 189.856 293.794C188.884 295.558 186.26 299.022 184.026 301.492C181.792 303.962 180.474 306.496 181.097 307.12C182.062 308.084 195.584 293 216.794 267.302C229.268 252.19 262.074 203.908 272.716 185C276.429 178.4 281.069 170.3 283.026 167C284.98 163.7 289.74 154.446 293.6 146.438C297.461 138.428 301.432 132.378 302.426 132.994C304.391 134.21 308.863 127.194 309.832 121.378C310.219 119.054 309.606 118.27 308.125 119.188C306.679 120.082 306.354 119.742 307.258 118.276C308.053 116.988 309.436 116.39 310.335 116.946C311.231 117.502 313.026 116.676 314.322 115.112C318.161 110.478 323.844 112.008 322.815 117.398C322.332 119.93 321.206 122 320.312 122C319.417 122 318.399 124.026 318.048 126.5C317.644 129.336 316.125 130.898 313.937 130.726C312.028 130.576 310.914 131.176 311.459 132.064C312.006 132.95 309.752 134.27 306.447 134.996C303.143 135.724 300.44 137.514 300.44 138.978C300.44 141 302.313 140.73 308.252 137.856C317.221 133.516 324.399 125.31 324.399 119.396C324.399 113.57 325.982 115.974 327.379 123.924C329.067 133.514 325.173 141.308 316.165 146.38C311.908 148.776 308.426 151.47 308.426 152.368C308.426 154.736 308.949 154.516 316.412 149C324.854 142.76 326.08 142.75 324.902 148.926C324.385 151.636 323.386 153.744 322.682 153.61C321.979 153.474 320.056 153.886 318.409 154.524C316.762 155.162 314.066 156.134 312.419 156.684C310.772 157.234 311.896 157.756 314.915 157.842C317.934 157.928 320.405 156.95 320.405 155.666C320.405 154.384 320.943 153.872 321.599 154.528C322.895 155.828 317.077 172.162 310.714 185.09C308.524 189.54 301.244 198.54 294.538 205.09C282.742 216.612 276.168 221.364 279.506 215.95C280.554 214.254 280.298 213.874 278.753 214.83C277.467 215.626 276.932 217.114 277.565 218.138C278.196 219.162 277.761 220 276.599 220C273.249 220 274.121 213.144 278.805 202.666C281.181 197.35 282.946 192.23 282.726 191.288C282.047 188.364 294.558 167.338 301.047 160.5C304.439 156.926 306.314 154 305.216 154C302.474 154 291.97 165.5 286.947 174C281.932 182.486 274.66 203.706 272.554 216C271.705 220.95 270.33 226.8 269.495 229C268.203 232.41 268.718 232.262 272.985 228C275.738 225.25 283.966 218.05 291.27 212C305.946 199.844 316.929 183.84 322.66 166.26L326.329 155L325.535 171C325.097 179.8 324.277 188.35 323.71 190C323.145 191.65 321.809 198.4 320.745 205C318.916 216.334 319.108 219.966 321.416 217.654C322.901 216.166 330.35 174.414 330.612 166.114C330.81 159.776 331.025 160.09 332.572 169C338.688 204.214 342.837 213.922 358.176 228.924C363.757 234.384 368.323 237.804 368.323 236.524C368.323 235.246 367.169 233.48 365.757 232.6C361.553 229.98 349.14 213.598 344.768 204.9C342.529 200.446 339.277 189.908 337.54 181.484C333.804 163.366 333.731 162 336.496 162C337.658 162 338.041 162.922 337.346 164.05C336.649 165.176 336.943 165.852 337.997 165.55C341.074 164.666 356.354 176.768 355.427 179.354C354.493 181.962 359.057 186.616 360.818 184.852C361.429 184.238 364.166 186.722 366.899 190.368C375.415 201.73 382.477 217.876 383.647 228.656C384.717 238.514 384.613 238.812 381.44 235C378.31 231.238 378.296 231.38 381.205 237.4C386.849 249.088 385.162 251.582 376.812 243.892L369.329 237L375.315 243.968C387.634 258.308 389.087 257.552 387.752 237.5C385.645 205.858 373.145 184.678 344.153 163.622C339.237 160.052 336.274 156.018 335.334 151.622C334.557 147.98 333.219 144.1 332.363 143C331.506 141.9 331.401 137.406 332.127 133.014L333.447 125.028L337.714 135.314C343.342 148.88 359.221 162 370.012 162C374.039 162 380.246 162.836 383.804 163.858C389.538 165.506 390.07 165.336 388.472 162.358C387.48 160.512 383.89 155.502 380.492 151.224C377.094 146.948 374.313 142.796 374.313 141.998C374.313 141.198 371.841 138.044 368.822 134.986C362.211 128.294 349.37 122.104 341.968 122.044C338.975 122.02 335.671 120.442 334.541 118.5C332.754 115.428 332.471 115.61 332.215 120C331.668 129.43 328.879 109.592 328.579 94.148C328.422 85.944 327.974 78.914 327.585 78.526C327.198 78.138 324.634 81.684 321.889 86.41ZM330.76 86C330.68 93.89 333.874 107.134 334.242 100.43C334.317 99.018 337.033 100.886 340.275 104.586C343.528 108.296 349.567 112.286 353.752 113.488C365.007 116.72 378.306 118.558 378.306 116.882C378.306 113.748 363.719 97.786 358.28 94.968C355.128 93.336 349.583 92.122 345.961 92.272C341.22 92.468 340.641 92.788 343.895 93.416C346.381 93.894 347.984 94.986 347.457 95.84C346.93 96.696 349.15 97.47 352.388 97.562C359.047 97.752 364.372 100.97 370.102 108.27L374.025 113.264L367.68 112.484C364.19 112.054 359.987 111.194 358.34 110.574C356.693 109.952 353.854 109.276 352.031 109.07C343.598 108.116 335.569 98.438 338.874 93.21C339.147 92.776 337.893 90.75 336.084 88.71C334.278 86.67 332.359 83.2 331.824 81C331.289 78.8 330.81 81.05 330.76 86ZM324.399 88.096C324.399 89.248 321.202 95.198 317.297 101.314C313.39 107.432 310.518 112.762 310.914 113.16C311.311 113.556 314.957 111.514 319.016 108.622C325.585 103.94 326.395 102.408 326.395 94.68C326.395 89.906 325.946 86 325.397 86C324.848 86 324.399 86.944 324.399 88.096ZM340.371 98.786C340.371 99.218 341.765 100.108 343.47 100.764C345.247 101.446 346.047 101.11 345.349 99.978C344.177 98.076 340.371 97.166 340.371 98.786ZM332.7 110C332.7 112.75 333.154 113.876 333.707 112.5C334.262 111.126 334.262 108.876 333.707 107.5C333.154 106.126 332.7 107.25 332.7 110ZM317.411 118C316.714 120.2 315.456 122 314.613 122C313.773 122 313.084 123.444 313.084 125.21C313.084 127.604 314.004 127.222 316.7 123.71C318.69 121.12 320.338 117.876 320.362 116.5C320.429 112.7 318.832 113.512 317.411 118ZM339.347 129.466C339.786 136.738 342.615 141.696 350.49 149C355.186 153.354 356.593 153.974 355.623 151.256C354.766 148.86 356.392 149.768 360.129 153.778C365.176 159.19 367.221 159.998 375.111 159.7C382.495 159.42 383.822 158.84 382.031 156.676C379.398 153.498 375.489 153.052 377.399 156.148C378.126 157.328 375.035 156.41 370.529 154.106C366.021 151.804 362.333 149.426 362.333 148.824C362.333 147.136 371.158 150.29 372.566 152.484C373.342 153.694 374.333 153.586 375.187 152.2C377.89 147.818 362.417 130.476 358.158 133.114C356.703 134.014 356.242 133.784 357.008 132.542C358.2 130.61 353.139 127.886 343.186 125.1C339.63 124.106 339.061 124.752 339.347 129.466ZM341.369 132C342.048 133.1 342.999 134 343.484 134C343.969 134 344.364 133.1 344.364 132C344.364 130.9 343.412 130 342.25 130C341.088 130 340.691 130.9 341.369 132ZM122.153 143.26C120.693 144.722 136.324 165.304 147.026 176.018C155.16 184.16 174.129 192.094 184.845 191.836L191.627 191.674L185.138 188.832C181.57 187.268 178.649 185.04 178.649 183.88C178.649 182.706 180.612 183.15 183.088 184.886C194.828 193.124 191.336 184.39 176.874 169.348C161.373 153.222 156.987 150.42 140.305 145.974C123.684 141.546 123.842 141.57 122.153 143.26ZM352.35 144.334C352.35 145.616 352.941 146.074 353.664 145.35C354.387 144.626 356.407 145.152 358.156 146.518C360.97 148.714 361.02 148.596 358.596 145.5C355.455 141.49 352.35 140.91 352.35 144.334ZM132.231 150.4C133.477 151.904 138.367 155.298 143.097 157.942C148.897 161.182 150.839 161.692 149.064 159.504C147.617 157.722 142.727 154.328 138.199 151.962C133.669 149.598 130.983 148.894 132.231 150.4ZM241.681 157.774C239.984 160.524 245.44 164.074 253.343 165.358C259.063 166.288 260.509 165.878 260.509 163.324C260.509 161.162 259.432 160.54 257.186 161.402C255.118 162.198 254.355 161.884 255.168 160.568C255.884 159.406 254.459 157.914 252.001 157.254C245.746 155.576 242.951 155.716 241.681 157.774ZM201.814 167.78C212.601 178.474 223.067 182.708 232.036 180.004C235.068 179.092 236.372 178.266 234.935 178.172C233.497 178.078 232.792 177.238 233.365 176.306C234.607 174.296 223.949 163.602 221.366 164.264C220.384 164.516 214.699 163.21 208.734 161.362C192.07 156.196 191.066 157.126 201.814 167.78ZM144.309 164.294C145.077 165.006 149.749 166.184 154.691 166.912C160.9 167.828 162.779 167.622 160.776 166.25C159.181 165.158 157.16 164.708 156.284 165.25C155.407 165.792 154.691 165.508 154.691 164.618C154.691 163.728 152.039 163 148.801 163C145.56 163 143.54 163.582 144.309 164.294ZM202.608 164.846C205.353 166.502 208.947 167.862 210.594 167.868C213.256 167.878 213.256 167.69 210.594 166.182C208.947 165.248 205.353 163.888 202.608 163.158L197.617 161.834L202.608 164.846ZM312.974 164.5C310.618 167.548 308.216 174 309.436 174C309.921 174 311.714 171.3 313.417 168C316.606 161.824 316.384 160.084 312.974 164.5ZM218.201 167.64C215.6 168.688 216.708 169.802 223.043 172.5L231.257 176.002L226.567 171C223.987 168.25 221.809 166.064 221.727 166.14C221.643 166.218 220.056 166.892 218.201 167.64ZM165.734 169.9C165.089 170.944 166.452 172.812 168.762 174.052C172.616 176.118 172.78 175.962 170.745 172.152C168.265 167.512 167.437 167.14 165.734 169.9ZM342.368 178C343.544 180.2 344.837 182 345.247 182C345.654 182 345.516 180.2 344.943 178C344.368 175.8 343.072 174 342.064 174C341.052 174 341.188 175.79 342.368 178ZM347.359 178C348.038 179.1 349.491 180 350.589 180C351.688 180 352.031 179.1 351.352 178C350.673 176.9 349.22 176 348.122 176C347.024 176 346.68 176.9 347.359 178ZM300.334 182.564C294.606 187.064 284.539 203.334 287.484 203.334C288.997 203.334 290.094 202.808 289.922 202.166C289.365 200.088 294.806 191.142 300.058 185.5C305.441 179.72 305.559 178.458 300.334 182.564ZM172.286 185.366C173.726 185.944 175.449 185.872 176.112 185.208C176.775 184.544 175.597 184.072 173.492 184.158C171.166 184.254 170.693 184.728 172.286 185.366ZM234.064 191.5C230.658 195.338 226.006 205.846 223.836 214.604C222.568 219.716 222.791 220.024 226.371 218.106C229.192 216.592 230.033 214.55 229.362 210.84C228.815 207.82 229.226 206.174 230.354 206.872C231.415 207.528 232.93 207.012 233.725 205.724C234.627 204.262 234.306 203.918 232.866 204.81C230.318 206.386 229.688 203.542 232.057 201.166C232.88 200.342 233.587 199.066 233.625 198.334C233.665 197.6 234.819 194.974 236.192 192.5C239.179 187.11 238.317 186.706 234.064 191.5ZM350.831 194.856C352.053 198.84 353.65 201.13 354.381 199.946C355.932 197.43 364.484 207.994 369.607 218.758C371.503 222.74 373.891 226 374.912 226C375.934 226 375.457 223.974 373.855 221.5C370.375 216.126 365.546 207.4 365.278 206C365.172 205.45 361.379 201.088 356.849 196.306L348.611 187.61L350.831 194.856ZM213.589 194C212.91 195.1 213.308 196 214.47 196C215.632 196 216.584 195.1 216.584 194C216.584 192.9 216.189 192 215.704 192C215.218 192 214.268 192.9 213.589 194ZM192.252 199.366C193.692 199.944 195.415 199.872 196.077 199.208C196.74 198.544 195.562 198.072 193.458 198.158C191.132 198.254 190.659 198.728 192.252 199.366ZM240.573 200.596C240.557 202.574 238.165 206.398 235.26 209.096C232.355 211.792 230.838 214 231.892 214C232.944 214 236.182 211.516 239.085 208.48C242.921 204.47 243.851 202.144 242.486 199.98C240.902 197.472 240.599 197.568 240.573 200.596ZM189.631 213.15C171.326 223.342 150.047 244.718 162.178 240.724C164.1 240.092 162.833 241.408 159.361 243.65C153.327 247.546 151.504 250.61 149.727 259.85C149.012 263.568 149.4 263.77 153.305 261.71C155.715 260.44 158.135 258.86 158.684 258.2C159.233 257.54 164.849 254.456 171.162 251.348C181.391 246.312 182.643 245.032 182.643 239.604C182.643 234.194 182.251 233.786 179.149 235.978C177.226 237.336 179.005 235.342 183.1 231.548C187.195 227.754 193.859 221.128 197.912 216.824C201.963 212.522 204.299 210.8 203.103 213C201.907 215.2 197.263 220.558 192.783 224.906C187.56 229.978 184.639 234.594 184.639 237.78V242.748L190.812 236.874C198.23 229.814 205.126 217.058 205.609 209.5C205.801 206.474 205.879 204.058 205.781 204.128C205.683 204.198 198.415 208.258 189.631 213.15ZM356.405 215C356.405 216.1 357.276 218.35 358.34 220C359.404 221.65 360.275 222.1 360.275 221C360.275 219.9 359.404 217.65 358.34 216C357.276 214.35 356.405 213.9 356.405 215ZM159.696 249.716C154.213 255.922 152.263 258.75 155.364 256C158.464 253.25 161.395 251.238 161.874 251.53C162.353 251.822 165.518 248.896 168.908 245.03C172.352 241.1 173.878 238.096 172.368 238.216C170.881 238.334 165.179 243.51 159.696 249.716Z" fill="#005D04"></path>
    <path d="M12.88 320.66H21V332.6H22.52V336.8H21.12V334H11.68V336.8H10.28V332.6C10.7333 332.613 11.1467 332.453 11.52 332.12C11.8933 331.773 12.1867 331.333 12.4 330.8C12.72 329.987 12.88 328.82 12.88 327.3V320.66ZM14.36 322.06V327.3C14.36 328.94 14.2 330.18 13.88 331.02C13.6533 331.62 13.3133 332.147 12.86 332.6H19.52V322.06H14.36ZM30.433 325.7V334H28.993V327.02H26.033V330.76C26.033 331.84 25.8196 332.64 25.393 333.16C24.913 333.747 24.2463 334.04 23.393 334.04C23.2863 334.04 23.1396 334.027 22.953 334V332.68C23.0863 332.707 23.193 332.72 23.273 332.72C23.7396 332.72 24.0863 332.54 24.313 332.18C24.4996 331.887 24.593 331.413 24.593 330.76V325.7H30.433ZM32.1969 334L34.7769 330.58C34.6969 330.58 34.5835 330.567 34.4369 330.54C34.3035 330.513 34.1035 330.447 33.8369 330.34C33.5702 330.233 33.3502 330.093 33.1769 329.92C32.7369 329.507 32.5169 328.953 32.5169 328.26C32.5169 327.473 32.7635 326.853 33.2569 326.4C33.7502 325.933 34.5635 325.7 35.6969 325.7H38.5969V334H37.1569V330.66H36.2769L33.9169 334H32.1969ZM37.1569 329.46V326.98H35.8169C35.1902 326.98 34.7569 327.053 34.5169 327.2C34.1702 327.427 33.9969 327.767 33.9969 328.22C33.9969 328.673 34.1702 329.007 34.5169 329.22C34.7702 329.38 35.1969 329.46 35.7969 329.46H37.1569ZM45.9889 325.7H52.6689V334H51.2289V327.02H47.4289V334H45.9889V325.7ZM61.5434 331.22L62.7434 331.88C62.4634 332.413 62.1234 332.86 61.7234 333.22C60.9634 333.9 60.0434 334.24 58.9634 334.24C57.8434 334.24 56.8768 333.88 56.0634 333.16C55.2634 332.427 54.8634 331.34 54.8634 329.9C54.8634 328.633 55.2234 327.587 55.9434 326.76C56.6768 325.92 57.6568 325.5 58.8834 325.5C60.2701 325.5 61.3168 326.007 62.0234 327.02C62.5834 327.82 62.8434 328.86 62.8034 330.14H56.3434C56.3568 330.98 56.6168 331.66 57.1234 332.18C57.6301 332.7 58.2501 332.96 58.9834 332.96C59.6368 332.96 60.2034 332.76 60.6834 332.36C61.0568 332.04 61.3434 331.66 61.5434 331.22ZM56.4434 328.94H61.3234C61.2034 328.287 60.9168 327.767 60.4634 327.38C60.0234 326.98 59.4968 326.78 58.8834 326.78C58.2834 326.78 57.7501 326.987 57.2834 327.4C56.8301 327.8 56.5501 328.313 56.4434 328.94ZM66.4523 332.84V338.6H65.0123V325.7H66.4523V326.86C67.1857 325.953 68.1323 325.5 69.2923 325.5C70.5323 325.5 71.5123 325.94 72.2323 326.82C72.9657 327.687 73.3323 328.713 73.3323 329.9C73.3323 331.1 72.9723 332.127 72.2523 332.98C71.5323 333.82 70.5657 334.24 69.3523 334.24C68.139 334.24 67.1723 333.773 66.4523 332.84ZM69.1523 332.96C69.9657 332.96 70.619 332.667 71.1123 332.08C71.6057 331.48 71.8523 330.753 71.8523 329.9C71.8523 328.94 71.579 328.18 71.0323 327.62C70.4857 327.06 69.8523 326.78 69.1323 326.78C68.4123 326.78 67.7723 327.06 67.2123 327.62C66.6523 328.18 66.3723 328.933 66.3723 329.88C66.3723 330.747 66.6257 331.48 67.1323 332.08C67.6523 332.667 68.3257 332.96 69.1523 332.96ZM82.0397 326.3V328.02C81.3864 327.193 80.5197 326.78 79.4397 326.78C78.6264 326.78 77.933 327.06 77.3597 327.62C76.7864 328.167 76.4997 328.92 76.4997 329.88C76.4997 330.84 76.7864 331.593 77.3597 332.14C77.933 332.687 78.6197 332.96 79.4197 332.96C80.4864 332.96 81.3797 332.527 82.0997 331.66V333.38C81.313 333.953 80.433 334.24 79.4597 334.24C78.1664 334.24 77.0997 333.833 76.2597 333.02C75.433 332.193 75.0197 331.153 75.0197 329.9C75.0197 328.633 75.4397 327.587 76.2797 326.76C77.1197 325.92 78.1797 325.5 79.4597 325.5C80.4197 325.5 81.2797 325.767 82.0397 326.3ZM84.3092 325.7H85.7492V331.18L91.4292 325.06V334H89.9892V328.46L84.3092 334.58V325.7ZM94.153 325.7H95.593V329.1L98.953 325.7H100.713L97.113 329.4L101.153 334H99.273L96.033 330.36L95.593 330.78V334H94.153V325.7ZM109.22 333C108.393 333.827 107.347 334.24 106.08 334.24C104.813 334.24 103.76 333.827 102.92 333C102.093 332.173 101.68 331.133 101.68 329.88C101.68 328.613 102.093 327.567 102.92 326.74C103.76 325.913 104.813 325.5 106.08 325.5C107.347 325.5 108.393 325.913 109.22 326.74C110.06 327.567 110.48 328.613 110.48 329.88C110.48 331.133 110.06 332.173 109.22 333ZM108.14 327.6C107.58 327.053 106.893 326.78 106.08 326.78C105.267 326.78 104.573 327.06 104 327.62C103.44 328.167 103.16 328.92 103.16 329.88C103.16 330.84 103.447 331.593 104.02 332.14C104.593 332.687 105.28 332.96 106.08 332.96C106.88 332.96 107.567 332.687 108.14 332.14C108.713 331.593 109 330.84 109 329.88C109 328.907 108.713 328.147 108.14 327.6ZM112.688 325.7H115.828C116.588 325.7 117.168 325.86 117.568 326.18C118.048 326.567 118.288 327.087 118.288 327.74C118.288 328.46 117.988 329.013 117.388 329.4C117.801 329.507 118.148 329.693 118.428 329.96C118.868 330.387 119.088 330.92 119.088 331.56C119.088 332.36 118.801 332.987 118.228 333.44C117.735 333.813 117.081 334 116.268 334H112.688V325.7ZM114.128 329.08H115.648C116.035 329.08 116.341 329 116.568 328.84C116.835 328.64 116.968 328.353 116.968 327.98C116.968 327.647 116.835 327.38 116.568 327.18C116.368 327.047 115.981 326.98 115.408 326.98H114.128V329.08ZM114.128 332.72H115.908C116.521 332.72 116.955 332.627 117.208 332.44C117.528 332.2 117.688 331.893 117.688 331.52C117.688 331.12 117.548 330.807 117.268 330.58C117.015 330.38 116.581 330.28 115.968 330.28H114.128V332.72ZM125.95 325.7H127.39V331.18L133.07 325.06V334H131.63V328.46L125.95 334.58V325.7ZM140.462 334V325.7H141.902V329.1H145.822V325.7H147.262V334H145.822V330.42H141.902V334H140.462ZM156.133 331.22L157.333 331.88C157.053 332.413 156.713 332.86 156.313 333.22C155.553 333.9 154.633 334.24 153.553 334.24C152.433 334.24 151.467 333.88 150.653 333.16C149.853 332.427 149.453 331.34 149.453 329.9C149.453 328.633 149.813 327.587 150.533 326.76C151.267 325.92 152.247 325.5 153.473 325.5C154.86 325.5 155.907 326.007 156.613 327.02C157.173 327.82 157.433 328.86 157.393 330.14H150.933C150.947 330.98 151.207 331.66 151.713 332.18C152.22 332.7 152.84 332.96 153.573 332.96C154.227 332.96 154.793 332.76 155.273 332.36C155.647 332.04 155.933 331.66 156.133 331.22ZM151.033 328.94H155.913C155.793 328.287 155.507 327.767 155.053 327.38C154.613 326.98 154.087 326.78 153.473 326.78C152.873 326.78 152.34 326.987 151.873 327.4C151.42 327.8 151.14 328.313 151.033 328.94ZM159.602 325.7H161.042V329.1L164.402 325.7H166.162L162.562 329.4L166.602 334H164.722L161.482 330.36L161.042 330.78V334H159.602V325.7ZM173.48 327.02H170.88V334H169.44V327.02H166.84V325.7H173.48V327.02ZM181.099 326.88V325.7H182.539V334H181.099V332.84C180.379 333.773 179.432 334.24 178.259 334.24C177.139 334.24 176.186 333.853 175.399 333.08C174.612 332.307 174.219 331.227 174.219 329.84C174.219 328.48 174.606 327.42 175.379 326.66C176.166 325.887 177.126 325.5 178.259 325.5C179.459 325.5 180.406 325.96 181.099 326.88ZM178.419 326.78C177.659 326.78 177.012 327.053 176.479 327.6C175.959 328.133 175.699 328.88 175.699 329.84C175.699 330.76 175.939 331.513 176.419 332.1C176.912 332.673 177.579 332.96 178.419 332.96C179.259 332.96 179.926 332.66 180.419 332.06C180.926 331.46 181.179 330.727 181.179 329.86C181.179 328.873 180.899 328.113 180.339 327.58C179.779 327.047 179.139 326.78 178.419 326.78ZM186.706 332.84V338.6H185.266V325.7H186.706V326.86C187.44 325.953 188.386 325.5 189.546 325.5C190.786 325.5 191.766 325.94 192.486 326.82C193.22 327.687 193.586 328.713 193.586 329.9C193.586 331.1 193.226 332.127 192.506 332.98C191.786 333.82 190.82 334.24 189.606 334.24C188.393 334.24 187.426 333.773 186.706 332.84ZM189.406 332.96C190.22 332.96 190.873 332.667 191.366 332.08C191.86 331.48 192.106 330.753 192.106 329.9C192.106 328.94 191.833 328.18 191.286 327.62C190.74 327.06 190.106 326.78 189.386 326.78C188.666 326.78 188.026 327.06 187.466 327.62C186.906 328.18 186.626 328.933 186.626 329.88C186.626 330.747 186.88 331.48 187.386 332.08C187.906 332.667 188.58 332.96 189.406 332.96ZM195.794 325.7H197.234V331.18L202.914 325.06V334H201.474V328.46L195.794 334.58V325.7ZM205.637 334V325.7H207.077V329.1H210.997V325.7H212.437V334H210.997V330.42H207.077V334H205.637ZM222.169 333C221.342 333.827 220.296 334.24 219.029 334.24C217.762 334.24 216.709 333.827 215.869 333C215.042 332.173 214.629 331.133 214.629 329.88C214.629 328.613 215.042 327.567 215.869 326.74C216.709 325.913 217.762 325.5 219.029 325.5C220.296 325.5 221.342 325.913 222.169 326.74C223.009 327.567 223.429 328.613 223.429 329.88C223.429 331.133 223.009 332.173 222.169 333ZM221.089 327.6C220.529 327.053 219.842 326.78 219.029 326.78C218.216 326.78 217.522 327.06 216.949 327.62C216.389 328.167 216.109 328.92 216.109 329.88C216.109 330.84 216.396 331.593 216.969 332.14C217.542 332.687 218.229 332.96 219.029 332.96C219.829 332.96 220.516 332.687 221.089 332.14C221.662 331.593 221.949 330.84 221.949 329.88C221.949 328.907 221.662 328.147 221.089 327.6ZM225.637 325.7H228.777C229.537 325.7 230.117 325.86 230.517 326.18C230.997 326.567 231.237 327.087 231.237 327.74C231.237 328.46 230.937 329.013 230.337 329.4C230.751 329.507 231.097 329.693 231.377 329.96C231.817 330.387 232.037 330.92 232.037 331.56C232.037 332.36 231.751 332.987 231.177 333.44C230.684 333.813 230.031 334 229.217 334H225.637V325.7ZM227.077 329.08H228.597C228.984 329.08 229.291 329 229.517 328.84C229.784 328.64 229.917 328.353 229.917 327.98C229.917 327.647 229.784 327.38 229.517 327.18C229.317 327.047 228.931 326.98 228.357 326.98H227.077V329.08ZM227.077 332.72H228.857C229.471 332.72 229.904 332.627 230.157 332.44C230.477 332.2 230.637 331.893 230.637 331.52C230.637 331.12 230.497 330.807 230.217 330.58C229.964 330.38 229.531 330.28 228.917 330.28H227.077V332.72ZM245.919 333C245.092 333.827 244.046 334.24 242.779 334.24C241.512 334.24 240.459 333.827 239.619 333C238.792 332.173 238.379 331.133 238.379 329.88C238.379 328.613 238.792 327.567 239.619 326.74C240.459 325.913 241.512 325.5 242.779 325.5C244.046 325.5 245.092 325.913 245.919 326.74C246.759 327.567 247.179 328.613 247.179 329.88C247.179 331.133 246.759 332.173 245.919 333ZM244.839 327.6C244.279 327.053 243.592 326.78 242.779 326.78C241.966 326.78 241.272 327.06 240.699 327.62C240.139 328.167 239.859 328.92 239.859 329.88C239.859 330.84 240.146 331.593 240.719 332.14C241.292 332.687 241.979 332.96 242.779 332.96C243.579 332.96 244.266 332.687 244.839 332.14C245.412 331.593 245.699 330.84 245.699 329.88C245.699 328.907 245.412 328.147 244.839 327.6ZM254.632 327.02H252.032V334H250.592V327.02H247.992V325.7H254.632V327.02ZM262.545 320H264.145C263.998 320.493 263.745 320.913 263.385 321.26C263.038 321.593 262.718 321.82 262.425 321.94C262.145 322.06 261.812 322.167 261.425 322.26C261.358 322.273 261.198 322.313 260.945 322.38C260.692 322.433 260.498 322.48 260.365 322.52C260.232 322.56 260.058 322.613 259.845 322.68C259.632 322.747 259.438 322.827 259.265 322.92C259.092 323.013 258.932 323.113 258.785 323.22C258.278 323.607 257.865 324.147 257.545 324.84C257.238 325.52 257.072 326.247 257.045 327.02H257.085C257.685 326.007 258.692 325.5 260.105 325.5C261.345 325.5 262.372 325.92 263.185 326.76C264.012 327.6 264.425 328.64 264.425 329.88C264.425 331.133 264.005 332.173 263.165 333C262.325 333.827 261.232 334.24 259.885 334.24C258.725 334.24 257.772 333.893 257.025 333.2C256.092 332.347 255.625 330.92 255.625 328.92C255.625 325.44 256.412 323.16 257.985 322.08C258.105 322 258.232 321.927 258.365 321.86C258.498 321.78 258.638 321.713 258.785 321.66C258.945 321.593 259.078 321.54 259.185 321.5C259.292 321.447 259.438 321.4 259.625 321.36C259.825 321.307 259.958 321.273 260.025 321.26C260.105 321.233 260.252 321.2 260.465 321.16C260.692 321.107 260.832 321.073 260.885 321.06C261.418 320.94 261.805 320.8 262.045 320.64C262.285 320.467 262.452 320.253 262.545 320ZM262.085 327.6C261.525 327.053 260.838 326.78 260.025 326.78C259.212 326.78 258.518 327.06 257.945 327.62C257.385 328.167 257.105 328.92 257.105 329.88C257.105 330.84 257.392 331.593 257.965 332.14C258.538 332.687 259.225 332.96 260.025 332.96C260.825 332.96 261.512 332.687 262.085 332.14C262.658 331.593 262.945 330.84 262.945 329.88C262.945 328.907 262.658 328.147 262.085 327.6ZM266.633 325.7H268.073V331.18L273.753 325.06V334H272.313V328.46L266.633 334.58V325.7ZM277.917 332.84V338.6H276.477V325.7H277.917V326.86C278.651 325.953 279.597 325.5 280.757 325.5C281.997 325.5 282.977 325.94 283.697 326.82C284.431 327.687 284.797 328.713 284.797 329.9C284.797 331.1 284.437 332.127 283.717 332.98C282.997 333.82 282.031 334.24 280.817 334.24C279.604 334.24 278.637 333.773 277.917 332.84ZM280.617 332.96C281.431 332.96 282.084 332.667 282.577 332.08C283.071 331.48 283.317 330.753 283.317 329.9C283.317 328.94 283.044 328.18 282.497 327.62C281.951 327.06 281.317 326.78 280.597 326.78C279.877 326.78 279.237 327.06 278.677 327.62C278.117 328.18 277.837 328.933 277.837 329.88C277.837 330.747 278.091 331.48 278.597 332.08C279.117 332.667 279.791 332.96 280.617 332.96ZM293.365 326.88V325.7H294.805V334H293.365V332.84C292.645 333.773 291.698 334.24 290.525 334.24C289.405 334.24 288.451 333.853 287.665 333.08C286.878 332.307 286.485 331.227 286.485 329.84C286.485 328.48 286.871 327.42 287.645 326.66C288.431 325.887 289.391 325.5 290.525 325.5C291.725 325.5 292.671 325.96 293.365 326.88ZM290.685 326.78C289.925 326.78 289.278 327.053 288.745 327.6C288.225 328.133 287.965 328.88 287.965 329.84C287.965 330.76 288.205 331.513 288.685 332.1C289.178 332.673 289.845 332.96 290.685 332.96C291.525 332.96 292.191 332.66 292.685 332.06C293.191 331.46 293.445 330.727 293.445 329.86C293.445 328.873 293.165 328.113 292.605 327.58C292.045 327.047 291.405 326.78 290.685 326.78ZM298.972 329.1H300.472C300.605 328.167 300.979 327.38 301.592 326.74C302.379 325.913 303.425 325.5 304.732 325.5C306.012 325.5 307.065 325.913 307.892 326.74C308.719 327.567 309.132 328.613 309.132 329.88C309.132 331.133 308.712 332.173 307.872 333C307.045 333.827 305.999 334.24 304.732 334.24C303.279 334.24 302.139 333.72 301.312 332.68C300.779 332.013 300.472 331.26 300.392 330.42H298.972V334H297.532V325.7H298.972V329.1ZM304.732 326.78C303.932 326.78 303.252 327.06 302.692 327.62C302.145 328.167 301.872 328.92 301.872 329.88C301.872 330.853 302.152 331.613 302.712 332.16C303.272 332.693 303.945 332.96 304.732 332.96C305.532 332.96 306.219 332.687 306.792 332.14C307.365 331.593 307.652 330.84 307.652 329.88C307.652 328.92 307.365 328.167 306.792 327.62C306.232 327.06 305.545 326.78 304.732 326.78ZM316.585 327.02H313.985V334H312.545V327.02H309.945V325.7H316.585V327.02ZM324.403 326.3V328.02C323.75 327.193 322.883 326.78 321.803 326.78C320.99 326.78 320.296 327.06 319.723 327.62C319.15 328.167 318.863 328.92 318.863 329.88C318.863 330.84 319.15 331.593 319.723 332.14C320.296 332.687 320.983 332.96 321.783 332.96C322.85 332.96 323.743 332.527 324.463 331.66V333.38C323.676 333.953 322.796 334.24 321.823 334.24C320.53 334.24 319.463 333.833 318.623 333.02C317.796 332.193 317.383 331.153 317.383 329.9C317.383 328.633 317.803 327.587 318.643 326.76C319.483 325.92 320.543 325.5 321.823 325.5C322.783 325.5 323.643 325.767 324.403 326.3ZM325.713 334L328.293 330.58C328.213 330.58 328.099 330.567 327.952 330.54C327.819 330.513 327.619 330.447 327.353 330.34C327.086 330.233 326.866 330.093 326.693 329.92C326.253 329.507 326.033 328.953 326.033 328.26C326.033 327.473 326.279 326.853 326.773 326.4C327.266 325.933 328.079 325.7 329.213 325.7H332.113V334H330.673V330.66H329.793L327.433 334H325.713ZM330.673 329.46V326.98H329.333C328.706 326.98 328.273 327.053 328.033 327.2C327.686 327.427 327.513 327.767 327.513 328.22C327.513 328.673 327.686 329.007 328.033 329.22C328.286 329.38 328.713 329.46 329.313 329.46H330.673ZM346.005 326.3V328.02C345.351 327.193 344.485 326.78 343.405 326.78C342.591 326.78 341.898 327.06 341.325 327.62C340.751 328.167 340.465 328.92 340.465 329.88C340.465 330.84 340.751 331.593 341.325 332.14C341.898 332.687 342.585 332.96 343.385 332.96C344.451 332.96 345.345 332.527 346.065 331.66V333.38C345.278 333.953 344.398 334.24 343.425 334.24C342.131 334.24 341.065 333.833 340.225 333.02C339.398 332.193 338.985 331.153 338.985 329.9C338.985 328.633 339.405 327.587 340.245 326.76C341.085 325.92 342.145 325.5 343.425 325.5C344.385 325.5 345.245 325.767 346.005 326.3ZM354.634 326.88V325.7H356.074V334H354.634V332.84C353.914 333.773 352.967 334.24 351.794 334.24C350.674 334.24 349.721 333.853 348.934 333.08C348.147 332.307 347.754 331.227 347.754 329.84C347.754 328.48 348.141 327.42 348.914 326.66C349.701 325.887 350.661 325.5 351.794 325.5C352.994 325.5 353.941 325.96 354.634 326.88ZM351.954 326.78C351.194 326.78 350.547 327.053 350.014 327.6C349.494 328.133 349.234 328.88 349.234 329.84C349.234 330.76 349.474 331.513 349.954 332.1C350.447 332.673 351.114 332.96 351.954 332.96C352.794 332.96 353.461 332.66 353.954 332.06C354.461 331.46 354.714 330.727 354.714 329.86C354.714 328.873 354.434 328.113 353.874 327.58C353.314 327.047 352.674 326.78 351.954 326.78ZM357.841 334L359.841 325.06L363.281 331.82L366.641 325.06L368.641 334H367.161L366.061 328.86L363.241 334.58L360.381 328.86L359.321 334H357.841ZM370.403 334V325.7H371.843V328.88H373.323C374.47 328.88 375.31 329.153 375.843 329.7C376.27 330.127 376.483 330.707 376.483 331.44C376.483 332.213 376.236 332.833 375.743 333.3C375.25 333.767 374.436 334 373.303 334H370.403ZM371.843 332.72H373.183C373.783 332.72 374.21 332.647 374.463 332.5C374.823 332.26 375.003 331.907 375.003 331.44C375.003 330.96 374.83 330.613 374.483 330.4C374.243 330.24 373.816 330.16 373.203 330.16H371.843V332.72ZM377.483 334V325.7H378.923V334H377.483ZM387.793 331.22L388.993 331.88C388.713 332.413 388.373 332.86 387.973 333.22C387.213 333.9 386.293 334.24 385.213 334.24C384.093 334.24 383.127 333.88 382.313 333.16C381.513 332.427 381.113 331.34 381.113 329.9C381.113 328.633 381.473 327.587 382.193 326.76C382.927 325.92 383.907 325.5 385.133 325.5C386.52 325.5 387.567 326.007 388.273 327.02C388.833 327.82 389.093 328.86 389.053 330.14H382.593C382.607 330.98 382.867 331.66 383.373 332.18C383.88 332.7 384.5 332.96 385.233 332.96C385.887 332.96 386.453 332.76 386.933 332.36C387.307 332.04 387.593 331.66 387.793 331.22ZM382.693 328.94H387.573C387.453 328.287 387.167 327.767 386.713 327.38C386.273 326.98 385.747 326.78 385.133 326.78C384.533 326.78 384 326.987 383.533 327.4C383.08 327.8 382.8 328.313 382.693 328.94ZM10.4 360L12.4 351.06L15.84 357.82L19.2 351.06L21.2 360H19.72L18.62 354.86L15.8 360.58L12.94 354.86L11.88 360H10.4ZM29.9816 359C29.1549 359.827 28.1082 360.24 26.8416 360.24C25.5749 360.24 24.5216 359.827 23.6816 359C22.8549 358.173 22.4416 357.133 22.4416 355.88C22.4416 354.613 22.8549 353.567 23.6816 352.74C24.5216 351.913 25.5749 351.5 26.8416 351.5C28.1082 351.5 29.1549 351.913 29.9816 352.74C30.8216 353.567 31.2416 354.613 31.2416 355.88C31.2416 357.133 30.8216 358.173 29.9816 359ZM28.9016 353.6C28.3416 353.053 27.6549 352.78 26.8416 352.78C26.0282 352.78 25.3349 353.06 24.7616 353.62C24.2016 354.167 23.9216 354.92 23.9216 355.88C23.9216 356.84 24.2082 357.593 24.7816 358.14C25.3549 358.687 26.0416 358.96 26.8416 358.96C27.6416 358.96 28.3282 358.687 28.9016 358.14C29.4749 357.593 29.7616 356.84 29.7616 355.88C29.7616 354.907 29.4749 354.147 28.9016 353.6ZM39.7298 351.7V360H38.2898V353.02H35.3298V356.76C35.3298 357.84 35.1165 358.64 34.6898 359.16C34.2098 359.747 33.5432 360.04 32.6898 360.04C32.5832 360.04 32.4365 360.027 32.2498 360V358.68C32.3832 358.707 32.4898 358.72 32.5698 358.72C33.0365 358.72 33.3832 358.54 33.6098 358.18C33.7965 357.887 33.8898 357.413 33.8898 356.76V351.7H39.7298ZM49.4738 359C48.6471 359.827 47.6004 360.24 46.3338 360.24C45.0671 360.24 44.0138 359.827 43.1738 359C42.3471 358.173 41.9338 357.133 41.9338 355.88C41.9338 354.613 42.3471 353.567 43.1738 352.74C44.0138 351.913 45.0671 351.5 46.3338 351.5C47.6004 351.5 48.6471 351.913 49.4738 352.74C50.3138 353.567 50.7338 354.613 50.7338 355.88C50.7338 357.133 50.3138 358.173 49.4738 359ZM48.3938 353.6C47.8338 353.053 47.1471 352.78 46.3338 352.78C45.5204 352.78 44.8271 353.06 44.2538 353.62C43.6938 354.167 43.4138 354.92 43.4138 355.88C43.4138 356.84 43.7004 357.593 44.2738 358.14C44.8471 358.687 45.5338 358.96 46.3338 358.96C47.1338 358.96 47.8204 358.687 48.3938 358.14C48.9671 357.593 49.2538 356.84 49.2538 355.88C49.2538 354.907 48.9671 354.147 48.3938 353.6ZM53.542 351.7H59.382V358.68H60.622V362.2H59.302V360H52.982V362.2H51.662V358.68C52.3554 358.667 52.8687 358.307 53.202 357.6C53.4287 357.133 53.542 356.4 53.542 355.4V351.7ZM57.942 358.68V353.02H54.982V356.14C54.982 357.247 54.6487 358.093 53.982 358.68H57.942ZM62.1413 360V351.7H63.5813V354.88H65.0613C66.2079 354.88 67.0479 355.153 67.5813 355.7C68.0079 356.127 68.2213 356.707 68.2213 357.44C68.2213 358.213 67.9746 358.833 67.4813 359.3C66.9879 359.767 66.1746 360 65.0413 360H62.1413ZM63.5813 358.72H64.9213C65.5213 358.72 65.9479 358.647 66.2013 358.5C66.5613 358.26 66.7413 357.907 66.7413 357.44C66.7413 356.96 66.5679 356.613 66.2213 356.4C65.9813 356.24 65.5546 356.16 64.9413 356.16H63.5813V358.72ZM69.2213 360V351.7H70.6613V360H69.2213ZM79.5317 357.22L80.7317 357.88C80.4517 358.413 80.1117 358.86 79.7117 359.22C78.9517 359.9 78.0317 360.24 76.9517 360.24C75.8317 360.24 74.8651 359.88 74.0517 359.16C73.2517 358.427 72.8517 357.34 72.8517 355.9C72.8517 354.633 73.2117 353.587 73.9317 352.76C74.6651 351.92 75.6451 351.5 76.8717 351.5C78.2584 351.5 79.3051 352.007 80.0117 353.02C80.5717 353.82 80.8317 354.86 80.7917 356.14H74.3317C74.3451 356.98 74.6051 357.66 75.1117 358.18C75.6184 358.7 76.2384 358.96 76.9717 358.96C77.6251 358.96 78.1917 358.76 78.6717 358.36C79.0451 358.04 79.3317 357.66 79.5317 357.22ZM74.4317 354.94H79.3117C79.1917 354.287 78.9051 353.767 78.4517 353.38C78.0117 352.98 77.4851 352.78 76.8717 352.78C76.2717 352.78 75.7384 352.987 75.2717 353.4C74.8184 353.8 74.5384 354.313 74.4317 354.94ZM82.1206 362.66L83.7606 358.04L85.0806 358.52L83.0606 363.04L82.1206 362.66ZM93.1569 351.7H99.8369V360H98.3969V353.02H94.5969V360H93.1569V351.7ZM109.571 359C108.745 359.827 107.698 360.24 106.431 360.24C105.165 360.24 104.111 359.827 103.271 359C102.445 358.173 102.031 357.133 102.031 355.88C102.031 354.613 102.445 353.567 103.271 352.74C104.111 351.913 105.165 351.5 106.431 351.5C107.698 351.5 108.745 351.913 109.571 352.74C110.411 353.567 110.831 354.613 110.831 355.88C110.831 357.133 110.411 358.173 109.571 359ZM108.491 353.6C107.931 353.053 107.245 352.78 106.431 352.78C105.618 352.78 104.925 353.06 104.351 353.62C103.791 354.167 103.511 354.92 103.511 355.88C103.511 356.84 103.798 357.593 104.371 358.14C104.945 358.687 105.631 358.96 106.431 358.96C107.231 358.96 107.918 358.687 108.491 358.14C109.065 357.593 109.351 356.84 109.351 355.88C109.351 354.907 109.065 354.147 108.491 353.6ZM119.32 351.7V360H117.88V353.02H114.92V356.76C114.92 357.84 114.706 358.64 114.28 359.16C113.8 359.747 113.133 360.04 112.28 360.04C112.173 360.04 112.026 360.027 111.84 360V358.68C111.973 358.707 112.08 358.72 112.16 358.72C112.626 358.72 112.973 358.54 113.2 358.18C113.386 357.887 113.48 357.413 113.48 356.76V351.7H119.32ZM122.044 360V351.7H123.484V355.1H127.404V351.7H128.844V360H127.404V356.42H123.484V360H122.044ZM138.575 359C137.749 359.827 136.702 360.24 135.435 360.24C134.169 360.24 133.115 359.827 132.275 359C131.449 358.173 131.035 357.133 131.035 355.88C131.035 354.613 131.449 353.567 132.275 352.74C133.115 351.913 134.169 351.5 135.435 351.5C136.702 351.5 137.749 351.913 138.575 352.74C139.415 353.567 139.835 354.613 139.835 355.88C139.835 357.133 139.415 358.173 138.575 359ZM137.495 353.6C136.935 353.053 136.249 352.78 135.435 352.78C134.622 352.78 133.929 353.06 133.355 353.62C132.795 354.167 132.515 354.92 132.515 355.88C132.515 356.84 132.802 357.593 133.375 358.14C133.949 358.687 134.635 358.96 135.435 358.96C136.235 358.96 136.922 358.687 137.495 358.14C138.069 357.593 138.355 356.84 138.355 355.88C138.355 354.907 138.069 354.147 137.495 353.6ZM148.544 352.3V354.02C147.89 353.193 147.024 352.78 145.944 352.78C145.13 352.78 144.437 353.06 143.864 353.62C143.29 354.167 143.004 354.92 143.004 355.88C143.004 356.84 143.29 357.593 143.864 358.14C144.437 358.687 145.124 358.96 145.924 358.96C146.99 358.96 147.884 358.527 148.604 357.66V359.38C147.817 359.953 146.937 360.24 145.964 360.24C144.67 360.24 143.604 359.833 142.764 359.02C141.937 358.193 141.524 357.153 141.524 355.9C141.524 354.633 141.944 353.587 142.784 352.76C143.624 351.92 144.684 351.5 145.964 351.5C146.924 351.5 147.784 351.767 148.544 352.3ZM156.253 353.02H153.653V360H152.213V353.02H149.613V351.7H156.253V353.02ZM157.766 360V351.7H159.206V354.88H160.686C161.833 354.88 162.673 355.153 163.206 355.7C163.633 356.127 163.846 356.707 163.846 357.44C163.846 358.213 163.6 358.833 163.106 359.3C162.613 359.767 161.8 360 160.666 360H157.766ZM159.206 358.72H160.546C161.146 358.72 161.573 358.647 161.826 358.5C162.186 358.26 162.366 357.907 162.366 357.44C162.366 356.96 162.193 356.613 161.846 356.4C161.606 356.24 161.18 356.16 160.566 356.16H159.206V358.72ZM167.214 355.1H168.714C168.847 354.167 169.221 353.38 169.834 352.74C170.621 351.913 171.667 351.5 172.974 351.5C174.254 351.5 175.307 351.913 176.134 352.74C176.961 353.567 177.374 354.613 177.374 355.88C177.374 357.133 176.954 358.173 176.114 359C175.287 359.827 174.241 360.24 172.974 360.24C171.521 360.24 170.381 359.72 169.554 358.68C169.021 358.013 168.714 357.26 168.634 356.42H167.214V360H165.774V351.7H167.214V355.1ZM172.974 352.78C172.174 352.78 171.494 353.06 170.934 353.62C170.387 354.167 170.114 354.92 170.114 355.88C170.114 356.853 170.394 357.613 170.954 358.16C171.514 358.693 172.187 358.96 172.974 358.96C173.774 358.96 174.461 358.687 175.034 358.14C175.607 357.593 175.894 356.84 175.894 355.88C175.894 354.92 175.607 354.167 175.034 353.62C174.474 353.06 173.787 352.78 172.974 352.78ZM190.751 352.3V354.02C190.097 353.193 189.231 352.78 188.151 352.78C187.337 352.78 186.644 353.06 186.071 353.62C185.497 354.167 185.211 354.92 185.211 355.88C185.211 356.84 185.497 357.593 186.071 358.14C186.644 358.687 187.331 358.96 188.131 358.96C189.197 358.96 190.091 358.527 190.811 357.66V359.38C190.024 359.953 189.144 360.24 188.171 360.24C186.877 360.24 185.811 359.833 184.971 359.02C184.144 358.193 183.731 357.153 183.731 355.9C183.731 354.633 184.151 353.587 184.991 352.76C185.831 351.92 186.891 351.5 188.171 351.5C189.131 351.5 189.991 351.767 190.751 352.3ZM199.825 359C198.999 359.827 197.952 360.24 196.685 360.24C195.419 360.24 194.365 359.827 193.525 359C192.699 358.173 192.285 357.133 192.285 355.88C192.285 354.613 192.699 353.567 193.525 352.74C194.365 351.913 195.419 351.5 196.685 351.5C197.952 351.5 198.999 351.913 199.825 352.74C200.665 353.567 201.085 354.613 201.085 355.88C201.085 357.133 200.665 358.173 199.825 359ZM198.745 353.6C198.185 353.053 197.499 352.78 196.685 352.78C195.872 352.78 195.179 353.06 194.605 353.62C194.045 354.167 193.765 354.92 193.765 355.88C193.765 356.84 194.052 357.593 194.625 358.14C195.199 358.687 195.885 358.96 196.685 358.96C197.485 358.96 198.172 358.687 198.745 358.14C199.319 357.593 199.605 356.84 199.605 355.88C199.605 354.907 199.319 354.147 198.745 353.6ZM204.374 353.82L203.374 353C203.694 352.533 204.047 352.187 204.434 351.96C204.954 351.653 205.56 351.5 206.254 351.5C207.094 351.5 207.747 351.693 208.214 352.08C208.694 352.493 208.934 353.02 208.934 353.66C208.934 354.433 208.62 355.013 207.994 355.4C208.394 355.493 208.714 355.673 208.954 355.94C209.34 356.353 209.534 356.86 209.534 357.46C209.534 358.353 209.174 359.067 208.454 359.6C207.867 360.027 207.08 360.24 206.094 360.24C205.214 360.24 204.474 360.007 203.874 359.54C203.42 359.207 203.054 358.733 202.774 358.12L204.014 357.6C204.16 357.973 204.407 358.287 204.754 358.54C205.127 358.82 205.58 358.96 206.114 358.96C206.74 358.96 207.207 358.853 207.514 358.64C207.9 358.387 208.094 358 208.094 357.48C208.094 357.053 207.927 356.733 207.594 356.52C207.314 356.333 206.86 356.24 206.234 356.24H205.394V354.92H206.094C206.6 354.92 206.96 354.847 207.174 354.7C207.467 354.513 207.614 354.26 207.614 353.94C207.614 353.567 207.494 353.28 207.254 353.08C207.027 352.88 206.674 352.78 206.194 352.78C205.78 352.78 205.4 352.887 205.054 353.1C204.76 353.287 204.534 353.527 204.374 353.82ZM213.171 358.84V364.6H211.731V351.7H213.171V352.86C213.904 351.953 214.851 351.5 216.011 351.5C217.251 351.5 218.231 351.94 218.951 352.82C219.684 353.687 220.051 354.713 220.051 355.9C220.051 357.1 219.691 358.127 218.971 358.98C218.251 359.82 217.284 360.24 216.071 360.24C214.858 360.24 213.891 359.773 213.171 358.84ZM215.871 358.96C216.684 358.96 217.338 358.667 217.831 358.08C218.324 357.48 218.571 356.753 218.571 355.9C218.571 354.94 218.298 354.18 217.751 353.62C217.204 353.06 216.571 352.78 215.851 352.78C215.131 352.78 214.491 353.06 213.931 353.62C213.371 354.18 213.091 354.933 213.091 355.88C213.091 356.747 213.344 357.48 213.851 358.08C214.371 358.667 215.044 358.96 215.871 358.96ZM228.418 357.22L229.618 357.88C229.338 358.413 228.998 358.86 228.598 359.22C227.838 359.9 226.918 360.24 225.838 360.24C224.718 360.24 223.752 359.88 222.938 359.16C222.138 358.427 221.738 357.34 221.738 355.9C221.738 354.633 222.098 353.587 222.818 352.76C223.552 351.92 224.532 351.5 225.758 351.5C227.145 351.5 228.192 352.007 228.898 353.02C229.458 353.82 229.718 354.86 229.678 356.14H223.218C223.232 356.98 223.492 357.66 223.998 358.18C224.505 358.7 225.125 358.96 225.858 358.96C226.512 358.96 227.078 358.76 227.558 358.36C227.932 358.04 228.218 357.66 228.418 357.22ZM223.318 354.94H228.198C228.078 354.287 227.792 353.767 227.338 353.38C226.898 352.98 226.372 352.78 225.758 352.78C225.158 352.78 224.625 352.987 224.158 353.4C223.705 353.8 223.425 354.313 223.318 354.94ZM231.887 351.7H235.027C235.787 351.7 236.367 351.86 236.767 352.18C237.247 352.567 237.487 353.087 237.487 353.74C237.487 354.46 237.187 355.013 236.587 355.4C237.001 355.507 237.347 355.693 237.627 355.96C238.067 356.387 238.287 356.92 238.287 357.56C238.287 358.36 238.001 358.987 237.427 359.44C236.934 359.813 236.281 360 235.467 360H231.887V351.7ZM233.327 355.08H234.847C235.234 355.08 235.541 355 235.767 354.84C236.034 354.64 236.167 354.353 236.167 353.98C236.167 353.647 236.034 353.38 235.767 353.18C235.567 353.047 235.181 352.98 234.607 352.98H233.327V355.08ZM233.327 358.72H235.107C235.721 358.72 236.154 358.627 236.407 358.44C236.727 358.2 236.887 357.893 236.887 357.52C236.887 357.12 236.747 356.807 236.467 356.58C236.214 356.38 235.781 356.28 235.167 356.28H233.327V358.72ZM240.481 360V351.7H241.921V358.68H245.121V351.7H246.561V358.68H249.761V351.7H251.201V360H240.481ZM253.919 351.7H255.359V357.18L261.039 351.06V360H259.599V354.46L253.919 360.58V351.7ZM269.922 357.22L271.122 357.88C270.842 358.413 270.502 358.86 270.102 359.22C269.342 359.9 268.422 360.24 267.342 360.24C266.222 360.24 265.256 359.88 264.442 359.16C263.642 358.427 263.242 357.34 263.242 355.9C263.242 354.633 263.602 353.587 264.322 352.76C265.056 351.92 266.036 351.5 267.262 351.5C268.649 351.5 269.696 352.007 270.402 353.02C270.962 353.82 271.222 354.86 271.182 356.14H264.722C264.736 356.98 264.996 357.66 265.502 358.18C266.009 358.7 266.629 358.96 267.362 358.96C268.016 358.96 268.582 358.76 269.062 358.36C269.436 358.04 269.722 357.66 269.922 357.22ZM264.822 354.94H269.702C269.582 354.287 269.296 353.767 268.842 353.38C268.402 352.98 267.876 352.78 267.262 352.78C266.662 352.78 266.129 352.987 265.662 353.4C265.209 353.8 264.929 354.313 264.822 354.94ZM284.339 351.7V360H282.899V353.02H279.939V356.76C279.939 357.84 279.726 358.64 279.299 359.16C278.819 359.747 278.153 360.04 277.299 360.04C277.193 360.04 277.046 360.027 276.859 360V358.68C276.993 358.707 277.099 358.72 277.179 358.72C277.646 358.72 277.993 358.54 278.219 358.18C278.406 357.887 278.499 357.413 278.499 356.76V351.7H284.339ZM287.063 351.7H288.503V357.18L294.183 351.06V360H292.743V354.46L287.063 360.58V351.7ZM303.407 352.3V354.02C302.754 353.193 301.887 352.78 300.807 352.78C299.994 352.78 299.3 353.06 298.727 353.62C298.154 354.167 297.867 354.92 297.867 355.88C297.867 356.84 298.154 357.593 298.727 358.14C299.3 358.687 299.987 358.96 300.787 358.96C301.854 358.96 302.747 358.527 303.467 357.66V359.38C302.68 359.953 301.8 360.24 300.827 360.24C299.534 360.24 298.467 359.833 297.627 359.02C296.8 358.193 296.387 357.153 296.387 355.9C296.387 354.633 296.807 353.587 297.647 352.76C298.487 351.92 299.547 351.5 300.827 351.5C301.787 351.5 302.647 351.767 303.407 352.3ZM311.116 353.02H308.516V360H307.076V353.02H304.476V351.7H311.116V353.02ZM312.63 360V351.7H314.07V354.88H315.55C316.696 354.88 317.536 355.153 318.07 355.7C318.496 356.127 318.71 356.707 318.71 357.44C318.71 358.213 318.463 358.833 317.97 359.3C317.476 359.767 316.663 360 315.53 360H312.63ZM314.07 358.72H315.41C316.01 358.72 316.436 358.647 316.69 358.5C317.05 358.26 317.23 357.907 317.23 357.44C317.23 356.96 317.056 356.613 316.71 356.4C316.47 356.24 316.043 356.16 315.43 356.16H314.07V358.72ZM319.677 360L322.257 356.58C322.177 356.58 322.064 356.567 321.917 356.54C321.784 356.513 321.584 356.447 321.317 356.34C321.051 356.233 320.831 356.093 320.657 355.92C320.217 355.507 319.997 354.953 319.997 354.26C319.997 353.473 320.244 352.853 320.737 352.4C321.231 351.933 322.044 351.7 323.177 351.7H326.077V360H324.637V356.66H323.757L321.397 360H319.677ZM324.637 355.46V352.98H323.297C322.671 352.98 322.237 353.053 321.997 353.2C321.651 353.427 321.477 353.767 321.477 354.22C321.477 354.673 321.651 355.007 321.997 355.22C322.251 355.38 322.677 355.46 323.277 355.46H324.637ZM333.449 364.6L336.089 359.22L332.269 351.7H333.909L336.849 357.64L339.549 351.7H341.149L335.049 364.6H333.449ZM18.38 385C17.5533 385.827 16.5067 386.24 15.24 386.24C13.9733 386.24 12.92 385.827 12.08 385C11.2533 384.173 10.84 383.133 10.84 381.88C10.84 380.613 11.2533 379.567 12.08 378.74C12.92 377.913 13.9733 377.5 15.24 377.5C16.5067 377.5 17.5533 377.913 18.38 378.74C19.22 379.567 19.64 380.613 19.64 381.88C19.64 383.133 19.22 384.173 18.38 385ZM17.3 379.6C16.74 379.053 16.0533 378.78 15.24 378.78C14.4267 378.78 13.7333 379.06 13.16 379.62C12.6 380.167 12.32 380.92 12.32 381.88C12.32 382.84 12.6067 383.593 13.18 384.14C13.7533 384.687 14.44 384.96 15.24 384.96C16.04 384.96 16.7267 384.687 17.3 384.14C17.8733 383.593 18.16 382.84 18.16 381.88C18.16 380.907 17.8733 380.147 17.3 379.6ZM28.3483 378.3V380.02C27.6949 379.193 26.8283 378.78 25.7483 378.78C24.9349 378.78 24.2416 379.06 23.6683 379.62C23.0949 380.167 22.8083 380.92 22.8083 381.88C22.8083 382.84 23.0949 383.593 23.6683 384.14C24.2416 384.687 24.9283 384.96 25.7283 384.96C26.7949 384.96 27.6883 384.527 28.4083 383.66V385.38C27.6216 385.953 26.7416 386.24 25.7683 386.24C24.4749 386.24 23.4083 385.833 22.5683 385.02C21.7416 384.193 21.3283 383.153 21.3283 381.9C21.3283 380.633 21.7483 379.587 22.5883 378.76C23.4283 377.92 24.4883 377.5 25.7683 377.5C26.7283 377.5 27.5883 377.767 28.3483 378.3ZM30.6178 386V377.7H32.0578V381.1H35.9778V377.7H37.4178V386H35.9778V382.42H32.0578V386H30.6178ZM47.1495 385C46.3229 385.827 45.2762 386.24 44.0095 386.24C42.7429 386.24 41.6895 385.827 40.8495 385C40.0229 384.173 39.6095 383.133 39.6095 381.88C39.6095 380.613 40.0229 379.567 40.8495 378.74C41.6895 377.913 42.7429 377.5 44.0095 377.5C45.2762 377.5 46.3229 377.913 47.1495 378.74C47.9895 379.567 48.4095 380.613 48.4095 381.88C48.4095 383.133 47.9895 384.173 47.1495 385ZM46.0695 379.6C45.5095 379.053 44.8229 378.78 44.0095 378.78C43.1962 378.78 42.5029 379.06 41.9295 379.62C41.3695 380.167 41.0895 380.92 41.0895 381.88C41.0895 382.84 41.3762 383.593 41.9495 384.14C42.5229 384.687 43.2095 384.96 44.0095 384.96C44.8095 384.96 45.4962 384.687 46.0695 384.14C46.6429 383.593 46.9295 382.84 46.9295 381.88C46.9295 380.907 46.6429 380.147 46.0695 379.6ZM50.6178 377.7H53.7578C54.5178 377.7 55.0978 377.86 55.4978 378.18C55.9778 378.567 56.2178 379.087 56.2178 379.74C56.2178 380.46 55.9178 381.013 55.3178 381.4C55.7311 381.507 56.0778 381.693 56.3578 381.96C56.7978 382.387 57.0178 382.92 57.0178 383.56C57.0178 384.36 56.7311 384.987 56.1578 385.44C55.6645 385.813 55.0111 386 54.1978 386H50.6178V377.7ZM52.0578 381.08H53.5778C53.9645 381.08 54.2711 381 54.4978 380.84C54.7645 380.64 54.8978 380.353 54.8978 379.98C54.8978 379.647 54.7645 379.38 54.4978 379.18C54.2978 379.047 53.9111 378.98 53.3378 378.98H52.0578V381.08ZM52.0578 384.72H53.8378C54.4511 384.72 54.8845 384.627 55.1378 384.44C55.4578 384.2 55.6178 383.893 55.6178 383.52C55.6178 383.12 55.4778 382.807 55.1978 382.58C54.9445 382.38 54.5111 382.28 53.8978 382.28H52.0578V384.72ZM65.5716 378.88V377.7H67.0116V386H65.5716V384.84C64.8516 385.773 63.9049 386.24 62.7316 386.24C61.6116 386.24 60.6582 385.853 59.8716 385.08C59.0849 384.307 58.6916 383.227 58.6916 381.84C58.6916 380.48 59.0782 379.42 59.8516 378.66C60.6382 377.887 61.5982 377.5 62.7316 377.5C63.9316 377.5 64.8782 377.96 65.5716 378.88ZM62.8916 378.78C62.1316 378.78 61.4849 379.053 60.9516 379.6C60.4316 380.133 60.1716 380.88 60.1716 381.84C60.1716 382.76 60.4116 383.513 60.8916 384.1C61.3849 384.673 62.0516 384.96 62.8916 384.96C63.7316 384.96 64.3982 384.66 64.8916 384.06C65.3982 383.46 65.6516 382.727 65.6516 381.86C65.6516 380.873 65.3716 380.113 64.8116 379.58C64.2516 379.047 63.6116 378.78 62.8916 378.78ZM69.7389 386V377.7H71.1789V381.1H75.0989V377.7H76.5389V386H75.0989V382.42H71.1789V386H69.7389ZM79.2506 377.7H80.6906V383.18L86.3706 377.06V386H84.9306V380.46L79.2506 386.58V377.7ZM88.1344 386L90.7144 382.58C90.6344 382.58 90.521 382.567 90.3744 382.54C90.241 382.513 90.041 382.447 89.7744 382.34C89.5077 382.233 89.2877 382.093 89.1144 381.92C88.6744 381.507 88.4544 380.953 88.4544 380.26C88.4544 379.473 88.701 378.853 89.1944 378.4C89.6877 377.933 90.501 377.7 91.6344 377.7H94.5344V386H93.0944V382.66H92.2144L89.8544 386H88.1344ZM93.0944 381.46V378.98H91.7544C91.1277 378.98 90.6944 379.053 90.4544 379.2C90.1077 379.427 89.9344 379.767 89.9344 380.22C89.9344 380.673 90.1077 381.007 90.4544 381.22C90.7077 381.38 91.1344 381.46 91.7344 381.46H93.0944ZM101.926 377.7H108.606V386H107.166V379.02H103.366V386H101.926V377.7ZM112.761 384.84V390.6H111.321V377.7H112.761V378.86C113.494 377.953 114.441 377.5 115.601 377.5C116.841 377.5 117.821 377.94 118.541 378.82C119.274 379.687 119.641 380.713 119.641 381.9C119.641 383.1 119.281 384.127 118.561 384.98C117.841 385.82 116.874 386.24 115.661 386.24C114.448 386.24 113.481 385.773 112.761 384.84ZM115.461 384.96C116.274 384.96 116.928 384.667 117.421 384.08C117.914 383.48 118.161 382.753 118.161 381.9C118.161 380.94 117.888 380.18 117.341 379.62C116.794 379.06 116.161 378.78 115.441 378.78C114.721 378.78 114.081 379.06 113.521 379.62C112.961 380.18 112.681 380.933 112.681 381.88C112.681 382.747 112.934 383.48 113.441 384.08C113.961 384.667 114.634 384.96 115.461 384.96ZM121.848 377.7H123.288V383.18L128.968 377.06V386H127.528V380.46L121.848 386.58V377.7ZM133.132 384.84V390.6H131.692V377.7H133.132V378.86C133.865 377.953 134.812 377.5 135.972 377.5C137.212 377.5 138.192 377.94 138.912 378.82C139.645 379.687 140.012 380.713 140.012 381.9C140.012 383.1 139.652 384.127 138.932 384.98C138.212 385.82 137.245 386.24 136.032 386.24C134.819 386.24 133.852 385.773 133.132 384.84ZM135.832 384.96C136.645 384.96 137.299 384.667 137.792 384.08C138.285 383.48 138.532 382.753 138.532 381.9C138.532 380.94 138.259 380.18 137.712 379.62C137.165 379.06 136.532 378.78 135.812 378.78C135.092 378.78 134.452 379.06 133.892 379.62C133.332 380.18 133.052 380.933 133.052 381.88C133.052 382.747 133.305 383.48 133.812 384.08C134.332 384.667 135.005 384.96 135.832 384.96ZM149.239 385C148.413 385.827 147.366 386.24 146.099 386.24C144.833 386.24 143.779 385.827 142.939 385C142.113 384.173 141.699 383.133 141.699 381.88C141.699 380.613 142.113 379.567 142.939 378.74C143.779 377.913 144.833 377.5 146.099 377.5C147.366 377.5 148.413 377.913 149.239 378.74C150.079 379.567 150.499 380.613 150.499 381.88C150.499 383.133 150.079 384.173 149.239 385ZM148.159 379.6C147.599 379.053 146.913 378.78 146.099 378.78C145.286 378.78 144.593 379.06 144.019 379.62C143.459 380.167 143.179 380.92 143.179 381.88C143.179 382.84 143.466 383.593 144.039 384.14C144.613 384.687 145.299 384.96 146.099 384.96C146.899 384.96 147.586 384.687 148.159 384.14C148.733 383.593 149.019 382.84 149.019 381.88C149.019 380.907 148.733 380.147 148.159 379.6ZM159.208 378.3V380.02C158.554 379.193 157.688 378.78 156.608 378.78C155.794 378.78 155.101 379.06 154.528 379.62C153.954 380.167 153.668 380.92 153.668 381.88C153.668 382.84 153.954 383.593 154.528 384.14C155.101 384.687 155.788 384.96 156.588 384.96C157.654 384.96 158.548 384.527 159.268 383.66V385.38C158.481 385.953 157.601 386.24 156.628 386.24C155.334 386.24 154.268 385.833 153.428 385.02C152.601 384.193 152.188 383.153 152.188 381.9C152.188 380.633 152.608 379.587 153.448 378.76C154.288 377.92 155.348 377.5 156.628 377.5C157.588 377.5 158.448 377.767 159.208 378.3ZM166.917 379.02H164.317V386H162.877V379.02H160.277V377.7H166.917V379.02ZM174.536 378.88V377.7H175.976V386H174.536V384.84C173.816 385.773 172.87 386.24 171.696 386.24C170.576 386.24 169.623 385.853 168.836 385.08C168.05 384.307 167.656 383.227 167.656 381.84C167.656 380.48 168.043 379.42 168.816 378.66C169.603 377.887 170.563 377.5 171.696 377.5C172.896 377.5 173.843 377.96 174.536 378.88ZM171.856 378.78C171.096 378.78 170.45 379.053 169.916 379.6C169.396 380.133 169.136 380.88 169.136 381.84C169.136 382.76 169.376 383.513 169.856 384.1C170.35 384.673 171.016 384.96 171.856 384.96C172.696 384.96 173.363 384.66 173.856 384.06C174.363 383.46 174.616 382.727 174.616 381.86C174.616 380.873 174.336 380.113 173.776 379.58C173.216 379.047 172.576 378.78 171.856 378.78ZM188.812 379.02H186.212V386H184.772V379.02H182.172V377.7H188.812V379.02ZM196.29 383.22L197.49 383.88C197.21 384.413 196.87 384.86 196.47 385.22C195.71 385.9 194.79 386.24 193.71 386.24C192.59 386.24 191.623 385.88 190.81 385.16C190.01 384.427 189.61 383.34 189.61 381.9C189.61 380.633 189.97 379.587 190.69 378.76C191.423 377.92 192.403 377.5 193.63 377.5C195.016 377.5 196.063 378.007 196.77 379.02C197.33 379.82 197.59 380.86 197.55 382.14H191.09C191.103 382.98 191.363 383.66 191.87 384.18C192.376 384.7 192.996 384.96 193.73 384.96C194.383 384.96 194.95 384.76 195.43 384.36C195.803 384.04 196.09 383.66 196.29 383.22ZM191.19 380.94H196.07C195.95 380.287 195.663 379.767 195.21 379.38C194.77 378.98 194.243 378.78 193.63 378.78C193.03 378.78 192.496 378.987 192.03 379.4C191.576 379.8 191.296 380.313 191.19 380.94ZM199.758 377.7H201.198V381.1L204.558 377.7H206.318L202.718 381.4L206.758 386H204.878L201.638 382.36L201.198 382.78V386H199.758V377.7ZM208.176 390.6L210.816 385.22L206.996 377.7H208.636L211.576 383.64L214.276 377.7H215.876L209.776 390.6H208.176ZM217.395 386V377.7H218.835V384.68H222.035V377.7H223.475V384.68H226.675V377.7H228.115V384.68H229.475V388.2H228.155V386H217.395ZM237.149 383.22L238.349 383.88C238.069 384.413 237.729 384.86 237.329 385.22C236.569 385.9 235.649 386.24 234.569 386.24C233.449 386.24 232.482 385.88 231.669 385.16C230.869 384.427 230.469 383.34 230.469 381.9C230.469 380.633 230.829 379.587 231.549 378.76C232.282 377.92 233.262 377.5 234.489 377.5C235.876 377.5 236.922 378.007 237.629 379.02C238.189 379.82 238.449 380.86 238.409 382.14H231.949C231.962 382.98 232.222 383.66 232.729 384.18C233.236 384.7 233.856 384.96 234.589 384.96C235.242 384.96 235.809 384.76 236.289 384.36C236.662 384.04 236.949 383.66 237.149 383.22ZM232.049 380.94H236.929C236.809 380.287 236.522 379.767 236.069 379.38C235.629 378.98 235.102 378.78 234.489 378.78C233.889 378.78 233.356 378.987 232.889 379.4C232.436 379.8 232.156 380.313 232.049 380.94ZM240.618 386V377.7H245.538V379.02H242.058V386H240.618ZM253.575 385C252.749 385.827 251.702 386.24 250.435 386.24C249.169 386.24 248.115 385.827 247.275 385C246.449 384.173 246.035 383.133 246.035 381.88C246.035 380.613 246.449 379.567 247.275 378.74C248.115 377.913 249.169 377.5 250.435 377.5C251.702 377.5 252.749 377.913 253.575 378.74C254.415 379.567 254.835 380.613 254.835 381.88C254.835 383.133 254.415 384.173 253.575 385ZM252.495 379.6C251.935 379.053 251.249 378.78 250.435 378.78C249.622 378.78 248.929 379.06 248.355 379.62C247.795 380.167 247.515 380.92 247.515 381.88C247.515 382.84 247.802 383.593 248.375 384.14C248.949 384.687 249.635 384.96 250.435 384.96C251.235 384.96 251.922 384.687 252.495 384.14C253.069 383.593 253.355 382.84 253.355 381.88C253.355 380.907 253.069 380.147 252.495 379.6ZM261.712 386V377.7H266.632V379.02H263.152V386H261.712ZM274.669 385C273.842 385.827 272.796 386.24 271.529 386.24C270.262 386.24 269.209 385.827 268.369 385C267.542 384.173 267.129 383.133 267.129 381.88C267.129 380.613 267.542 379.567 268.369 378.74C269.209 377.913 270.262 377.5 271.529 377.5C272.796 377.5 273.842 377.913 274.669 378.74C275.509 379.567 275.929 380.613 275.929 381.88C275.929 383.133 275.509 384.173 274.669 385ZM273.589 379.6C273.029 379.053 272.342 378.78 271.529 378.78C270.716 378.78 270.022 379.06 269.449 379.62C268.889 380.167 268.609 380.92 268.609 381.88C268.609 382.84 268.896 383.593 269.469 384.14C270.042 384.687 270.729 384.96 271.529 384.96C272.329 384.96 273.016 384.687 273.589 384.14C274.162 383.593 274.449 382.84 274.449 381.88C274.449 380.907 274.162 380.147 273.589 379.6ZM278.737 377.7H284.577V384.68H285.817V388.2H284.497V386H278.177V388.2H276.857V384.68C277.551 384.667 278.064 384.307 278.397 383.6C278.624 383.133 278.737 382.4 278.737 381.4V377.7ZM283.137 384.68V379.02H280.177V382.14C280.177 383.247 279.844 384.093 279.177 384.68H283.137ZM293.697 378.88V377.7H295.137V386H293.697V384.84C292.977 385.773 292.03 386.24 290.857 386.24C289.737 386.24 288.783 385.853 287.997 385.08C287.21 384.307 286.817 383.227 286.817 381.84C286.817 380.48 287.203 379.42 287.977 378.66C288.763 377.887 289.723 377.5 290.857 377.5C292.057 377.5 293.003 377.96 293.697 378.88ZM291.017 378.78C290.257 378.78 289.61 379.053 289.077 379.6C288.557 380.133 288.297 380.88 288.297 381.84C288.297 382.76 288.537 383.513 289.017 384.1C289.51 384.673 290.177 384.96 291.017 384.96C291.857 384.96 292.523 384.66 293.017 384.06C293.523 383.46 293.777 382.727 293.777 381.86C293.777 380.873 293.497 380.113 292.937 379.58C292.377 379.047 291.737 378.78 291.017 378.78Z" fill="black"></path>
    <line x1="180.76" y1="198.519" x2="217.76" y2="192.519" stroke="#E80000" stroke-width="3" stroke-dasharray="5 5"></line>
    <path d="M69.6584 308.329C69.2879 309.07 69.5882 309.971 70.3292 310.342C71.0701 310.712 71.9712 310.412 72.3416 309.671L69.6584 308.329ZM136.423 180.526C136.161 179.74 135.312 179.315 134.526 179.577L121.718 183.846C120.933 184.108 120.508 184.957 120.77 185.743C121.032 186.529 121.881 186.954 122.667 186.692L134.051 182.897L137.846 194.282C138.108 195.067 138.958 195.492 139.743 195.23C140.529 194.968 140.954 194.119 140.692 193.333L136.423 180.526ZM72.3416 309.671L136.342 181.671L133.658 180.329L69.6584 308.329L72.3416 309.671Z" fill="#005D04"></path>
  </g>
  <defs>
    <clipPath id="clip0_207_44">
      <rect width="400" height="400" fill="white"></rect>
    </clipPath>
  </defs>
</svg>
