<?xml version="1.0" encoding="UTF-8"?>
<svg xmlns="http://www.w3.org/2000/svg" width="400" height="400" viewBox="0 0 400 400" fill="none">
  <g clip-path="url(#clip0_207_50)">
    <path d="M12.88 320.66H21V332.6H22.52V336.8H21.12V334H11.68V336.8H10.28V332.6C10.7333 332.613 11.1467 332.453 11.52 332.12C11.8933 331.773 12.1867 331.333 12.4 330.8C12.72 329.987 12.88 328.82 12.88 327.3V320.66ZM14.36 322.06V327.3C14.36 328.94 14.2 330.18 13.88 331.02C13.6533 331.62 13.3133 332.147 12.86 332.6H19.52V322.06H14.36ZM30.433 325.7V334H28.993V327.02H26.033V330.76C26.033 331.84 25.8196 332.64 25.393 333.16C24.913 333.747 24.2463 334.04 23.393 334.04C23.2863 334.04 23.1396 334.027 22.953 334V332.68C23.0863 332.707 23.193 332.72 23.273 332.72C23.7396 332.72 24.0863 332.54 24.313 332.18C24.4996 331.887 24.593 331.413 24.593 330.76V325.7H30.433ZM32.1969 334L34.7769 330.58C34.6969 330.58 34.5835 330.567 34.4369 330.54C34.3035 330.513 34.1035 330.447 33.8369 330.34C33.5702 330.233 33.3502 330.093 33.1769 329.92C32.7369 329.507 32.5169 328.953 32.5169 328.26C32.5169 327.473 32.7635 326.853 33.2569 326.4C33.7502 325.933 34.5635 325.7 35.6969 325.7H38.5969V334H37.1569V330.66H36.2769L33.9169 334H32.1969ZM37.1569 329.46V326.98H35.8169C35.1902 326.98 34.7569 327.053 34.5169 327.2C34.1702 327.427 33.9969 327.767 33.9969 328.22C33.9969 328.673 34.1702 329.007 34.5169 329.22C34.7702 329.38 35.1969 329.46 35.7969 329.46H37.1569ZM45.9889 325.7H47.4289V329.1L50.7889 325.7H52.5489L48.9489 329.4L52.9889 334H51.1089L47.8689 330.36L47.4289 330.78V334H45.9889V325.7ZM60.9213 325.7V334H59.4813V327.02H56.5213V330.76C56.5213 331.84 56.3079 332.64 55.8813 333.16C55.4013 333.747 54.7346 334.04 53.8813 334.04C53.7746 334.04 53.6279 334.027 53.4413 334V332.68C53.5746 332.707 53.6813 332.72 53.7613 332.72C54.2279 332.72 54.5746 332.54 54.8013 332.18C54.9879 331.887 55.0813 331.413 55.0813 330.76V325.7H60.9213ZM63.6252 338.6L66.2652 333.22L62.4452 325.7H64.0852L67.0252 331.64L69.7252 325.7H71.3252L65.2252 338.6H63.6252ZM79.2444 320H80.8444C80.6977 320.493 80.4444 320.913 80.0844 321.26C79.7377 321.593 79.4177 321.82 79.1244 321.94C78.8444 322.06 78.511 322.167 78.1244 322.26C78.0577 322.273 77.8977 322.313 77.6444 322.38C77.391 322.433 77.1977 322.48 77.0644 322.52C76.931 322.56 76.7577 322.613 76.5444 322.68C76.331 322.747 76.1377 322.827 75.9644 322.92C75.791 323.013 75.631 323.113 75.4844 323.22C74.9777 323.607 74.5644 324.147 74.2444 324.84C73.9377 325.52 73.771 326.247 73.7444 327.02H73.7844C74.3844 326.007 75.391 325.5 76.8044 325.5C78.0444 325.5 79.071 325.92 79.8844 326.76C80.711 327.6 81.1244 328.64 81.1244 329.88C81.1244 331.133 80.7044 332.173 79.8644 333C79.0244 333.827 77.931 334.24 76.5844 334.24C75.4244 334.24 74.471 333.893 73.7244 333.2C72.791 332.347 72.3244 330.92 72.3244 328.92C72.3244 325.44 73.111 323.16 74.6844 322.08C74.8044 322 74.931 321.927 75.0644 321.86C75.1977 321.78 75.3377 321.713 75.4844 321.66C75.6444 321.593 75.7777 321.54 75.8844 321.5C75.991 321.447 76.1377 321.4 76.3244 321.36C76.5244 321.307 76.6577 321.273 76.7244 321.26C76.8044 321.233 76.951 321.2 77.1644 321.16C77.391 321.107 77.531 321.073 77.5844 321.06C78.1177 320.94 78.5044 320.8 78.7444 320.64C78.9844 320.467 79.151 320.253 79.2444 320ZM78.7844 327.6C78.2244 327.053 77.5377 326.78 76.7244 326.78C75.911 326.78 75.2177 327.06 74.6444 327.62C74.0844 328.167 73.8044 328.92 73.8044 329.88C73.8044 330.84 74.091 331.593 74.6644 332.14C75.2377 332.687 75.9244 332.96 76.7244 332.96C77.5244 332.96 78.211 332.687 78.7844 332.14C79.3577 331.593 79.6444 330.84 79.6444 329.88C79.6444 328.907 79.3577 328.147 78.7844 327.6ZM83.3327 334V325.7H84.7727V329.1H88.6927V325.7H90.1327V334H88.6927V330.42H84.7727V334H83.3327ZM92.8444 325.7H94.2844V331.18L99.9644 325.06V334H98.5244V328.46L92.8444 334.58V325.7ZM102.688 325.7H104.128V329.1L107.488 325.7H109.248L105.648 329.4L109.688 334H107.808L104.568 330.36L104.128 330.78V334H102.688V325.7ZM111.126 325.7H112.566V331.18L118.246 325.06V334H116.806V328.46L111.126 334.58V325.7ZM132.657 333C131.831 333.827 130.784 334.24 129.517 334.24C128.251 334.24 127.197 333.827 126.357 333C125.531 332.173 125.117 331.133 125.117 329.88C125.117 328.613 125.531 327.567 126.357 326.74C127.197 325.913 128.251 325.5 129.517 325.5C130.784 325.5 131.831 325.913 132.657 326.74C133.497 327.567 133.917 328.613 133.917 329.88C133.917 331.133 133.497 332.173 132.657 333ZM131.577 327.6C131.017 327.053 130.331 326.78 129.517 326.78C128.704 326.78 128.011 327.06 127.437 327.62C126.877 328.167 126.597 328.92 126.597 329.88C126.597 330.84 126.884 331.593 127.457 332.14C128.031 332.687 128.717 332.96 129.517 332.96C130.317 332.96 131.004 332.687 131.577 332.14C132.151 331.593 132.437 330.84 132.437 329.88C132.437 328.907 132.151 328.147 131.577 327.6ZM141.37 327.02H138.77V334H137.33V327.02H134.73V325.7H141.37V327.02ZM149.283 320H150.883C150.737 320.493 150.483 320.913 150.123 321.26C149.777 321.593 149.457 321.82 149.163 321.94C148.883 322.06 148.55 322.167 148.163 322.26C148.097 322.273 147.937 322.313 147.683 322.38C147.43 322.433 147.237 322.48 147.103 322.52C146.97 322.56 146.797 322.613 146.583 322.68C146.37 322.747 146.177 322.827 146.003 322.92C145.83 323.013 145.67 323.113 145.523 323.22C145.017 323.607 144.603 324.147 144.283 324.84C143.977 325.52 143.81 326.247 143.783 327.02H143.823C144.423 326.007 145.43 325.5 146.843 325.5C148.083 325.5 149.11 325.92 149.923 326.76C150.75 327.6 151.163 328.64 151.163 329.88C151.163 331.133 150.743 332.173 149.903 333C149.063 333.827 147.97 334.24 146.623 334.24C145.463 334.24 144.51 333.893 143.763 333.2C142.83 332.347 142.363 330.92 142.363 328.92C142.363 325.44 143.15 323.16 144.723 322.08C144.843 322 144.97 321.927 145.103 321.86C145.237 321.78 145.377 321.713 145.523 321.66C145.683 321.593 145.817 321.54 145.923 321.5C146.03 321.447 146.177 321.4 146.363 321.36C146.563 321.307 146.697 321.273 146.763 321.26C146.843 321.233 146.99 321.2 147.203 321.16C147.43 321.107 147.57 321.073 147.623 321.06C148.157 320.94 148.543 320.8 148.783 320.64C149.023 320.467 149.19 320.253 149.283 320ZM148.823 327.6C148.263 327.053 147.577 326.78 146.763 326.78C145.95 326.78 145.257 327.06 144.683 327.62C144.123 328.167 143.843 328.92 143.843 329.88C143.843 330.84 144.13 331.593 144.703 332.14C145.277 332.687 145.963 332.96 146.763 332.96C147.563 332.96 148.25 332.687 148.823 332.14C149.397 331.593 149.683 330.84 149.683 329.88C149.683 328.907 149.397 328.147 148.823 327.6ZM153.372 325.7H154.812V331.18L160.492 325.06V334H159.052V328.46L153.372 334.58V325.7ZM164.655 332.84V338.6H163.215V325.7H164.655V326.86C165.389 325.953 166.335 325.5 167.495 325.5C168.735 325.5 169.715 325.94 170.435 326.82C171.169 327.687 171.535 328.713 171.535 329.9C171.535 331.1 171.175 332.127 170.455 332.98C169.735 333.82 168.769 334.24 167.555 334.24C166.342 334.24 165.375 333.773 164.655 332.84ZM167.355 332.96C168.169 332.96 168.822 332.667 169.315 332.08C169.809 331.48 170.055 330.753 170.055 329.9C170.055 328.94 169.782 328.18 169.235 327.62C168.689 327.06 168.055 326.78 167.335 326.78C166.615 326.78 165.975 327.06 165.415 327.62C164.855 328.18 164.575 328.933 164.575 329.88C164.575 330.747 164.829 331.48 165.335 332.08C165.855 332.667 166.529 332.96 167.355 332.96ZM180.103 326.88V325.7H181.543V334H180.103V332.84C179.383 333.773 178.436 334.24 177.263 334.24C176.143 334.24 175.189 333.853 174.403 333.08C173.616 332.307 173.223 331.227 173.223 329.84C173.223 328.48 173.609 327.42 174.383 326.66C175.169 325.887 176.129 325.5 177.263 325.5C178.463 325.5 179.409 325.96 180.103 326.88ZM177.423 326.78C176.663 326.78 176.016 327.053 175.483 327.6C174.963 328.133 174.703 328.88 174.703 329.84C174.703 330.76 174.943 331.513 175.423 332.1C175.916 332.673 176.583 332.96 177.423 332.96C178.263 332.96 178.929 332.66 179.423 332.06C179.929 331.46 180.183 330.727 180.183 329.86C180.183 328.873 179.903 328.113 179.343 327.58C178.783 327.047 178.143 326.78 177.423 326.78ZM190.43 331.22L191.63 331.88C191.35 332.413 191.01 332.86 190.61 333.22C189.85 333.9 188.93 334.24 187.85 334.24C186.73 334.24 185.763 333.88 184.95 333.16C184.15 332.427 183.75 331.34 183.75 329.9C183.75 328.633 184.11 327.587 184.83 326.76C185.563 325.92 186.543 325.5 187.77 325.5C189.157 325.5 190.203 326.007 190.91 327.02C191.47 327.82 191.73 328.86 191.69 330.14H185.23C185.243 330.98 185.503 331.66 186.01 332.18C186.517 332.7 187.137 332.96 187.87 332.96C188.523 332.96 189.09 332.76 189.57 332.36C189.943 332.04 190.23 331.66 190.43 331.22ZM185.33 328.94H190.21C190.09 328.287 189.803 327.767 189.35 327.38C188.91 326.98 188.383 326.78 187.77 326.78C187.17 326.78 186.637 326.987 186.17 327.4C185.717 327.8 185.437 328.313 185.33 328.94ZM199.339 327.02H196.739V334H195.299V327.02H192.699V325.7H199.339V327.02ZM207.157 326.3V328.02C206.504 327.193 205.637 326.78 204.557 326.78C203.744 326.78 203.05 327.06 202.477 327.62C201.904 328.167 201.617 328.92 201.617 329.88C201.617 330.84 201.904 331.593 202.477 332.14C203.05 332.687 203.737 332.96 204.537 332.96C205.604 332.96 206.497 332.527 207.217 331.66V333.38C206.43 333.953 205.55 334.24 204.577 334.24C203.284 334.24 202.217 333.833 201.377 333.02C200.55 332.193 200.137 331.153 200.137 329.9C200.137 328.633 200.557 327.587 201.397 326.76C202.237 325.92 203.297 325.5 204.577 325.5C205.537 325.5 206.397 325.767 207.157 326.3ZM208.466 334L211.046 330.58C210.966 330.58 210.853 330.567 210.706 330.54C210.573 330.513 210.373 330.447 210.106 330.34C209.84 330.233 209.62 330.093 209.446 329.92C209.006 329.507 208.786 328.953 208.786 328.26C208.786 327.473 209.033 326.853 209.526 326.4C210.02 325.933 210.833 325.7 211.966 325.7H214.866V334H213.426V330.66H212.546L210.186 334H208.466ZM213.426 329.46V326.98H212.086C211.46 326.98 211.026 327.053 210.786 327.2C210.44 327.427 210.266 327.767 210.266 328.22C210.266 328.673 210.44 329.007 210.786 329.22C211.04 329.38 211.466 329.46 212.066 329.46H213.426ZM228.758 326.3V328.02C228.105 327.193 227.238 326.78 226.158 326.78C225.345 326.78 224.652 327.06 224.078 327.62C223.505 328.167 223.218 328.92 223.218 329.88C223.218 330.84 223.505 331.593 224.078 332.14C224.652 332.687 225.338 332.96 226.138 332.96C227.205 332.96 228.098 332.527 228.818 331.66V333.38C228.032 333.953 227.152 334.24 226.178 334.24C224.885 334.24 223.818 333.833 222.978 333.02C222.152 332.193 221.738 331.153 221.738 329.9C221.738 328.633 222.158 327.587 222.998 326.76C223.838 325.92 224.898 325.5 226.178 325.5C227.138 325.5 227.998 325.767 228.758 326.3ZM237.388 326.88V325.7H238.828V334H237.388V332.84C236.668 333.773 235.721 334.24 234.548 334.24C233.428 334.24 232.475 333.853 231.688 333.08C230.901 332.307 230.508 331.227 230.508 329.84C230.508 328.48 230.895 327.42 231.668 326.66C232.455 325.887 233.415 325.5 234.548 325.5C235.748 325.5 236.695 325.96 237.388 326.88ZM234.708 326.78C233.948 326.78 233.301 327.053 232.768 327.6C232.248 328.133 231.988 328.88 231.988 329.84C231.988 330.76 232.228 331.513 232.708 332.1C233.201 332.673 233.868 332.96 234.708 332.96C235.548 332.96 236.215 332.66 236.708 332.06C237.215 331.46 237.468 330.727 237.468 329.86C237.468 328.873 237.188 328.113 236.628 327.58C236.068 327.047 235.428 326.78 234.708 326.78ZM240.595 334L242.595 325.06L246.035 331.82L249.395 325.06L251.395 334H249.915L248.815 328.86L245.995 334.58L243.135 328.86L242.075 334H240.595ZM253.157 334V325.7H254.597V328.88H256.077C257.224 328.88 258.064 329.153 258.597 329.7C259.024 330.127 259.237 330.707 259.237 331.44C259.237 332.213 258.99 332.833 258.497 333.3C258.004 333.767 257.19 334 256.057 334H253.157ZM254.597 332.72H255.937C256.537 332.72 256.964 332.647 257.217 332.5C257.577 332.26 257.757 331.907 257.757 331.44C257.757 330.96 257.584 330.613 257.237 330.4C256.997 330.24 256.57 330.16 255.957 330.16H254.597V332.72ZM260.237 334V325.7H261.677V334H260.237ZM264.387 325.7H265.827V331.18L271.507 325.06V334H270.067V328.46L264.387 334.58V325.7ZM265.107 322.12L266.307 321.66C266.547 322.46 267.114 322.86 268.007 322.86C268.901 322.86 269.467 322.46 269.707 321.66L270.907 322.12C270.694 322.72 270.327 323.193 269.807 323.54C269.301 323.887 268.701 324.06 268.007 324.06C267.314 324.06 266.707 323.887 266.187 323.54C265.681 323.193 265.321 322.72 265.107 322.12ZM277.939 334L279.939 325.06L283.379 331.82L286.739 325.06L288.739 334H287.259L286.159 328.86L283.339 334.58L280.479 328.86L279.419 334H277.939ZM297.521 333C296.694 333.827 295.647 334.24 294.381 334.24C293.114 334.24 292.061 333.827 291.221 333C290.394 332.173 289.981 331.133 289.981 329.88C289.981 328.613 290.394 327.567 291.221 326.74C292.061 325.913 293.114 325.5 294.381 325.5C295.647 325.5 296.694 325.913 297.521 326.74C298.361 327.567 298.781 328.613 298.781 329.88C298.781 331.133 298.361 332.173 297.521 333ZM296.441 327.6C295.881 327.053 295.194 326.78 294.381 326.78C293.567 326.78 292.874 327.06 292.301 327.62C291.741 328.167 291.461 328.92 291.461 329.88C291.461 330.84 291.747 331.593 292.321 332.14C292.894 332.687 293.581 332.96 294.381 332.96C295.181 332.96 295.867 332.687 296.441 332.14C297.014 331.593 297.301 330.84 297.301 329.88C297.301 328.907 297.014 328.147 296.441 327.6ZM307.269 325.7V334H305.829V327.02H302.869V330.76C302.869 331.84 302.656 332.64 302.229 333.16C301.749 333.747 301.082 334.04 300.229 334.04C300.122 334.04 299.976 334.027 299.789 334V332.68C299.922 332.707 300.029 332.72 300.109 332.72C300.576 332.72 300.922 332.54 301.149 332.18C301.336 331.887 301.429 331.413 301.429 330.76V325.7H307.269ZM317.013 333C316.186 333.827 315.139 334.24 313.873 334.24C312.606 334.24 311.553 333.827 310.713 333C309.886 332.173 309.473 331.133 309.473 329.88C309.473 328.613 309.886 327.567 310.713 326.74C311.553 325.913 312.606 325.5 313.873 325.5C315.139 325.5 316.186 325.913 317.013 326.74C317.853 327.567 318.273 328.613 318.273 329.88C318.273 331.133 317.853 332.173 317.013 333ZM315.933 327.6C315.373 327.053 314.686 326.78 313.873 326.78C313.059 326.78 312.366 327.06 311.793 327.62C311.233 328.167 310.953 328.92 310.953 329.88C310.953 330.84 311.239 331.593 311.813 332.14C312.386 332.687 313.073 332.96 313.873 332.96C314.673 332.96 315.359 332.687 315.933 332.14C316.506 331.593 316.793 330.84 316.793 329.88C316.793 328.907 316.506 328.147 315.933 327.6ZM321.081 325.7H326.921V332.68H328.161V336.2H326.841V334H320.521V336.2H319.201V332.68C319.894 332.667 320.408 332.307 320.741 331.6C320.968 331.133 321.081 330.4 321.081 329.4V325.7ZM325.481 332.68V327.02H322.521V330.14C322.521 331.247 322.188 332.093 321.521 332.68H325.481ZM336.7 333C335.874 333.827 334.827 334.24 333.56 334.24C332.294 334.24 331.24 333.827 330.4 333C329.574 332.173 329.16 331.133 329.16 329.88C329.16 328.613 329.574 327.567 330.4 326.74C331.24 325.913 332.294 325.5 333.56 325.5C334.827 325.5 335.874 325.913 336.7 326.74C337.54 327.567 337.96 328.613 337.96 329.88C337.96 331.133 337.54 332.173 336.7 333ZM335.62 327.6C335.06 327.053 334.374 326.78 333.56 326.78C332.747 326.78 332.054 327.06 331.48 327.62C330.92 328.167 330.64 328.92 330.64 329.88C330.64 330.84 330.927 331.593 331.5 332.14C332.074 332.687 332.76 332.96 333.56 332.96C334.36 332.96 335.047 332.687 335.62 332.14C336.194 331.593 336.48 330.84 336.48 329.88C336.48 328.907 336.194 328.147 335.62 327.6ZM340.169 325.7H341.609V331.18L347.289 325.06V334H345.849V328.46L340.169 334.58V325.7ZM340.889 322.12L342.089 321.66C342.329 322.46 342.895 322.86 343.789 322.86C344.682 322.86 345.249 322.46 345.489 321.66L346.689 322.12C346.475 322.72 346.109 323.193 345.589 323.54C345.082 323.887 344.482 324.06 343.789 324.06C343.095 324.06 342.489 323.887 341.969 323.54C341.462 323.193 341.102 322.72 340.889 322.12ZM11.36 351.7H18.04V360H16.6V353.02H12.8V360H11.36V351.7ZM27.7745 359C26.9479 359.827 25.9012 360.24 24.6345 360.24C23.3679 360.24 22.3145 359.827 21.4745 359C20.6479 358.173 20.2345 357.133 20.2345 355.88C20.2345 354.613 20.6479 353.567 21.4745 352.74C22.3145 351.913 23.3679 351.5 24.6345 351.5C25.9012 351.5 26.9479 351.913 27.7745 352.74C28.6145 353.567 29.0345 354.613 29.0345 355.88C29.0345 357.133 28.6145 358.173 27.7745 359ZM26.6945 353.6C26.1345 353.053 25.4479 352.78 24.6345 352.78C23.8212 352.78 23.1279 353.06 22.5545 353.62C21.9945 354.167 21.7145 354.92 21.7145 355.88C21.7145 356.84 22.0012 357.593 22.5745 358.14C23.1479 358.687 23.8345 358.96 24.6345 358.96C25.4345 358.96 26.1212 358.687 26.6945 358.14C27.2679 357.593 27.5545 356.84 27.5545 355.88C27.5545 354.907 27.2679 354.147 26.6945 353.6ZM37.5228 351.7V360H36.0828V353.02H33.1228V356.76C33.1228 357.84 32.9095 358.64 32.4828 359.16C32.0028 359.747 31.3361 360.04 30.4828 360.04C30.3761 360.04 30.2295 360.027 30.0428 360V358.68C30.1761 358.707 30.2828 358.72 30.3628 358.72C30.8295 358.72 31.1761 358.54 31.4028 358.18C31.5895 357.887 31.6828 357.413 31.6828 356.76V351.7H37.5228ZM40.2467 360V351.7H41.6867V355.1H45.6067V351.7H47.0467V360H45.6067V356.42H41.6867V360H40.2467ZM56.7784 359C55.9518 359.827 54.9051 360.24 53.6384 360.24C52.3718 360.24 51.3184 359.827 50.4784 359C49.6518 358.173 49.2384 357.133 49.2384 355.88C49.2384 354.613 49.6518 353.567 50.4784 352.74C51.3184 351.913 52.3718 351.5 53.6384 351.5C54.9051 351.5 55.9518 351.913 56.7784 352.74C57.6184 353.567 58.0384 354.613 58.0384 355.88C58.0384 357.133 57.6184 358.173 56.7784 359ZM55.6984 353.6C55.1384 353.053 54.4518 352.78 53.6384 352.78C52.8251 352.78 52.1318 353.06 51.5584 353.62C50.9984 354.167 50.7184 354.92 50.7184 355.88C50.7184 356.84 51.0051 357.593 51.5784 358.14C52.1518 358.687 52.8384 358.96 53.6384 358.96C54.4384 358.96 55.1251 358.687 55.6984 358.14C56.2718 357.593 56.5584 356.84 56.5584 355.88C56.5584 354.907 56.2718 354.147 55.6984 353.6ZM66.7467 352.3V354.02C66.0934 353.193 65.2267 352.78 64.1467 352.78C63.3334 352.78 62.6401 353.06 62.0667 353.62C61.4934 354.167 61.2067 354.92 61.2067 355.88C61.2067 356.84 61.4934 357.593 62.0667 358.14C62.6401 358.687 63.3267 358.96 64.1267 358.96C65.1934 358.96 66.0867 358.527 66.8067 357.66V359.38C66.0201 359.953 65.1401 360.24 64.1667 360.24C62.8734 360.24 61.8067 359.833 60.9667 359.02C60.1401 358.193 59.7267 357.153 59.7267 355.9C59.7267 354.633 60.1467 353.587 60.9867 352.76C61.8267 351.92 62.8867 351.5 64.1667 351.5C65.1267 351.5 65.9867 351.767 66.7467 352.3ZM74.4563 353.02H71.8563V360H70.4163V353.02H67.8163V351.7H74.4563V353.02ZM75.9694 360V351.7H77.4094V354.88H78.8894C80.036 354.88 80.876 355.153 81.4094 355.7C81.836 356.127 82.0494 356.707 82.0494 357.44C82.0494 358.213 81.8027 358.833 81.3094 359.3C80.816 359.767 80.0027 360 78.8694 360H75.9694ZM77.4094 358.72H78.7494C79.3494 358.72 79.776 358.647 80.0294 358.5C80.3894 358.26 80.5694 357.907 80.5694 357.44C80.5694 356.96 80.396 356.613 80.0494 356.4C79.8094 356.24 79.3827 356.16 78.7694 356.16H77.4094V358.72ZM85.4172 355.1H86.9172C87.0505 354.167 87.4239 353.38 88.0372 352.74C88.8239 351.913 89.8705 351.5 91.1772 351.5C92.4572 351.5 93.5105 351.913 94.3372 352.74C95.1639 353.567 95.5772 354.613 95.5772 355.88C95.5772 357.133 95.1572 358.173 94.3172 359C93.4905 359.827 92.4439 360.24 91.1772 360.24C89.7239 360.24 88.5839 359.72 87.7572 358.68C87.2239 358.013 86.9172 357.26 86.8372 356.42H85.4172V360H83.9772V351.7H85.4172V355.1ZM91.1772 352.78C90.3772 352.78 89.6972 353.06 89.1372 353.62C88.5905 354.167 88.3172 354.92 88.3172 355.88C88.3172 356.853 88.5972 357.613 89.1572 358.16C89.7172 358.693 90.3905 358.96 91.1772 358.96C91.9772 358.96 92.6639 358.687 93.2372 358.14C93.8105 357.593 94.0972 356.84 94.0972 355.88C94.0972 354.92 93.8105 354.167 93.2372 353.62C92.6772 353.06 91.9905 352.78 91.1772 352.78ZM108.954 352.3V354.02C108.3 353.193 107.434 352.78 106.354 352.78C105.54 352.78 104.847 353.06 104.274 353.62C103.7 354.167 103.414 354.92 103.414 355.88C103.414 356.84 103.7 357.593 104.274 358.14C104.847 358.687 105.534 358.96 106.334 358.96C107.4 358.96 108.294 358.527 109.014 357.66V359.38C108.227 359.953 107.347 360.24 106.374 360.24C105.08 360.24 104.014 359.833 103.174 359.02C102.347 358.193 101.934 357.153 101.934 355.9C101.934 354.633 102.354 353.587 103.194 352.76C104.034 351.92 105.094 351.5 106.374 351.5C107.334 351.5 108.194 351.767 108.954 352.3ZM118.028 359C117.202 359.827 116.155 360.24 114.888 360.24C113.622 360.24 112.568 359.827 111.728 359C110.902 358.173 110.488 357.133 110.488 355.88C110.488 354.613 110.902 353.567 111.728 352.74C112.568 351.913 113.622 351.5 114.888 351.5C116.155 351.5 117.202 351.913 118.028 352.74C118.868 353.567 119.288 354.613 119.288 355.88C119.288 357.133 118.868 358.173 118.028 359ZM116.948 353.6C116.388 353.053 115.702 352.78 114.888 352.78C114.075 352.78 113.382 353.06 112.808 353.62C112.248 354.167 111.968 354.92 111.968 355.88C111.968 356.84 112.255 357.593 112.828 358.14C113.402 358.687 114.088 358.96 114.888 358.96C115.688 358.96 116.375 358.687 116.948 358.14C117.522 357.593 117.808 356.84 117.808 355.88C117.808 354.907 117.522 354.147 116.948 353.6ZM122.577 353.82L121.577 353C121.897 352.533 122.25 352.187 122.637 351.96C123.157 351.653 123.763 351.5 124.457 351.5C125.297 351.5 125.95 351.693 126.417 352.08C126.897 352.493 127.137 353.02 127.137 353.66C127.137 354.433 126.823 355.013 126.197 355.4C126.597 355.493 126.917 355.673 127.157 355.94C127.543 356.353 127.737 356.86 127.737 357.46C127.737 358.353 127.377 359.067 126.657 359.6C126.07 360.027 125.283 360.24 124.297 360.24C123.417 360.24 122.677 360.007 122.077 359.54C121.623 359.207 121.257 358.733 120.977 358.12L122.217 357.6C122.363 357.973 122.61 358.287 122.957 358.54C123.33 358.82 123.783 358.96 124.317 358.96C124.943 358.96 125.41 358.853 125.717 358.64C126.103 358.387 126.297 358 126.297 357.48C126.297 357.053 126.13 356.733 125.797 356.52C125.517 356.333 125.063 356.24 124.437 356.24H123.597V354.92H124.297C124.803 354.92 125.163 354.847 125.377 354.7C125.67 354.513 125.817 354.26 125.817 353.94C125.817 353.567 125.697 353.28 125.457 353.08C125.23 352.88 124.877 352.78 124.397 352.78C123.983 352.78 123.603 352.887 123.257 353.1C122.963 353.287 122.737 353.527 122.577 353.82ZM131.374 358.84V364.6H129.934V351.7H131.374V352.86C132.108 351.953 133.054 351.5 134.214 351.5C135.454 351.5 136.434 351.94 137.154 352.82C137.888 353.687 138.254 354.713 138.254 355.9C138.254 357.1 137.894 358.127 137.174 358.98C136.454 359.82 135.488 360.24 134.274 360.24C133.061 360.24 132.094 359.773 131.374 358.84ZM134.074 358.96C134.888 358.96 135.541 358.667 136.034 358.08C136.528 357.48 136.774 356.753 136.774 355.9C136.774 354.94 136.501 354.18 135.954 353.62C135.408 353.06 134.774 352.78 134.054 352.78C133.334 352.78 132.694 353.06 132.134 353.62C131.574 354.18 131.294 354.933 131.294 355.88C131.294 356.747 131.548 357.48 132.054 358.08C132.574 358.667 133.248 358.96 134.074 358.96ZM146.622 357.22L147.822 357.88C147.542 358.413 147.202 358.86 146.802 359.22C146.042 359.9 145.122 360.24 144.042 360.24C142.922 360.24 141.955 359.88 141.142 359.16C140.342 358.427 139.942 357.34 139.942 355.9C139.942 354.633 140.302 353.587 141.022 352.76C141.755 351.92 142.735 351.5 143.962 351.5C145.348 351.5 146.395 352.007 147.102 353.02C147.662 353.82 147.922 354.86 147.882 356.14H141.422C141.435 356.98 141.695 357.66 142.202 358.18C142.708 358.7 143.328 358.96 144.062 358.96C144.715 358.96 145.282 358.76 145.762 358.36C146.135 358.04 146.422 357.66 146.622 357.22ZM141.522 354.94H146.402C146.282 354.287 145.995 353.767 145.542 353.38C145.102 352.98 144.575 352.78 143.962 352.78C143.362 352.78 142.828 352.987 142.362 353.4C141.908 353.8 141.628 354.313 141.522 354.94ZM150.09 351.7H153.23C153.99 351.7 154.57 351.86 154.97 352.18C155.45 352.567 155.69 353.087 155.69 353.74C155.69 354.46 155.39 355.013 154.79 355.4C155.204 355.507 155.55 355.693 155.83 355.96C156.27 356.387 156.49 356.92 156.49 357.56C156.49 358.36 156.204 358.987 155.63 359.44C155.137 359.813 154.484 360 153.67 360H150.09V351.7ZM151.53 355.08H153.05C153.437 355.08 153.744 355 153.97 354.84C154.237 354.64 154.37 354.353 154.37 353.98C154.37 353.647 154.237 353.38 153.97 353.18C153.77 353.047 153.384 352.98 152.81 352.98H151.53V355.08ZM151.53 358.72H153.31C153.924 358.72 154.357 358.627 154.61 358.44C154.93 358.2 155.09 357.893 155.09 357.52C155.09 357.12 154.95 356.807 154.67 356.58C154.417 356.38 153.984 356.28 153.37 356.28H151.53V358.72ZM158.684 360V351.7H160.124V358.68H163.324V351.7H164.764V358.68H167.964V351.7H169.404V360H158.684ZM172.122 351.7H173.562V357.18L179.242 351.06V360H177.802V354.46L172.122 360.58V351.7ZM181.965 351.7H183.405V357.18L189.085 351.06V360H187.645V354.46L181.965 360.58V351.7ZM182.685 348.12L183.885 347.66C184.125 348.46 184.692 348.86 185.585 348.86C186.479 348.86 187.045 348.46 187.285 347.66L188.485 348.12C188.272 348.72 187.905 349.193 187.385 349.54C186.879 349.887 186.279 350.06 185.585 350.06C184.892 350.06 184.285 349.887 183.765 349.54C183.259 349.193 182.899 348.72 182.685 348.12ZM201.917 353.02H199.317V360H197.877V353.02H195.277V351.7H201.917V353.02ZM204.87 358.84V364.6H203.43V351.7H204.87V352.86C205.604 351.953 206.55 351.5 207.71 351.5C208.95 351.5 209.93 351.94 210.65 352.82C211.384 353.687 211.75 354.713 211.75 355.9C211.75 357.1 211.39 358.127 210.67 358.98C209.95 359.82 208.984 360.24 207.77 360.24C206.557 360.24 205.59 359.773 204.87 358.84ZM207.57 358.96C208.384 358.96 209.037 358.667 209.53 358.08C210.024 357.48 210.27 356.753 210.27 355.9C210.27 354.94 209.997 354.18 209.45 353.62C208.904 353.06 208.27 352.78 207.55 352.78C206.83 352.78 206.19 353.06 205.63 353.62C205.07 354.18 204.79 354.933 204.79 355.88C204.79 356.747 205.044 357.48 205.55 358.08C206.07 358.667 206.744 358.96 207.57 358.96ZM220.978 359C220.151 359.827 219.104 360.24 217.838 360.24C216.571 360.24 215.518 359.827 214.678 359C213.851 358.173 213.438 357.133 213.438 355.88C213.438 354.613 213.851 353.567 214.678 352.74C215.518 351.913 216.571 351.5 217.838 351.5C219.104 351.5 220.151 351.913 220.978 352.74C221.818 353.567 222.238 354.613 222.238 355.88C222.238 357.133 221.818 358.173 220.978 359ZM219.898 353.6C219.338 353.053 218.651 352.78 217.838 352.78C217.024 352.78 216.331 353.06 215.758 353.62C215.198 354.167 214.918 354.92 214.918 355.88C214.918 356.84 215.204 357.593 215.778 358.14C216.351 358.687 217.038 358.96 217.838 358.96C218.638 358.96 219.324 358.687 219.898 358.14C220.471 357.593 220.758 356.84 220.758 355.88C220.758 354.907 220.471 354.147 219.898 353.6ZM224.446 351.7H225.886V357.18L231.566 351.06V360H230.126V354.46L224.446 360.58V351.7ZM225.166 348.12L226.366 347.66C226.606 348.46 227.173 348.86 228.066 348.86C228.959 348.86 229.526 348.46 229.766 347.66L230.966 348.12C230.753 348.72 230.386 349.193 229.866 349.54C229.359 349.887 228.759 350.06 228.066 350.06C227.373 350.06 226.766 349.887 226.246 349.54C225.739 349.193 225.379 348.72 225.166 348.12ZM238.73 360V356.74C237.943 356.86 237.29 356.92 236.77 356.92C235.863 356.92 235.19 356.72 234.75 356.32C234.283 355.907 234.05 355.227 234.05 354.28V351.7H235.49V354.08C235.49 354.533 235.55 354.86 235.67 355.06C235.856 355.42 236.276 355.6 236.93 355.6C237.516 355.6 238.116 355.54 238.73 355.42V351.7H240.17V360H238.73ZM249.243 352.88V351.7H250.683V360H249.243V358.84C248.523 359.773 247.577 360.24 246.403 360.24C245.283 360.24 244.33 359.853 243.543 359.08C242.757 358.307 242.363 357.227 242.363 355.84C242.363 354.48 242.75 353.42 243.523 352.66C244.31 351.887 245.27 351.5 246.403 351.5C247.603 351.5 248.55 351.96 249.243 352.88ZM246.563 352.78C245.803 352.78 245.157 353.053 244.623 353.6C244.103 354.133 243.843 354.88 243.843 355.84C243.843 356.76 244.083 357.513 244.563 358.1C245.057 358.673 245.723 358.96 246.563 358.96C247.403 358.96 248.07 358.66 248.563 358.06C249.07 357.46 249.323 356.727 249.323 355.86C249.323 354.873 249.043 354.113 248.483 353.58C247.923 353.047 247.283 352.78 246.563 352.78ZM258.851 353.02H256.251V360H254.811V353.02H252.211V351.7H258.851V353.02ZM260.364 360V351.7H261.804V354.88H263.284C264.431 354.88 265.271 355.153 265.804 355.7C266.231 356.127 266.444 356.707 266.444 357.44C266.444 358.213 266.197 358.833 265.704 359.3C265.211 359.767 264.397 360 263.264 360H260.364ZM261.804 358.72H263.144C263.744 358.72 264.171 358.647 264.424 358.5C264.784 358.26 264.964 357.907 264.964 357.44C264.964 356.96 264.791 356.613 264.444 356.4C264.204 356.24 263.777 356.16 263.164 356.16H261.804V358.72ZM267.444 360V351.7H268.884V360H267.444ZM271.594 351.7H273.034V357.18L278.714 351.06V360H277.274V354.46L271.594 360.58V351.7ZM272.314 348.12L273.514 347.66C273.754 348.46 274.321 348.86 275.214 348.86C276.108 348.86 276.674 348.46 276.914 347.66L278.114 348.12C277.901 348.72 277.534 349.193 277.014 349.54C276.508 349.887 275.908 350.06 275.214 350.06C274.521 350.06 273.914 349.887 273.394 349.54C272.888 349.193 272.528 348.72 272.314 348.12ZM292.386 351.7V360H290.946V353.02H287.986V356.76C287.986 357.84 287.773 358.64 287.346 359.16C286.866 359.747 286.199 360.04 285.346 360.04C285.239 360.04 285.093 360.027 284.906 360V358.68C285.039 358.707 285.146 358.72 285.226 358.72C285.693 358.72 286.039 358.54 286.266 358.18C286.453 357.887 286.546 357.413 286.546 356.76V351.7H292.386ZM295.11 351.7H296.55V357.18L302.23 351.06V360H300.79V354.46L295.11 360.58V351.7ZM311.454 352.3V354.02C310.8 353.193 309.934 352.78 308.854 352.78C308.04 352.78 307.347 353.06 306.774 353.62C306.2 354.167 305.914 354.92 305.914 355.88C305.914 356.84 306.2 357.593 306.774 358.14C307.347 358.687 308.034 358.96 308.834 358.96C309.9 358.96 310.794 358.527 311.514 357.66V359.38C310.727 359.953 309.847 360.24 308.874 360.24C307.58 360.24 306.514 359.833 305.674 359.02C304.847 358.193 304.434 357.153 304.434 355.9C304.434 354.633 304.854 353.587 305.694 352.76C306.534 351.92 307.594 351.5 308.874 351.5C309.834 351.5 310.694 351.767 311.454 352.3ZM319.163 353.02H316.563V360H315.123V353.02H312.523V351.7H319.163V353.02Z" fill="black"></path>
    <path d="M52.6287 306.392C52.293 307.15 52.6348 308.036 53.3922 308.371C54.1495 308.707 55.0356 308.365 55.3713 307.608L52.6287 306.392ZM137.399 121.46C137.101 120.687 136.233 120.302 135.46 120.601L122.865 125.459C122.092 125.758 121.707 126.626 122.005 127.399C122.303 128.172 123.172 128.556 123.945 128.258L135.14 123.939L139.459 135.135C139.758 135.908 140.626 136.293 141.399 135.995C142.172 135.697 142.557 134.828 142.258 134.055L137.399 121.46ZM55.3713 307.608L137.371 122.608L134.629 121.392L52.6287 306.392L55.3713 307.608Z" fill="#005D04"></path>
    <path fill-rule="evenodd" clip-rule="evenodd" d="M151.2 39.6672L146.248 45.1485C132.827 60.0047 127.853 83.3365 133.939 102.892C137.02 112.79 142.221 122.159 147.236 126.842L150.741 130.116L146.702 134.538C144.479 136.97 142.965 139.263 143.334 139.632C143.703 140.003 143.07 141.34 141.924 142.606C139.672 145.092 140.422 155.379 142.855 155.379C143.576 155.379 143.772 156.017 143.292 156.796C141.987 158.907 148.989 161.075 154.25 160.19C158.445 159.485 158.624 159.598 156.317 161.481C152.693 164.44 151.524 170.084 151.917 182.739C152.285 194.62 152.563 195.145 162.026 201.815C164.552 203.597 166.621 204.614 166.621 204.079C166.621 203.541 167.417 203.673 168.388 204.371C170.125 205.62 180.873 205.699 187.837 204.516C189.787 204.183 194.214 202.337 197.675 200.413C205.617 195.995 213.276 182.459 213.276 172.84V166.689H218.773C224.411 166.689 234.628 160.897 243.411 152.723C245.601 150.684 248.94 148.987 250.833 148.952C252.726 148.915 254.276 148.987 254.276 149.11C254.276 149.233 252.367 151.737 250.034 154.672C245.223 160.726 244.873 161.977 247.986 161.977C249.19 161.977 251.479 160.148 253.071 157.913C257.195 152.12 259.931 154.826 259.931 164.697C259.931 170.835 260.33 172.103 262.052 171.443C263.81 170.767 264.171 172.285 264.167 180.323C264.16 191.953 262.777 194.408 243.247 217.515C240.679 220.552 238.208 225.325 237.754 228.122C237.3 230.918 236.379 233.546 235.706 233.962C235.033 234.378 234.483 235.673 234.483 236.839C234.483 238.005 234.972 238.657 235.568 238.288C236.167 237.919 236.41 240.193 236.11 243.34C235.731 247.305 236.049 248.762 237.143 248.086C238.013 247.549 238.728 244.124 238.734 240.477C238.74 236.091 239.734 232.408 241.669 229.603C243.641 226.745 244.354 226.284 243.859 228.189C243.455 229.745 242.447 234.819 241.62 239.467C240.315 246.798 239.181 248.862 233.058 255.063C229.175 258.993 226.013 263.144 226.03 264.285C226.045 265.427 228.84 263.181 232.242 259.293C235.642 255.405 239.281 252.224 240.327 252.224C241.375 252.224 242.568 250.315 242.981 247.983C244.075 241.807 245.332 245.25 245.684 255.388C245.966 263.475 245.66 264.497 242.004 267.713C239.55 269.874 236.251 271.238 233.422 271.265C229.785 271.3 228.828 271.9 228.828 274.138C228.828 277.119 230.885 277.942 232.362 275.552C232.843 274.774 234.214 274.138 235.409 274.138C236.603 274.138 239.428 272.822 241.687 271.214C249.613 265.57 246.045 271.833 236.275 280.715C231.012 285.499 227.125 289.841 227.636 290.362C228.147 290.886 230.233 289.862 232.272 288.09C240.917 280.573 245.401 276.085 246.918 273.431C248.498 270.668 248.536 270.667 248.578 273.36C248.642 277.469 251.144 274.206 251.693 269.298C252.179 264.947 255.69 262.338 255.69 266.328C255.69 269.786 258.493 267.405 258.661 263.804C258.772 261.426 259.151 261.783 260.29 265.335C261.56 269.3 261.353 270.417 258.847 273.111C257.236 274.842 255.502 278.803 254.991 281.914C254.307 286.09 254.455 287.015 255.562 285.448C256.768 283.74 257.064 284.084 257.082 287.215C257.093 289.353 257.74 291.103 258.517 291.103C259.295 291.103 259.982 289.353 260.043 287.215C260.103 285.078 260.475 284.123 260.867 285.095C261.26 286.066 262.186 286.862 262.927 286.862C263.737 286.862 263.69 285.776 262.808 284.128C261.048 280.836 260.819 271.57 262.546 273.502C263.207 274.241 264.818 277.616 266.129 281.003C267.956 285.725 268.13 287.621 266.876 289.132C265.565 290.712 265.835 291.103 268.241 291.103C269.891 291.103 271.241 290.707 271.241 290.224C271.241 289.739 268.274 280.613 264.646 269.943C258.198 250.976 258.106 250.465 260.566 247.141C263.057 243.774 263.074 243.772 262.346 246.921C261.941 248.67 262.187 250.457 262.891 250.892C263.596 251.328 264.182 250.533 264.194 249.126C264.212 246.958 264.424 246.891 265.586 248.689C267.696 251.954 267.263 258.575 264.879 259.488C263.713 259.936 262.759 260.902 262.759 261.636C262.759 262.449 263.723 262.426 265.233 261.579C267.425 260.349 267.893 261.267 269.344 269.638C271.216 280.445 273.482 289.574 274.558 290.649C276.338 292.429 278.529 288.997 277.984 285.281C277.656 283.04 277.912 281.207 278.555 281.207C279.198 281.207 279.724 283.433 279.724 286.155C279.724 289.171 280.414 291.103 281.491 291.103C282.748 291.105 283.209 288.346 283.086 281.56C282.99 276.312 283.452 270.745 284.112 269.189C285.188 266.655 285.293 266.727 285.126 269.896C284.612 279.66 285.495 289.784 286.793 288.983C287.571 288.502 288.207 288.783 288.207 289.606C288.207 290.429 288.843 291.103 289.621 291.103C290.398 291.103 291.034 288.202 291.034 284.658C291.034 280.72 291.584 278.552 292.448 279.086C293.226 279.567 293.862 282.466 293.862 285.532C293.862 288.597 294.439 291.103 295.143 291.103C297.135 291.103 298.446 278.05 296.871 273.906C296.096 271.867 295.806 268.883 296.226 267.274C296.647 265.665 295.97 261.347 294.72 257.68C291.996 249.683 291.847 246.719 294.403 251.329C297.798 257.452 298.337 250.704 295.197 241.384C293.612 236.681 292.567 232.104 292.877 231.218C293.185 230.33 293.902 231.672 294.469 234.198C295.037 236.725 296.086 238.793 296.801 238.793C298.47 238.793 298.554 239.247 295.341 231.017C293.822 227.129 292.549 224.902 292.509 226.069C292.42 228.706 287.46 220.754 286.276 216.075C285.798 214.184 285.772 213.437 286.22 214.413C286.669 215.39 287.572 215.857 288.229 215.451C288.887 215.045 289.885 215.457 290.448 216.367C291.087 217.401 290.859 217.644 289.84 217.013C287.668 215.672 287.853 217.5 290.328 221.827C291.613 224.077 292.407 224.59 292.513 223.241C292.604 222.075 293.882 223.665 295.354 226.776C296.825 229.886 298.045 231.293 298.067 229.9C298.108 227.094 293.504 217.507 289.458 211.975C284.442 205.115 281.138 192.375 281.138 179.899C281.138 172.978 280.554 168.103 279.724 168.103C277.659 168.103 277.998 160.278 280.302 154.761C282.571 149.331 291.541 143.502 299.871 142.041L305.172 141.113L305.235 146.479C305.356 156.985 312.438 169.521 320.443 173.398C325.845 176.015 337.1 170.85 344.259 162.468C345.929 160.513 348.632 157.385 350.268 155.516C351.904 153.647 353.241 150.858 353.241 149.315C353.241 146.809 353.91 146.604 359.572 147.38C363.054 147.858 371.073 150.847 377.392 154.023C383.71 157.2 389.171 159.506 389.529 159.148C390.615 158.064 390.481 150.64 389.31 146.952C387.888 142.467 378.024 133 373.623 131.896C369.421 130.841 369.419 130.94 373.741 124.58C379.585 115.98 378.247 110.552 369.957 109.227C366.452 108.666 363.604 107.179 362.338 105.246C360.78 102.868 358.737 102.089 353.427 101.846C347.699 101.584 345.728 102.199 341.76 105.481C334.82 111.219 332.204 114.393 329.208 120.713C327.021 125.326 326.364 125.88 325.561 123.787C324.013 119.754 318.492 118.334 313.112 120.581C309.371 122.145 308.109 123.784 306.658 128.965C304.694 135.979 306.493 135.016 281.985 142.194C279.854 142.818 279.498 142.457 280.266 140.457C280.797 139.068 280.623 137.555 279.875 137.093C277.475 135.61 283.189 121.895 288.13 117.277C292.103 113.568 292.662 112.264 291.902 108.472C291.29 105.409 291.7 103.262 293.22 101.583C294.435 100.241 295.52 97.6413 295.633 95.8047C295.836 92.4965 304.731 74.7929 306.19 74.7929C306.606 74.7929 306.541 77.3392 306.043 80.4523C304.813 88.1434 307.897 94.9593 314.604 99.3788C319.452 102.571 320.841 102.831 327.906 101.861C332.828 101.187 338.552 99.0833 343.126 96.2685C347.158 93.7887 350.978 91.7585 351.615 91.7585C352.253 91.7585 354.608 89.7 356.851 87.1834C362.504 80.8369 365.406 67.1627 362.175 62.0787C359.062 57.1785 353.032 52.2839 350.033 52.2231C348.029 52.1821 347.716 51.4017 348.461 48.2843C348.973 46.1452 349.881 43.435 350.477 42.2601C351.801 39.663 349.612 26.813 346.985 21.7488C345.935 19.7257 342.973 16.5178 340.401 14.6219C333.657 9.64535 318.482 9.68353 308.592 14.7011C304.768 16.6422 300.84 18.2327 299.865 18.2356C298.891 18.2384 297.348 21.025 296.438 24.428L294.782 30.6147L290.434 28.798C285.279 26.6448 279.038 27.5355 273.851 31.1661C271.787 32.611 269.401 33.7929 268.549 33.7929C267.697 33.7929 267 34.309 267 34.9395C267 35.5715 265.568 37.6243 263.819 39.5018C261.099 42.4213 260.638 44.4727 260.638 53.6624C260.638 63.1984 261.075 64.9826 264.51 69.487C266.728 72.3951 270.585 75.2906 273.542 76.2661C280.093 78.4278 291.15 77.1681 298.291 73.447L303.757 70.5982L299.268 78.7035C296.798 83.1626 294.603 87.0449 294.388 87.3319C294.173 87.6189 293.048 86.9049 291.888 85.7456C289.54 83.3973 283.16 83.9642 279.724 86.8257C278.453 87.8847 276.47 88.166 274.776 87.5284C267.452 84.7729 258.881 96.7364 264.982 101.198C266.389 102.228 268.613 103.069 269.925 103.069C275.013 103.069 275.614 106.345 272.652 117.926C271.099 124 269.828 130.822 269.828 133.085C269.828 136.714 267.165 141.241 265.031 141.241C263.546 141.241 261.151 135.32 256.467 120.065C252.572 107.379 251.943 103.637 252.964 99.2403C254.888 90.9484 254.501 77.6587 252.065 68.3743C249.25 57.6521 250.375 48.8456 255.084 44.7512C259.86 40.5975 259.538 37.0913 254.308 36.3236C247.827 35.3721 246.264 36.9768 248.236 42.5514C249.213 45.3139 249.466 49.2273 248.852 52.1256L247.816 57.0272L244.774 52.1256C243.1 49.4295 239.15 44.7145 235.997 41.6466L230.265 36.0706L233.435 32.5841C235.967 29.799 236.106 29.2773 234.129 29.987C232.375 30.6176 231.655 30.1552 231.655 28.3965C231.655 25.5095 226.106 24.9044 223.879 27.5482C222.799 28.8305 219.969 28.5845 211.862 26.5034C204.121 24.5156 198.205 23.9501 189.948 24.4124C176.191 25.1815 170.979 26.69 160.701 32.8796L152.777 37.6512L151.2 39.6672ZM319.124 13.8698C315.523 14.3801 309.479 16.7242 305.693 19.0754L298.81 23.3507L299.001 34.5804C299.151 43.4449 300.066 47.9648 303.346 56.0418L307.501 66.272L310.454 60.9901C312.079 58.0833 314.635 52.2076 316.135 47.9309C319.522 38.2732 324.818 28.0855 324.903 31.0657C324.975 33.66 314.693 58.154 311.455 63.0938L309.243 66.4713L313.245 64.4016C315.446 63.2635 320.921 61.6531 325.411 60.8232C337.068 58.6686 343.216 55.4282 344.153 50.9437C344.582 48.8979 345.75 45.7296 346.748 43.903C348.679 40.3685 347.26 27.3602 344.65 24.674C343.931 23.9346 343.345 22.1857 343.345 20.786C343.345 19.3864 342.39 18.2412 341.224 18.2412C340.058 18.2412 339.103 17.5371 339.103 16.6761C339.103 15.8151 338.19 15.4617 337.075 15.8901C335.958 16.3185 334.845 16.146 334.6 15.5055C333.895 13.6634 326.259 12.8547 319.124 13.8698ZM178.191 31.7599C170.777 33.7548 158.938 39.8383 157.295 42.4948C156.832 43.2456 159.703 45.1485 158.58 50.6609C160.212 54.6011 160.346 52.1779 168.559 52.2811C173.325 52.3405 178.496 52.6855 180.052 53.0474C181.607 53.4107 184.47 53.8957 186.414 54.1247C193.442 54.956 200.337 58.3519 201.882 61.7436C203.368 65.0052 203.617 65.066 206.847 62.9482C213.054 58.8821 220.483 58.6248 227.469 62.2342C230.937 64.0255 234.647 66.3427 235.711 67.3818C239.878 71.4507 238.662 67.3606 231.64 53.6907L224.313 39.4269L220.1 42.9713C217.783 44.9223 214.541 46.5171 212.897 46.5171C209.962 46.5171 209.958 46.4789 212.652 44.3879C215.225 42.3916 215.156 42.345 211.558 43.6273C207.332 45.1344 205.018 43.4011 207.943 40.9199C208.933 40.0815 211.173 38.2195 212.924 36.7803L216.106 34.1662L207.882 31.8589C197.963 29.0751 188.287 29.044 178.191 31.7599ZM278.31 31.193C278.31 31.8447 277.356 32.3791 276.19 32.3791C275.023 32.3791 274.069 33.0154 274.069 33.7929C274.069 34.5705 272.796 35.2067 271.241 35.2067C269.671 35.2067 268.414 36.1497 268.414 37.3274C268.414 38.4938 267.807 39.4481 267.066 39.4481C262.732 39.4481 261.77 63.8855 265.983 66.9662C267.321 67.9431 268.414 69.4841 268.414 70.389C268.414 75.2538 286.946 76.2647 296.516 71.9229L302.705 69.1151L297.223 64.8568C294.208 62.5156 289.629 58.9599 287.049 56.9551C284.469 54.9504 282.655 53.012 283.018 52.6473C283.383 52.2839 288.287 55.5441 293.916 59.8944C299.545 64.2432 304.364 67.5897 304.624 67.3295C305.339 66.6141 302.339 56.4278 299.534 50.0516C298.167 46.9412 296.328 41.7653 295.447 38.5504C294.35 34.5437 292.847 32.3848 290.673 31.6892C285.878 30.1553 278.31 29.8513 278.31 31.193ZM249.793 42.5995C250.695 43.5015 252.036 43.5015 253.648 42.5995C255.736 41.4302 255.52 41.2154 252.264 41.2154C249.75 41.2154 248.889 41.696 249.793 42.5995ZM234.528 53.586C237.06 58.6404 240.607 66.911 242.41 71.9654L245.687 81.155L245.741 74.0097C245.803 65.5595 241.005 54.8542 234.334 48.5586L229.923 44.3964L234.528 53.586ZM149.247 50.6609C133.134 69.8107 133.381 100.613 149.808 120.494C153.553 125.025 154.872 125.752 157.96 124.976C159.986 124.468 162.016 123.45 162.47 122.716C162.924 121.981 165.639 121.293 168.504 121.185C173.685 120.99 173.701 120.97 171.464 117.556C169.82 115.046 169.416 112.087 169.959 106.558L170.701 98.9928L165.877 97.4009C161.112 95.8288 151.742 85.9025 153.429 84.2145C153.908 83.7352 153.683 82.5335 152.929 81.5424C150.973 78.9721 150.653 63.4826 152.556 63.4826C153.399 63.4826 153.727 62.3501 153.289 60.9646C152.801 59.4278 153.516 57.7072 155.124 56.5479C157.35 54.9433 161.673 55.0001 158.58 50.6609C158.845 35.207 153.578 45.5133 149.247 50.6609ZM165.662 56.1973C163.152 56.9494 160.475 57.9902 158.095 59.2638C156.536 60.098 155.753 61.5768 156.221 62.7969C156.665 63.952 156.396 64.8964 155.627 64.8964C154.049 64.8964 154.086 72.627 155.672 74.2119C156.238 74.7774 155.98 76.1049 155.102 77.1639C153.891 78.6243 154.063 79.703 155.822 81.6456C157.096 83.0537 158.138 84.951 158.138 85.8615C158.138 86.772 158.842 87.5171 159.703 87.5171C160.564 87.5171 160.922 88.4177 160.5 89.519C159.512 92.0921 168.593 96.5484 172.778 95.546C174.446 95.1445 178.672 93.7604 182.17 92.4668C185.667 91.1746 190.597 90.3588 193.126 90.6543C198.955 91.3343 198.866 90.4988 192.64 86.1033C184.316 80.2276 179.191 75.8886 179.825 75.2552C181.224 73.857 199.193 87.9525 199.973 91.0586C200.431 92.8867 201.704 94.726 202.8 95.1459C203.897 95.5672 204.793 96.5484 204.793 97.326C204.793 98.105 202.415 97.128 199.508 95.1558C195.299 92.2999 193.214 91.757 189.258 92.4922C182.522 93.742 173.448 98.9872 174.279 101.152C174.65 102.117 174.343 105.011 173.598 107.583C172.54 111.232 172.79 113.344 174.734 117.207C178.065 123.828 180.163 125.247 188.202 126.313C193.536 127.02 195.838 126.654 198.841 124.616C200.948 123.187 204.421 121.267 206.56 120.35C210.181 118.796 210.448 118.1 210.448 110.251C210.448 105.615 209.812 101.429 209.034 100.948C205.476 98.7483 208.322 97.4235 215.888 97.7558C224.209 98.1234 231.655 95.6718 231.655 92.5671C231.655 91.7189 232.816 90.2994 234.235 89.413C236.292 88.1293 236.765 86.198 236.56 79.8939C236.339 73.0639 235.758 71.5511 232.304 68.7942C223.957 62.1353 212.952 60.778 207.478 65.7334C206.204 66.8842 204.762 70.7566 204.271 74.3377C203.385 80.803 205.34 91.7585 207.38 91.7585C207.966 91.7585 210.199 88.183 212.341 83.8143C217.777 72.7316 218.539 75.1195 213.205 86.5175C210.276 92.7778 208.212 95.5955 206.917 95.0993C203.987 93.9739 201.968 86.6434 201.946 77.0564C201.923 66.6707 200.84 62.0688 198.417 62.0688C197.424 62.0688 196.278 61.1937 195.866 60.1248C194.861 57.5037 171.454 54.4583 165.662 56.1973ZM341.224 57.8175C338.891 59.3557 332.211 61.6673 326.379 62.9538C320.547 64.2404 314.618 66.091 313.201 67.0651C310.972 68.6005 311.823 68.9766 319.563 69.88C329.126 70.9969 335.269 71.6444 339.81 72.0163C342.176 72.2099 342.065 72.4065 339.136 73.2222C334.78 74.4367 316.999 72.3103 312.241 70.0072L308.707 68.2966L308.387 79.5376C308.071 90.6189 308.134 90.8437 312.783 95.2279C317.287 99.4764 317.874 99.6361 325.826 98.7695C335.114 97.7586 341.931 95.4032 341.931 93.2076C341.931 92.4102 342.885 91.7585 344.052 91.7585C345.218 91.7585 346.172 91.1222 346.172 90.3447C346.172 89.5671 347.4 88.9309 348.9 88.9309C351.416 88.9309 352.901 87.8168 356.838 82.9717C357.65 81.9722 359.039 77.3378 359.927 72.6722L361.539 64.1895L356.704 59.5947C351.145 54.3113 347.22 53.8617 341.224 57.8175ZM240.442 78.8194C240.508 81.1946 241.376 83.4482 242.369 83.8299C243.791 84.3756 243.85 83.5641 242.653 80.0113C240.603 73.9305 240.298 73.7665 240.442 78.8194ZM247.319 78.4448C247.386 80.0918 247.721 80.4269 248.172 79.3001C248.581 78.2794 248.53 77.0593 248.061 76.5899C247.591 76.1205 247.258 76.9546 247.319 78.4448ZM247.319 85.5137C247.386 87.1608 247.721 87.4959 248.172 86.3691C248.581 85.3483 248.53 84.1282 248.061 83.6588C247.591 83.1895 247.258 84.0236 247.319 85.5137ZM281.117 88.5392C279.079 89.9658 278.31 92.1232 278.31 96.4084V102.311L281.774 97.2129C283.68 94.4093 286.298 91.709 287.592 91.2113C288.983 90.6783 288.143 92.3607 285.542 95.3241C280.762 100.769 279.824 103.875 283.374 102.513C284.604 102.041 286.187 101.655 286.889 101.655C287.593 101.655 289.141 99.3293 290.329 96.4862C292.26 91.8645 292.262 91.0671 290.342 88.9464C287.729 86.0595 284.839 85.9322 281.117 88.5392ZM235.108 93.0577C230.51 99.1837 222.799 102.605 217.366 100.933C215.505 100.359 214.301 100.217 214.69 100.617C217.209 103.212 236.782 118.618 237.559 118.619C239.852 118.623 245.999 102.862 246.456 95.8104C246.74 91.4305 246.499 89.4059 245.885 91.0204C244.854 93.7335 244.774 93.7236 243.138 90.667C240.841 86.3747 239.917 86.649 235.108 93.0577ZM268.729 91.1321C264.13 94.3528 264.547 99.9387 269.474 101.116C271.613 101.627 274.205 102.711 275.235 103.525C276.266 104.34 275.729 102.502 274.039 99.4424C271.028 93.9852 271.026 93.9428 273.933 97.2171L276.896 100.555V95.6012C276.896 92.3876 276.11 90.3461 274.66 89.789C271.825 88.7018 272.377 88.5774 268.729 91.1321ZM195.716 104.555C191.976 106.927 189.224 109.179 189.603 109.558C190.259 110.213 204.793 101.774 204.793 100.737C204.793 99.4141 201.916 100.624 195.716 104.555ZM280.061 106.25C278.483 108.208 280.215 114.379 282.341 114.379C283.054 114.379 283.968 113.107 284.375 111.552C284.856 109.714 284.418 108.724 283.126 108.724C282.033 108.724 281.138 108.147 281.138 107.443C281.138 106.738 282.41 106.494 283.965 106.9C285.546 107.314 286.793 106.944 286.793 106.062C286.793 103.917 281.828 104.057 280.061 106.25ZM345.465 106.49C339.7 108.945 331.135 118.715 329.926 124.218C329.382 126.693 329.248 129.029 329.627 129.408C330.006 129.787 332.77 128.985 335.77 127.625C338.77 126.266 342.337 124.659 343.698 124.054C345.06 123.449 346.172 123.5 346.172 124.168C346.172 124.836 344.582 125.783 342.638 126.271C340.694 126.758 339.125 127.622 339.15 128.19C339.236 130.139 348.795 133.759 350.685 132.561C351.702 131.916 355.525 131.379 359.178 131.366C365.143 131.347 366.221 130.82 369.735 126.215C373.846 120.823 375.624 114.379 372.999 114.379C372.149 114.379 371.847 113.743 372.328 112.965C372.855 112.111 370.928 111.552 367.463 111.552C363.305 111.552 361.724 110.968 361.724 109.431C361.724 108.264 360.77 107.31 359.603 107.31C358.437 107.31 357.481 106.832 357.48 106.25C357.476 104.442 349.923 104.593 345.465 106.49ZM213.276 111.938V117.977L221.405 119.855C225.876 120.887 230.272 122.335 231.176 123.073C232.218 123.924 233.137 123.895 233.692 122.996C234.529 121.643 216.778 105.896 214.414 105.896C213.788 105.896 213.276 108.615 213.276 111.938ZM245.623 116.9L241.918 123.621L251.279 134.417C256.426 140.353 260.772 145.085 260.938 144.93C261.102 144.776 259.035 137.857 256.343 129.555C253.651 121.254 251.448 113.488 251.448 112.299C251.448 108.428 249.401 110.046 245.623 116.9ZM275.548 118.96C274.596 122.138 273.559 128.292 273.245 132.637L272.672 140.534L275.255 132.758C276.676 128.482 278.852 123.039 280.09 120.662C282.185 116.638 282.167 116.233 279.81 114.761C277.599 113.38 277.062 113.908 275.548 118.96ZM202.251 124.482C199.644 126.15 196.006 130.587 194.004 134.537L190.423 141.606L194.427 140.58C196.628 140.015 202.04 139.034 206.453 138.399C214.191 137.285 225.364 131.984 228.867 127.764C230.227 126.124 230.042 125.561 227.927 124.896C226.478 124.441 224.189 123.48 222.839 122.759C218.357 120.367 207.222 121.298 202.251 124.482ZM312.694 123.143C311.909 124.156 310.737 126.255 310.091 127.81C308.54 131.543 308.199 152.508 309.675 153.421C310.309 153.811 310.828 156.041 310.828 158.374C310.828 160.841 311.418 162.25 312.241 161.741C313.019 161.261 313.655 161.587 313.655 162.465C313.655 163.344 314.609 165.018 315.776 166.185C316.942 167.351 317.896 167.83 317.896 167.251C317.896 166.671 319.487 167.69 321.431 169.517C323.375 171.344 324.965 172.172 324.965 171.358C324.965 170.545 327.51 169.472 330.621 168.974C333.903 168.45 336.276 167.288 336.276 166.205C336.276 165.18 337.866 163.489 339.81 162.448C341.754 161.408 343.345 159.991 343.345 159.298C343.345 158.605 343.864 158.361 344.498 158.752C346.468 159.97 349.834 150.569 349.769 144.038C349.714 138.582 349.122 137.43 344.903 134.585C341.959 132.599 337.991 131.345 334.653 131.345H329.207V139.037C329.207 143.269 328.644 147.077 327.956 147.503C327.267 147.928 326.789 144.196 326.895 139.208C327.047 132.008 326.475 129.317 324.119 126.148C320.88 121.789 314.953 120.231 312.694 123.143ZM164.638 125.292C163.16 125.67 161.172 126.706 160.222 127.592C157.281 130.339 168.511 136.918 180.89 139.699L186.318 140.919L184.222 135.778C180.367 126.316 173.988 122.9 164.638 125.292ZM238.769 126.476C238.744 127.296 240.315 130.123 242.259 132.758C244.203 135.394 245.793 138.357 245.793 139.344C245.793 141.187 255.77 148.702 256.821 147.65C257.344 147.127 255.15 144.323 242.396 129.224C240.425 126.891 238.793 125.654 238.769 126.476ZM184.393 131.27C184.885 132.477 185.954 135.308 186.769 137.56L188.249 141.654L190.806 136.853C194.239 130.41 194.212 130.325 188.491 129.658C184.408 129.18 183.661 129.474 184.393 131.27ZM229.226 134.964C222.26 140.369 209.716 145.368 200.331 146.479L193.716 147.263L201.355 155.208L208.995 163.155L217.626 163.103C224.269 163.063 226.568 162.493 227.613 160.629C228.358 159.297 229.891 158.207 231.019 158.207C232.146 158.207 233.069 157.571 233.069 156.793C233.069 156.015 233.865 155.368 234.836 155.355C237.535 155.317 243.474 148.44 243.778 145C244.055 141.882 240.087 134.169 236.94 131.707C235.718 130.752 233.386 131.738 229.226 134.964ZM149.078 136.293C147.804 138.237 147.194 139.827 147.721 139.827C148.248 139.827 147.666 140.947 146.427 142.316C145.188 143.686 144.36 146.501 144.588 148.573C145.648 158.236 154.845 158.966 168.03 150.434L176.644 144.859L171.279 142.993C168.328 141.968 164.323 141.517 162.379 141.992C159.569 142.678 159.2 142.494 160.577 141.094C161.949 139.699 161.305 138.651 157.471 136.046C154.81 134.237 152.354 132.758 152.013 132.758C151.673 132.758 150.352 134.349 149.078 136.293ZM357.722 133.82C350.091 134.24 349.021 134.616 350.472 136.364C351.563 137.678 354.837 138.414 359.603 138.414C369.09 138.414 376.293 141.449 382.435 148.036L387.305 153.258L386.296 149.04C385.261 144.716 375.23 134.172 372.152 134.172C371.209 134.172 369.59 133.981 368.556 133.75C367.519 133.516 362.644 133.549 357.722 133.82ZM353.241 141.948C353.241 143.199 354.545 144.076 356.422 144.086C358.173 144.096 364.535 146.256 370.56 148.887C376.586 151.518 381.517 153.1 381.517 152.405C381.517 151.708 380.881 151.138 380.103 151.138C379.326 151.138 378.69 150.183 378.69 149.017C378.69 147.851 377.766 146.896 376.64 146.896C375.511 146.896 374.081 146.044 373.459 145C372.309 143.075 361.446 139.827 356.149 139.827C354.507 139.827 353.241 140.751 353.241 141.948ZM271.241 144.152C271.241 144.975 270.605 145.256 269.828 144.776C269.01 144.271 268.432 145.577 268.459 147.873C268.501 151.671 268.595 151.724 270.58 149.1C272.587 146.445 273.393 142.655 271.948 142.655C271.559 142.655 271.241 143.329 271.241 144.152ZM283.27 145.47C281.264 147.687 280.393 147.909 279.163 146.513C278.306 145.539 277.741 144.992 277.907 145.299C278.074 145.604 276.006 148.433 273.31 151.583L268.407 157.31L271.322 160.414L274.237 163.517L269.557 164.228C264.246 165.037 262.076 164.146 266.523 162.983L269.459 162.215L266.461 156.324L263.465 150.431L263 156.086C262.744 159.196 263.327 164.286 264.295 167.396C266.166 173.405 266.378 174.652 266.758 181.888C266.918 184.922 267.72 186.483 269.121 186.483C270.287 186.483 271.241 187.157 271.241 187.98C271.241 188.803 271.878 189.084 272.655 188.603C273.433 188.123 274.069 188.383 274.069 189.183C274.069 189.982 275.077 190.249 276.308 189.775C277.653 189.259 277.965 188.557 277.09 188.015C276.163 187.443 276.112 186.357 276.949 185.032C278.86 182.009 278.692 173.356 276.745 174.559C275.675 175.22 275.443 174.239 276.011 171.461C276.468 169.226 276.957 163.897 277.097 159.621C277.38 150.957 278.091 148.008 279.662 148.979C280.242 149.337 282.843 148.061 285.443 146.143C288.201 144.108 289.263 142.655 287.993 142.655C286.797 142.655 284.671 143.922 283.27 145.47ZM179.345 146.505C178.178 146.943 175.704 147.865 173.847 148.553C171.99 149.24 170.807 150.141 171.22 150.554C172.075 151.408 182.172 147.452 182.172 146.262C182.172 145.833 182.014 145.533 181.819 145.594C181.624 145.655 180.511 146.065 179.345 146.505ZM175.81 151.288C162.187 156.915 155.592 164.149 155.63 173.422C155.645 177.106 155.505 180.757 155.317 181.534C154.449 185.128 155.449 193.632 156.653 192.889C157.391 192.432 158.684 193.344 159.523 194.913C162.973 201.357 175.364 204.227 186.414 201.144C188.358 200.601 190.526 200.294 191.232 200.464C191.939 200.632 193.029 199.94 193.655 198.928C194.281 197.915 195.294 197.063 195.906 197.037C199.033 196.895 203.065 193.161 206.022 187.67C209.782 180.682 211.921 165.276 209.131 165.276C208.189 165.276 203.444 161.14 198.585 156.086C193.726 151.032 188.84 146.964 187.729 147.049C186.616 147.133 181.253 149.04 175.81 151.288ZM182.934 155.636C181.737 159.664 180.759 163.715 180.759 164.635C180.759 165.556 179.486 167.925 177.931 169.903C174.883 173.778 174.44 175.172 176.257 175.172C177.894 175.172 183.573 164.703 183.648 161.549C183.682 160.1 184.562 156.529 185.602 153.612C186.643 150.697 186.958 148.31 186.302 148.31C185.646 148.31 184.13 151.607 182.934 155.636ZM243.672 163.626C242.177 165.123 243.07 166.424 245.363 166.087C248.411 165.64 249.422 162.919 246.54 162.919C245.352 162.919 244.061 163.237 243.672 163.626ZM238.694 171.687C237.155 174.176 235.896 176.559 235.896 176.982C235.896 178.557 240.715 176.975 241.306 175.205C241.704 174.007 241.284 173.757 240.103 174.487C238.904 175.229 238.635 175.048 239.311 173.954C239.873 173.043 240.894 172.644 241.579 173.069C242.263 173.491 243.491 172.589 244.309 171.064C246.244 167.447 246.195 167.16 243.643 167.16C242.459 167.16 240.233 169.198 238.694 171.687ZM233.195 180.003C231.522 182.064 217.517 211.62 217.517 213.087C217.517 213.726 215.146 217.019 212.248 220.405C209.019 224.179 207.638 226.781 208.68 227.129C210.558 227.755 204.742 240.325 197.299 251.728C193.753 257.161 192.069 258.45 187.59 259.167C181.952 260.069 180.563 261.907 184.409 263.383C188.445 264.933 190.494 264.296 195.431 259.962C200.933 255.131 213.957 231.143 212.425 228.663C211.829 227.702 212.049 227.432 212.965 227.997C213.923 228.59 219.072 219.53 226.614 203.978C233.275 190.245 238.724 178.888 238.724 178.739C238.724 177.731 234.2 178.765 233.195 180.003ZM231.133 187.543C226.738 196.231 223.148 204.862 223.932 204.862C224.627 204.862 232.549 189.45 234.528 184.245C236.708 178.51 234.73 180.432 231.133 187.543ZM220.574 209.871C218.206 215.069 218.658 216.179 221.218 211.453C222.415 209.245 223.129 207.175 222.806 206.851C222.482 206.529 221.479 207.887 220.574 209.871ZM253.19 210.164C248.604 216.787 247.77 218.545 250.116 216.635C252.357 214.811 257.677 206.276 256.573 206.276C256.193 206.276 254.67 208.026 253.19 210.164ZM264.284 216.996C264.352 218.644 264.687 218.979 265.138 217.852C265.547 216.831 265.496 215.611 265.026 215.142C264.557 214.672 264.223 215.506 264.284 216.996ZM279.947 217.586C279.947 219.53 280.268 220.326 280.66 219.353C281.053 218.382 281.053 216.791 280.66 215.819C280.268 214.848 279.947 215.642 279.947 217.586ZM250.727 219.022C250.238 219.813 249.405 220.193 248.877 219.868C248.346 219.541 247.745 221.555 247.54 224.341C247.105 230.262 247.729 229.962 250.714 222.816C252.749 217.948 252.756 215.741 250.727 219.022ZM242.332 221.745C240.966 223.255 240.071 225.15 240.346 225.954C240.62 226.76 241.929 225.525 243.252 223.209C246.055 218.314 245.802 217.913 242.332 221.745ZM257.986 221.176C256.621 224.73 257.023 225.647 258.69 222.782C259.515 221.362 259.893 219.903 259.528 219.54C259.165 219.175 258.469 219.912 257.986 221.176ZM260.068 224.867C259.216 227.316 258.517 232.859 258.517 237.187C258.517 243.932 258.796 244.759 260.467 242.983C262.777 240.532 264.826 222.399 262.925 221.224C262.207 220.78 260.922 222.42 260.068 224.867ZM281.562 230.31C281.562 234.587 281.826 236.336 282.15 234.198C282.474 232.06 282.474 228.56 282.15 226.422C281.826 224.285 281.562 226.033 281.562 230.31ZM255.801 228.307C255.869 229.954 256.204 230.289 256.655 229.162C257.064 228.141 257.013 226.921 256.544 226.452C256.074 225.983 255.74 226.817 255.801 228.307ZM288.447 227.483C288.47 228.649 288.999 231.194 289.621 233.138C290.531 235.979 290.76 236.118 290.794 233.845C290.817 232.289 290.289 229.745 289.621 228.189C288.876 226.458 288.422 226.183 288.447 227.483ZM273.693 234.552C274.871 245.559 277.093 251.649 276.191 241.399C275.805 237 274.897 231.911 274.175 230.088C273.245 227.741 273.105 229.042 273.693 234.552ZM284.35 233.138C284.35 236.637 284.626 238.069 284.964 236.319C285.3 234.569 285.3 231.707 284.964 229.957C284.626 228.206 284.35 229.639 284.35 233.138ZM251.672 231.724C251.672 233.668 251.993 234.464 252.384 233.491C252.777 232.52 252.777 230.929 252.384 229.957C251.993 228.985 251.672 229.78 251.672 231.724ZM264.194 232.784C264.206 234.146 264.833 236.213 265.586 237.379C266.627 238.988 266.962 238.391 266.979 234.905C266.99 232.379 266.364 230.31 265.586 230.31C264.809 230.31 264.182 231.423 264.194 232.784ZM253.798 242.086C252.704 251 253.126 254.552 255.051 252.627C255.478 252.2 255.636 247.482 255.404 242.141L254.983 232.431L253.798 242.086ZM291.258 240.207C291.258 242.151 291.579 242.947 291.97 241.974C292.363 241.003 292.363 239.412 291.97 238.439C291.579 237.468 291.258 238.263 291.258 240.207ZM266.13 242.241C265.701 243.361 266.02 245.428 266.839 246.836C268.104 249.012 268.335 248.706 268.371 244.802C268.417 239.955 267.437 238.835 266.13 242.241ZM250.198 257.526C250.02 263.293 250.293 263.544 254.369 261.364C257.97 259.437 257.998 255.79 254.404 256.728C252.592 257.203 251.485 256.578 251.034 254.83C250.665 253.396 250.289 254.61 250.198 257.526ZM270.103 256.465C270.131 258.798 270.448 259.581 270.807 258.206C271.166 256.83 271.142 254.921 270.755 253.964C270.368 253.007 270.075 254.133 270.103 256.465ZM286.915 256.465C286.871 258.798 287.453 261.661 288.207 262.827C289.287 264.499 289.561 264.199 289.499 261.414C289.457 259.47 288.876 256.607 288.207 255.052C287.163 252.624 286.981 252.823 286.915 256.465ZM273.059 262.121C273.071 266.008 273.345 267.431 273.67 265.282C273.994 263.133 273.985 259.952 273.65 258.213C273.315 256.474 273.05 258.233 273.059 262.121ZM281.25 263.652C281.317 265.299 281.652 265.634 282.103 264.507C282.512 263.486 282.461 262.266 281.992 261.797C281.522 261.327 281.189 262.162 281.25 263.652ZM287.742 274.138C288.208 278.414 288.822 282.179 289.105 282.503C290.2 283.754 289.355 271.866 288.157 269.189C287.332 267.343 287.187 269.059 287.742 274.138ZM271.34 272.287C271.287 273.991 271.878 275.778 272.655 276.258C274.328 277.292 274.328 275.908 272.655 272.017C271.483 269.291 271.436 269.301 271.34 272.287ZM293.974 276.376C294.042 278.023 294.377 278.358 294.828 277.231C295.236 276.21 295.185 274.99 294.716 274.521C294.247 274.052 293.913 274.886 293.974 276.376Z" fill="#005D04"></path>
  </g>
  <defs>
    <clipPath id="clip0_207_50">
      <rect width="400" height="400" fill="white"></rect>
    </clipPath>
  </defs>
</svg>
