<?xml version="1.0" encoding="UTF-8"?>
<svg xmlns="http://www.w3.org/2000/svg" width="400" height="400" viewBox="0 0 400 400" fill="none">
  <path d="M9.88 13.66H18V25.6H19.52V29.8H18.12V27H8.68V29.8H7.28V25.6C7.73333 25.6133 8.14667 25.4533 8.52 25.12C8.89333 24.7733 9.18667 24.3333 9.4 23.8C9.72 22.9867 9.88 21.82 9.88 20.3V13.66ZM11.36 15.06V20.3C11.36 21.94 11.2 23.18 10.88 24.02C10.6533 24.62 10.3133 25.1467 9.86 25.6H16.52V15.06H11.36ZM27.433 18.7V27H25.993V20.02H23.033V23.76C23.033 24.84 22.8196 25.64 22.393 26.16C21.913 26.7467 21.2463 27.04 20.393 27.04C20.2863 27.04 20.1396 27.0267 19.953 27V25.68C20.0863 25.7067 20.193 25.72 20.273 25.72C20.7396 25.72 21.0863 25.54 21.313 25.18C21.4996 24.8867 21.593 24.4133 21.593 23.76V18.7H27.433ZM29.1969 27L31.7769 23.58C31.6969 23.58 31.5835 23.5667 31.4369 23.54C31.3035 23.5133 31.1035 23.4467 30.8369 23.34C30.5702 23.2333 30.3502 23.0933 30.1769 22.92C29.7369 22.5067 29.5169 21.9533 29.5169 21.26C29.5169 20.4733 29.7635 19.8533 30.2569 19.4C30.7502 18.9333 31.5635 18.7 32.6969 18.7H35.5969V27H34.1569V23.66H33.2769L30.9169 27H29.1969ZM34.1569 22.46V19.98H32.8169C32.1902 19.98 31.7569 20.0533 31.5169 20.2C31.1702 20.4267 30.9969 20.7667 30.9969 21.22C30.9969 21.6733 31.1702 22.0067 31.5169 22.22C31.7702 22.38 32.1969 22.46 32.7969 22.46H34.1569ZM42.9889 27V18.7H47.9089V20.02H44.4289V27H42.9889ZM50.7961 25.84V31.6H49.3561V18.7H50.7961V19.86C51.5294 18.9533 52.4761 18.5 53.6361 18.5C54.8761 18.5 55.8561 18.94 56.5761 19.82C57.3094 20.6867 57.6761 21.7133 57.6761 22.9C57.6761 24.1 57.3161 25.1267 56.5961 25.98C55.8761 26.82 54.9094 27.24 53.6961 27.24C52.4828 27.24 51.5161 26.7733 50.7961 25.84ZM53.4961 25.96C54.3094 25.96 54.9628 25.6667 55.4561 25.08C55.9494 24.48 56.1961 23.7533 56.1961 22.9C56.1961 21.94 55.9228 21.18 55.3761 20.62C54.8294 20.06 54.1961 19.78 53.4761 19.78C52.7561 19.78 52.1161 20.06 51.5561 20.62C50.9961 21.18 50.7161 21.9333 50.7161 22.88C50.7161 23.7467 50.9694 24.48 51.4761 25.08C51.9961 25.6667 52.6694 25.96 53.4961 25.96ZM59.8634 31.6L62.5034 26.22L58.6834 18.7H60.3234L63.2634 24.64L65.9634 18.7H67.5634L61.4634 31.6H59.8634ZM69.0827 27V18.7H70.5227V22.1H74.4427V18.7H75.8827V27H74.4427V23.42H70.5227V27H69.0827ZM84.0344 20.02H81.4344V27H79.9944V20.02H77.3944V18.7H84.0344V20.02ZM92.3722 26C91.5455 26.8267 90.4989 27.24 89.2322 27.24C87.9655 27.24 86.9122 26.8267 86.0722 26C85.2455 25.1733 84.8322 24.1333 84.8322 22.88C84.8322 21.6133 85.2455 20.5667 86.0722 19.74C86.9122 18.9133 87.9655 18.5 89.2322 18.5C90.4989 18.5 91.5455 18.9133 92.3722 19.74C93.2122 20.5667 93.6322 21.6133 93.6322 22.88C93.6322 24.1333 93.2122 25.1733 92.3722 26ZM91.2922 20.6C90.7322 20.0533 90.0455 19.78 89.2322 19.78C88.4189 19.78 87.7255 20.06 87.1522 20.62C86.5922 21.1667 86.3122 21.92 86.3122 22.88C86.3122 23.84 86.5989 24.5933 87.1722 25.14C87.7455 25.6867 88.4322 25.96 89.2322 25.96C90.0322 25.96 90.7189 25.6867 91.2922 25.14C91.8655 24.5933 92.1522 23.84 92.1522 22.88C92.1522 21.9067 91.8655 21.1467 91.2922 20.6ZM95.8405 18.7H98.9805C99.7405 18.7 100.32 18.86 100.72 19.18C101.2 19.5667 101.44 20.0867 101.44 20.74C101.44 21.46 101.14 22.0133 100.54 22.4C100.954 22.5067 101.3 22.6933 101.58 22.96C102.02 23.3867 102.24 23.92 102.24 24.56C102.24 25.36 101.954 25.9867 101.38 26.44C100.887 26.8133 100.234 27 99.4205 27H95.8405V18.7ZM97.2805 22.08H98.8005C99.1871 22.08 99.4938 22 99.7205 21.84C99.9871 21.64 100.12 21.3533 100.12 20.98C100.12 20.6467 99.9871 20.38 99.7205 20.18C99.5205 20.0467 99.1338 19.98 98.5605 19.98H97.2805V22.08ZM97.2805 25.72H99.0605C99.6738 25.72 100.107 25.6267 100.36 25.44C100.68 25.2 100.84 24.8933 100.84 24.52C100.84 24.12 100.7 23.8067 100.42 23.58C100.167 23.38 99.7338 23.28 99.1205 23.28H97.2805V25.72ZM104.434 27V18.7H105.874V21.88H107.354C108.501 21.88 109.341 22.1533 109.874 22.7C110.301 23.1267 110.514 23.7067 110.514 24.44C110.514 25.2133 110.268 25.8333 109.774 26.3C109.281 26.7667 108.468 27 107.334 27H104.434ZM105.874 25.72H107.214C107.814 25.72 108.241 25.6467 108.494 25.5C108.854 25.26 109.034 24.9067 109.034 24.44C109.034 23.96 108.861 23.6133 108.514 23.4C108.274 23.24 107.848 23.16 107.234 23.16H105.874V25.72ZM111.514 27V18.7H112.954V27H111.514ZM114.465 27L118.005 22.56L114.985 18.7H116.745L118.885 21.52L121.065 18.7H122.825L119.785 22.58L123.225 27H121.465L118.845 23.62L116.225 27H114.465ZM134.855 20.02H132.255V27H130.815V20.02H128.215V18.7H134.855V20.02ZM143.193 26C142.366 26.8267 141.319 27.24 140.053 27.24C138.786 27.24 137.733 26.8267 136.893 26C136.066 25.1733 135.653 24.1333 135.653 22.88C135.653 21.6133 136.066 20.5667 136.893 19.74C137.733 18.9133 138.786 18.5 140.053 18.5C141.319 18.5 142.366 18.9133 143.193 19.74C144.033 20.5667 144.453 21.6133 144.453 22.88C144.453 24.1333 144.033 25.1733 143.193 26ZM142.113 20.6C141.553 20.0533 140.866 19.78 140.053 19.78C139.239 19.78 138.546 20.06 137.973 20.62C137.413 21.1667 137.133 21.92 137.133 22.88C137.133 23.84 137.419 24.5933 137.993 25.14C138.566 25.6867 139.253 25.96 140.053 25.96C140.853 25.96 141.539 25.6867 142.113 25.14C142.686 24.5933 142.973 23.84 142.973 22.88C142.973 21.9067 142.686 21.1467 142.113 20.6ZM145.701 27L147.701 18.06L151.141 24.82L154.501 18.06L156.501 27H155.021L153.921 21.86L151.101 27.58L148.241 21.86L147.181 27H145.701ZM164.622 19.88V18.7H166.062V27H164.622V25.84C163.902 26.7733 162.956 27.24 161.782 27.24C160.662 27.24 159.709 26.8533 158.922 26.08C158.136 25.3067 157.742 24.2267 157.742 22.84C157.742 21.48 158.129 20.42 158.902 19.66C159.689 18.8867 160.649 18.5 161.782 18.5C162.982 18.5 163.929 18.96 164.622 19.88ZM161.942 19.78C161.182 19.78 160.536 20.0533 160.002 20.6C159.482 21.1333 159.222 21.88 159.222 22.84C159.222 23.76 159.462 24.5133 159.942 25.1C160.436 25.6733 161.102 25.96 161.942 25.96C162.782 25.96 163.449 25.66 163.942 25.06C164.449 24.46 164.702 23.7267 164.702 22.86C164.702 21.8733 164.422 21.1133 163.862 20.58C163.302 20.0467 162.662 19.78 161.942 19.78ZM174.23 20.02H171.63V27H170.19V20.02H167.59V18.7H174.23V20.02ZM182.568 26C181.741 26.8267 180.694 27.24 179.428 27.24C178.161 27.24 177.108 26.8267 176.268 26C175.441 25.1733 175.028 24.1333 175.028 22.88C175.028 21.6133 175.441 20.5667 176.268 19.74C177.108 18.9133 178.161 18.5 179.428 18.5C180.694 18.5 181.741 18.9133 182.568 19.74C183.408 20.5667 183.828 21.6133 183.828 22.88C183.828 24.1333 183.408 25.1733 182.568 26ZM181.488 20.6C180.928 20.0533 180.241 19.78 179.428 19.78C178.614 19.78 177.921 20.06 177.348 20.62C176.788 21.1667 176.508 21.92 176.508 22.88C176.508 23.84 176.794 24.5933 177.368 25.14C177.941 25.6867 178.628 25.96 179.428 25.96C180.228 25.96 180.914 25.6867 181.488 25.14C182.061 24.5933 182.348 23.84 182.348 22.88C182.348 21.9067 182.061 21.1467 181.488 20.6ZM186.036 18.7H189.176C189.936 18.7 190.516 18.86 190.916 19.18C191.396 19.5667 191.636 20.0867 191.636 20.74C191.636 21.46 191.336 22.0133 190.736 22.4C191.149 22.5067 191.496 22.6933 191.776 22.96C192.216 23.3867 192.436 23.92 192.436 24.56C192.436 25.36 192.149 25.9867 191.576 26.44C191.082 26.8133 190.429 27 189.616 27H186.036V18.7ZM187.476 22.08H188.996C189.382 22.08 189.689 22 189.916 21.84C190.182 21.64 190.316 21.3533 190.316 20.98C190.316 20.6467 190.182 20.38 189.916 20.18C189.716 20.0467 189.329 19.98 188.756 19.98H187.476V22.08ZM187.476 25.72H189.256C189.869 25.72 190.302 25.6267 190.556 25.44C190.876 25.2 191.036 24.8933 191.036 24.52C191.036 24.12 190.896 23.8067 190.616 23.58C190.362 23.38 189.929 23.28 189.316 23.28H187.476V25.72ZM15.38 52C14.5533 52.8267 13.5067 53.24 12.24 53.24C10.9733 53.24 9.92 52.8267 9.08 52C8.25333 51.1733 7.84 50.1333 7.84 48.88C7.84 47.6133 8.25333 46.5667 9.08 45.74C9.92 44.9133 10.9733 44.5 12.24 44.5C13.5067 44.5 14.5533 44.9133 15.38 45.74C16.22 46.5667 16.64 47.6133 16.64 48.88C16.64 50.1333 16.22 51.1733 15.38 52ZM14.3 46.6C13.74 46.0533 13.0533 45.78 12.24 45.78C11.4267 45.78 10.7333 46.06 10.16 46.62C9.6 47.1667 9.32 47.92 9.32 48.88C9.32 49.84 9.60667 50.5933 10.18 51.14C10.7533 51.6867 11.44 51.96 12.24 51.96C13.04 51.96 13.7267 51.6867 14.3 51.14C14.8733 50.5933 15.16 49.84 15.16 48.88C15.16 47.9067 14.8733 47.1467 14.3 46.6ZM24.093 46.02H21.493V53H20.053V46.02H17.453V44.7H24.093V46.02ZM32.0061 39H33.6061C33.4594 39.4933 33.2061 39.9133 32.8461 40.26C32.4994 40.5933 32.1794 40.82 31.8861 40.94C31.6061 41.06 31.2728 41.1667 30.8861 41.26C30.8194 41.2733 30.6594 41.3133 30.4061 41.38C30.1528 41.4333 29.9594 41.48 29.8261 41.52C29.6928 41.56 29.5194 41.6133 29.3061 41.68C29.0928 41.7467 28.8994 41.8267 28.7261 41.92C28.5528 42.0133 28.3928 42.1133 28.2461 42.22C27.7394 42.6067 27.3261 43.1467 27.0061 43.84C26.6994 44.52 26.5328 45.2467 26.5061 46.02H26.5461C27.1461 45.0067 28.1528 44.5 29.5661 44.5C30.8061 44.5 31.8328 44.92 32.6461 45.76C33.4728 46.6 33.8861 47.64 33.8861 48.88C33.8861 50.1333 33.4661 51.1733 32.6261 52C31.7861 52.8267 30.6928 53.24 29.3461 53.24C28.1861 53.24 27.2328 52.8933 26.4861 52.2C25.5528 51.3467 25.0861 49.92 25.0861 47.92C25.0861 44.44 25.8728 42.16 27.4461 41.08C27.5661 41 27.6928 40.9267 27.8261 40.86C27.9594 40.78 28.0994 40.7133 28.2461 40.66C28.4061 40.5933 28.5394 40.54 28.6461 40.5C28.7528 40.4467 28.8994 40.4 29.0861 40.36C29.2861 40.3067 29.4194 40.2733 29.4861 40.26C29.5661 40.2333 29.7128 40.2 29.9261 40.16C30.1528 40.1067 30.2928 40.0733 30.3461 40.06C30.8794 39.94 31.2661 39.8 31.5061 39.64C31.7461 39.4667 31.9128 39.2533 32.0061 39ZM31.5461 46.6C30.9861 46.0533 30.2994 45.78 29.4861 45.78C28.6728 45.78 27.9794 46.06 27.4061 46.62C26.8461 47.1667 26.5661 47.92 26.5661 48.88C26.5661 49.84 26.8528 50.5933 27.4261 51.14C27.9994 51.6867 28.6861 51.96 29.4861 51.96C30.2861 51.96 30.9728 51.6867 31.5461 51.14C32.1194 50.5933 32.4061 49.84 32.4061 48.88C32.4061 47.9067 32.1194 47.1467 31.5461 46.6ZM36.0944 44.7H37.5344V50.18L43.2144 44.06V53H41.7744V47.46L36.0944 53.58V44.7ZM47.3781 51.84V57.6H45.9381V44.7H47.3781V45.86C48.1115 44.9533 49.0581 44.5 50.2181 44.5C51.4581 44.5 52.4381 44.94 53.1581 45.82C53.8915 46.6867 54.2581 47.7133 54.2581 48.9C54.2581 50.1 53.8981 51.1267 53.1781 51.98C52.4581 52.82 51.4915 53.24 50.2781 53.24C49.0648 53.24 48.0981 52.7733 47.3781 51.84ZM50.0781 51.96C50.8915 51.96 51.5448 51.6667 52.0381 51.08C52.5315 50.48 52.7781 49.7533 52.7781 48.9C52.7781 47.94 52.5048 47.18 51.9581 46.62C51.4115 46.06 50.7781 45.78 50.0581 45.78C49.3381 45.78 48.6981 46.06 48.1381 46.62C47.5781 47.18 47.2981 47.9333 47.2981 48.88C47.2981 49.7467 47.5515 50.48 48.0581 51.08C48.5781 51.6667 49.2515 51.96 50.0781 51.96ZM62.8255 45.88V44.7H64.2655V53H62.8255V51.84C62.1055 52.7733 61.1588 53.24 59.9855 53.24C58.8655 53.24 57.9121 52.8533 57.1255 52.08C56.3388 51.3067 55.9455 50.2267 55.9455 48.84C55.9455 47.48 56.3321 46.42 57.1055 45.66C57.8921 44.8867 58.8521 44.5 59.9855 44.5C61.1855 44.5 62.1321 44.96 62.8255 45.88ZM60.1455 45.78C59.3855 45.78 58.7388 46.0533 58.2055 46.6C57.6855 47.1333 57.4255 47.88 57.4255 48.84C57.4255 49.76 57.6655 50.5133 58.1455 51.1C58.6388 51.6733 59.3055 51.96 60.1455 51.96C60.9855 51.96 61.6521 51.66 62.1455 51.06C62.6521 50.46 62.9055 49.7267 62.9055 48.86C62.9055 47.8733 62.6255 47.1133 62.0655 46.58C61.5055 46.0467 60.8655 45.78 60.1455 45.78ZM73.1528 50.22L74.3528 50.88C74.0728 51.4133 73.7328 51.86 73.3328 52.22C72.5728 52.9 71.6528 53.24 70.5728 53.24C69.4528 53.24 68.4861 52.88 67.6728 52.16C66.8728 51.4267 66.4728 50.34 66.4728 48.9C66.4728 47.6333 66.8328 46.5867 67.5528 45.76C68.2861 44.92 69.2661 44.5 70.4928 44.5C71.8795 44.5 72.9261 45.0067 73.6328 46.02C74.1928 46.82 74.4528 47.86 74.4128 49.14H67.9528C67.9661 49.98 68.2261 50.66 68.7328 51.18C69.2395 51.7 69.8595 51.96 70.5928 51.96C71.2461 51.96 71.8128 51.76 72.2928 51.36C72.6661 51.04 72.9528 50.66 73.1528 50.22ZM68.0528 47.94H72.9328C72.8128 47.2867 72.5261 46.7667 72.0728 46.38C71.6328 45.98 71.1061 45.78 70.4928 45.78C69.8928 45.78 69.3595 45.9867 68.8928 46.4C68.4395 46.8 68.1595 47.3133 68.0528 47.94ZM82.0617 46.02H79.4617V53H78.0217V46.02H75.4217V44.7H82.0617V46.02ZM89.8795 45.3V47.02C89.2262 46.1933 88.3595 45.78 87.2795 45.78C86.4662 45.78 85.7729 46.06 85.1995 46.62C84.6262 47.1667 84.3395 47.92 84.3395 48.88C84.3395 49.84 84.6262 50.5933 85.1995 51.14C85.7729 51.6867 86.4595 51.96 87.2595 51.96C88.3262 51.96 89.2195 51.5267 89.9395 50.66V52.38C89.1529 52.9533 88.2729 53.24 87.2995 53.24C86.0062 53.24 84.9395 52.8333 84.0995 52.02C83.2729 51.1933 82.8595 50.1533 82.8595 48.9C82.8595 47.6333 83.2795 46.5867 84.1195 45.76C84.9595 44.92 86.0195 44.5 87.2995 44.5C88.2595 44.5 89.1195 44.7667 89.8795 45.3ZM91.1891 53L93.7691 49.58C93.6891 49.58 93.5757 49.5667 93.4291 49.54C93.2957 49.5133 93.0957 49.4467 92.8291 49.34C92.5624 49.2333 92.3424 49.0933 92.1691 48.92C91.7291 48.5067 91.5091 47.9533 91.5091 47.26C91.5091 46.4733 91.7557 45.8533 92.2491 45.4C92.7424 44.9333 93.5557 44.7 94.6891 44.7H97.5891V53H96.1491V49.66H95.2691L92.9091 53H91.1891ZM96.1491 48.46V45.98H94.8091C94.1824 45.98 93.7491 46.0533 93.5091 46.2C93.1624 46.4267 92.9891 46.7667 92.9891 47.22C92.9891 47.6733 93.1624 48.0067 93.5091 48.22C93.7624 48.38 94.1891 48.46 94.7891 48.46H96.1491ZM111.481 45.3V47.02C110.828 46.1933 109.961 45.78 108.881 45.78C108.068 45.78 107.374 46.06 106.801 46.62C106.228 47.1667 105.941 47.92 105.941 48.88C105.941 49.84 106.228 50.5933 106.801 51.14C107.374 51.6867 108.061 51.96 108.861 51.96C109.928 51.96 110.821 51.5267 111.541 50.66V52.38C110.754 52.9533 109.874 53.24 108.901 53.24C107.608 53.24 106.541 52.8333 105.701 52.02C104.874 51.1933 104.461 50.1533 104.461 48.9C104.461 47.6333 104.881 46.5867 105.721 45.76C106.561 44.92 107.621 44.5 108.901 44.5C109.861 44.5 110.721 44.7667 111.481 45.3ZM120.111 45.88V44.7H121.551V53H120.111V51.84C119.391 52.7733 118.444 53.24 117.271 53.24C116.151 53.24 115.197 52.8533 114.411 52.08C113.624 51.3067 113.231 50.2267 113.231 48.84C113.231 47.48 113.617 46.42 114.391 45.66C115.177 44.8867 116.137 44.5 117.271 44.5C118.471 44.5 119.417 44.96 120.111 45.88ZM117.431 45.78C116.671 45.78 116.024 46.0533 115.491 46.6C114.971 47.1333 114.711 47.88 114.711 48.84C114.711 49.76 114.951 50.5133 115.431 51.1C115.924 51.6733 116.591 51.96 117.431 51.96C118.271 51.96 118.937 51.66 119.431 51.06C119.937 50.46 120.191 49.7267 120.191 48.86C120.191 47.8733 119.911 47.1133 119.351 46.58C118.791 46.0467 118.151 45.78 117.431 45.78ZM123.318 53L125.318 44.06L128.758 50.82L132.118 44.06L134.118 53H132.638L131.538 47.86L128.718 53.58L125.858 47.86L124.798 53H123.318ZM135.88 53V44.7H137.32V47.88H138.8C139.946 47.88 140.786 48.1533 141.32 48.7C141.746 49.1267 141.96 49.7067 141.96 50.44C141.96 51.2133 141.713 51.8333 141.22 52.3C140.726 52.7667 139.913 53 138.78 53H135.88ZM137.32 51.72H138.66C139.26 51.72 139.686 51.6467 139.94 51.5C140.3 51.26 140.48 50.9067 140.48 50.44C140.48 49.96 140.306 49.6133 139.96 49.4C139.72 49.24 139.293 49.16 138.68 49.16H137.32V51.72ZM142.96 53V44.7H144.4V53H142.96ZM147.11 44.7H148.55V50.18L154.23 44.06V53H152.79V47.46L147.11 53.58V44.7ZM147.83 41.12L149.03 40.66C149.27 41.46 149.837 41.86 150.73 41.86C151.623 41.86 152.19 41.46 152.43 40.66L153.63 41.12C153.417 41.72 153.05 42.1933 152.53 42.54C152.023 42.8867 151.423 43.06 150.73 43.06C150.037 43.06 149.43 42.8867 148.91 42.54C148.403 42.1933 148.043 41.72 147.83 41.12ZM160.662 53L162.662 44.06L166.102 50.82L169.462 44.06L171.462 53H169.982L168.882 47.86L166.062 53.58L163.202 47.86L162.142 53H160.662ZM180.243 52C179.417 52.8267 178.37 53.24 177.103 53.24C175.837 53.24 174.783 52.8267 173.943 52C173.117 51.1733 172.703 50.1333 172.703 48.88C172.703 47.6133 173.117 46.5667 173.943 45.74C174.783 44.9133 175.837 44.5 177.103 44.5C178.37 44.5 179.417 44.9133 180.243 45.74C181.083 46.5667 181.503 47.6133 181.503 48.88C181.503 50.1333 181.083 51.1733 180.243 52ZM179.163 46.6C178.603 46.0533 177.917 45.78 177.103 45.78C176.29 45.78 175.597 46.06 175.023 46.62C174.463 47.1667 174.183 47.92 174.183 48.88C174.183 49.84 174.47 50.5933 175.043 51.14C175.617 51.6867 176.303 51.96 177.103 51.96C177.903 51.96 178.59 51.6867 179.163 51.14C179.737 50.5933 180.023 49.84 180.023 48.88C180.023 47.9067 179.737 47.1467 179.163 46.6ZM189.992 44.7V53H188.552V46.02H185.592V49.76C185.592 50.84 185.378 51.64 184.952 52.16C184.472 52.7467 183.805 53.04 182.952 53.04C182.845 53.04 182.698 53.0267 182.512 53V51.68C182.645 51.7067 182.752 51.72 182.832 51.72C183.298 51.72 183.645 51.54 183.872 51.18C184.058 50.8867 184.152 50.4133 184.152 49.76V44.7H189.992ZM199.735 52C198.909 52.8267 197.862 53.24 196.595 53.24C195.329 53.24 194.275 52.8267 193.435 52C192.609 51.1733 192.195 50.1333 192.195 48.88C192.195 47.6133 192.609 46.5667 193.435 45.74C194.275 44.9133 195.329 44.5 196.595 44.5C197.862 44.5 198.909 44.9133 199.735 45.74C200.575 46.5667 200.995 47.6133 200.995 48.88C200.995 50.1333 200.575 51.1733 199.735 52ZM198.655 46.6C198.095 46.0533 197.409 45.78 196.595 45.78C195.782 45.78 195.089 46.06 194.515 46.62C193.955 47.1667 193.675 47.92 193.675 48.88C193.675 49.84 193.962 50.5933 194.535 51.14C195.109 51.6867 195.795 51.96 196.595 51.96C197.395 51.96 198.082 51.6867 198.655 51.14C199.229 50.5933 199.515 49.84 199.515 48.88C199.515 47.9067 199.229 47.1467 198.655 46.6ZM203.804 44.7H209.644V51.68H210.884V55.2H209.564V53H203.244V55.2H201.924V51.68C202.617 51.6667 203.13 51.3067 203.464 50.6C203.69 50.1333 203.804 49.4 203.804 48.4V44.7ZM208.204 51.68V46.02H205.244V49.14C205.244 50.2467 204.91 51.0933 204.244 51.68H208.204ZM219.423 52C218.596 52.8267 217.55 53.24 216.283 53.24C215.016 53.24 213.963 52.8267 213.123 52C212.296 51.1733 211.883 50.1333 211.883 48.88C211.883 47.6133 212.296 46.5667 213.123 45.74C213.963 44.9133 215.016 44.5 216.283 44.5C217.55 44.5 218.596 44.9133 219.423 45.74C220.263 46.5667 220.683 47.6133 220.683 48.88C220.683 50.1333 220.263 51.1733 219.423 52ZM218.343 46.6C217.783 46.0533 217.096 45.78 216.283 45.78C215.47 45.78 214.776 46.06 214.203 46.62C213.643 47.1667 213.363 47.92 213.363 48.88C213.363 49.84 213.65 50.5933 214.223 51.14C214.796 51.6867 215.483 51.96 216.283 51.96C217.083 51.96 217.77 51.6867 218.343 51.14C218.916 50.5933 219.203 49.84 219.203 48.88C219.203 47.9067 218.916 47.1467 218.343 46.6ZM222.891 44.7H224.331V50.18L230.011 44.06V53H228.571V47.46L222.891 53.58V44.7ZM223.611 41.12L224.811 40.66C225.051 41.46 225.618 41.86 226.511 41.86C227.405 41.86 227.971 41.46 228.211 40.66L229.411 41.12C229.198 41.72 228.831 42.1933 228.311 42.54C227.805 42.8867 227.205 43.06 226.511 43.06C225.818 43.06 225.211 42.8867 224.691 42.54C224.185 42.1933 223.825 41.72 223.611 41.12ZM9.44 72.82L8.44 72C8.76 71.5333 9.11333 71.1867 9.5 70.96C10.02 70.6533 10.6267 70.5 11.32 70.5C12.16 70.5 12.8133 70.6933 13.28 71.08C13.76 71.4933 14 72.02 14 72.66C14 73.4333 13.6867 74.0133 13.06 74.4C13.46 74.4933 13.78 74.6733 14.02 74.94C14.4067 75.3533 14.6 75.86 14.6 76.46C14.6 77.3533 14.24 78.0667 13.52 78.6C12.9333 79.0267 12.1467 79.24 11.16 79.24C10.28 79.24 9.54 79.0067 8.94 78.54C8.48667 78.2067 8.12 77.7333 7.84 77.12L9.08 76.6C9.22667 76.9733 9.47333 77.2867 9.82 77.54C10.1933 77.82 10.6467 77.96 11.18 77.96C11.8067 77.96 12.2733 77.8533 12.58 77.64C12.9667 77.3867 13.16 77 13.16 76.48C13.16 76.0533 12.9933 75.7333 12.66 75.52C12.38 75.3333 11.9267 75.24 11.3 75.24H10.46V73.92H11.16C11.6667 73.92 12.0267 73.8467 12.24 73.7C12.5333 73.5133 12.68 73.26 12.68 72.94C12.68 72.5667 12.56 72.28 12.32 72.08C12.0933 71.88 11.74 71.78 11.26 71.78C10.8467 71.78 10.4667 71.8867 10.12 72.1C9.82667 72.2867 9.6 72.5267 9.44 72.82ZM18.2375 77.84V83.6H16.7975V70.7H18.2375V71.86C18.9708 70.9533 19.9175 70.5 21.0775 70.5C22.3175 70.5 23.2975 70.94 24.0175 71.82C24.7508 72.6867 25.1175 73.7133 25.1175 74.9C25.1175 76.1 24.7575 77.1267 24.0375 77.98C23.3175 78.82 22.3508 79.24 21.1375 79.24C19.9242 79.24 18.9575 78.7733 18.2375 77.84ZM20.9375 77.96C21.7508 77.96 22.4042 77.6667 22.8975 77.08C23.3908 76.48 23.6375 75.7533 23.6375 74.9C23.6375 73.94 23.3642 73.18 22.8175 72.62C22.2708 72.06 21.6375 71.78 20.9175 71.78C20.1975 71.78 19.5575 72.06 18.9975 72.62C18.4375 73.18 18.1575 73.9333 18.1575 74.88C18.1575 75.7467 18.4108 76.48 18.9175 77.08C19.4375 77.6667 20.1108 77.96 20.9375 77.96ZM33.4848 76.22L34.6848 76.88C34.4048 77.4133 34.0648 77.86 33.6648 78.22C32.9048 78.9 31.9848 79.24 30.9048 79.24C29.7848 79.24 28.8182 78.88 28.0048 78.16C27.2048 77.4267 26.8048 76.34 26.8048 74.9C26.8048 73.6333 27.1648 72.5867 27.8848 71.76C28.6182 70.92 29.5982 70.5 30.8248 70.5C32.2115 70.5 33.2582 71.0067 33.9648 72.02C34.5248 72.82 34.7848 73.86 34.7448 75.14H28.2848C28.2982 75.98 28.5582 76.66 29.0648 77.18C29.5715 77.7 30.1915 77.96 30.9248 77.96C31.5782 77.96 32.1448 77.76 32.6248 77.36C32.9982 77.04 33.2848 76.66 33.4848 76.22ZM28.3848 73.94H33.2648C33.1448 73.2867 32.8582 72.7667 32.4048 72.38C31.9648 71.98 31.4382 71.78 30.8248 71.78C30.2248 71.78 29.6915 71.9867 29.2248 72.4C28.7715 72.8 28.4915 73.3133 28.3848 73.94ZM43.2338 70.7V79H41.7938V72.02H38.8338V75.76C38.8338 76.84 38.6204 77.64 38.1938 78.16C37.7138 78.7467 37.0471 79.04 36.1938 79.04C36.0871 79.04 35.9404 79.0267 35.7538 79V77.68C35.8871 77.7067 35.9938 77.72 36.0738 77.72C36.5404 77.72 36.8871 77.54 37.1138 77.18C37.3004 76.8867 37.3938 76.4133 37.3938 75.76V70.7H43.2338ZM45.9577 79V70.7H47.3977V73.88H48.8777C50.0243 73.88 50.8643 74.1533 51.3977 74.7C51.8243 75.1267 52.0377 75.7067 52.0377 76.44C52.0377 77.2133 51.791 77.8333 51.2977 78.3C50.8043 78.7667 49.991 79 48.8577 79H45.9577ZM47.3977 77.72H48.7377C49.3377 77.72 49.7643 77.6467 50.0177 77.5C50.3777 77.26 50.5577 76.9067 50.5577 76.44C50.5577 75.96 50.3843 75.6133 50.0377 75.4C49.7977 75.24 49.371 75.16 48.7577 75.16H47.3977V77.72ZM53.0377 79V70.7H54.4777V79H53.0377ZM57.1881 70.7H58.6281V76.18L64.3081 70.06V79H62.8681V73.46L57.1881 79.58V70.7ZM57.9081 67.12L59.1081 66.66C59.3481 67.46 59.9148 67.86 60.8081 67.86C61.7015 67.86 62.2681 67.46 62.5081 66.66L63.7081 67.12C63.4948 67.72 63.1281 68.1933 62.6081 68.54C62.1015 68.8867 61.5015 69.06 60.8081 69.06C60.1148 69.06 59.5081 68.8867 58.9881 68.54C58.4815 68.1933 58.1215 67.72 57.9081 67.12ZM77.9798 70.7V79H76.5398V72.02H73.5798V75.76C73.5798 76.84 73.3665 77.64 72.9398 78.16C72.4598 78.7467 71.7932 79.04 70.9398 79.04C70.8332 79.04 70.6865 79.0267 70.4998 79V77.68C70.6332 77.7067 70.7398 77.72 70.8198 77.72C71.2865 77.72 71.6332 77.54 71.8598 77.18C72.0465 76.8867 72.1398 76.4133 72.1398 75.76V70.7H77.9798ZM80.7038 70.7H82.1438V76.18L87.8238 70.06V79H86.3838V73.46L80.7038 79.58V70.7ZM97.0475 71.3V73.02C96.3942 72.1933 95.5275 71.78 94.4475 71.78C93.6342 71.78 92.9408 72.06 92.3675 72.62C91.7942 73.1667 91.5075 73.92 91.5075 74.88C91.5075 75.84 91.7942 76.5933 92.3675 77.14C92.9408 77.6867 93.6275 77.96 94.4275 77.96C95.4942 77.96 96.3875 77.5267 97.1075 76.66V78.38C96.3208 78.9533 95.4408 79.24 94.4675 79.24C93.1742 79.24 92.1075 78.8333 91.2675 78.02C90.4408 77.1933 90.0275 76.1533 90.0275 74.9C90.0275 73.6333 90.4475 72.5867 91.2875 71.76C92.1275 70.92 93.1875 70.5 94.4675 70.5C95.4275 70.5 96.2875 70.7667 97.0475 71.3ZM104.757 72.02H102.157V79H100.717V72.02H98.117V70.7H104.757V72.02ZM110.938 79V70.7H112.378V74.1H116.298V70.7H117.738V79H116.298V75.42H112.378V79H110.938ZM126.81 71.88V70.7H128.25V79H126.81V77.84C126.09 78.7733 125.143 79.24 123.97 79.24C122.85 79.24 121.897 78.8533 121.11 78.08C120.323 77.3067 119.93 76.2267 119.93 74.84C119.93 73.48 120.317 72.42 121.09 71.66C121.877 70.8867 122.837 70.5 123.97 70.5C125.17 70.5 126.117 70.96 126.81 71.88ZM124.13 71.78C123.37 71.78 122.723 72.0533 122.19 72.6C121.67 73.1333 121.41 73.88 121.41 74.84C121.41 75.76 121.65 76.5133 122.13 77.1C122.623 77.6733 123.29 77.96 124.13 77.96C124.97 77.96 125.637 77.66 126.13 77.06C126.637 76.46 126.89 75.7267 126.89 74.86C126.89 73.8733 126.61 73.1133 126.05 72.58C125.49 72.0467 124.85 71.78 124.13 71.78ZM135.645 79V70.7H140.565V72.02H137.085V79H135.645ZM148.097 70.7V79H146.657V72.02H143.697V75.76C143.697 76.84 143.484 77.64 143.057 78.16C142.577 78.7467 141.91 79.04 141.057 79.04C140.95 79.04 140.804 79.0267 140.617 79V77.68C140.75 77.7067 140.857 77.72 140.937 77.72C141.404 77.72 141.75 77.54 141.977 77.18C142.164 76.8867 142.257 76.4133 142.257 75.76V70.7H148.097ZM157.181 71.88V70.7H158.621V79H157.181V77.84C156.461 78.7733 155.514 79.24 154.341 79.24C153.221 79.24 152.268 78.8533 151.481 78.08C150.694 77.3067 150.301 76.2267 150.301 74.84C150.301 73.48 150.688 72.42 151.461 71.66C152.248 70.8867 153.208 70.5 154.341 70.5C155.541 70.5 156.488 70.96 157.181 71.88ZM154.501 71.78C153.741 71.78 153.094 72.0533 152.561 72.6C152.041 73.1333 151.781 73.88 151.781 74.84C151.781 75.76 152.021 76.5133 152.501 77.1C152.994 77.6733 153.661 77.96 154.501 77.96C155.341 77.96 156.008 77.66 156.501 77.06C157.008 76.46 157.261 75.7267 157.261 74.86C157.261 73.8733 156.981 73.1133 156.421 72.58C155.861 72.0467 155.221 71.78 154.501 71.78ZM161.348 70.7H164.488C165.248 70.7 165.828 70.86 166.228 71.18C166.708 71.5667 166.948 72.0867 166.948 72.74C166.948 73.46 166.648 74.0133 166.048 74.4C166.462 74.5067 166.808 74.6933 167.088 74.96C167.528 75.3867 167.748 75.92 167.748 76.56C167.748 77.36 167.462 77.9867 166.888 78.44C166.395 78.8133 165.742 79 164.928 79H161.348V70.7ZM162.788 74.08H164.308C164.695 74.08 165.002 74 165.228 73.84C165.495 73.64 165.628 73.3533 165.628 72.98C165.628 72.6467 165.495 72.38 165.228 72.18C165.028 72.0467 164.642 71.98 164.068 71.98H162.788V74.08ZM162.788 77.72H164.568C165.182 77.72 165.615 77.6267 165.868 77.44C166.188 77.2 166.348 76.8933 166.348 76.52C166.348 76.12 166.208 75.8067 165.928 75.58C165.675 75.38 165.242 75.28 164.628 75.28H162.788V77.72ZM169.942 79V70.7H171.382V74.1H175.302V70.7H176.742V79H175.302V75.42H171.382V79H169.942ZM186.474 78C185.647 78.8267 184.6 79.24 183.334 79.24C182.067 79.24 181.014 78.8267 180.174 78C179.347 77.1733 178.934 76.1333 178.934 74.88C178.934 73.6133 179.347 72.5667 180.174 71.74C181.014 70.9133 182.067 70.5 183.334 70.5C184.6 70.5 185.647 70.9133 186.474 71.74C187.314 72.5667 187.734 73.6133 187.734 74.88C187.734 76.1333 187.314 77.1733 186.474 78ZM185.394 72.6C184.834 72.0533 184.147 71.78 183.334 71.78C182.52 71.78 181.827 72.06 181.254 72.62C180.694 73.1667 180.414 73.92 180.414 74.88C180.414 75.84 180.7 76.5933 181.274 77.14C181.847 77.6867 182.534 77.96 183.334 77.96C184.134 77.96 184.82 77.6867 185.394 77.14C185.967 76.5933 186.254 75.84 186.254 74.88C186.254 73.9067 185.967 73.1467 185.394 72.6ZM188.982 79L190.982 70.06L194.422 76.82L197.782 70.06L199.782 79H198.302L197.202 73.86L194.382 79.58L191.522 73.86L190.462 79H188.982ZM212.712 71.3V73.02C212.058 72.1933 211.192 71.78 210.112 71.78C209.298 71.78 208.605 72.06 208.032 72.62C207.458 73.1667 207.172 73.92 207.172 74.88C207.172 75.84 207.458 76.5933 208.032 77.14C208.605 77.6867 209.292 77.96 210.092 77.96C211.158 77.96 212.052 77.5267 212.772 76.66V78.38C211.985 78.9533 211.105 79.24 210.132 79.24C208.838 79.24 207.772 78.8333 206.932 78.02C206.105 77.1933 205.692 76.1533 205.692 74.9C205.692 73.6333 206.112 72.5867 206.952 71.76C207.792 70.92 208.852 70.5 210.132 70.5C211.092 70.5 211.952 70.7667 212.712 71.3ZM220.421 72.02H217.821V79H216.381V72.02H213.781V70.7H220.421V72.02ZM227.899 76.22L229.099 76.88C228.819 77.4133 228.479 77.86 228.079 78.22C227.319 78.9 226.399 79.24 225.319 79.24C224.199 79.24 223.232 78.88 222.419 78.16C221.619 77.4267 221.219 76.34 221.219 74.9C221.219 73.6333 221.579 72.5867 222.299 71.76C223.032 70.92 224.012 70.5 225.239 70.5C226.626 70.5 227.672 71.0067 228.379 72.02C228.939 72.82 229.199 73.86 229.159 75.14H222.699C222.712 75.98 222.972 76.66 223.479 77.18C223.986 77.7 224.606 77.96 225.339 77.96C225.992 77.96 226.559 77.76 227.039 77.36C227.412 77.04 227.699 76.66 227.899 76.22ZM222.799 73.94H227.679C227.559 73.2867 227.272 72.7667 226.819 72.38C226.379 71.98 225.852 71.78 225.239 71.78C224.639 71.78 224.106 71.9867 223.639 72.4C223.186 72.8 222.906 73.3133 222.799 73.94ZM237.768 65H239.368C239.221 65.4933 238.968 65.9133 238.608 66.26C238.261 66.5933 237.941 66.82 237.648 66.94C237.368 67.06 237.034 67.1667 236.648 67.26C236.581 67.2733 236.421 67.3133 236.168 67.38C235.914 67.4333 235.721 67.48 235.588 67.52C235.454 67.56 235.281 67.6133 235.068 67.68C234.854 67.7467 234.661 67.8267 234.488 67.92C234.314 68.0133 234.154 68.1133 234.008 68.22C233.501 68.6067 233.088 69.1467 232.768 69.84C232.461 70.52 232.294 71.2467 232.268 72.02H232.308C232.908 71.0067 233.914 70.5 235.328 70.5C236.568 70.5 237.594 70.92 238.408 71.76C239.234 72.6 239.648 73.64 239.648 74.88C239.648 76.1333 239.228 77.1733 238.388 78C237.548 78.8267 236.454 79.24 235.108 79.24C233.948 79.24 232.994 78.8933 232.248 78.2C231.314 77.3467 230.848 75.92 230.848 73.92C230.848 70.44 231.634 68.16 233.208 67.08C233.328 67 233.454 66.9267 233.588 66.86C233.721 66.78 233.861 66.7133 234.008 66.66C234.168 66.5933 234.301 66.54 234.408 66.5C234.514 66.4467 234.661 66.4 234.848 66.36C235.048 66.3067 235.181 66.2733 235.248 66.26C235.328 66.2333 235.474 66.2 235.688 66.16C235.914 66.1067 236.054 66.0733 236.108 66.06C236.641 65.94 237.028 65.8 237.268 65.64C237.508 65.4667 237.674 65.2533 237.768 65ZM237.308 72.6C236.748 72.0533 236.061 71.78 235.248 71.78C234.434 71.78 233.741 72.06 233.168 72.62C232.608 73.1667 232.328 73.92 232.328 74.88C232.328 75.84 232.614 76.5933 233.188 77.14C233.761 77.6867 234.448 77.96 235.248 77.96C236.048 77.96 236.734 77.6867 237.308 77.14C237.881 76.5933 238.168 75.84 238.168 74.88C238.168 73.9067 237.881 73.1467 237.308 72.6ZM248.136 70.7V79H246.696V72.02H243.736V75.76C243.736 76.84 243.523 77.64 243.096 78.16C242.616 78.7467 241.949 79.04 241.096 79.04C240.989 79.04 240.843 79.0267 240.656 79V77.68C240.789 77.7067 240.896 77.72 240.976 77.72C241.443 77.72 241.789 77.54 242.016 77.18C242.203 76.8867 242.296 76.4133 242.296 75.76V70.7H248.136ZM257.02 76.22L258.22 76.88C257.94 77.4133 257.6 77.86 257.2 78.22C256.44 78.9 255.52 79.24 254.44 79.24C253.32 79.24 252.353 78.88 251.54 78.16C250.74 77.4267 250.34 76.34 250.34 74.9C250.34 73.6333 250.7 72.5867 251.42 71.76C252.153 70.92 253.133 70.5 254.36 70.5C255.747 70.5 256.793 71.0067 257.5 72.02C258.06 72.82 258.32 73.86 258.28 75.14H251.82C251.833 75.98 252.093 76.66 252.6 77.18C253.107 77.7 253.727 77.96 254.46 77.96C255.113 77.96 255.68 77.76 256.16 77.36C256.533 77.04 256.82 76.66 257.02 76.22ZM251.92 73.94H256.8C256.68 73.2867 256.393 72.7667 255.94 72.38C255.5 71.98 254.973 71.78 254.36 71.78C253.76 71.78 253.227 71.9867 252.76 72.4C252.307 72.8 252.027 73.3133 251.92 73.94Z" fill="black"></path>
  <path fill-rule="evenodd" clip-rule="evenodd" d="M119.541 389.051V393.846C119.541 399.464 121.969 401.549 125.29 398.787C126.759 397.565 127.278 395.369 126.67 392.941L125.695 389.051C122.087 389.051 127.866 380.899 128.095 380.899L126.992 371.117C126.384 365.737 125.191 361.335 124.34 361.335C122.195 361.335 122.406 368.478 124.703 373.53C126.162 376.74 126.162 378.177 124.703 379.639C123.244 381.101 122.795 380.875 122.795 378.672C122.795 377.089 121.934 374.192 120.882 372.232C119.772 370.165 118.889 360.805 118.779 349.923C118.386 311.687 116.89 277.222 115.525 275.008C114.751 273.752 114.289 268.529 114.499 263.398C114.827 255.289 114.39 253.727 111.154 251.454C106.391 248.11 105.456 248.167 104.492 251.858C103.599 255.284 99.0576 256.264 76.2555 257.956C65.4914 258.755 61.1089 258.523 60.2354 257.107C58.2443 253.877 64.2307 248.841 70.0625 248.841C72.9907 248.841 76.6573 247.567 78.2109 246.012C80.8901 243.325 80.6689 243.117 73.8528 241.882C61.5221 239.652 59.3521 239.034 59.3521 237.753C59.3521 235.799 67.9754 235.584 69.1629 237.51C69.9047 238.713 72.5384 238.651 77.8806 237.303C84.4706 235.64 86.4259 235.775 91.9633 238.278C95.4999 239.877 98.389 241.623 98.3841 242.159C98.3597 244.427 87.9062 248.847 82.4014 248.914C79.1186 248.955 74.2367 250.063 71.5526 251.378C67.3556 253.432 67.2418 253.639 70.7393 252.85C72.976 252.344 77.7342 251.534 81.3131 251.048C84.8919 250.564 90.7774 249.093 94.3904 247.783C99.3504 245.984 102.069 245.821 105.477 247.121C114.414 250.525 114.661 250.153 114.661 233.352C114.661 224.113 115.318 217.864 116.288 217.864C117.183 217.864 117.915 216.698 117.915 215.275C117.915 213.165 119.193 212.865 124.828 213.651C130.46 214.437 131.02 214.307 127.846 212.945C122.94 210.839 123.504 210.392 132.555 209.21C136.582 208.685 138.962 208.644 137.842 209.119C136.723 209.595 135.809 211.005 135.809 212.252C135.809 215.303 127.382 219.494 121.25 219.494H116.288L116.301 231.314C116.309 237.815 117.093 249.737 118.045 257.808C118.995 265.878 119.732 278.35 119.68 285.524C119.485 312.755 121.99 317.029 134.426 310.669C140.12 307.758 141.042 307.69 144.452 309.93C146.518 311.285 149.857 315.336 151.873 318.931C153.888 322.526 156.589 325.467 157.874 325.467C159.159 325.467 160.76 325.457 161.43 325.446C162.1 325.435 162.756 324.152 162.884 322.593C163.013 321.036 163.195 319.12 163.291 318.339C163.385 317.557 164.641 317.896 166.079 319.093C168.272 320.917 168.996 320.883 170.553 318.884C171.742 317.358 175.339 316.5 180.544 316.5C187.292 316.5 188.639 316.014 188.452 313.647C188.312 311.886 189.366 310.794 191.203 310.794C195.592 310.794 196.766 307.639 193.317 305.112C189.765 302.51 189.823 302.453 199.252 299.302C205.367 297.257 206.504 296.233 206.159 293.084C205.933 291.011 207.213 287.446 209.006 285.162C210.798 282.878 212.271 279.089 212.275 276.744C212.28 274.4 213.048 269.719 213.984 266.346C214.919 262.971 215.274 259.544 214.773 258.73C213.852 257.237 198.661 261.916 192.167 265.692C188.426 267.867 185.4 267.976 181.097 266.091C179.58 265.426 176.284 266.003 173.564 267.414C168.604 269.983 160.21 278.885 160.21 281.573C160.21 282.401 159.398 283.078 158.408 283.078C157.342 283.078 156.986 281.555 157.534 279.361C158.046 277.316 158.024 273.948 157.484 271.876L156.499 268.11L152.72 272.742C150.642 275.288 148.979 279.206 149.028 281.448C149.106 285.046 149.293 284.912 150.622 280.305C152.086 275.23 154.749 272.169 156.325 273.749C156.753 274.178 156.242 277.955 155.19 282.142C153.786 287.729 152.576 289.616 150.643 289.229C148.842 288.869 147.491 290.477 146.366 294.319C144.19 301.767 141.052 302.637 140.393 295.977C139.887 290.856 135.443 286.163 133.216 288.395C131.648 289.966 131.596 297.844 133.123 302.233C134.184 305.279 133.655 306.185 129.998 307.577C127.578 308.5 125.172 308.828 124.651 308.306C124.131 307.784 123.418 302.271 123.067 296.052C122.585 287.511 122.972 284.576 124.646 284.048C125.865 283.665 129.058 282.786 131.742 282.095L136.622 280.841L130.115 279.896C123.978 279.004 123.81 278.836 127.161 276.938C129.116 275.831 133.037 274.926 135.876 274.926C139.83 274.926 140.814 275.507 140.086 277.409C139.285 279.503 139.7 279.591 142.723 277.969C146.215 276.095 146.225 276.01 143.093 274.784C138.434 272.962 127.952 273.033 124.448 274.912C121.668 276.403 121.393 275.645 120.895 265.126C120.597 258.856 120.674 253.727 121.064 253.728C121.453 253.73 123.283 255.098 125.131 256.766C130.377 261.509 138.457 263.514 152.319 263.514C163.95 263.514 165.09 263.227 165.09 260.296C165.09 258.367 163.132 256.062 160.21 254.547C157.526 253.156 155.33 251.854 155.33 251.651C155.33 251.451 158.44 251.208 162.243 251.11C170.756 250.895 187.487 248.131 188.909 246.708C189.485 246.131 189.02 244.53 187.878 243.149C186.113 241.02 186.96 239.593 193.474 233.735C201.363 226.635 212.266 212.655 212.266 209.634C212.266 207.62 181.219 209.316 174.885 211.675C172.209 212.671 170.657 212.593 170.275 211.444C169.208 208.232 163.841 209.681 158.583 214.603C155.71 217.293 152.071 219.494 150.497 219.494C148.922 219.494 145.756 220.975 143.463 222.784C140.757 224.917 138.913 225.461 138.218 224.335C136.982 222.33 132.555 225.294 132.555 228.125C132.555 229.066 131.436 231.075 130.068 232.589C128.698 234.106 127.418 237.554 127.221 240.252C126.99 243.392 126.135 244.881 124.841 244.387C123.732 243.959 122.374 244.784 121.825 246.217C120.08 250.776 117.915 247.269 117.915 239.88C117.915 233.025 118.121 232.723 123.189 232.232C126.662 231.896 128.646 230.749 129.001 228.869C129.434 226.583 128.384 226.016 123.727 226.016C120.531 226.016 117.915 225.282 117.915 224.385C117.915 223.489 119.402 222.755 121.22 222.755C126.491 222.755 136.25 218.073 140.936 213.294C143.308 210.876 146.469 207.904 147.959 206.691C149.451 205.478 150.251 203.395 149.74 202.061C149.23 200.726 150.293 197.548 152.106 194.998C158.728 185.678 163.041 165.693 158.429 165.693C157.448 165.693 152.595 167.921 147.643 170.644C142.693 173.368 138.36 175.315 138.016 174.971C137.673 174.627 138.511 171.665 139.876 168.389C142.269 162.649 142.236 162.432 138.988 162.432C137.084 162.432 136.069 161.7 136.655 160.748C137.226 159.823 138.327 156.85 139.101 154.142C140.32 149.888 140.025 149.039 136.943 147.896C134.006 146.807 133.338 145.207 133.167 138.852C133.053 134.605 131.487 127.719 129.684 123.548C127.883 119.379 125.612 113.949 124.638 111.483C123.662 109.017 122.18 107 121.342 107C116.044 107 99.051 139.77 100.474 147.24C101.205 151.065 99.4268 152.384 97.5805 149.389C97.0274 148.492 94.6914 147.759 92.3895 147.759C88.4837 147.759 88.2625 148.166 89.0726 153.873C89.5492 157.236 90.4554 161.271 91.0865 162.84C92.0333 165.192 91.3468 165.693 87.1807 165.693C79.9694 165.693 80.5648 170.142 89.0401 179.58C99.487 191.214 99.801 192.191 92.6596 190.847C86.8928 189.763 86.6992 189.874 87.8558 193.601C88.5179 195.737 89.9803 198.026 91.1044 198.686C94.7646 200.837 95.6007 208.201 92.4465 210.511C89.9803 212.319 89.0043 211.837 85.0513 206.853C82.5478 203.696 80.4997 200.48 80.4997 199.705C80.4997 198.932 79.4016 198.3 78.0596 198.3C76.7175 198.3 75.6195 199.438 75.6195 200.828C75.6195 202.811 74.4791 202.495 70.3326 199.361C63.0204 193.834 53.2209 188.518 50.348 188.518C49.0288 188.518 44.1648 186.688 39.5416 184.453C34.9168 182.216 30.9508 180.57 30.7279 180.795C30.5051 181.018 31.3721 185.753 32.6556 191.319C34.9005 201.057 39.3578 210.643 44.43 216.641C46.6098 219.22 46.5155 219.494 43.4328 219.494C35.5463 219.494 39.6051 226.761 49.873 231.023C53.3461 232.465 54.0944 233.393 52.5555 234.347C49.5331 236.219 54.9322 239.949 64.2323 242.415L71.5526 244.356L65.859 246.742C62.7276 248.053 58.498 250.676 56.4613 252.571L52.7556 256.014L56.4613 258.077C63.5848 262.04 102.072 259.198 105.631 254.446C108.916 250.06 110.982 254.65 111.736 268.007C112.424 280.168 112.249 281.255 109.919 279.281C106.776 276.615 93.6242 275.864 90.2601 278.156C87.1905 280.246 89.3036 281.818 98.9746 284.633C111.938 288.409 113.765 289.926 114.843 297.812C115.416 301.989 115.154 305.531 114.229 306.128C113.342 306.7 113.176 308.075 113.859 309.183C115.684 312.142 115.639 324.518 113.801 325.467C112.932 325.916 111.489 322.555 110.594 318C109.7 313.445 107.746 308.5 106.254 307.012C104.761 305.523 103.056 302.098 102.464 299.398C101.088 293.115 97.5398 293.137 93.7072 299.453L90.6961 304.418L89.6648 299.25C89.097 296.408 88.6334 292.317 88.6334 290.16C88.6334 285.605 84.142 283.178 81.8775 286.508C80.5989 288.391 79.9938 288.261 78.3817 285.755C72.924 277.271 70.3976 275.071 66.2023 275.155C61.9532 275.239 56.9868 274.131 38.5981 268.99C23.9119 264.885 23.4304 267.725 35.6944 286.089C41.4774 294.748 43.7451 299.382 42.2013 299.382C38.9056 299.382 39.2293 302.492 42.678 303.956C44.2429 304.622 48.2252 306.845 51.5242 308.896C57.4585 312.587 57.4895 312.661 54.371 315.786C52.6369 317.524 51.2184 319.976 51.2184 321.233C51.2184 324.419 66.7489 325.435 73.534 322.692C76.4133 321.528 80.0654 320.576 81.6514 320.576C84.0004 320.576 83.7109 321.339 80.0946 324.701C75.19 329.259 72.7174 336.254 75.1493 338.691C76.0115 339.555 79.6375 339.796 83.2066 339.224C88.4073 338.389 90.2829 337.09 92.6563 332.675C96.3474 325.806 100.313 324.461 107.212 327.743C115.745 331.801 116.465 333.555 115.946 349.036L115.475 363.143L109.405 357.564C102.36 351.088 89.2808 348.243 86.0143 352.474C85.0204 353.76 82.9772 354.814 81.4741 354.814C78.8241 354.814 72.6068 358.713 64.5837 365.411C55.7475 372.785 77.8939 370.422 80.9877 365.173C81.7035 363.958 83.327 362.965 84.5958 362.965C85.8826 362.965 86.5251 361.976 86.0485 360.73C84.913 357.763 90.047 352.753 93.0435 353.904C94.3432 354.404 96.7866 354.814 98.4752 354.814C100.935 354.814 101.285 355.511 100.243 358.335C99.0998 361.431 100.078 362.442 108.351 366.718C115.055 370.183 118.224 372.919 119.379 376.24L120.999 380.899C129.452 380.899 114.544 389.051 119.541 389.051ZM115.767 116.024C109.659 123.696 103.281 138.436 103.25 144.953C103.211 153.214 101.262 155.17 96.3084 151.918C89.1702 147.231 88.5667 154.65 95.3063 164.247C98.8607 169.307 97.8603 171.013 92.7149 168.663C90.3529 167.586 87.9957 167.519 86.2763 168.482C83.95 169.788 84.8415 171.376 92.5571 179.668C103.272 191.182 103.995 194.04 95.9537 193.099C89.5102 192.346 88.7684 193.792 93.5136 197.863C95.303 199.399 96.7671 202.266 96.7671 204.236C96.7671 206.605 98.7989 209.075 102.771 211.535C108.501 215.084 114.712 216.763 114.617 214.739C114.533 212.903 103.668 202.061 100.813 200.964C99.2267 200.352 98.3759 199.405 98.9225 198.857C100.474 197.302 109.781 201.712 109.781 204.004C109.781 205.131 110.879 206.965 112.221 208.082C114.336 209.841 114.661 209.011 114.661 201.867C114.661 197.331 113.882 191.555 112.93 189.031C110.386 182.282 102.269 175.475 96.7622 175.475C94.1871 175.475 91.5778 174.661 90.9629 173.667C90.1755 172.389 91.8169 172.191 96.5605 172.995C102.97 174.079 103.274 173.942 103.274 169.969C103.274 167.638 101.052 163.27 98.2247 160.044C95.4478 156.874 93.948 154.28 94.8898 154.28C97.3218 154.28 104.901 164.641 104.901 167.965C104.901 169.495 106.163 173.093 107.705 175.964L110.511 181.181L111.627 167.065C112.241 159.302 113.5 149.03 114.425 144.241C115.351 139.451 116.563 131.827 117.119 127.301C117.674 122.775 118.873 118.007 119.781 116.704C120.981 114.984 121.141 115.656 120.368 119.167C119.784 121.823 118.671 129.16 117.895 135.471C117.119 141.78 115.964 150.866 115.328 155.661L114.17 164.38L120.516 160.957C124.007 159.073 128.625 156.268 130.781 154.72C133.797 152.555 134.521 152.446 133.924 154.244C133.496 155.529 129.91 158.296 125.957 160.391C117.568 164.837 114.798 169.058 114.718 177.513C114.655 184.258 115.909 185.074 119.72 180.773C124.835 175.002 132.858 168.714 133.845 169.702C134.403 170.263 131.08 174.174 126.46 178.396C117.869 186.248 117.313 187.373 117.825 195.854L118.121 200.745L119.732 196.669C120.617 194.428 123.771 190.026 126.741 186.887C133.749 179.481 139.007 166.043 135.7 163.994C133.8 162.817 133.759 161.672 135.462 157.207C137.309 152.361 137.187 151.615 134.22 149.598C131.753 147.922 130.929 145.564 130.929 140.192C130.929 133.705 123.327 110.261 121.224 110.261C120.745 110.261 118.291 112.855 115.767 116.024ZM146.983 173.517C135.907 178.841 128.516 187.106 127.174 195.668L126.18 202.006L135.314 193.223C152.037 177.146 153.703 175.714 153.703 177.42C153.703 178.352 147.299 185.267 139.469 192.784L125.235 206.453L135.809 205.724C141.624 205.325 146.749 204.947 147.196 204.885C147.643 204.823 146.978 204.117 145.719 203.318C143.863 202.139 144.364 200.678 148.371 195.598C154.982 187.215 161.223 168.779 157.363 169.033C156.693 169.077 152.021 171.096 146.983 173.517ZM33.3242 186.035C33.3242 188.871 41.9915 209.063 44.6805 212.489C48.6481 217.544 48.7782 219.354 45.3507 221.866C43.0407 223.559 43.2717 224.133 47.337 226.803C49.8682 228.465 55.4967 230.167 59.8482 230.586C64.4389 231.027 68.1137 232.281 68.6082 233.572C69.5192 235.951 76.0603 236.354 81.165 234.348C83.9956 233.237 83.8296 232.814 79.2861 229.572C75.2258 226.674 72.0358 226.016 62.0443 226.016C55.3015 226.016 49.3346 225.289 48.7864 224.398C48.1406 223.35 52.1082 223.148 60.0776 223.823C68.3675 224.526 72.366 224.296 72.366 223.12C72.366 222.16 65.807 216.19 57.7904 209.852C49.7738 203.514 42.3608 196.671 41.3196 194.646C39.7287 191.555 40.3062 191.765 44.9147 195.95C47.934 198.693 53.1412 202.943 56.4857 205.393C59.832 207.844 66.9294 213.896 72.2603 218.842L81.9524 227.837L81.1244 221.627C80.6689 218.213 80.0344 214.093 79.7123 212.472C79.374 210.762 79.9287 209.789 81.0349 210.154C82.0825 210.498 83.1399 214.025 83.3855 217.991C83.8313 225.204 86.5235 232.537 88.7277 232.537C89.3719 232.537 90.3919 229.896 90.9971 226.668C91.7925 222.419 91.3924 220.019 89.5509 217.98C88.1519 216.429 86.9839 214.486 86.9546 213.659C86.927 212.834 85.0302 210.022 82.7397 207.41C79.4602 203.672 78.2808 203.144 77.1844 204.922C76.0424 206.773 75.1119 206.582 72.0455 203.874C65.3547 197.967 55.2901 192.215 49.5298 191.009C46.4325 190.36 42.2762 188.8 40.2948 187.543C36.7208 185.275 33.3242 184.541 33.3242 186.035ZM118.043 204.141C118.121 206.041 118.507 206.427 119.026 205.128C119.496 203.951 119.437 202.544 118.897 202.002C118.357 201.461 117.973 202.423 118.043 204.141ZM192.745 211.279C186.035 211.871 177.712 213.314 174.25 214.484C169.247 216.178 167.701 216.198 166.706 214.585C166.017 213.469 164.628 213.067 163.618 213.692C162.609 214.316 162.081 215.329 162.445 215.939C162.808 216.55 162.58 220.468 161.938 224.646C160.796 232.076 160.853 232.211 164.501 230.82C170.351 228.592 181.759 222.62 186.337 219.39C188.629 217.773 192.655 215.963 195.284 215.368C199.493 214.416 199.284 214.717 193.558 217.884C189.979 219.861 185.953 222.378 184.611 223.474C183.269 224.571 179.243 226.774 175.664 228.368C150.175 239.725 149.493 241.489 170.784 240.994L177.291 240.842L171.597 242.367C167.898 243.356 163.236 243.283 158.29 242.155C151.307 240.562 150.061 240.78 143.243 244.784C133.413 250.557 132.962 251.704 139.354 254.664L144.756 257.165L139.17 256.244C136.097 255.737 132.419 254.268 130.999 252.98C129.411 251.539 127.561 251.164 126.203 252.005C119.698 256.035 146.601 263.062 158.583 260.462L164.277 259.226L156.55 255.755C146.487 251.236 146.319 248.133 156.2 249.25C160.701 249.759 167.833 248.945 174.501 247.163C180.508 245.557 184.51 244.178 183.391 244.096C179.397 243.808 181.753 239.761 190.121 232.537C198.154 225.602 209.012 213.094 209.012 210.775C209.012 210.19 208.098 209.823 206.979 209.958C205.861 210.094 199.455 210.689 192.745 211.279ZM98.3938 215.167C98.3938 221.361 100.051 224.385 103.448 224.385C105.443 224.385 106.528 225.533 106.528 227.646C106.528 229.439 107.338 230.907 108.328 230.907C109.319 230.907 109.708 229.806 109.192 228.461C108.678 227.116 108.966 226.016 109.831 226.016C110.699 226.016 111.408 224.182 111.408 221.94C111.408 219.582 110.471 217.864 109.187 217.864C107.966 217.864 105.037 216.343 102.68 214.484L98.3938 211.106V215.167ZM92.5164 215.311C91.9097 216.896 92.2106 218.687 93.1866 219.292C94.4197 220.057 94.4832 222.515 93.3916 227.384C92.5294 231.23 92.2464 235.063 92.7653 235.902C94.4392 238.617 96.3897 237.528 97.452 233.285C98.0229 231.008 99.1714 229.567 100.006 230.083C100.94 230.661 100.945 232.547 100.021 234.983C98.1336 239.957 100.803 242.057 103.232 237.508C105.576 233.118 103.757 226.365 100.302 226.625C98.3255 226.775 97.4373 225.269 97.0583 221.125C96.4287 214.256 94.0748 211.241 92.5164 215.311ZM156.368 220.504C154.43 223.166 152.27 224.39 150.38 223.895C148.613 223.432 145.95 224.689 143.772 227.014C139.443 231.632 137.442 231.958 137.416 228.054C137.387 223.774 129.858 237.779 128.986 243.734C128.463 247.307 128.898 248.841 130.437 248.841C133.027 248.841 135.799 242.298 135.833 236.099C135.853 232.72 136.209 232.276 137.393 234.154C138.236 235.491 138.513 238.243 138.005 240.268C137.497 242.293 137.805 243.95 138.687 243.95C141.626 243.95 144.027 239.497 143.664 234.72C143.269 229.529 144.815 226.016 147.491 226.016C148.688 226.016 148.702 226.645 147.539 228.054C145.836 230.118 146.71 239.103 148.606 239.006C152.551 238.807 159.231 229.175 160.721 221.532C161.959 215.19 160.483 214.841 156.368 220.504ZM121.168 229.276C121.168 230.173 122.632 230.907 124.422 230.907C126.211 230.907 127.675 230.173 127.675 229.276C127.675 228.38 126.211 227.646 124.422 227.646C122.632 227.646 121.168 228.38 121.168 229.276ZM105.926 236.205C104.338 242.145 104.717 243.736 108.154 245.58C111.185 247.205 111.408 246.819 111.408 239.931C111.408 231.903 107.743 229.412 105.926 236.205ZM204.945 262.614C196.467 266.038 185.54 271.574 182.29 274.093C178.356 277.142 177.297 276.221 179.656 271.806C181.184 268.945 181.011 268.416 178.568 268.473C175.427 268.547 161.716 279.817 164.768 279.817C165.783 279.817 166.335 280.735 165.993 281.855C164.127 287.972 163.725 294.491 165.214 294.491C167.377 294.491 171.597 284.35 171.597 279.151C171.597 275.352 174.163 272.062 175.825 273.728C176.242 274.147 174.82 279.356 172.664 285.305C170.511 291.254 169.424 296.121 170.25 296.121C172.581 296.121 179.918 287.698 182.321 282.263C184.038 278.379 184.497 278.063 184.548 280.729C184.582 282.574 183.536 285.509 182.223 287.25C179.012 291.504 179.127 292.003 183.391 292.298C195.481 293.131 197.625 293.478 197.625 294.605C197.625 295.293 194.881 295.796 191.525 295.725C180.92 295.498 178.104 296.057 178.104 298.392C178.104 299.641 179.306 301.126 180.777 301.692C182.247 302.256 183.036 303.133 182.532 303.64C182.026 304.145 179.542 303.032 177.013 301.165C173.05 298.24 171.563 298.006 166.31 299.468C162.956 300.401 160.21 301.457 160.21 301.812C160.21 302.168 164.602 304.436 169.97 306.849C175.339 309.263 179.731 311.855 179.731 312.607C179.731 314.154 175.388 312.589 165.967 307.651C162.422 305.792 157.664 304.357 155.393 304.462C152.476 304.595 152.127 304.876 154.202 305.414C155.889 305.852 156.911 307.336 156.6 308.893C155.912 312.335 164.596 316.495 167.472 314.104C168.614 313.153 171.363 313.031 174.164 313.805C176.778 314.528 180.704 314.673 182.888 314.128C186.84 313.143 186.832 313.121 181.262 309.39L175.664 305.642L182.984 306.671C188.844 307.494 189.9 307.294 188.271 305.66C184.906 302.284 185.834 301.361 195.401 298.573C201.615 296.763 204.033 295.369 202.91 294.244C201.788 293.119 202.759 289.613 205.928 283.349C210.649 274.018 213.888 260.088 211.254 260.447C210.468 260.555 207.629 261.53 204.945 262.614ZM197.28 276.149C193.454 281.304 189.405 286.111 188.281 286.828C187.157 287.545 186.244 289.013 186.252 290.089C186.259 291.165 188.821 289.344 191.946 286.04C195.069 282.737 197.625 279.47 197.625 278.78C197.625 278.091 199.964 275.107 202.824 272.151C205.684 269.194 207.172 266.775 206.131 266.775C205.089 266.775 201.106 270.994 197.28 276.149ZM30.0707 270.741C30.0707 273.762 39.0308 288.359 45.4532 295.8C48.2284 299.016 48.3504 299.771 46.2958 301.072C44.9766 301.909 44.6301 302.698 45.5248 302.825C46.4195 302.954 48.6156 303.28 50.405 303.55C66.0933 305.924 75.6195 306.752 75.6195 305.742C75.6195 302.717 54.192 285.809 44.3259 281.048C38.2988 278.14 32.9598 274.696 32.462 273.397C31.7105 271.432 32.0488 271.454 34.4743 273.526C36.0783 274.897 39.9532 276.987 43.0847 278.169C46.2161 279.349 53.7349 283.874 59.7929 288.219C65.8509 292.565 71.2387 296.121 71.7641 296.121C72.6474 296.121 71.9235 291.906 69.6656 283.893C69.01 281.567 69.2589 281.117 70.5327 282.32C71.5136 283.248 73.0752 288.011 74.0009 292.904C74.9265 297.799 77.134 303.255 78.9055 305.031C82.115 308.247 82.1264 308.234 82.1264 301.374C82.1264 297.588 81.3944 294.491 80.4997 294.491C79.605 294.491 78.873 293.447 78.873 292.171C78.873 290.894 77.0966 287.734 74.9265 285.149C70.9816 280.452 55.7928 274.476 43.0847 272.623C39.9532 272.166 35.7432 271.312 33.7309 270.723C31.7186 270.136 30.0707 270.144 30.0707 270.741ZM96.7671 279.817C95.425 280.686 94.693 281.417 95.1404 281.441C95.5877 281.464 99.4317 282.54 103.681 283.833C112.735 286.587 114.087 284.244 105.516 280.654C98.6102 277.763 99.7684 277.874 96.7671 279.817ZM161.837 285.524C161.837 286.869 161.204 287.969 160.431 287.969C158.183 287.969 150.45 296.351 150.45 298.788C150.45 305.249 160.975 296.242 162.616 288.377C163.224 285.463 163.298 283.078 162.779 283.078C162.261 283.078 161.837 284.179 161.837 285.524ZM83.4766 289.652C82.1508 293.043 84.7748 308.914 87.1319 311.761C90.387 315.69 91.7323 314.286 90.0096 308.756C89.1035 305.843 87.4817 299.789 86.408 295.306C85.2205 290.351 84.0704 288.134 83.4766 289.652ZM134.182 295.21C134.182 297.399 134.914 299.642 135.809 300.197C136.757 300.785 137.436 299.127 137.436 296.217C137.436 293.475 136.704 291.23 135.809 291.23C134.914 291.23 134.182 293.02 134.182 295.21ZM96.214 300.507C94.1204 304.564 93.9398 306.643 95.3339 310.647C97.2925 316.282 98.6687 316.838 101.675 313.207C103.334 311.202 103.261 309.263 101.288 303.066L98.8477 295.404L96.214 300.507ZM54.2457 307.525C56.3572 309.323 59.4692 310.794 61.1594 310.794C65.6345 310.794 64.922 313.818 60.1654 315.015C57.7286 315.628 56.0986 317.205 56.0986 318.947C56.0986 322.011 57.8083 322.053 79.2796 319.526C88.217 318.475 89.4289 320.643 82.8178 325.854C78.7802 329.038 74.7492 336.55 76.2653 338.07C77.526 339.333 83.7532 336.751 83.7532 334.966C83.7532 334.033 82.6551 333.692 81.3131 334.209C79.971 334.724 78.873 334.512 78.873 333.736C78.873 332.113 88.8709 323.025 92.1358 321.682C93.8113 320.994 93.5852 320.182 91.1695 318.233C87.9485 315.635 73.9439 314.648 71.7316 316.864C71.0858 317.513 67.8518 318.17 64.5479 318.326L58.5387 318.608L63.4189 316.406C66.103 315.193 71.8991 314.169 76.2978 314.128C80.6965 314.087 83.7939 313.553 83.1806 312.938C81.0837 310.836 69.9324 307.582 64.7447 307.558C61.8947 307.545 57.5025 306.796 54.9843 305.895L50.405 304.255L54.2457 307.525ZM147.196 308.653C147.196 309.213 148.912 311.942 151.009 314.717C153.108 317.492 155.245 320.861 155.761 322.207C156.535 324.223 156.722 324.176 156.828 321.933C156.898 320.436 157.391 317.868 157.923 316.226C158.595 314.153 158.435 313.872 157.402 315.309C156.283 316.864 155.379 316.378 153.766 313.357C151.772 309.623 147.196 306.346 147.196 308.653ZM158.718 309.759C159.092 310.085 161.227 311.226 163.463 312.294C167.298 314.123 167.35 314.091 164.373 311.699C161.781 309.619 156.486 307.801 158.718 309.759ZM122.185 315.356C121.744 316.072 121.913 317.518 122.562 318.569C123.211 319.622 123.299 325.456 122.756 331.534C122.214 337.613 121.907 344.787 122.073 347.477C122.239 350.167 122.47 353.969 122.585 355.927C122.821 359.92 128.37 362.489 131.413 360.013C140.517 352.604 146.506 350.769 161.837 350.684C179.939 350.584 186.238 349.124 186.238 345.03C186.238 341.826 183.141 340.14 177.253 340.14C175.144 340.14 172.964 339.407 172.411 338.51C171.857 337.613 169.608 336.88 167.412 336.88C165.215 336.88 161.942 335.963 160.138 334.842C157.501 333.203 156.602 333.215 155.558 334.897C154.842 336.048 153.129 336.557 151.749 336.025C150.267 335.456 148.828 336.146 148.227 337.713C147.56 339.454 146.137 340.023 144.084 339.371C140.212 338.138 129.744 346.84 128.998 351.912C128.718 353.816 127.574 355.676 126.455 356.045C124.054 356.837 123.722 338.797 125.928 327.357C126.678 323.464 126.927 318.877 126.481 317.167C125.642 313.949 123.587 313.083 122.185 315.356ZM104.901 317.123C104.901 318.02 105.633 319.207 106.528 319.761C107.422 320.315 108.154 320.035 108.154 319.138C108.154 318.242 107.422 317.055 106.528 316.5C105.633 315.946 104.901 316.226 104.901 317.123ZM89.9673 327.505C89.6062 330.049 88.5212 331.014 86.4275 330.655C84.5779 330.337 83.6718 330.929 84.0883 332.183C85.3815 336.068 87.8314 335.187 91.4948 329.522C94.2928 325.193 94.6117 323.837 92.8288 323.837C91.5404 323.837 90.252 325.487 89.9673 327.505ZM168.344 343.483C168.344 347.123 174.93 348.801 180.657 346.619C186.256 344.485 184.912 343.178 175.68 341.772C169.377 340.814 168.344 341.055 168.344 343.483ZM139.062 344.216C137.912 345.605 137.338 347.107 137.785 347.555C138.233 348.004 139.539 347.236 140.689 345.847C141.839 344.458 142.413 342.956 141.966 342.508C141.519 342.059 140.212 342.827 139.062 344.216ZM151.263 346.662C150.71 347.559 151.034 348.292 151.98 348.292C152.927 348.292 153.703 347.559 153.703 346.662C153.703 345.765 153.381 345.031 152.986 345.031C152.59 345.031 151.816 345.765 151.263 346.662ZM156.957 346.662C156.957 347.559 157.732 348.292 158.679 348.292C159.626 348.292 159.95 347.559 159.397 346.662C158.844 345.765 158.069 345.031 157.674 345.031C157.279 345.031 156.957 345.765 156.957 346.662ZM90.958 358.26C90.958 360.104 92.0983 361.335 93.8113 361.335C95.6105 361.335 96.3376 360.477 95.7764 359.015C94.3807 355.368 90.958 354.832 90.958 358.26ZM103.274 358.94C103.274 361.578 105.817 362.178 107.235 359.876C107.731 359.072 107.042 357.996 105.704 357.481C104.229 356.914 103.274 357.486 103.274 358.94ZM75.0501 360.463C73.3941 361.72 72.488 363.476 73.0362 364.364C73.5844 365.253 72.7418 366.316 71.1655 366.728C68.9287 367.313 69.0816 367.519 71.8633 367.667C73.8236 367.772 75.8798 367.123 76.4328 366.226C76.9859 365.329 76.6199 364.596 75.6195 364.596C74.619 364.596 74.253 363.862 74.8061 362.965C75.3592 362.069 77.2316 361.335 78.9689 361.335C80.7063 361.335 82.1264 360.601 82.1264 359.705C82.1264 357.396 78.5915 357.774 75.0501 360.463ZM121.168 393.127C121.168 395.369 121.9 397.203 122.795 397.203C123.69 397.203 124.422 395.369 124.422 393.127C124.422 390.885 123.69 389.051 122.795 389.051C121.9 389.051 121.168 390.885 121.168 393.127Z" fill="#005D04"></path>
  <line x1="129.569" y1="226.437" x2="99.569" y2="217.437" stroke="#E80000" stroke-width="3" stroke-dasharray="5 5"></line>
</svg>
