<?xml version="1.0" encoding="UTF-8"?>
<svg xmlns="http://www.w3.org/2000/svg" width="400" height="400" viewBox="0 0 400 400" fill="none">
  <g clip-path="url(#clip0_206_8)">
    <path d="M102.88 6.66H111V18.6H112.52V22.8H111.12V20H101.68V22.8H100.28V18.6C100.733 18.6133 101.147 18.4533 101.52 18.12C101.893 17.7733 102.187 17.3333 102.4 16.8C102.72 15.9867 102.88 14.82 102.88 13.3V6.66ZM104.36 8.06V13.3C104.36 14.94 104.2 16.18 103.88 17.02C103.653 17.62 103.313 18.1467 102.86 18.6H109.52V8.06H104.36ZM120.433 11.7V20H118.993V13.02H116.033V16.76C116.033 17.84 115.82 18.64 115.393 19.16C114.913 19.7467 114.246 20.04 113.393 20.04C113.286 20.04 113.14 20.0267 112.953 20V18.68C113.086 18.7067 113.193 18.72 113.273 18.72C113.74 18.72 114.086 18.54 114.313 18.18C114.5 17.8867 114.593 17.4133 114.593 16.76V11.7H120.433ZM122.197 20L124.777 16.58C124.697 16.58 124.584 16.5667 124.437 16.54C124.304 16.5133 124.104 16.4467 123.837 16.34C123.57 16.2333 123.35 16.0933 123.177 15.92C122.737 15.5067 122.517 14.9533 122.517 14.26C122.517 13.4733 122.764 12.8533 123.257 12.4C123.75 11.9333 124.564 11.7 125.697 11.7H128.597V20H127.157V16.66H126.277L123.917 20H122.197ZM127.157 15.46V12.98H125.817C125.19 12.98 124.757 13.0533 124.517 13.2C124.17 13.4267 123.997 13.7667 123.997 14.22C123.997 14.6733 124.17 15.0067 124.517 15.22C124.77 15.38 125.197 15.46 125.797 15.46H127.157ZM141.429 13.02H138.829V20H137.389V13.02H134.789V11.7H141.429V13.02ZM148.907 17.22L150.107 17.88C149.827 18.4133 149.487 18.86 149.087 19.22C148.327 19.9 147.407 20.24 146.327 20.24C145.207 20.24 144.24 19.88 143.427 19.16C142.627 18.4267 142.227 17.34 142.227 15.9C142.227 14.6333 142.587 13.5867 143.307 12.76C144.04 11.92 145.02 11.5 146.247 11.5C147.633 11.5 148.68 12.0067 149.387 13.02C149.947 13.82 150.207 14.86 150.167 16.14H143.707C143.72 16.98 143.98 17.66 144.487 18.18C144.993 18.7 145.613 18.96 146.347 18.96C147 18.96 147.567 18.76 148.047 18.36C148.42 18.04 148.707 17.66 148.907 17.22ZM143.807 14.94H148.687C148.567 14.2867 148.28 13.7667 147.827 13.38C147.387 12.98 146.86 12.78 146.247 12.78C145.647 12.78 145.113 12.9867 144.647 13.4C144.193 13.8 143.913 14.3133 143.807 14.94ZM152.376 11.7H159.056V20H157.616V13.02H153.816V20H152.376V11.7ZM168.05 11.7V20H166.61V13.02H163.65V16.76C163.65 17.84 163.437 18.64 163.01 19.16C162.53 19.7467 161.863 20.04 161.01 20.04C160.903 20.04 160.757 20.0267 160.57 20V18.68C160.703 18.7067 160.81 18.72 160.89 18.72C161.357 18.72 161.703 18.54 161.93 18.18C162.117 17.8867 162.21 17.4133 162.21 16.76V11.7H168.05ZM170.774 11.7H172.214V17.18L177.894 11.06V20H176.454V14.46L170.774 20.58V11.7ZM185.058 20V16.74C184.271 16.86 183.618 16.92 183.098 16.92C182.191 16.92 181.518 16.72 181.078 16.32C180.611 15.9067 180.378 15.2267 180.378 14.28V11.7H181.818V14.08C181.818 14.5333 181.878 14.86 181.998 15.06C182.184 15.42 182.604 15.6 183.258 15.6C183.844 15.6 184.444 15.54 185.058 15.42V11.7H186.498V20H185.058ZM189.212 20V11.7H190.652V15.1H194.572V11.7H196.012V20H194.572V16.42H190.652V20H189.212ZM198.723 20V11.7H200.163V14.88H201.643C202.79 14.88 203.63 15.1533 204.163 15.7C204.59 16.1267 204.803 16.7067 204.803 17.44C204.803 18.2133 204.557 18.8333 204.063 19.3C203.57 19.7667 202.757 20 201.623 20H198.723ZM200.163 18.72H201.503C202.103 18.72 202.53 18.6467 202.783 18.5C203.143 18.26 203.323 17.9067 203.323 17.44C203.323 16.96 203.15 16.6133 202.803 16.4C202.563 16.24 202.137 16.16 201.523 16.16H200.163V18.72ZM205.803 20V11.7H207.243V20H205.803ZM208.754 20L212.294 15.56L209.274 11.7H211.034L213.174 14.52L215.354 11.7H217.114L214.074 15.58L217.514 20H215.754L213.134 16.62L210.514 20H208.754ZM229.144 13.02H226.544V20H225.104V13.02H222.504V11.7H229.144V13.02ZM237.482 19C236.655 19.8267 235.608 20.24 234.342 20.24C233.075 20.24 232.022 19.8267 231.182 19C230.355 18.1733 229.942 17.1333 229.942 15.88C229.942 14.6133 230.355 13.5667 231.182 12.74C232.022 11.9133 233.075 11.5 234.342 11.5C235.608 11.5 236.655 11.9133 237.482 12.74C238.322 13.5667 238.742 14.6133 238.742 15.88C238.742 17.1333 238.322 18.1733 237.482 19ZM236.402 13.6C235.842 13.0533 235.155 12.78 234.342 12.78C233.528 12.78 232.835 13.06 232.262 13.62C231.702 14.1667 231.422 14.92 231.422 15.88C231.422 16.84 231.708 17.5933 232.282 18.14C232.855 18.6867 233.542 18.96 234.342 18.96C235.142 18.96 235.828 18.6867 236.402 18.14C236.975 17.5933 237.262 16.84 237.262 15.88C237.262 14.9067 236.975 14.1467 236.402 13.6ZM239.99 20L241.99 11.06L245.43 17.82L248.79 11.06L250.79 20H249.31L248.21 14.86L245.39 20.58L242.53 14.86L241.47 20H239.99ZM258.911 12.88V11.7H260.351V20H258.911V18.84C258.191 19.7733 257.245 20.24 256.071 20.24C254.951 20.24 253.998 19.8533 253.211 19.08C252.425 18.3067 252.031 17.2267 252.031 15.84C252.031 14.48 252.418 13.42 253.191 12.66C253.978 11.8867 254.938 11.5 256.071 11.5C257.271 11.5 258.218 11.96 258.911 12.88ZM256.231 12.78C255.471 12.78 254.825 13.0533 254.291 13.6C253.771 14.1333 253.511 14.88 253.511 15.84C253.511 16.76 253.751 17.5133 254.231 18.1C254.725 18.6733 255.391 18.96 256.231 18.96C257.071 18.96 257.738 18.66 258.231 18.06C258.738 17.46 258.991 16.7267 258.991 15.86C258.991 14.8733 258.711 14.1133 258.151 13.58C257.591 13.0467 256.951 12.78 256.231 12.78ZM268.519 13.02H265.919V20H264.479V13.02H261.879V11.7H268.519V13.02ZM276.857 19C276.03 19.8267 274.983 20.24 273.717 20.24C272.45 20.24 271.397 19.8267 270.557 19C269.73 18.1733 269.317 17.1333 269.317 15.88C269.317 14.6133 269.73 13.5667 270.557 12.74C271.397 11.9133 272.45 11.5 273.717 11.5C274.983 11.5 276.03 11.9133 276.857 12.74C277.697 13.5667 278.117 14.6133 278.117 15.88C278.117 17.1333 277.697 18.1733 276.857 19ZM275.777 13.6C275.217 13.0533 274.53 12.78 273.717 12.78C272.903 12.78 272.21 13.06 271.637 13.62C271.077 14.1667 270.797 14.92 270.797 15.88C270.797 16.84 271.083 17.5933 271.657 18.14C272.23 18.6867 272.917 18.96 273.717 18.96C274.517 18.96 275.203 18.6867 275.777 18.14C276.35 17.5933 276.637 16.84 276.637 15.88C276.637 14.9067 276.35 14.1467 275.777 13.6ZM280.325 11.7H283.465C284.225 11.7 284.805 11.86 285.205 12.18C285.685 12.5667 285.925 13.0867 285.925 13.74C285.925 14.46 285.625 15.0133 285.025 15.4C285.438 15.5067 285.785 15.6933 286.065 15.96C286.505 16.3867 286.725 16.92 286.725 17.56C286.725 18.36 286.438 18.9867 285.865 19.44C285.372 19.8133 284.718 20 283.905 20H280.325V11.7ZM281.765 15.08H283.285C283.672 15.08 283.978 15 284.205 14.84C284.472 14.64 284.605 14.3533 284.605 13.98C284.605 13.6467 284.472 13.38 284.205 13.18C284.005 13.0467 283.618 12.98 283.045 12.98H281.765V15.08ZM281.765 18.72H283.545C284.158 18.72 284.592 18.6267 284.845 18.44C285.165 18.2 285.325 17.8933 285.325 17.52C285.325 17.12 285.185 16.8067 284.905 16.58C284.652 16.38 284.218 16.28 283.605 16.28H281.765V18.72ZM300.607 19C299.78 19.8267 298.733 20.24 297.467 20.24C296.2 20.24 295.147 19.8267 294.307 19C293.48 18.1733 293.067 17.1333 293.067 15.88C293.067 14.6133 293.48 13.5667 294.307 12.74C295.147 11.9133 296.2 11.5 297.467 11.5C298.733 11.5 299.78 11.9133 300.607 12.74C301.447 13.5667 301.867 14.6133 301.867 15.88C301.867 17.1333 301.447 18.1733 300.607 19ZM299.527 13.6C298.967 13.0533 298.28 12.78 297.467 12.78C296.653 12.78 295.96 13.06 295.387 13.62C294.827 14.1667 294.547 14.92 294.547 15.88C294.547 16.84 294.833 17.5933 295.407 18.14C295.98 18.6867 296.667 18.96 297.467 18.96C298.267 18.96 298.953 18.6867 299.527 18.14C300.1 17.5933 300.387 16.84 300.387 15.88C300.387 14.9067 300.1 14.1467 299.527 13.6ZM309.32 13.02H306.72V20H305.28V13.02H302.68V11.7H309.32V13.02ZM317.233 6H318.833C318.686 6.49333 318.433 6.91333 318.073 7.26C317.726 7.59333 317.406 7.82 317.113 7.94C316.833 8.06 316.499 8.16667 316.113 8.26C316.046 8.27333 315.886 8.31333 315.633 8.38C315.379 8.43333 315.186 8.48 315.053 8.52C314.919 8.56 314.746 8.61333 314.533 8.68C314.319 8.74667 314.126 8.82667 313.953 8.92C313.779 9.01333 313.619 9.11333 313.473 9.22C312.966 9.60667 312.553 10.1467 312.233 10.84C311.926 11.52 311.759 12.2467 311.733 13.02H311.773C312.373 12.0067 313.379 11.5 314.793 11.5C316.033 11.5 317.059 11.92 317.873 12.76C318.699 13.6 319.113 14.64 319.113 15.88C319.113 17.1333 318.693 18.1733 317.853 19C317.013 19.8267 315.919 20.24 314.573 20.24C313.413 20.24 312.459 19.8933 311.713 19.2C310.779 18.3467 310.313 16.92 310.313 14.92C310.313 11.44 311.099 9.16 312.673 8.08C312.793 8 312.919 7.92667 313.053 7.86C313.186 7.78 313.326 7.71333 313.473 7.66C313.633 7.59333 313.766 7.54 313.873 7.5C313.979 7.44667 314.126 7.4 314.313 7.36C314.513 7.30667 314.646 7.27333 314.713 7.26C314.793 7.23333 314.939 7.2 315.153 7.16C315.379 7.10667 315.519 7.07333 315.573 7.06C316.106 6.94 316.493 6.8 316.733 6.64C316.973 6.46667 317.139 6.25333 317.233 6ZM316.773 13.6C316.213 13.0533 315.526 12.78 314.713 12.78C313.899 12.78 313.206 13.06 312.633 13.62C312.073 14.1667 311.793 14.92 311.793 15.88C311.793 16.84 312.079 17.5933 312.653 18.14C313.226 18.6867 313.913 18.96 314.713 18.96C315.513 18.96 316.199 18.6867 316.773 18.14C317.346 17.5933 317.633 16.84 317.633 15.88C317.633 14.9067 317.346 14.1467 316.773 13.6ZM321.321 11.7H322.761V17.18L328.441 11.06V20H327.001V14.46L321.321 20.58V11.7ZM332.605 18.84V24.6H331.165V11.7H332.605V12.86C333.338 11.9533 334.285 11.5 335.445 11.5C336.685 11.5 337.665 11.94 338.385 12.82C339.118 13.6867 339.485 14.7133 339.485 15.9C339.485 17.1 339.125 18.1267 338.405 18.98C337.685 19.82 336.718 20.24 335.505 20.24C334.291 20.24 333.325 19.7733 332.605 18.84ZM335.305 18.96C336.118 18.96 336.771 18.6667 337.265 18.08C337.758 17.48 338.005 16.7533 338.005 15.9C338.005 14.94 337.731 14.18 337.185 13.62C336.638 13.06 336.005 12.78 335.285 12.78C334.565 12.78 333.925 13.06 333.365 13.62C332.805 14.18 332.525 14.9333 332.525 15.88C332.525 16.7467 332.778 17.48 333.285 18.08C333.805 18.6667 334.478 18.96 335.305 18.96ZM348.052 12.88V11.7H349.492V20H348.052V18.84C347.332 19.7733 346.385 20.24 345.212 20.24C344.092 20.24 343.139 19.8533 342.352 19.08C341.565 18.3067 341.172 17.2267 341.172 15.84C341.172 14.48 341.559 13.42 342.332 12.66C343.119 11.8867 344.079 11.5 345.212 11.5C346.412 11.5 347.359 11.96 348.052 12.88ZM345.372 12.78C344.612 12.78 343.965 13.0533 343.432 13.6C342.912 14.1333 342.652 14.88 342.652 15.84C342.652 16.76 342.892 17.5133 343.372 18.1C343.865 18.6733 344.532 18.96 345.372 18.96C346.212 18.96 346.879 18.66 347.372 18.06C347.879 17.46 348.132 16.7267 348.132 15.86C348.132 14.8733 347.852 14.1133 347.292 13.58C346.732 13.0467 346.092 12.78 345.372 12.78ZM358.379 17.22L359.579 17.88C359.299 18.4133 358.959 18.86 358.559 19.22C357.799 19.9 356.879 20.24 355.799 20.24C354.679 20.24 353.713 19.88 352.899 19.16C352.099 18.4267 351.699 17.34 351.699 15.9C351.699 14.6333 352.059 13.5867 352.779 12.76C353.513 11.92 354.493 11.5 355.719 11.5C357.106 11.5 358.153 12.0067 358.859 13.02C359.419 13.82 359.679 14.86 359.639 16.14H353.179C353.193 16.98 353.453 17.66 353.959 18.18C354.466 18.7 355.086 18.96 355.819 18.96C356.473 18.96 357.039 18.76 357.519 18.36C357.893 18.04 358.179 17.66 358.379 17.22ZM353.279 14.94H358.159C358.039 14.2867 357.753 13.7667 357.299 13.38C356.859 12.98 356.333 12.78 355.719 12.78C355.119 12.78 354.586 12.9867 354.119 13.4C353.666 13.8 353.386 14.3133 353.279 14.94ZM367.288 13.02H364.688V20H363.248V13.02H360.648V11.7H367.288V13.02ZM375.106 12.3V14.02C374.453 13.1933 373.586 12.78 372.506 12.78C371.693 12.78 370.999 13.06 370.426 13.62C369.853 14.1667 369.566 14.92 369.566 15.88C369.566 16.84 369.853 17.5933 370.426 18.14C370.999 18.6867 371.686 18.96 372.486 18.96C373.553 18.96 374.446 18.5267 375.166 17.66V19.38C374.379 19.9533 373.499 20.24 372.526 20.24C371.233 20.24 370.166 19.8333 369.326 19.02C368.499 18.1933 368.086 17.1533 368.086 15.9C368.086 14.6333 368.506 13.5867 369.346 12.76C370.186 11.92 371.246 11.5 372.526 11.5C373.486 11.5 374.346 11.7667 375.106 12.3ZM376.416 20L378.996 16.58C378.916 16.58 378.802 16.5667 378.656 16.54C378.522 16.5133 378.322 16.4467 378.056 16.34C377.789 16.2333 377.569 16.0933 377.396 15.92C376.956 15.5067 376.736 14.9533 376.736 14.26C376.736 13.4733 376.982 12.8533 377.476 12.4C377.969 11.9333 378.782 11.7 379.916 11.7H382.816V20H381.376V16.66H380.496L378.136 20H376.416ZM381.376 15.46V12.98H380.036C379.409 12.98 378.976 13.0533 378.736 13.2C378.389 13.4267 378.216 13.7667 378.216 14.22C378.216 14.6733 378.389 15.0067 378.736 15.22C378.989 15.38 379.416 15.46 380.016 15.46H381.376ZM101.36 37.7H102.8V41.1L106.16 37.7H107.92L104.32 41.4L108.36 46H106.48L103.24 42.36L102.8 42.78V46H101.36V37.7ZM111.238 44.84V50.6H109.798V37.7H111.238V38.86C111.971 37.9533 112.918 37.5 114.078 37.5C115.318 37.5 116.298 37.94 117.018 38.82C117.751 39.6867 118.118 40.7133 118.118 41.9C118.118 43.1 117.758 44.1267 117.038 44.98C116.318 45.82 115.351 46.24 114.138 46.24C112.924 46.24 111.958 45.7733 111.238 44.84ZM113.938 44.96C114.751 44.96 115.404 44.6667 115.898 44.08C116.391 43.48 116.638 42.7533 116.638 41.9C116.638 40.94 116.364 40.18 115.818 39.62C115.271 39.06 114.638 38.78 113.918 38.78C113.198 38.78 112.558 39.06 111.998 39.62C111.438 40.18 111.158 40.9333 111.158 41.88C111.158 42.7467 111.411 43.48 111.918 44.08C112.438 44.6667 113.111 44.96 113.938 44.96ZM126.685 38.88V37.7H128.125V46H126.685V44.84C125.965 45.7733 125.018 46.24 123.845 46.24C122.725 46.24 121.772 45.8533 120.985 45.08C120.198 44.3067 119.805 43.2267 119.805 41.84C119.805 40.48 120.192 39.42 120.965 38.66C121.752 37.8867 122.712 37.5 123.845 37.5C125.045 37.5 125.992 37.96 126.685 38.88ZM124.005 38.78C123.245 38.78 122.598 39.0533 122.065 39.6C121.545 40.1333 121.285 40.88 121.285 41.84C121.285 42.76 121.525 43.5133 122.005 44.1C122.498 44.6733 123.165 44.96 124.005 44.96C124.845 44.96 125.512 44.66 126.005 44.06C126.512 43.46 126.765 42.7267 126.765 41.86C126.765 40.8733 126.485 40.1133 125.925 39.58C125.365 39.0467 124.725 38.78 124.005 38.78ZM130.852 37.7H132.292V43.18L137.972 37.06V46H136.532V40.46L130.852 46.58V37.7ZM131.572 34.12L132.772 33.66C133.012 34.46 133.579 34.86 134.472 34.86C135.366 34.86 135.932 34.46 136.172 33.66L137.372 34.12C137.159 34.72 136.792 35.1933 136.272 35.54C135.766 35.8867 135.166 36.06 134.472 36.06C133.779 36.06 133.172 35.8867 132.652 35.54C132.146 35.1933 131.786 34.72 131.572 34.12ZM140.696 46V37.7H142.136V41.1H146.056V37.7H147.496V46H146.056V42.42H142.136V46H140.696ZM150.208 37.7H151.648V43.18L157.328 37.06V46H155.888V40.46L150.208 46.58V37.7ZM160.051 37.7H161.491V43.18L167.171 37.06V46H165.731V40.46L160.051 46.58V37.7ZM160.771 34.12L161.971 33.66C162.211 34.46 162.778 34.86 163.671 34.86C164.565 34.86 165.131 34.46 165.371 33.66L166.571 34.12C166.358 34.72 165.991 35.1933 165.471 35.54C164.965 35.8867 164.365 36.06 163.671 36.06C162.978 36.06 162.371 35.8867 161.851 35.54C161.345 35.1933 160.985 34.72 160.771 34.12ZM180.843 37.7V46H179.403V39.02H176.443V42.76C176.443 43.84 176.23 44.64 175.803 45.16C175.323 45.7467 174.656 46.04 173.803 46.04C173.696 46.04 173.55 46.0267 173.363 46V44.68C173.496 44.7067 173.603 44.72 173.683 44.72C174.15 44.72 174.496 44.54 174.723 44.18C174.91 43.8867 175.003 43.4133 175.003 42.76V37.7H180.843ZM183.567 37.7H185.007V43.18L190.687 37.06V46H189.247V40.46L183.567 46.58V37.7ZM199.911 38.3V40.02C199.257 39.1933 198.391 38.78 197.311 38.78C196.497 38.78 195.804 39.06 195.231 39.62C194.657 40.1667 194.371 40.92 194.371 41.88C194.371 42.84 194.657 43.5933 195.231 44.14C195.804 44.6867 196.491 44.96 197.291 44.96C198.357 44.96 199.251 44.5267 199.971 43.66V45.38C199.184 45.9533 198.304 46.24 197.331 46.24C196.037 46.24 194.971 45.8333 194.131 45.02C193.304 44.1933 192.891 43.1533 192.891 41.9C192.891 40.6333 193.311 39.5867 194.151 38.76C194.991 37.92 196.051 37.5 197.331 37.5C198.291 37.5 199.151 37.7667 199.911 38.3ZM207.62 39.02H205.02V46H203.58V39.02H200.98V37.7H207.62V39.02ZM215.241 44.84V50.6H213.801V37.7H215.241V38.86C215.975 37.9533 216.921 37.5 218.081 37.5C219.321 37.5 220.301 37.94 221.021 38.82C221.755 39.6867 222.121 40.7133 222.121 41.9C222.121 43.1 221.761 44.1267 221.041 44.98C220.321 45.82 219.355 46.24 218.141 46.24C216.928 46.24 215.961 45.7733 215.241 44.84ZM217.941 44.96C218.755 44.96 219.408 44.6667 219.901 44.08C220.395 43.48 220.641 42.7533 220.641 41.9C220.641 40.94 220.368 40.18 219.821 39.62C219.275 39.06 218.641 38.78 217.921 38.78C217.201 38.78 216.561 39.06 216.001 39.62C215.441 40.18 215.161 40.9333 215.161 41.88C215.161 42.7467 215.415 43.48 215.921 44.08C216.441 44.6667 217.115 44.96 217.941 44.96ZM223.369 46L225.949 42.58C225.869 42.58 225.755 42.5667 225.609 42.54C225.475 42.5133 225.275 42.4467 225.009 42.34C224.742 42.2333 224.522 42.0933 224.349 41.92C223.909 41.5067 223.689 40.9533 223.689 40.26C223.689 39.4733 223.935 38.8533 224.429 38.4C224.922 37.9333 225.735 37.7 226.869 37.7H229.769V46H228.329V42.66H227.449L225.089 46H223.369ZM228.329 41.46V38.98H226.989C226.362 38.98 225.929 39.0533 225.689 39.2C225.342 39.4267 225.169 39.7667 225.169 40.22C225.169 40.6733 225.342 41.0067 225.689 41.22C225.942 41.38 226.369 41.46 226.969 41.46H228.329ZM233.093 37.7H238.933V44.68H240.173V48.2H238.853V46H232.533V48.2H231.213V44.68C231.906 44.6667 232.419 44.3067 232.753 43.6C232.979 43.1333 233.093 42.4 233.093 41.4V37.7ZM237.493 44.68V39.02H234.533V42.14C234.533 43.2467 234.199 44.0933 233.533 44.68H237.493ZM248.712 45C247.885 45.8267 246.839 46.24 245.572 46.24C244.305 46.24 243.252 45.8267 242.412 45C241.585 44.1733 241.172 43.1333 241.172 41.88C241.172 40.6133 241.585 39.5667 242.412 38.74C243.252 37.9133 244.305 37.5 245.572 37.5C246.839 37.5 247.885 37.9133 248.712 38.74C249.552 39.5667 249.972 40.6133 249.972 41.88C249.972 43.1333 249.552 44.1733 248.712 45ZM247.632 39.6C247.072 39.0533 246.385 38.78 245.572 38.78C244.759 38.78 244.065 39.06 243.492 39.62C242.932 40.1667 242.652 40.92 242.652 41.88C242.652 42.84 242.939 43.5933 243.512 44.14C244.085 44.6867 244.772 44.96 245.572 44.96C246.372 44.96 247.059 44.6867 247.632 44.14C248.205 43.5933 248.492 42.84 248.492 41.88C248.492 40.9067 248.205 40.1467 247.632 39.6ZM251.22 46L253.22 37.06L256.66 43.82L260.02 37.06L262.02 46H260.54L259.44 40.86L256.62 46.58L253.76 40.86L252.7 46H251.22ZM274.95 38.3V40.02C274.297 39.1933 273.43 38.78 272.35 38.78C271.537 38.78 270.843 39.06 270.27 39.62C269.697 40.1667 269.41 40.92 269.41 41.88C269.41 42.84 269.697 43.5933 270.27 44.14C270.843 44.6867 271.53 44.96 272.33 44.96C273.397 44.96 274.29 44.5267 275.01 43.66V45.38C274.223 45.9533 273.343 46.24 272.37 46.24C271.077 46.24 270.01 45.8333 269.17 45.02C268.343 44.1933 267.93 43.1533 267.93 41.9C267.93 40.6333 268.35 39.5867 269.19 38.76C270.03 37.92 271.09 37.5 272.37 37.5C273.33 37.5 274.19 37.7667 274.95 38.3ZM288.387 38.3V40.02C287.734 39.1933 286.867 38.78 285.787 38.78C284.974 38.78 284.281 39.06 283.707 39.62C283.134 40.1667 282.847 40.92 282.847 41.88C282.847 42.84 283.134 43.5933 283.707 44.14C284.281 44.6867 284.967 44.96 285.767 44.96C286.834 44.96 287.727 44.5267 288.447 43.66V45.38C287.661 45.9533 286.781 46.24 285.807 46.24C284.514 46.24 283.447 45.8333 282.607 45.02C281.781 44.1933 281.367 43.1533 281.367 41.9C281.367 40.6333 281.787 39.5867 282.627 38.76C283.467 37.92 284.527 37.5 285.807 37.5C286.767 37.5 287.627 37.7667 288.387 38.3ZM297.017 38.88V37.7H298.457V46H297.017V44.84C296.297 45.7733 295.35 46.24 294.177 46.24C293.057 46.24 292.104 45.8533 291.317 45.08C290.53 44.3067 290.137 43.2267 290.137 41.84C290.137 40.48 290.524 39.42 291.297 38.66C292.084 37.8867 293.044 37.5 294.177 37.5C295.377 37.5 296.324 37.96 297.017 38.88ZM294.337 38.78C293.577 38.78 292.93 39.0533 292.397 39.6C291.877 40.1333 291.617 40.88 291.617 41.84C291.617 42.76 291.857 43.5133 292.337 44.1C292.83 44.6733 293.497 44.96 294.337 44.96C295.177 44.96 295.844 44.66 296.337 44.06C296.844 43.46 297.097 42.7267 297.097 41.86C297.097 40.8733 296.817 40.1133 296.257 39.58C295.697 39.0467 295.057 38.78 294.337 38.78ZM300.224 46L302.224 37.06L305.664 43.82L309.024 37.06L311.024 46H309.544L308.444 40.86L305.624 46.58L302.764 40.86L301.704 46H300.224ZM319.806 45C318.979 45.8267 317.932 46.24 316.666 46.24C315.399 46.24 314.346 45.8267 313.506 45C312.679 44.1733 312.266 43.1333 312.266 41.88C312.266 40.6133 312.679 39.5667 313.506 38.74C314.346 37.9133 315.399 37.5 316.666 37.5C317.932 37.5 318.979 37.9133 319.806 38.74C320.646 39.5667 321.066 40.6133 321.066 41.88C321.066 43.1333 320.646 44.1733 319.806 45ZM318.726 39.6C318.166 39.0533 317.479 38.78 316.666 38.78C315.852 38.78 315.159 39.06 314.586 39.62C314.026 40.1667 313.746 40.92 313.746 41.88C313.746 42.84 314.032 43.5933 314.606 44.14C315.179 44.6867 315.866 44.96 316.666 44.96C317.466 44.96 318.152 44.6867 318.726 44.14C319.299 43.5933 319.586 42.84 319.586 41.88C319.586 40.9067 319.299 40.1467 318.726 39.6ZM323.274 37.7H324.714V43.18L330.394 37.06V46H328.954V40.46L323.274 46.58V37.7ZM323.994 34.12L325.194 33.66C325.434 34.46 326.001 34.86 326.894 34.86C327.787 34.86 328.354 34.46 328.594 33.66L329.794 34.12C329.581 34.72 329.214 35.1933 328.694 35.54C328.187 35.8867 327.587 36.06 326.894 36.06C326.201 36.06 325.594 35.8867 325.074 35.54C324.567 35.1933 324.207 34.72 323.994 34.12ZM101.36 63.7H108.04V72H106.6V65.02H102.8V72H101.36V63.7ZM117.775 71C116.948 71.8267 115.901 72.24 114.635 72.24C113.368 72.24 112.315 71.8267 111.475 71C110.648 70.1733 110.235 69.1333 110.235 67.88C110.235 66.6133 110.648 65.5667 111.475 64.74C112.315 63.9133 113.368 63.5 114.635 63.5C115.901 63.5 116.948 63.9133 117.775 64.74C118.615 65.5667 119.035 66.6133 119.035 67.88C119.035 69.1333 118.615 70.1733 117.775 71ZM116.695 65.6C116.135 65.0533 115.448 64.78 114.635 64.78C113.821 64.78 113.128 65.06 112.555 65.62C111.995 66.1667 111.715 66.92 111.715 67.88C111.715 68.84 112.001 69.5933 112.575 70.14C113.148 70.6867 113.835 70.96 114.635 70.96C115.435 70.96 116.121 70.6867 116.695 70.14C117.268 69.5933 117.555 68.84 117.555 67.88C117.555 66.9067 117.268 66.1467 116.695 65.6ZM127.743 64.3V66.02C127.089 65.1933 126.223 64.78 125.143 64.78C124.329 64.78 123.636 65.06 123.063 65.62C122.489 66.1667 122.203 66.92 122.203 67.88C122.203 68.84 122.489 69.5933 123.063 70.14C123.636 70.6867 124.323 70.96 125.123 70.96C126.189 70.96 127.083 70.5267 127.803 69.66V71.38C127.016 71.9533 126.136 72.24 125.163 72.24C123.869 72.24 122.803 71.8333 121.963 71.02C121.136 70.1933 120.723 69.1533 120.723 67.9C120.723 66.6333 121.143 65.5867 121.983 64.76C122.823 63.92 123.883 63.5 125.163 63.5C126.123 63.5 126.983 63.7667 127.743 64.3ZM136.292 63.7V72H134.852V65.02H131.892V68.76C131.892 69.84 131.679 70.64 131.252 71.16C130.772 71.7467 130.106 72.04 129.252 72.04C129.146 72.04 128.999 72.0267 128.812 72V70.68C128.946 70.7067 129.052 70.72 129.132 70.72C129.599 70.72 129.946 70.54 130.172 70.18C130.359 69.8867 130.452 69.4133 130.452 68.76V63.7H136.292ZM145.176 69.22L146.376 69.88C146.096 70.4133 145.756 70.86 145.356 71.22C144.596 71.9 143.676 72.24 142.596 72.24C141.476 72.24 140.51 71.88 139.696 71.16C138.896 70.4267 138.496 69.34 138.496 67.9C138.496 66.6333 138.856 65.5867 139.576 64.76C140.31 63.92 141.29 63.5 142.516 63.5C143.903 63.5 144.95 64.0067 145.656 65.02C146.216 65.82 146.476 66.86 146.436 68.14H139.976C139.99 68.98 140.25 69.66 140.756 70.18C141.263 70.7 141.883 70.96 142.616 70.96C143.27 70.96 143.836 70.76 144.316 70.36C144.69 70.04 144.976 69.66 145.176 69.22ZM140.076 66.94H144.956C144.836 66.2867 144.55 65.7667 144.096 65.38C143.656 64.98 143.13 64.78 142.516 64.78C141.916 64.78 141.383 64.9867 140.916 65.4C140.463 65.8 140.183 66.3133 140.076 66.94ZM149.245 63.7H155.085V70.68H156.325V74.2H155.005V72H148.685V74.2H147.365V70.68C148.058 70.6667 148.572 70.3067 148.905 69.6C149.132 69.1333 149.245 68.4 149.245 67.4V63.7ZM153.645 70.68V65.02H150.685V68.14C150.685 69.2467 150.352 70.0933 149.685 70.68H153.645ZM157.844 72V63.7H159.284V67.1H163.204V63.7H164.644V72H163.204V68.42H159.284V72H157.844ZM173.516 69.22L174.716 69.88C174.436 70.4133 174.096 70.86 173.696 71.22C172.936 71.9 172.016 72.24 170.936 72.24C169.816 72.24 168.849 71.88 168.036 71.16C167.236 70.4267 166.836 69.34 166.836 67.9C166.836 66.6333 167.196 65.5867 167.916 64.76C168.649 63.92 169.629 63.5 170.856 63.5C172.243 63.5 173.289 64.0067 173.996 65.02C174.556 65.82 174.816 66.86 174.776 68.14H168.316C168.329 68.98 168.589 69.66 169.096 70.18C169.603 70.7 170.223 70.96 170.956 70.96C171.609 70.96 172.176 70.76 172.656 70.36C173.029 70.04 173.316 69.66 173.516 69.22ZM168.416 66.94H173.296C173.176 66.2867 172.889 65.7667 172.436 65.38C171.996 64.98 171.469 64.78 170.856 64.78C170.256 64.78 169.723 64.9867 169.256 65.4C168.803 65.8 168.523 66.3133 168.416 66.94ZM176.985 63.7H178.425V69.18L184.105 63.06V72H182.665V66.46L176.985 72.58V63.7ZM177.705 60.12L178.905 59.66C179.145 60.46 179.712 60.86 180.605 60.86C181.498 60.86 182.065 60.46 182.305 59.66L183.505 60.12C183.292 60.72 182.925 61.1933 182.405 61.54C181.898 61.8867 181.298 62.06 180.605 62.06C179.912 62.06 179.305 61.8867 178.785 61.54C178.278 61.1933 177.918 60.72 177.705 60.12ZM191.497 63.7H198.177V72H196.737V65.02H192.937V72H191.497V63.7ZM207.171 63.7V72H205.731V65.02H202.771V68.76C202.771 69.84 202.558 70.64 202.131 71.16C201.651 71.7467 200.985 72.04 200.131 72.04C200.025 72.04 199.878 72.0267 199.691 72V70.68C199.825 70.7067 199.931 70.72 200.011 70.72C200.478 70.72 200.825 70.54 201.051 70.18C201.238 69.8867 201.331 69.4133 201.331 68.76V63.7H207.171ZM216.915 71C216.088 71.8267 215.042 72.24 213.775 72.24C212.508 72.24 211.455 71.8267 210.615 71C209.788 70.1733 209.375 69.1333 209.375 67.88C209.375 66.6133 209.788 65.5667 210.615 64.74C211.455 63.9133 212.508 63.5 213.775 63.5C215.042 63.5 216.088 63.9133 216.915 64.74C217.755 65.5667 218.175 66.6133 218.175 67.88C218.175 69.1333 217.755 70.1733 216.915 71ZM215.835 65.6C215.275 65.0533 214.588 64.78 213.775 64.78C212.962 64.78 212.268 65.06 211.695 65.62C211.135 66.1667 210.855 66.92 210.855 67.88C210.855 68.84 211.142 69.5933 211.715 70.14C212.288 70.6867 212.975 70.96 213.775 70.96C214.575 70.96 215.262 70.6867 215.835 70.14C216.408 69.5933 216.695 68.84 216.695 67.88C216.695 66.9067 216.408 66.1467 215.835 65.6ZM220.983 63.7H226.823V70.68H228.063V74.2H226.743V72H220.423V74.2H219.103V70.68C219.797 70.6667 220.31 70.3067 220.643 69.6C220.87 69.1333 220.983 68.4 220.983 67.4V63.7ZM225.383 70.68V65.02H222.423V68.14C222.423 69.2467 222.09 70.0933 221.423 70.68H225.383ZM236.603 71C235.776 71.8267 234.729 72.24 233.463 72.24C232.196 72.24 231.143 71.8267 230.303 71C229.476 70.1733 229.063 69.1333 229.063 67.88C229.063 66.6133 229.476 65.5667 230.303 64.74C231.143 63.9133 232.196 63.5 233.463 63.5C234.729 63.5 235.776 63.9133 236.603 64.74C237.443 65.5667 237.863 66.6133 237.863 67.88C237.863 69.1333 237.443 70.1733 236.603 71ZM235.523 65.6C234.963 65.0533 234.276 64.78 233.463 64.78C232.649 64.78 231.956 65.06 231.383 65.62C230.823 66.1667 230.543 66.92 230.543 67.88C230.543 68.84 230.829 69.5933 231.403 70.14C231.976 70.6867 232.663 70.96 233.463 70.96C234.263 70.96 234.949 70.6867 235.523 70.14C236.096 69.5933 236.383 68.84 236.383 67.88C236.383 66.9067 236.096 66.1467 235.523 65.6ZM240.071 72V63.7H241.511V67.1H245.431V63.7H246.871V72H245.431V68.42H241.511V72H240.071ZM256.603 71C255.776 71.8267 254.729 72.24 253.463 72.24C252.196 72.24 251.143 71.8267 250.303 71C249.476 70.1733 249.063 69.1333 249.063 67.88C249.063 66.6133 249.476 65.5667 250.303 64.74C251.143 63.9133 252.196 63.5 253.463 63.5C254.729 63.5 255.776 63.9133 256.603 64.74C257.443 65.5667 257.863 66.6133 257.863 67.88C257.863 69.1333 257.443 70.1733 256.603 71ZM255.523 65.6C254.963 65.0533 254.276 64.78 253.463 64.78C252.649 64.78 251.956 65.06 251.383 65.62C250.823 66.1667 250.543 66.92 250.543 67.88C250.543 68.84 250.829 69.5933 251.403 70.14C251.976 70.6867 252.663 70.96 253.463 70.96C254.263 70.96 254.949 70.6867 255.523 70.14C256.096 69.5933 256.383 68.84 256.383 67.88C256.383 66.9067 256.096 66.1467 255.523 65.6ZM266.571 64.3V66.02C265.918 65.1933 265.051 64.78 263.971 64.78C263.158 64.78 262.464 65.06 261.891 65.62C261.318 66.1667 261.031 66.92 261.031 67.88C261.031 68.84 261.318 69.5933 261.891 70.14C262.464 70.6867 263.151 70.96 263.951 70.96C265.018 70.96 265.911 70.5267 266.631 69.66V71.38C265.844 71.9533 264.964 72.24 263.991 72.24C262.698 72.24 261.631 71.8333 260.791 71.02C259.964 70.1933 259.551 69.1533 259.551 67.9C259.551 66.6333 259.971 65.5867 260.811 64.76C261.651 63.92 262.711 63.5 263.991 63.5C264.951 63.5 265.811 63.7667 266.571 64.3ZM267.88 72L270.46 68.58C270.38 68.58 270.267 68.5667 270.12 68.54C269.987 68.5133 269.787 68.4467 269.52 68.34C269.254 68.2333 269.034 68.0933 268.86 67.92C268.42 67.5067 268.2 66.9533 268.2 66.26C268.2 65.4733 268.447 64.8533 268.94 64.4C269.434 63.9333 270.247 63.7 271.38 63.7H274.28V72H272.84V68.66H271.96L269.6 72H267.88ZM272.84 67.46V64.98H271.5C270.874 64.98 270.44 65.0533 270.2 65.2C269.854 65.4267 269.68 65.7667 269.68 66.22C269.68 66.6733 269.854 67.0067 270.2 67.22C270.454 67.38 270.88 67.46 271.48 67.46H272.84ZM277.005 72V63.7H278.445V70.68H281.645V63.7H283.085V70.68H286.285V63.7H287.725V70.68H289.085V74.2H287.765V72H277.005ZM296.758 69.22L297.958 69.88C297.678 70.4133 297.338 70.86 296.938 71.22C296.178 71.9 295.258 72.24 294.178 72.24C293.058 72.24 292.092 71.88 291.278 71.16C290.478 70.4267 290.078 69.34 290.078 67.9C290.078 66.6333 290.438 65.5867 291.158 64.76C291.892 63.92 292.872 63.5 294.098 63.5C295.485 63.5 296.532 64.0067 297.238 65.02C297.798 65.82 298.058 66.86 298.018 68.14H291.558C291.572 68.98 291.832 69.66 292.338 70.18C292.845 70.7 293.465 70.96 294.198 70.96C294.852 70.96 295.418 70.76 295.898 70.36C296.272 70.04 296.558 69.66 296.758 69.22ZM291.658 66.94H296.538C296.418 66.2867 296.132 65.7667 295.678 65.38C295.238 64.98 294.712 64.78 294.098 64.78C293.498 64.78 292.965 64.9867 292.498 65.4C292.045 65.8 291.765 66.3133 291.658 66.94ZM300.227 63.7H301.667V69.18L307.347 63.06V72H305.907V66.46L300.227 72.58V63.7ZM300.947 60.12L302.147 59.66C302.387 60.46 302.954 60.86 303.847 60.86C304.741 60.86 305.307 60.46 305.547 59.66L306.747 60.12C306.534 60.72 306.167 61.1933 305.647 61.54C305.141 61.8867 304.541 62.06 303.847 62.06C303.154 62.06 302.547 61.8867 302.027 61.54C301.521 61.1933 301.161 60.72 300.947 60.12ZM314.739 72V63.7H319.659V65.02H316.179V72H314.739ZM322.546 70.84V76.6H321.106V63.7H322.546V64.86C323.279 63.9533 324.226 63.5 325.386 63.5C326.626 63.5 327.606 63.94 328.326 64.82C329.059 65.6867 329.426 66.7133 329.426 67.9C329.426 69.1 329.066 70.1267 328.346 70.98C327.626 71.82 326.659 72.24 325.446 72.24C324.233 72.24 323.266 71.7733 322.546 70.84ZM325.246 70.96C326.059 70.96 326.713 70.6667 327.206 70.08C327.699 69.48 327.946 68.7533 327.946 67.9C327.946 66.94 327.673 66.18 327.126 65.62C326.579 65.06 325.946 64.78 325.226 64.78C324.506 64.78 323.866 65.06 323.306 65.62C322.746 66.18 322.466 66.9333 322.466 67.88C322.466 68.7467 322.719 69.48 323.226 70.08C323.746 70.6667 324.419 70.96 325.246 70.96ZM338.653 71C337.827 71.8267 336.78 72.24 335.513 72.24C334.247 72.24 333.193 71.8267 332.353 71C331.527 70.1733 331.113 69.1333 331.113 67.88C331.113 66.6133 331.527 65.5667 332.353 64.74C333.193 63.9133 334.247 63.5 335.513 63.5C336.78 63.5 337.827 63.9133 338.653 64.74C339.493 65.5667 339.913 66.6133 339.913 67.88C339.913 69.1333 339.493 70.1733 338.653 71ZM337.573 65.6C337.013 65.0533 336.327 64.78 335.513 64.78C334.7 64.78 334.007 65.06 333.433 65.62C332.873 66.1667 332.593 66.92 332.593 67.88C332.593 68.84 332.88 69.5933 333.453 70.14C334.027 70.6867 334.713 70.96 335.513 70.96C336.313 70.96 337 70.6867 337.573 70.14C338.147 69.5933 338.433 68.84 338.433 67.88C338.433 66.9067 338.147 66.1467 337.573 65.6ZM343.202 65.82L342.202 65C342.522 64.5333 342.875 64.1867 343.262 63.96C343.782 63.6533 344.388 63.5 345.082 63.5C345.922 63.5 346.575 63.6933 347.042 64.08C347.522 64.4933 347.762 65.02 347.762 65.66C347.762 66.4333 347.448 67.0133 346.822 67.4C347.222 67.4933 347.542 67.6733 347.782 67.94C348.168 68.3533 348.362 68.86 348.362 69.46C348.362 70.3533 348.002 71.0667 347.282 71.6C346.695 72.0267 345.908 72.24 344.922 72.24C344.042 72.24 343.302 72.0067 342.702 71.54C342.248 71.2067 341.882 70.7333 341.602 70.12L342.842 69.6C342.988 69.9733 343.235 70.2867 343.582 70.54C343.955 70.82 344.408 70.96 344.942 70.96C345.568 70.96 346.035 70.8533 346.342 70.64C346.728 70.3867 346.922 70 346.922 69.48C346.922 69.0533 346.755 68.7333 346.422 68.52C346.142 68.3333 345.688 68.24 345.062 68.24H344.222V66.92H344.922C345.428 66.92 345.788 66.8467 346.002 66.7C346.295 66.5133 346.442 66.26 346.442 65.94C346.442 65.5667 346.322 65.28 346.082 65.08C345.855 64.88 345.502 64.78 345.022 64.78C344.608 64.78 344.228 64.8867 343.882 65.1C343.588 65.2867 343.362 65.5267 343.202 65.82ZM351.159 63.7H356.999V70.68H358.239V74.2H356.919V72H350.599V74.2H349.279V70.68C349.973 70.6667 350.486 70.3067 350.819 69.6C351.046 69.1333 351.159 68.4 351.159 67.4V63.7ZM355.559 70.68V65.02H352.599V68.14C352.599 69.2467 352.266 70.0933 351.599 70.68H355.559ZM359.758 72V63.7H361.198V66.88H362.678C363.825 66.88 364.665 67.1533 365.198 67.7C365.625 68.1267 365.838 68.7067 365.838 69.44C365.838 70.2133 365.592 70.8333 365.098 71.3C364.605 71.7667 363.792 72 362.658 72H359.758ZM361.198 70.72H362.538C363.138 70.72 363.565 70.6467 363.818 70.5C364.178 70.26 364.358 69.9067 364.358 69.44C364.358 68.96 364.185 68.6133 363.838 68.4C363.598 68.24 363.172 68.16 362.558 68.16H361.198V70.72ZM369.206 67.1H370.706C370.84 66.1667 371.213 65.38 371.826 64.74C372.613 63.9133 373.66 63.5 374.966 63.5C376.246 63.5 377.3 63.9133 378.126 64.74C378.953 65.5667 379.366 66.6133 379.366 67.88C379.366 69.1333 378.946 70.1733 378.106 71C377.28 71.8267 376.233 72.24 374.966 72.24C373.513 72.24 372.373 71.72 371.546 70.68C371.013 70.0133 370.706 69.26 370.626 68.42H369.206V72H367.766V63.7H369.206V67.1ZM374.966 64.78C374.166 64.78 373.486 65.06 372.926 65.62C372.38 66.1667 372.106 66.92 372.106 67.88C372.106 68.8533 372.386 69.6133 372.946 70.16C373.506 70.6933 374.18 70.96 374.966 70.96C375.766 70.96 376.453 70.6867 377.026 70.14C377.6 69.5933 377.886 68.84 377.886 67.88C377.886 66.92 377.6 66.1667 377.026 65.62C376.466 65.06 375.78 64.78 374.966 64.78Z" fill="black"></path>
    <path fill-rule="evenodd" clip-rule="evenodd" d="M15.8883 53.2975C14.511 65.4308 19.2196 91.2714 24.1927 98.875C26.6828 102.682 26.5963 102.965 22.7642 103.509C16.4226 104.41 16.4949 110.964 22.9 115.708C27.7885 119.329 28.0054 119.93 25.6511 123.299C24.2438 125.311 23.0923 127.51 23.0923 128.185C23.0923 129.636 36.2975 134.865 44.6001 136.7L50.4268 137.99L45.5771 140.313C42.9107 141.592 40.7274 143.688 40.7274 144.97C40.7274 146.254 42.9107 147.821 45.5771 148.452C48.2436 149.085 52.0475 151.07 54.0279 152.865C56.5162 155.119 59.3784 155.874 63.2881 155.305C66.4025 154.853 71.2787 154.139 74.1268 153.718C78.3856 153.091 79.1087 153.48 78.2022 155.906C77.2464 158.465 77.4898 158.538 80.0574 156.446C81.6834 155.121 82.6304 153.416 82.1613 152.655C81.6922 151.895 82.4593 150.832 83.8648 150.293C87.5418 148.878 93.991 135.383 92.7935 131.604C92.2363 129.844 92.6401 126.138 93.6929 123.366C95.1937 119.409 95.0756 117.935 93.141 116.508C91.7848 115.506 90.2047 110.081 89.628 104.451C88.584 94.25 82.38 78.4721 79.412 78.4721C77.7896 78.4721 70.7073 92.7677 70.7073 96.0413C70.7073 99.9173 67.4518 97.6914 65.6812 92.6052C64.6672 89.6903 62.6832 87.3053 61.2724 87.3053C59.8616 87.3053 57.8583 84.8673 56.8213 81.8853C55.5234 78.1524 53.9538 76.633 51.7776 77.0023C49.8537 77.3291 45.7253 74.393 41.2089 69.4835C37.1334 65.0545 30.9928 59.9154 27.5628 58.0657C24.1345 56.216 21.3287 54.089 21.3287 53.3382C21.3287 51.5804 16.0876 51.5415 15.8883 53.2975ZM18.3519 68.314C19.6534 84.0759 22.0429 92.6193 26.6316 97.9193C31.2573 103.262 31.0651 104.972 25.8416 104.972C19.1473 104.972 18.3925 108.606 24.1309 113.206C26.9543 115.469 30.2098 117.324 31.3649 117.329C35.6538 117.347 35.4968 120.937 31.1339 122.597C22.5015 125.885 26.4112 129.279 44.1187 133.867C53.3631 136.262 54.8708 138.916 48.6104 141.774C43.7307 144 44.1927 147.371 49.3757 147.371C51.1075 147.371 53.8374 148.823 55.4404 150.599C58.5954 154.089 67.7252 153.913 72.2645 150.27C74.2097 148.71 73.4971 148.002 68.7374 146.77C65.4555 145.921 60.5882 145.196 57.9218 145.161C55.2553 145.126 53.0721 144.509 53.0721 143.79C53.0721 141.361 60.4524 140.529 64.7201 142.477C71.0988 145.389 71.4744 143.219 65.9705 135.245C62.6903 130.491 58.4331 127.042 53.4124 125.067C46.3248 122.281 45.4043 122.276 39.6852 125.009C31.4019 128.966 30.8306 128.705 36.6608 123.633C41.2089 119.675 41.38 119.094 38.7823 116.448C37.2269 114.863 32.8621 112.399 29.0829 110.969L22.2105 108.372L29.2046 109.473C33.2113 110.104 38.6976 112.773 42.0501 115.723C50.1041 122.806 54.9361 122.718 48.956 115.596C43.087 108.611 18.9304 60.8057 21.2688 60.8057C22.2722 60.8057 23.0923 61.4965 23.0923 62.341C23.0923 63.1872 27.9843 73.1563 33.9644 84.4963L44.8364 105.117L47.3018 98.4192C48.6562 94.7358 50.4426 89.7344 51.268 87.3053L52.7687 82.8887L52.8587 87.3053C52.9063 89.7344 51.8129 93.7094 50.4268 96.1385C46.6758 102.712 47.256 109.109 52.1197 114.778C54.5058 117.561 56.8213 119.472 57.2657 119.025C57.7101 118.58 58.8935 113.446 59.8934 107.618L61.7116 97.0218L60.8051 110.312C60.0292 121.719 60.3836 124.161 63.3058 127.537C65.1786 129.701 67.0162 131.473 67.3866 131.473C68.4676 131.478 66.0304 100.938 64.6143 96.7427C63.9054 94.6474 61.8138 92.5345 59.9639 92.0505C58.1122 91.5664 56.5991 89.851 56.5991 88.2381C56.5991 86.6251 55.772 83.7579 54.7615 81.8676C53.3119 79.154 52.2203 78.8042 49.5891 80.2158C46.9262 81.6432 46.0374 81.3182 45.1768 78.6011C43.8013 74.2605 30.4426 60.8057 27.5099 60.8057C26.2878 60.8057 24.3003 59.6133 23.0923 58.1558C18.5389 52.6598 17.2797 55.3574 18.3519 68.314ZM74.4883 91.0294C70.0918 101.627 69.3353 120.083 73.0881 125.224C75.1743 128.083 75.7633 125.998 77.8601 108.344C79.3891 95.4548 80.6447 89.7892 81.3448 92.6123C81.9479 95.0379 81.8069 99.322 81.0327 102.133C80.2585 104.945 79.1457 113.293 78.5584 120.682L77.4915 134.121L83.6973 127.632C87.4025 123.758 90.2435 121.979 90.7479 123.216C91.2117 124.355 91.6543 123.896 91.7301 122.196C91.806 120.497 91.1464 119.105 90.2629 119.105C89.3794 119.105 88.2542 114.534 87.764 108.947C86.4554 94.0362 84.8225 87.8583 81.3572 84.7172C78.4756 82.1043 78.0153 82.5283 74.4883 91.0294ZM83.4839 132.65C77.3839 139.516 77.301 142.546 83.3164 138.782C85.616 137.344 86.4943 137.246 85.7113 138.517C85.0305 139.619 82.5017 141.273 80.0927 142.191C75.4652 143.953 75.3241 147.896 79.8564 148.775C83.7026 149.524 88.48 141.295 88.935 133.144C89.1501 129.309 89.3018 126.175 89.2736 126.18C89.2471 126.185 86.6406 129.097 83.4839 132.65ZM7.22062 161.327C7.22062 167.466 11.0757 183.179 14.608 191.433C17.6642 198.575 17.7312 199.586 15.2605 201.396C13.7491 202.504 12.5112 203.886 12.5112 204.469C12.5112 206.857 22.5756 214.705 27.5011 216.157L32.7916 217.718L26.6193 217.886L20.447 218.054L25.7376 222.315C28.6474 224.66 33.4088 227.124 36.3186 227.792L41.6092 229.005L36.3186 230.61C33.4088 231.493 29.0565 233.874 26.6458 235.902L22.2634 239.591L26.6458 243.167C30.6102 246.4 32.7828 246.652 49.4427 245.811C63.997 245.077 68.3159 244.253 70.046 241.882C74.1955 236.197 76.1407 240.815 75.6204 255.108C75.3048 263.764 74.4566 268.513 73.3526 267.822C70.4446 266.002 66.6282 265.29 60.3854 265.403C53.3631 265.529 51.6542 266.789 54.557 269.696C56.1459 271.288 57.4861 271.331 59.8352 269.861C62.2071 268.377 64.4327 268.502 68.875 270.375C72.1163 271.739 74.2767 273.348 73.6753 273.95C73.0757 274.553 70.1518 274.035 67.1802 272.802C58.412 269.165 59.0857 272.175 67.9156 276.088C75.3647 279.39 76.0189 280.197 76.2764 286.395C76.4281 290.092 76.3929 294.311 76.1971 295.768C76.0014 297.226 75.922 303.07 76.019 308.757C76.2429 321.833 72.0299 322.022 71.1799 308.974C70.8713 304.224 69.882 299.883 68.9826 299.325C68.0832 298.768 66.8099 294.958 66.1557 290.857C64.8471 282.66 61.4823 281.095 58.2357 287.174C56.6256 290.188 55.9095 290.454 54.6733 288.499C53.8215 287.153 53.1144 283.566 53.0985 280.526C53.0668 273.758 48.8343 269.315 46.9597 274.081C45.9651 276.611 44.9387 275.684 41.6533 269.287C38.717 263.572 36.4174 261.266 33.4212 261.033C31.1357 260.856 22.9988 258.604 15.3399 256.026C5.19963 252.615 1.07122 251.903 0.143612 253.404C-1.18079 255.554 7.00015 276.821 10.5043 280.332C13.1495 282.982 13.0561 286.419 10.3068 287.538C8.74254 288.174 8.66313 288.857 10.0369 289.893C11.1003 290.695 14.5251 293.53 17.6448 296.191C23.0253 300.78 23.1752 301.234 20.5599 304.976C16.6995 310.497 17.0804 311.668 22.7396 311.668C25.4554 311.668 28.5451 312.537 29.6049 313.599C30.9981 314.995 32.5271 314.995 35.1318 313.599C37.1122 312.537 40.4418 311.668 42.5315 311.668C46.2402 311.668 46.219 311.802 41.6727 317.215C36.0189 323.946 35.9801 332.317 41.6092 331.428C43.5491 331.121 46.9209 330.914 49.1041 330.965C51.4179 331.022 53.0721 330.006 53.0721 328.531C53.0721 327.137 54.9238 323.842 57.1882 321.204L61.3042 316.412L68.8785 320.666L76.4528 324.918L75.3418 340.673C74.2555 356.088 72.8834 361.019 71.0935 355.956C68.0849 347.443 50.8765 340.372 46.7887 345.971C45.6653 347.51 43.3445 348.768 41.6286 348.768C39.9127 348.768 35.4686 351.52 31.7511 354.884L24.9933 361L31.0122 362.13C35.6644 363.005 38.3079 362.351 42.6567 359.249C47.8062 355.576 48.9472 355.414 56.1353 357.339C60.4542 358.496 66.69 361.509 69.9931 364.031L75.9978 368.619V384.311C75.9978 392.939 76.6327 400 77.4086 400C81.7186 400 83.0519 394.721 83.0519 377.664V359.567L88.3777 356.415C91.3069 354.682 93.3315 352.294 92.8765 351.107C92.4197 349.916 93.0316 349.326 94.2414 349.79C95.4476 350.255 99.7612 349.458 103.826 348.022C109.824 345.902 113 345.785 120.701 347.402C130.773 349.518 141.248 347.133 141.248 342.722C141.248 340.252 126.752 332.868 121.906 332.868C120.049 332.868 118.121 332.205 117.622 331.396C116.382 329.386 105.978 331.064 105.978 333.274C105.978 334.249 104.311 334.61 102.272 334.076C97.7225 332.884 86.5789 343.273 86.5789 348.709C86.5789 350.684 85.6954 352.301 84.6161 352.301C83.2159 352.301 83.0448 347.365 84.0183 335.076C84.7695 325.602 85.3744 315.746 85.3621 313.172C85.3445 309.594 86.8928 307.615 91.9312 304.78C95.5552 302.738 99.673 301.068 101.08 301.068C102.486 301.068 105.815 305.381 108.476 310.651C112.589 318.791 115.841 322.268 119.349 322.268C119.754 322.268 120.086 320.228 120.086 317.733C120.086 314 120.712 313.396 123.613 314.318C125.725 314.989 127.14 314.636 127.14 313.435C127.14 312.207 128.565 311.884 130.82 312.601C136.709 314.472 146.558 312.006 145.389 308.953C144.711 307.188 145.577 306.368 148.113 306.368C152.526 306.368 152.977 303.183 148.981 300.256C146.547 298.471 147.337 297.71 154.425 294.998C161.356 292.346 162.557 291.223 161.754 288.145C161.225 286.121 162.223 282.04 163.971 279.075C167.65 272.839 172.346 253.901 170.639 252.191C169.283 250.831 156.134 254.791 150.744 258.183C148.11 259.84 145.727 260.04 142.634 258.862C139.509 257.671 137.042 257.902 134.019 259.669C131.691 261.031 128.563 262.605 127.067 263.167C125.574 263.729 122.996 267.319 121.341 271.145C119.687 274.972 118.031 278.102 117.663 278.102C117.294 278.102 117.395 274.525 117.887 270.152C118.564 264.133 118.19 262.206 116.347 262.216C113.443 262.232 109.505 270.085 109.505 275.86C109.505 278.127 108.395 282.642 107.039 285.893C104.188 292.732 100.126 296.178 100.902 291.103C101.763 285.453 99.0064 278.102 96.026 278.102C93.67 278.102 93.3332 279.747 94.0087 287.91C94.6788 296.016 94.2784 298.01 91.6966 299.394C85.3621 302.791 84.6514 301.478 85.1822 287.377L85.6972 273.685L91.8695 273.18C100.237 272.495 107.741 269.343 107.741 266.513C107.741 263.766 94.0209 261.28 88.517 263.031C84.997 264.149 84.8207 263.616 84.9353 252.163C85.0252 243.027 85.4697 240.974 86.7764 243.663C89.1572 248.564 101.341 253.182 113.578 253.821C126.612 254.503 130.332 251.346 123.204 245.653L118.488 241.886L124.137 241.534C142.329 240.404 150.868 237.567 147.182 233.874C145.923 232.613 148.143 229.101 154.324 222.568C174.15 201.614 175.379 196.837 160.943 196.837C156.196 196.837 148.041 197.648 142.823 198.639C136.374 199.865 133.145 199.865 132.735 198.639C131.672 195.441 127.648 196.711 121.946 202.047C118.883 204.912 115.398 206.88 114.203 206.419C113.005 205.96 110.184 207.302 107.933 209.403C105.018 212.123 103.47 212.622 102.551 211.132C101.135 208.838 91.8695 221.455 91.8695 225.679C91.8695 228.267 86.0851 235.703 84.0712 235.703C83.4046 235.703 83.1013 231.926 83.3958 227.311C83.909 219.303 84.1559 218.946 88.7833 219.489C92.656 219.941 93.633 219.338 93.633 216.501C93.633 210.952 91.9347 210.433 70.2875 209.355C68.1131 209.247 66.8928 207.14 66.0869 202.098C64.863 194.42 62.3359 191.487 60.0891 195.13C59.1174 196.706 57.1317 194.597 53.6717 188.316C48.5769 179.066 46.018 176.939 46.018 181.958C46.018 183.826 43.0235 182.121 36.9306 176.782C31.9328 172.402 25.7834 168.304 23.2633 167.673C20.745 167.044 16.1052 164.562 12.9521 162.159C7.49574 158.001 7.22062 157.96 7.22062 161.327ZM10.1286 164.479C8.82715 165.783 14.5568 186.933 18.0944 193.879C21.4751 200.517 21.521 201.16 18.7523 203.188C16.0876 205.14 16.4773 205.841 22.4909 209.935C26.182 212.447 31.0263 214.503 33.2572 214.503C35.4863 214.503 37.7683 215.696 38.3255 217.153C39.4506 220.087 48.7126 220.815 50.3862 218.1C52.3807 214.869 44.4608 209.21 37.6413 208.995C34.0049 208.88 28.6474 208.127 25.7376 207.325C22.2828 206.371 24.392 206.211 31.8111 206.864L43.1752 207.862L40.0732 203.119C38.3661 200.51 34.0032 195.446 30.3774 191.865C22.3481 183.937 13.2854 172.06 15.3875 172.222C16.2304 172.288 22.0783 178.36 28.3828 185.714C34.6874 193.067 42.0042 201.561 44.6442 204.585L49.441 210.087L49.5203 200.37C49.575 193.576 50.0988 191.445 51.2627 193.289C52.1762 194.738 52.4583 197.791 51.887 200.071C50.753 204.592 54.4917 218.036 56.8813 218.036C57.6961 218.036 58.4191 216.247 58.4861 214.061C58.5549 211.876 59.3591 208.497 60.2743 206.553C61.4453 204.068 61.6516 205.771 60.9727 212.295C59.948 222.11 60.8281 223.508 64.8648 218.478C67.0885 215.708 67.2313 215.984 66.242 221.128C64.997 227.596 67.9262 229.138 69.5963 222.895C71.4515 215.959 70.8078 213.175 67.1291 212.212C65.1628 211.696 63.6691 210.609 63.8119 209.797C63.9547 208.984 63.9512 205.537 63.8066 202.137C63.5597 196.385 63.3657 196.185 61.0238 199.285C58.6184 202.465 58.4049 202.386 56.2993 197.519C52.9274 189.723 48.2294 184.006 47.3565 186.633C46.8874 188.041 43.2898 185.875 37.6289 180.776C29.4498 173.408 11.7105 162.896 10.1286 164.479ZM153.593 200.374C146.318 201.024 137.788 202.184 134.635 202.951C130.348 203.993 128.903 203.753 128.903 201.999C128.903 200.709 125.764 202.723 121.929 206.476C116.031 212.244 114.531 212.949 112.229 211.035C110.73 209.79 109.48 209.465 109.448 210.313C109.418 211.159 108.196 213.44 106.734 215.378C104.757 217.998 103.726 218.337 102.715 216.699C100.713 213.454 94.4566 222.711 93.1533 230.845C91.3228 242.264 96.2588 238.869 100.211 225.99L102.38 218.92L101.454 225.545C100.944 229.189 101.198 232.17 102.018 232.17C105.316 232.17 107.741 227.575 107.741 221.321C107.741 217.685 108.459 214.266 109.337 213.724C110.244 213.162 110.524 215.786 109.986 219.803C109.231 225.439 109.598 226.87 111.797 226.87C115.187 226.87 121.849 217.837 121.849 213.244C121.849 211.392 123.026 208.336 124.463 206.449C126.895 203.26 127.008 203.455 126.075 209.203C125.523 212.604 124.768 216.381 124.398 217.595C123.364 220.978 127.291 220.19 135.076 215.45C147.955 207.606 155.19 203.903 157.49 203.974C158.742 204.013 157.384 205.327 154.474 206.894C151.565 208.461 146.803 211.512 143.893 213.676C140.983 215.84 135.658 218.649 132.056 219.921C128.455 221.192 123.53 224.069 121.112 226.317C118.693 228.564 115.289 230.461 113.55 230.532C108.826 230.724 99.8053 236.517 99.8053 239.356C99.8053 240.722 102.186 243.008 105.096 244.439C109.297 246.502 109.734 247.174 107.217 247.698C105.473 248.062 101.302 246.264 97.9483 243.7C91.2734 238.6 86.1592 239.19 90.9612 244.506C94.7881 248.742 106.965 251.972 116.509 251.281L124.292 250.719L117.791 246.303C108.859 240.232 109.111 236.795 118.373 238.362C122.299 239.026 129.312 238.642 134.046 237.505C141.195 235.788 142.467 234.881 141.726 232.041C141.237 230.168 141.706 228.636 142.77 228.636C145.457 228.636 164.174 209.018 164.174 206.2C164.174 204.937 164.883 203.903 165.748 203.903C166.614 203.903 167.78 202.711 168.339 201.253C168.896 199.796 168.783 198.736 168.087 198.897C167.389 199.057 160.867 199.722 153.593 200.374ZM72.4708 213.516C72.4708 215.03 73.2644 216.27 74.2343 216.27C75.2043 216.27 75.9978 215.522 75.9978 214.607C75.9978 213.692 75.2043 212.454 74.2343 211.853C73.2644 211.253 72.4708 212.002 72.4708 213.516ZM78.927 223.778C78.4403 230.822 78.1528 242.549 78.2904 249.836C78.6678 269.882 78.5532 302.015 77.9836 336.401C77.7014 353.405 77.6485 373.677 77.8671 381.45L78.2622 395.583L79.6395 383.217C80.3978 376.415 80.5953 368.275 80.0786 365.128C79.3838 360.894 79.8775 359.12 81.9779 358.314C85.3074 357.034 85.8347 353.863 82.611 354.509C80.2373 354.984 80.2179 352.758 82.3888 328.451C83.0836 320.678 83.4187 311.138 83.1348 307.252C82.8509 303.365 82.5176 280.111 82.3941 255.577C82.1754 211.89 80.6923 198.292 78.927 223.778ZM87.7552 213.915C85.7253 215.946 86.4696 218.036 89.2242 218.036C90.6791 218.036 91.8695 216.844 91.8695 215.386C91.8695 212.627 89.7832 211.881 87.7552 213.915ZM71.3633 222.727C70.15 227.569 72.0493 232.323 75.6822 233.537C77.0771 234.002 77.7613 231.564 77.7613 226.133C77.7613 216.915 73.4002 214.591 71.3633 222.727ZM30.6154 222.098C30.9752 223.176 33.9908 224.725 37.3203 225.539C48.2488 228.216 48.9225 228.599 45.9686 230.47C44.5401 231.375 41.7256 232.127 39.7117 232.143C37.6995 232.157 34.1478 234.199 31.8234 236.68C25.7411 243.165 29.4497 244.829 47.7815 243.842C63.3498 243.003 68.9438 241.736 68.9438 239.047C68.9438 238.18 70.7285 237.445 72.9117 237.413C76.7809 237.358 76.7932 237.293 73.4566 234.763C69.1889 231.53 64.8524 231.475 58.7154 234.576C56.0966 235.899 49.1923 237.413 43.3727 237.941L32.7916 238.899L39.6076 236.439C43.3586 235.086 47.0673 234.378 47.8538 234.864C48.6386 235.349 52.9363 234.309 57.4033 232.551L65.5261 229.355L61.1349 225.223C57.4544 221.759 54.5781 221.013 43.3533 220.614C34.1513 220.287 30.1675 220.752 30.6154 222.098ZM120.542 231.449C122.484 233.394 137.721 234.063 137.721 232.205C137.721 231.212 133.626 230.403 128.609 230.403C123.599 230.403 119.968 230.875 120.542 231.449ZM1.93005 255.24C1.93005 256.268 2.80829 256.567 3.88227 255.903C5.19257 255.092 5.44827 255.913 4.65998 258.402C3.43434 262.268 7.46927 272.974 12.2854 278.639C13.7756 280.393 15.0436 283.971 15.1018 286.589C15.1829 290.181 15.9941 291.218 18.3995 290.802C20.1542 290.5 22.5544 291.055 23.7342 292.036C26.1661 294.057 40.7274 297.652 40.7274 296.231C40.7274 291.23 19.9726 269.223 11.6929 265.444C9.34037 264.37 6.9984 262.404 6.48874 261.073C5.14318 257.561 12.8656 262.741 26.1784 274.281L37.2004 283.833V275.215C37.2004 265.646 36.8406 265.342 18.6835 259.586C13.8338 258.049 8.48861 256.021 6.80445 255.079C2.89121 252.894 1.93005 252.926 1.93005 255.24ZM155.356 258.764C146.02 262.787 143.994 264.374 144.436 267.322C144.736 269.313 143.318 274.707 141.289 279.307L137.596 287.67L142.283 283.328C144.861 280.939 150.118 274.751 153.966 269.573C157.813 264.397 161.347 260.549 161.821 261.022C162.294 261.496 158.652 267.433 153.728 274.215C148.803 280.998 144.775 286.978 144.775 287.506C144.775 288.034 146.958 288.799 149.625 289.204C152.291 289.608 150.307 290.059 145.216 290.204C135.677 290.477 133.979 291.924 138.645 295.804C143.384 299.743 139.881 299.826 134.384 295.904C130.693 293.272 127.716 292.467 124.584 293.254C118.807 294.707 118.901 296.325 124.935 299.445C130.02 302.074 139.38 309.902 137.439 309.902C136.82 309.902 132.185 307.119 127.14 303.718C122.094 300.318 116.414 297.535 114.513 297.535C109.893 297.535 111.72 300.095 118.285 302.819C121.214 304.035 123.613 305.729 123.613 306.582C123.613 307.437 125.152 308.135 127.036 308.135C128.919 308.135 130.949 308.93 131.549 309.902C132.944 312.163 141.248 312.221 141.248 309.97C141.248 309.036 139.463 306.547 137.28 304.439L133.312 300.606L140.366 301.671C144.826 302.344 146.489 302.153 144.888 301.153C141.094 298.782 145.457 294.366 152.993 292.949C157.428 292.115 158.82 291.083 158.086 289.17C157.532 287.721 158.606 284.043 160.474 280.994C164.297 274.754 169.748 255.487 167.974 254.48C167.339 254.12 161.661 256.047 155.356 258.764ZM129.427 267.061C125.673 270.705 121.504 275.873 120.163 278.544C118.823 281.215 116.747 283.402 115.552 283.402C113.474 283.402 108.746 293.83 110.175 295.261C111.914 297.003 120.486 287.092 122.726 280.752C125.142 273.91 125.226 273.853 125.355 278.985C125.482 284.031 125.613 284.121 128.078 280.856C129.501 278.969 130.679 275.79 130.693 273.79C130.709 271.788 131.48 268.96 132.407 267.502C134.977 263.464 132.504 277.959 129.57 284.13C128.224 286.96 127.524 289.677 128.014 290.166C129.438 291.594 141.095 277.516 141.174 274.272C141.214 272.65 141.793 269.868 142.459 268.089C143.563 265.14 143.38 265.089 140.403 267.502C137.342 269.986 137.211 269.847 138.343 265.294C139.983 258.697 137.548 259.18 129.427 267.061ZM89.2242 267.502C88.5752 268.553 90.6756 269.269 94.4107 269.269C97.8619 269.269 100.687 268.474 100.687 267.502C100.687 266.531 98.3539 265.736 95.5005 265.736C92.6472 265.736 89.8238 266.531 89.2242 267.502ZM39.1808 278.102C39.1403 282.725 40.5264 288.638 42.491 292.235L45.8698 298.418L45.9704 293.118C46.0268 290.204 46.8063 286.656 47.7039 285.236C48.852 283.416 49.3052 284.773 49.2347 289.824C49.1183 298.397 50.8571 304.602 53.3789 304.602C54.4194 304.602 54.6787 303.264 53.9785 301.51C53.2996 299.809 52.312 293.846 51.7812 288.26C50.8394 278.325 48.7356 275.325 46.6053 280.883C45.8293 282.909 44.6883 281.833 42.3957 276.908L39.2496 270.152L39.1808 278.102ZM111.268 272.802C111.268 273.774 112.062 274.569 113.032 274.569C114.002 274.569 114.795 273.774 114.795 272.802C114.795 271.831 114.002 271.036 113.032 271.036C112.062 271.036 111.268 271.831 111.268 272.802ZM95.3965 285.948C95.3965 287.349 96.19 288.985 97.16 289.585C98.1299 290.186 98.9235 289.039 98.9235 287.039C98.9235 285.04 98.1299 283.402 97.16 283.402C96.19 283.402 95.3965 284.547 95.3965 285.948ZM58.927 291.456C55.7527 298.309 60.8263 310.613 64.4221 304.784C65.6425 302.807 63.5668 286.93 62.0907 286.949C61.4947 286.956 60.0715 288.985 58.927 291.456ZM19.9885 294.44C20.3835 295.657 22.8313 297.689 25.4272 298.957C31.1374 301.745 31.4972 304.156 26.316 304.92C19.7927 305.882 20.2953 309.924 26.9138 309.725C32.2837 309.564 32.4107 309.442 28.3828 308.301L23.974 307.052L28.3828 305.851C30.8077 305.19 36.3627 304.614 40.7274 304.57C48.0584 304.496 48.404 304.292 45.2703 301.918C43.4044 300.503 39.0397 298.911 35.5709 298.38C32.102 297.85 27.0161 296.247 24.2667 294.822C20.588 292.914 19.4594 292.813 19.9885 294.44ZM112.15 304.602C112.75 305.573 113.589 306.368 114.017 306.368C114.446 306.368 114.795 305.573 114.795 304.602C114.795 303.63 113.954 302.835 112.928 302.835C111.901 302.835 111.55 303.63 112.15 304.602ZM35.638 308.776C34.0226 310.725 34.4863 311.023 38.0663 310.336C40.4999 309.871 42.491 308.787 42.491 307.928C42.491 305.515 37.8653 306.086 35.638 308.776ZM46.8997 308.135C46.3001 309.107 47.0479 309.902 48.5592 309.902C52.5906 309.902 51.9999 311.251 45.1363 317.737C38.188 324.303 36.6414 331.379 42.491 329.847C44.4308 329.338 46.018 328.245 46.018 327.418C46.018 326.589 47.0496 326.308 48.3105 326.794C49.6808 327.321 51.8305 325.098 53.6505 321.275C55.8126 316.733 56.0436 315.09 54.4441 315.618C53.2043 316.026 51.9346 318.1 51.6242 320.224C51.2962 322.455 50.2522 323.589 49.1518 322.907C48.1042 322.259 46.1855 323.183 44.8876 324.96C43.5896 326.739 41.9742 327.639 41.2971 326.96C40.6199 326.282 43.3939 322.33 47.4606 318.178C53.2343 312.286 54.3894 310.161 52.73 308.499C50.1411 305.905 48.3441 305.794 46.8997 308.135ZM110.938 335.841C112.21 336.352 113.732 336.288 114.317 335.701C114.903 335.115 113.862 334.698 112.003 334.774C109.949 334.859 109.531 335.277 110.938 335.841ZM123.613 339.079C123.613 342.51 128.321 345.563 132.637 344.929C139.193 343.964 138.188 340.789 130.69 338.784C125.221 337.321 123.613 337.389 123.613 339.079ZM95.3965 340.818C94.1497 342.323 93.5272 343.95 94.0121 344.436C94.4971 344.922 95.9132 344.089 97.16 342.584C98.4068 341.079 99.0293 339.452 98.5443 338.966C98.0594 338.48 96.6433 339.312 95.3965 340.818ZM107.986 341.759C105.697 343.671 104.658 345.234 105.678 345.234C106.699 345.234 107.977 344.513 108.521 343.634C109.064 342.754 110.896 342.242 112.593 342.496C114.289 342.752 114.675 342.616 113.451 342.197C112.228 341.777 111.679 340.699 112.233 339.8C113.726 337.38 112.628 337.885 107.986 341.759ZM98.0417 345.234C96.287 347.178 95.5764 348.768 96.4616 348.768C97.3487 348.768 99.0664 347.178 100.278 345.234C101.489 343.291 102.2 341.701 101.856 341.701C101.514 341.701 99.7964 343.291 98.0417 345.234ZM51.3085 346.165C51.3085 348.064 57.0365 355.834 58.4367 355.834C59.2232 355.834 60.2302 354.444 60.6746 352.742C61.2601 350.497 61.537 350.78 61.6851 353.772C61.8015 356.108 62.7979 357.592 63.9847 357.196C67.965 355.866 67.242 352.933 62.3712 350.649C59.6818 349.388 56.0912 347.646 54.3947 346.78C52.6982 345.913 51.3085 345.637 51.3085 346.165ZM47.1731 351.343C46.4412 353.253 47.2119 354.067 49.7478 354.067C51.7565 354.067 53.0562 353.135 52.6682 351.97C51.5801 348.699 48.3282 348.328 47.1731 351.343ZM36.3186 354.067C32.2096 358.617 35.5427 358.657 40.9726 354.126C44.1364 351.486 44.4608 350.638 42.3234 350.592C40.7768 350.561 38.0733 352.124 36.3186 354.067Z" fill="#005D04"></path>
  </g>
  <defs>
    <clipPath id="clip0_206_8">
      <rect width="400" height="400" fill="white"></rect>
    </clipPath>
  </defs>
</svg>
