<?xml version="1.0" standalone="no"?>
<!DOCTYPE svg PUBLIC "-//W3C//DTD SVG 20010904//EN"
 "http://www.w3.org/TR/2001/REC-SVG-20010904/DTD/svg10.dtd">
<svg version="1.0" xmlns="http://www.w3.org/2000/svg"
 width="700.000000pt" height="700.000000pt" viewBox="0 0 700.000000 700.000000"
 preserveAspectRatio="xMidYMid meet">
<metadata>
Created by potrace 1.14, written by Peter Selinger 2001-2017
</metadata>
<g transform="translate(0.000000,700.000000) scale(0.100000,-0.100000)"
fill="#000000" stroke="none">
<path d="M3407 6604 c-1 -1 -49 -5 -107 -8 -112 -7 -164 -12 -220 -21 -19 -3
-53 -8 -75 -11 -164 -23 -511 -118 -640 -174 -276 -120 -414 -193 -585 -309
-128 -86 -152 -103 -166 -116 -6 -5 -26 -21 -45 -35 -195 -145 -495 -470 -644
-698 l-29 -44 -65 6 c-36 4 -77 8 -91 11 -103 17 -297 29 -495 30 l-189 0 0
-130 c1 -129 11 -366 18 -401 2 -11 7 -51 10 -89 4 -39 8 -80 10 -90 2 -11 7
-42 10 -70 48 -340 149 -718 268 -1000 20 -47 27 -85 32 -170 4 -60 9 -121 11
-135 3 -14 7 -45 10 -70 7 -63 32 -197 55 -295 6 -27 13 -57 15 -65 12 -50 72
-239 102 -320 86 -232 276 -578 407 -745 183 -232 321 -380 477 -511 26 -22
57 -48 70 -59 58 -48 232 -172 314 -223 261 -162 616 -312 884 -373 25 -6 53
-12 61 -14 55 -13 222 -45 255 -49 22 -3 63 -8 90 -11 28 -4 68 -7 90 -8 22
-1 45 -5 50 -8 20 -11 470 2 542 15 10 2 43 7 73 10 66 8 139 20 250 42 131
27 350 95 510 159 95 39 338 159 395 195 17 11 44 27 60 36 115 65 349 242
478 363 130 121 254 254 322 346 17 22 36 46 43 53 26 29 144 203 203 303 159
267 278 563 349 864 20 86 50 248 56 304 2 19 5 48 8 65 23 144 23 562 1 686
-2 8 -7 44 -11 80 -4 36 -9 67 -9 70 -1 3 -5 28 -9 55 -4 28 -14 75 -21 105
-8 30 -16 69 -19 85 -3 17 -12 53 -19 80 -14 50 -14 51 24 129 125 255 263
686 314 976 3 19 10 53 15 75 14 61 31 168 45 280 4 33 9 68 11 77 1 9 5 52 9
95 3 43 8 92 10 108 16 118 27 523 14 540 -4 6 -67 9 -156 9 -270 -3 -551 -27
-803 -70 -14 -2 -54 -9 -90 -15 -101 -16 -281 -56 -430 -95 -127 -33 -422
-127 -445 -142 -5 -4 -25 -12 -43 -18 -31 -11 -41 -8 -147 42 -194 92 -423
172 -645 223 -73 17 -128 26 -335 56 -71 10 -430 25 -438 19z"/>
</g>
</svg>
