<svg id="Layer_1" height="512" viewBox="0 0 128 128" width="512" xmlns="http://www.w3.org/2000/svg" data-name="Layer 1"><path d="m74.654 28.252a9.7 9.7 0 0 0 12.542-1c3.41-3.41 4.15-14.057 4.264-16.156a1.75 1.75 0 0 0 -1.842-1.842c-2.1.114-12.746.853-16.156 4.264a9.728 9.728 0 0 0 -1.239 12.218l-5.77 5.557a13.2 13.2 0 0 0 -2.879 4.853 18.755 18.755 0 0 0 -3.156-4.351l-.434-.486a12.26 12.26 0 0 0 -.658-16.6c-4.446-4.446-19.268-5.369-20.942-5.46a1.75 1.75 0 0 0 -1.842 1.842c.09 1.675 1.014 16.5 5.46 20.941a12.267 12.267 0 0 0 15.364 1.591l.492.551a15.418 15.418 0 0 1 4.35 9.906h-18.208a1.75 1.75 0 0 0 -1.75 1.75v8.5a1.75 1.75 0 0 0 1.75 1.753h3.375v46.042a16.625 16.625 0 0 0 33.25 0v-46.042h3.375a1.75 1.75 0 0 0 1.75-1.75v-8.5a1.75 1.75 0 0 0 -1.75-1.749h-18.225c.126-4.744 1.21-8.32 3.146-10.312zm-.538-7.868a6.173 6.173 0 0 1 1.819-4.393c1.648-1.648 7.507-2.685 11.88-3.094-.428 4.544-1.52 10.3-3.095 11.879a6.2 6.2 0 0 1 -7.47.974l5-4.817a1.75 1.75 0 1 0 -2.428-2.521l-5.01 4.828a6.182 6.182 0 0 1 -.696-2.857zm-29.64 9.178c-2.359-2.359-3.8-10.766-4.3-16.674 5.909.5 14.315 1.941 16.675 4.3a8.759 8.759 0 0 1 .773 11.475l-6.592-7.39a1.75 1.75 0 1 0 -2.612 2.327l6.572 7.366a8.76 8.76 0 0 1 -10.516-1.404zm17.774 26.521v19.727c-3.628.434-7.443-.749-11.375-3.509v-16.218zm1.75 59.167a13.14 13.14 0 0 1 -13.125-13.125v-25.645a18.788 18.788 0 0 0 11.375 2.871v19.218a1.75 1.75 0 1 0 3.5 0v-19.8a19.577 19.577 0 0 1 11.375 1.589v21.77a13.14 13.14 0 0 1 -13.125 13.122zm13.125-38.688a23.394 23.394 0 0 0 -11.375-1.331v-19.148h11.375zm5.125-23.979h-36.5v-5h36.5z"/></svg>